<svg xmlns="http://www.w3.org/2000/svg" width="78.501" height="81.344" viewBox="0 0 78.501 81.344">
  <g id="Grupo_1102528" data-name="Grupo 1102528" transform="translate(-219.499 -19927.107)">
    <path id="_12068" data-name="12068" d="M72.033,71.913c-8.038-1.11-16.53-.839-23.844,2.675C38.045,79.46,31.382,90.507,31.127,101.757s5.606,22.305,14.66,28.988,21,9.051,32.068,7.045c11.165-2.023,21.645-8.583,27.469-18.322,3.735-6.245,5.48-13.956,3.417-20.934a28.6,28.6,0,0,0-6.787-11.156A50.145,50.145,0,0,0,72.033,71.913Z" transform="translate(188.38 19869.971)" fill="#26aab7"/>
    <g id="Grupo_1102242" data-name="Grupo 1102242" transform="translate(218.539 19926.107)">
      <g id="Grupo_1102250" data-name="Grupo 1102250" transform="translate(2.258 2.258)">
        <g id="Grupo_1102242-2" data-name="Grupo 1102242" transform="translate(0)">
          <path id="Trazado_880673" data-name="Trazado 880673" d="M42.245,22.122A20.122,20.122,0,1,1,22.122,2,20.117,20.117,0,0,1,42.245,22.122Z" transform="translate(-2 -2)" fill="#e6e9ed"/>
        </g>
        <g id="Grupo_1102243" data-name="Grupo 1102243" transform="translate(7.546 7.546)">
          <path id="Trazado_880674" data-name="Trazado 880674" d="M33.153,20.577A12.577,12.577,0,1,1,20.577,8,12.581,12.581,0,0,1,33.153,20.577Z" transform="translate(-8 -8)" fill="#62529b"/>
        </g>
        <g id="Grupo_1102244" data-name="Grupo 1102244" transform="translate(12.577 12.577)">
          <circle id="Elipse_12023" data-name="Elipse 12023" cx="7.546" cy="7.546" r="7.546" fill="#7d6eb2"/>
        </g>
        <g id="Grupo_1102245" data-name="Grupo 1102245" transform="translate(37.73 60.367)">
          <path id="Trazado_880675" data-name="Trazado 880675" d="M34.515,50H59.668a7.546,7.546,0,0,0,0,15.092H34.515A2.523,2.523,0,0,1,32,62.577V52.515A2.523,2.523,0,0,1,34.515,50Z" transform="translate(-32 -50)" fill="#aee6e6"/>
        </g>
        <g id="Grupo_1102246" data-name="Grupo 1102246" transform="translate(37.73 40.245)">
          <path id="Trazado_880676" data-name="Trazado 880676" d="M34.515,34H59.668a7.546,7.546,0,0,0,0,15.092H34.515A2.523,2.523,0,0,1,32,46.577V36.515A2.523,2.523,0,0,1,34.515,34Z" transform="translate(-32 -34)" fill="#aee6e6"/>
        </g>
        <g id="Grupo_1102247" data-name="Grupo 1102247" transform="translate(57.852 60.367)">
          <path id="Trazado_880677" data-name="Trazado 880677" d="M61.683,53.157a7.458,7.458,0,0,1,1.409,4.389,7.547,7.547,0,1,1-1.409-4.389Z" transform="translate(-48 -50)" fill="#aee6e6"/>
        </g>
        <g id="Grupo_1102248" data-name="Grupo 1102248" transform="translate(57.852 40.245)">
          <path id="Trazado_880678" data-name="Trazado 880678" d="M61.683,37.157a7.458,7.458,0,0,1,1.409,4.389,7.547,7.547,0,1,1-1.409-4.389Z" transform="translate(-48 -34)" fill="#aee6e6"/>
        </g>
        <g id="Grupo_1102249" data-name="Grupo 1102249" transform="translate(57.852 12.577)">
          <path id="Trazado_880679" data-name="Trazado 880679" d="M65.607,12H50.515L48,19.546l2.515,7.546H65.607l-2.515-7.546Z" transform="translate(-48 -12)" fill="#26aab7"/>
        </g>
      </g>
      <path id="Trazado_880680" data-name="Trazado 880680" d="M43.7,23.638H59.2l2.515,7.546H79.461l-2.934-8.8,2.934-8.8H61.718L59.2,21.122H43.7A21.366,21.366,0,1,0,21.122,43.7v23.96A3.778,3.778,0,0,0,24.9,71.429H38.73V75.2A3.778,3.778,0,0,0,42.5,78.975H67.656a8.8,8.8,0,0,0,7.7-13.059l3.3-3.713-1.88-1.671L73.8,63.879a8.776,8.776,0,0,0-6.146-2.512H42.5A3.778,3.778,0,0,0,38.73,65.14v3.773H24.9a1.26,1.26,0,0,1-1.258-1.258V51.306H38.73v3.773A3.778,3.778,0,0,0,42.5,58.852H67.656a8.8,8.8,0,0,0,7.7-13.059l3.3-3.713-1.88-1.671L73.8,43.756a8.776,8.776,0,0,0-6.146-2.512H42.5a3.778,3.778,0,0,0-3.773,3.773v3.773H23.638V43.7A21.373,21.373,0,0,0,43.7,23.638ZM72.128,65.762,67.6,70.854l-2.83-2.83L62.994,69.8l2.9,2.9a2.435,2.435,0,0,0,1.717.711h.07a2.439,2.439,0,0,0,1.742-.812l4.107-4.621a6.211,6.211,0,0,1,.418,2.195,6.307,6.307,0,1,1-1.816-4.409ZM41.245,65.14A1.26,1.26,0,0,1,42.5,63.883h19a8.777,8.777,0,0,0,0,12.577h-19A1.26,1.26,0,0,1,41.245,75.2Zm30.883-19.5L67.6,50.731l-2.83-2.83L62.994,49.68l2.9,2.9a2.435,2.435,0,0,0,1.717.711h.07a2.439,2.439,0,0,0,1.742-.812l4.107-4.621a6.211,6.211,0,0,1,.418,2.195,6.307,6.307,0,1,1-1.816-4.409Zm-30.883-.621A1.26,1.26,0,0,1,42.5,43.76h19a8.777,8.777,0,0,0,0,12.577h-19a1.26,1.26,0,0,1-1.258-1.258Zm20.61-21.38H66.75l1.676,5.031H63.532Zm9.222,5.031L69.4,23.638H74.3l1.678,5.031Zm3.217-7.546H69.4l1.676-5.031h4.895ZM63.532,16.092h4.895L66.75,21.122H61.855ZM3.515,22.38a18.853,18.853,0,0,1,37.666-1.258H36.15a13.834,13.834,0,1,0,0,2.515h5.031A18.853,18.853,0,0,1,3.515,22.38Zm27.568-1.258a8.8,8.8,0,1,0,0,2.515h2.542a11.319,11.319,0,1,1,0-2.515Zm-2.542,2.515a6.288,6.288,0,1,1,0-2.515H21.122v2.515Z"/>
    </g>
  </g>
</svg>
