<svg xmlns="http://www.w3.org/2000/svg" xmlns:xlink="http://www.w3.org/1999/xlink" width="389" height="391.08" viewBox="0 0 389 391.08">
  <defs>
    <clipPath id="clip-path">
      <rect id="Rectángulo_401717" data-name="Rectángulo 401717" width="323.815" height="330.314" fill="none"/>
    </clipPath>
    <clipPath id="clip-path-12">
      <rect id="Rectángulo_401712" data-name="Rectángulo 401712" width="108.507" height="68.131" fill="none"/>
    </clipPath>
    <clipPath id="clip-path-15">
      <rect id="Rectángulo_401715" data-name="Rectángulo 401715" width="107.501" height="79.323" fill="none"/>
    </clipPath>
  </defs>
  <g id="Grupo_1102110" data-name="Grupo 1102110" transform="translate(-238.059 -3641.296)">
    <g id="Grupo_1101255" data-name="Grupo 1101255" transform="translate(227.059 3641.296)">
      <g id="Grupo_1101254" data-name="Grupo 1101254" transform="translate(0 0)">
        <g id="Grupo_1101188" data-name="Grupo 1101188" transform="translate(15.117 2.497)">
          <path id="Trazado_873105" data-name="Trazado 873105" d="M417.51,417.276a2.3,2.3,0,1,0-.153-3.564A2.282,2.282,0,0,0,417.51,417.276Z" transform="translate(-36.261 -173.404)" fill="#ffd947"/>
          <path id="Trazado_873106" data-name="Trazado 873106" d="M303.552,45.823a2.3,2.3,0,1,0-.153-3.564A2.282,2.282,0,0,0,303.552,45.823Z" transform="translate(3.465 -31.79)" fill="#7d6eb2"/>
          <path id="Trazado_873110" data-name="Trazado 873110" d="M391.223,442.987a5,5,0,1,0-2.448-7.136A5.032,5.032,0,0,0,391.223,442.987Z" transform="translate(-33.5 -175.368)" fill="#ffd947"/>
          <path id="Trazado_873111" data-name="Trazado 873111" d="M177.076,59.123a5,5,0,1,0-2.448-7.136A5.032,5.032,0,0,0,177.076,59.123Z" transform="translate(-122.475 -49.533)" fill="#7d6eb2"/>
          <path id="Trazado_873113" data-name="Trazado 873113" d="M322.521,69.955a5,5,0,1,0-2.448-7.136A5.033,5.033,0,0,0,322.521,69.955Z" transform="translate(1.833 -33.6)" fill="#ffd947"/>
          <ellipse id="Elipse_11484" data-name="Elipse 11484" cx="2.451" cy="2.451" rx="2.451" ry="2.451" transform="translate(25.113 286.489)" fill="none" stroke="#26aab7" stroke-linecap="round" stroke-linejoin="round" stroke-width="1.5"/>
          <ellipse id="Elipse_11486" data-name="Elipse 11486" cx="2.451" cy="2.451" rx="2.451" ry="2.451" transform="translate(315.769 271.563)" fill="none" stroke="#fff" stroke-linecap="round" stroke-linejoin="round" stroke-width="1.5"/>
          <ellipse id="Elipse_11487" data-name="Elipse 11487" cx="2.451" cy="2.451" rx="2.451" ry="2.451" transform="translate(0 139.997)" fill="none" stroke="#7d6eb2" stroke-linecap="round" stroke-linejoin="round" stroke-width="1.5"/>
          <ellipse id="Elipse_11488" data-name="Elipse 11488" cx="2.451" cy="2.451" rx="2.451" ry="2.451" transform="translate(296.205 180.071)" fill="none" stroke="#aee6e6" stroke-linecap="round" stroke-linejoin="round" stroke-width="1.5"/>
          <ellipse id="Elipse_11489" data-name="Elipse 11489" cx="2.451" cy="2.451" rx="2.451" ry="2.451" transform="translate(24.282 27.177)" fill="none" stroke="#7d6eb2" stroke-linecap="round" stroke-linejoin="round" stroke-width="1.5"/>
        </g>
        <g id="Grupo_1101189" data-name="Grupo 1101189" transform="translate(11)">
          <g id="Grupo_1101138" data-name="Grupo 1101138">
            <path id="Trazado_873116" data-name="Trazado 873116" d="M233,73.9c-39.664-4.906-81.563-3.706-117.656,11.821C65.293,107.253,32.419,156.074,31.159,205.8s27.66,98.579,72.337,128.113,103.6,40,158.236,31.135c55.094-8.942,106.806-37.934,135.544-80.974,18.428-27.6,27.042-61.678,16.861-92.516-6.146-18.614-18.711-35.105-33.49-49.3C344.007,107.053,293.051,81.327,233,73.9Z" transform="translate(-31.119 5.163)" fill="#ffd947"/>
            <g id="Grupo_1098987" data-name="Grupo 1098987" transform="translate(33.091)">
              <path id="Trazado_873103" data-name="Trazado 873103" d="M379.2,94.186a2.242,2.242,0,1,0-.15-3.481A2.228,2.228,0,0,0,379.2,94.186Z" transform="translate(-93.782 -90.172)" fill="#fff"/>
              <path id="Trazado_873104" data-name="Trazado 873104" d="M149.827,396.729a2.242,2.242,0,1,0-.15-3.481A2.229,2.229,0,0,0,149.827,396.729Z" transform="translate(-92.227 -74.075)" fill="#fff"/>
              <path id="Trazado_873105-2" data-name="Trazado 873105" d="M417.488,417.18a2.242,2.242,0,1,0-.149-3.481A2.229,2.229,0,0,0,417.488,417.18Z" transform="translate(-123.856 -76.492)" fill="#ffd947"/>
              <path id="Trazado_873106-2" data-name="Trazado 873106" d="M303.53,45.727a2.242,2.242,0,1,0-.15-3.481A2.229,2.229,0,0,0,303.53,45.727Z" transform="translate(-3.688 18.561)" fill="#7d6eb2"/>
              <path id="Trazado_873108" data-name="Trazado 873108" d="M104.858,429.045a2.241,2.241,0,1,0-.15-3.481A2.229,2.229,0,0,0,104.858,429.045Z" transform="translate(-86.914 -77.894)" fill="#fff"/>
              <path id="Trazado_873109" data-name="Trazado 873109" d="M340.341,407.17a4.887,4.887,0,1,0-2.391-6.969A4.915,4.915,0,0,0,340.341,407.17Z" transform="translate(-114.491 -74.676)" fill="#fff"/>
              <path id="Trazado_873110-2" data-name="Trazado 873110" d="M391.151,442.763a4.886,4.886,0,1,0-2.391-6.969A4.915,4.915,0,0,0,391.151,442.763Z" transform="translate(-120.495 -78.882)" fill="#ffd947"/>
              <path id="Trazado_873111-2" data-name="Trazado 873111" d="M177,58.9a4.886,4.886,0,1,0-2.391-6.969A4.915,4.915,0,0,0,177,58.9Z" transform="translate(-120.764 1.049)" fill="#7d6eb2"/>
              <path id="Trazado_873113-2" data-name="Trazado 873113" d="M322.449,69.731a4.887,4.887,0,1,0-2.391-6.969A4.915,4.915,0,0,0,322.449,69.731Z" transform="translate(-5.675 26.468)" fill="#ffd947"/>
              <circle id="Elipse_11484-2" data-name="Elipse 11484" cx="2.393" cy="2.393" r="2.393" transform="translate(24.526 293.176)" fill="none" stroke="#26aab7" stroke-linecap="round" stroke-linejoin="round" stroke-width="1.5"/>
              <circle id="Elipse_11485" data-name="Elipse 11485" cx="2.393" cy="2.393" r="2.393" transform="translate(65.623 368.473)" fill="none" stroke="#26aab7" stroke-linecap="round" stroke-linejoin="round" stroke-width="1.5"/>
              <circle id="Elipse_11486-2" data-name="Elipse 11486" cx="2.393" cy="2.393" r="2.393" transform="translate(308.39 279.85)" fill="none" stroke="#fff" stroke-linecap="round" stroke-linejoin="round" stroke-width="1.5"/>
              <circle id="Elipse_11487-2" data-name="Elipse 11487" cx="2.393" cy="2.393" r="2.393" transform="translate(0 162.38)" fill="none" stroke="#7d6eb2" stroke-linecap="round" stroke-linejoin="round" stroke-width="1.5"/>
              <circle id="Elipse_11488-2" data-name="Elipse 11488" cx="2.393" cy="2.393" r="2.393" transform="translate(289.283 198.16)" fill="none" stroke="#aee6e6" stroke-linecap="round" stroke-linejoin="round" stroke-width="1.5"/>
              <circle id="Elipse_11489-2" data-name="Elipse 11489" cx="2.393" cy="2.393" r="2.393" transform="translate(23.714 84.745)" fill="none" stroke="#7d6eb2" stroke-linecap="round" stroke-linejoin="round" stroke-width="1.5"/>
            </g>
          </g>
        </g>
      </g>
    </g>
    <g id="Grupo_1102109" data-name="Grupo 1102109" transform="translate(260.2 3702.062)">
      <g id="Grupo_1102108" data-name="Grupo 1102108" clip-path="url(#clip-path)">
        <g id="Grupo_1102079" data-name="Grupo 1102079">
          <g id="Grupo_1102078" data-name="Grupo 1102078" clip-path="url(#clip-path)">
            <line id="Línea_1694" data-name="Línea 1694" y2="2.517" transform="translate(230.817 0.749)" fill="none" stroke="#263238" stroke-linecap="round" stroke-linejoin="round" stroke-width="2"/>
          </g>
        </g>
        <line id="Línea_1695" data-name="Línea 1695" y2="2.517" transform="translate(230.817 6.103)" fill="none" stroke="#263238" stroke-linecap="round" stroke-linejoin="round" stroke-width="2"/>
        <line id="Línea_1696" data-name="Línea 1696" x2="2.517" transform="translate(226.881 4.684)" fill="none" stroke="#263238" stroke-linecap="round" stroke-linejoin="round" stroke-width="2"/>
        <line id="Línea_1697" data-name="Línea 1697" x2="2.517" transform="translate(232.236 4.684)" fill="none" stroke="#263238" stroke-linecap="round" stroke-linejoin="round" stroke-width="2"/>
        <line id="Línea_1698" data-name="Línea 1698" y2="2.517" transform="translate(13.234 109.008)" fill="none" stroke="#263238" stroke-linecap="round" stroke-linejoin="round" stroke-width="2"/>
        <line id="Línea_1699" data-name="Línea 1699" y2="2.517" transform="translate(13.234 114.362)" fill="none" stroke="#263238" stroke-linecap="round" stroke-linejoin="round" stroke-width="2"/>
        <line id="Línea_1700" data-name="Línea 1700" x2="2.517" transform="translate(9.299 112.943)" fill="none" stroke="#263238" stroke-linecap="round" stroke-linejoin="round" stroke-width="2"/>
        <line id="Línea_1701" data-name="Línea 1701" x2="2.517" transform="translate(14.653 112.943)" fill="none" stroke="#263238" stroke-linecap="round" stroke-linejoin="round" stroke-width="2"/>
        <line id="Línea_1702" data-name="Línea 1702" y2="2.517" transform="translate(311.926 224.624)" fill="none" stroke="#263238" stroke-linecap="round" stroke-linejoin="round" stroke-width="2"/>
        <line id="Línea_1703" data-name="Línea 1703" y2="2.517" transform="translate(311.926 229.978)" fill="none" stroke="#263238" stroke-linecap="round" stroke-linejoin="round" stroke-width="2"/>
        <line id="Línea_1704" data-name="Línea 1704" x2="2.517" transform="translate(307.991 228.56)" fill="none" stroke="#263238" stroke-linecap="round" stroke-linejoin="round" stroke-width="2"/>
        <line id="Línea_1705" data-name="Línea 1705" x2="2.517" transform="translate(313.344 228.56)" fill="none" stroke="#263238" stroke-linecap="round" stroke-linejoin="round" stroke-width="2"/>
        <line id="Línea_1706" data-name="Línea 1706" y2="2.517" transform="translate(100.744 318.377)" fill="none" stroke="#263238" stroke-linecap="round" stroke-linejoin="round" stroke-width="2"/>
        <line id="Línea_1707" data-name="Línea 1707" y2="2.517" transform="translate(100.744 323.732)" fill="none" stroke="#263238" stroke-linecap="round" stroke-linejoin="round" stroke-width="2"/>
        <line id="Línea_1708" data-name="Línea 1708" x2="2.517" transform="translate(96.808 322.313)" fill="none" stroke="#263238" stroke-linecap="round" stroke-linejoin="round" stroke-width="2"/>
        <line id="Línea_1709" data-name="Línea 1709" x2="2.517" transform="translate(102.162 322.313)" fill="none" stroke="#263238" stroke-linecap="round" stroke-linejoin="round" stroke-width="2"/>
        <line id="Línea_1710" data-name="Línea 1710" x1="16.513" y1="38.458" transform="translate(281.474 105.922)" fill="none" stroke="#7d6eb2" stroke-linecap="round" stroke-linejoin="round" stroke-width="2" stroke-dasharray="6 6"/>
        <line id="Línea_1711" data-name="Línea 1711" x1="57.308" y1="8.809" transform="translate(220.69 146.572)" fill="none" stroke="#7d6eb2" stroke-linecap="round" stroke-linejoin="round" stroke-width="2" stroke-dasharray="6 6"/>
        <line id="Línea_1712" data-name="Línea 1712" x1="49.482" y2="22.637" transform="translate(121.25 236.541)" fill="none" stroke="#7d6eb2" stroke-linecap="round" stroke-linejoin="round" stroke-width="2" stroke-dasharray="6 6"/>
        <line id="Línea_1713" data-name="Línea 1713" x1="69.692" y2="11.319" transform="translate(33.83 168.136)" fill="none" stroke="#7d6eb2" stroke-linecap="round" stroke-linejoin="round" stroke-width="2" stroke-dasharray="6 6"/>
        <line id="Línea_1714" data-name="Línea 1714" y1="55.93" x2="23.099" transform="translate(21.84 103.678)" fill="none" stroke="#7d6eb2" stroke-linecap="round" stroke-linejoin="round" stroke-width="2" stroke-dasharray="6 6"/>
        <line id="Línea_1715" data-name="Línea 1715" y1="39.729" x2="17.347" transform="translate(280.64 185.981)" fill="none" stroke="#7d6eb2" stroke-linecap="round" stroke-linejoin="round" stroke-width="2" stroke-dasharray="6 6"/>
        <line id="Línea_1716" data-name="Línea 1716" x1="11.55" y1="31.286" transform="translate(21.839 195.929)" fill="none" stroke="#7d6eb2" stroke-linecap="round" stroke-linejoin="round" stroke-width="2" stroke-dasharray="6 6"/>
        <line id="Línea_1717" data-name="Línea 1717" x1="7.232" y1="21.051" transform="translate(175.4 186.987)" fill="none" stroke="#7d6eb2" stroke-linecap="round" stroke-linejoin="round" stroke-width="2" stroke-dasharray="6 6"/>
        <line id="Línea_1718" data-name="Línea 1718" x1="14.071" y1="8.046" transform="translate(204.334 239.99)" fill="none" stroke="#7d6eb2" stroke-linecap="round" stroke-linejoin="round" stroke-width="2" stroke-dasharray="6 6"/>
        <line id="Línea_1719" data-name="Línea 1719" y1="10.355" x2="42.73" transform="translate(175.4 296.328)" fill="none" stroke="#7d6eb2" stroke-linecap="round" stroke-linejoin="round" stroke-width="2" stroke-dasharray="6 6"/>
        <line id="Línea_1720" data-name="Línea 1720" x2="42.109" y2="8.513" transform="translate(94.63 299.915)" fill="none" stroke="#7d6eb2" stroke-linecap="round" stroke-linejoin="round" stroke-width="2" stroke-dasharray="6 6"/>
        <line id="Línea_1721" data-name="Línea 1721" x1="19.819" y2="10.355" transform="translate(113.143 34.628)" fill="none" stroke="#7d6eb2" stroke-linecap="round" stroke-linejoin="round" stroke-width="2" stroke-dasharray="6 6"/>
        <line id="Línea_1722" data-name="Línea 1722" x1="61.976" y1="14.377" transform="translate(159.329 35.062)" fill="none" stroke="#7d6eb2" stroke-linecap="round" stroke-linejoin="round" stroke-width="2" stroke-dasharray="6 6"/>
        <line id="Línea_1723" data-name="Línea 1723" x1="7.249" y1="37.19" transform="translate(148.142 42.25)" fill="none" stroke="#7d6eb2" stroke-linecap="round" stroke-linejoin="round" stroke-width="2" stroke-dasharray="6 6"/>
        <line id="Línea_1724" data-name="Línea 1724" x2="195.068" y2="195.068" transform="translate(75.344 63.521)" fill="none" stroke="#7d6eb2" stroke-linecap="round" stroke-linejoin="round" stroke-width="2"/>
        <line id="Línea_1725" data-name="Línea 1725" x1="195.068" y2="195.068" transform="translate(75.344 63.521)" fill="none" stroke="#7d6eb2" stroke-linecap="round" stroke-linejoin="round" stroke-width="2"/>
        <g id="Grupo_1102081" data-name="Grupo 1102081">
          <g id="Grupo_1102080" data-name="Grupo 1102080" clip-path="url(#clip-path)">
            <path id="Trazado_880261" data-name="Trazado 880261" d="M164.436,27.971a21.075,21.075,0,1,1,21.075,21.075,21.075,21.075,0,0,1-21.075-21.075" transform="translate(-41.384 -1.736)" fill="#7d6eb2"/>
            <path id="Trazado_880262" data-name="Trazado 880262" d="M181.23,24.025a4.725,4.725,0,0,0-4.584,4.841v5.939a4.861,4.861,0,0,0,4.771,4.818c.027.461.232,2.728,3.578,4.022,1.721.665,6.4,1.049,6.689.7.2-.237-2.292-.491-3.835-2.011a3.3,3.3,0,0,1-1.263-2.713h9.354a4.685,4.685,0,0,0,4.56-4.818V28.866a4.706,4.706,0,0,0-4.56-4.841Z" transform="translate(-44.457 -6.046)" fill="#fff"/>
            <path id="Trazado_880263" data-name="Trazado 880263" d="M200.959,34.222a1.315,1.315,0,1,0-1.315,1.315,1.315,1.315,0,0,0,1.315-1.315" transform="translate(-49.914 -8.282)" fill="#263238"/>
            <path id="Trazado_880264" data-name="Trazado 880264" d="M193.472,34.222a1.315,1.315,0,1,0-1.315,1.315,1.315,1.315,0,0,0,1.315-1.315" transform="translate(-48.03 -8.282)" fill="#263238"/>
            <path id="Trazado_880265" data-name="Trazado 880265" d="M185.985,34.222a1.315,1.315,0,1,0-1.315,1.315,1.315,1.315,0,0,0,1.315-1.315" transform="translate(-46.146 -8.282)" fill="#263238"/>
          </g>
        </g>
        <g id="Grupo_1102083" data-name="Grupo 1102083">
          <g id="Grupo_1102082" data-name="Grupo 1102082" clip-path="url(#clip-path)">
            <path id="Trazado_880266" data-name="Trazado 880266" d="M30.625,247.239a16.006,16.006,0,0,0-1.754-5.6,10.075,10.075,0,0,0-7.628-4.723,10.488,10.488,0,0,0-8.422,2.818,11.729,11.729,0,0,0-3.347,6.846c-.025.222,3.041,4.539,10.153,4.814,7.671.3,11-4.159,11-4.159" transform="translate(-2.384 -59.61)" fill="#263238"/>
            <path id="Trazado_880267" data-name="Trazado 880267" d="M18.84,228.61a3.917,3.917,0,0,1,2.957-4.638,3.823,3.823,0,0,1,4.586,2.936,3.918,3.918,0,0,1-2.957,4.639,3.823,3.823,0,0,1-4.586-2.936" transform="translate(-4.72 -56.344)" fill="#263238"/>
            <path id="Trazado_880268" data-name="Trazado 880268" d="M1,233.25a17.083,17.083,0,1,1,17.083,17.083A17.083,17.083,0,0,1,1,233.25Z" transform="translate(-0.252 -54.403)" fill="none" stroke="#263238" stroke-linecap="round" stroke-linejoin="round" stroke-width="2"/>
          </g>
        </g>
        <g id="Grupo_1102085" data-name="Grupo 1102085">
          <g id="Grupo_1102084" data-name="Grupo 1102084" clip-path="url(#clip-path)">
            <path id="Trazado_880269" data-name="Trazado 880269" d="M98.428,186.607a7.781,7.781,0,1,1,7.781,7.78,7.781,7.781,0,0,1-7.781-7.78" transform="translate(-24.772 -45.006)" fill="#7d6eb2"/>
            <path id="Trazado_880270" data-name="Trazado 880270" d="M105.759,184.545a.648.648,0,0,0-.958.569v5.825a.647.647,0,0,0,.958.568l2.978-1.625,2.357-1.287a.647.647,0,0,0,0-1.137Z" transform="translate(-26.376 -46.425)" fill="#fff"/>
            <circle id="Elipse_12007" data-name="Elipse 12007" cx="12.977" cy="12.977" r="12.977" transform="matrix(0.257, -0.966, 0.966, 0.257, 65.779, 150.813)" fill="none" stroke="#263238" stroke-linecap="round" stroke-linejoin="round" stroke-width="2"/>
          </g>
        </g>
        <g id="Grupo_1102087" data-name="Grupo 1102087">
          <g id="Grupo_1102086" data-name="Grupo 1102086" clip-path="url(#clip-path)">
            <circle id="Elipse_12008" data-name="Elipse 12008" cx="21.303" cy="21.303" r="21.303" transform="translate(280.461 144.38)" fill="none" stroke="#7d6eb2" stroke-linecap="round" stroke-linejoin="round" stroke-width="2"/>
            <path id="Trazado_880271" data-name="Trazado 880271" d="M393.785,224.531a11.4,11.4,0,1,1,4.144,1.876" transform="translate(-97.911 -51.296)" fill="none" stroke="#263238" stroke-linecap="round" stroke-linejoin="round" stroke-width="2"/>
            <path id="Trazado_880272" data-name="Trazado 880272" d="M393.16,231.489a8.449,8.449,0,0,1-2.656,3.687c-2.734,1.759-3.89,1.786-3.89,1.786s4.084.507,6.594-.384a9.073,9.073,0,0,0,4.076-3.214" transform="translate(-97.301 -58.26)" fill="none" stroke="#263238" stroke-linecap="round" stroke-linejoin="round" stroke-width="2"/>
            <path id="Trazado_880273" data-name="Trazado 880273" d="M405.937,213.38c-1.862.052-3.4,3.542-3.4,3.542s-1.246-3.873-3.426-3.454a1.464,1.464,0,0,0-.933.525c-2.592,3.357,4.359,9.4,4.359,9.4s7.316-6.694,4.475-9.621a1.408,1.408,0,0,0-1.078-.394" transform="translate(-100.066 -53.702)" fill="#7d6eb2"/>
          </g>
        </g>
        <g id="Grupo_1102089" data-name="Grupo 1102089">
          <g id="Grupo_1102088" data-name="Grupo 1102088" clip-path="url(#clip-path)">
            <path id="Rectángulo_401707" data-name="Rectángulo 401707" d="M2.332,0H19.179a2.332,2.332,0,0,1,2.332,2.332v9.625a2.331,2.331,0,0,1-2.331,2.331H2.332A2.332,2.332,0,0,1,0,11.956V2.332A2.332,2.332,0,0,1,2.332,0Z" transform="translate(178.171 219.905)" fill="none" stroke="#263238" stroke-linecap="round" stroke-linejoin="round" stroke-width="2"/>
            <path id="Trazado_880274" data-name="Trazado 880274" d="M238.965,294.637l10.1,9.83,10.1-9.83" transform="translate(-60.141 -74.153)" fill="none" stroke="#263238" stroke-linecap="round" stroke-linejoin="round" stroke-width="2"/>
            <path id="Trazado_880275" data-name="Trazado 880275" d="M238.531,310.211l7.28-6.173" transform="translate(-60.032 -76.519)" fill="none" stroke="#263238" stroke-linecap="round" stroke-linejoin="round" stroke-width="2"/>
            <path id="Trazado_880276" data-name="Trazado 880276" d="M263.516,310.211l-7.281-6.173" transform="translate(-64.488 -76.519)" fill="none" stroke="#263238" stroke-linecap="round" stroke-linejoin="round" stroke-width="2"/>
            <path id="Trazado_880277" data-name="Trazado 880277" d="M259.32,293.291a4.2,4.2,0,1,1,4.2,4.2,4.2,4.2,0,0,1-4.2-4.2" transform="translate(-65.264 -72.756)" fill="#7d6eb2"/>
            <path id="Trazado_880278" data-name="Trazado 880278" d="M263.382,292.9l1.565-1.289v4.619" transform="translate(-66.287 -73.391)" fill="none" stroke="#fff" stroke-linecap="round" stroke-linejoin="round" stroke-width="2"/>
            <path id="Trazado_880279" data-name="Trazado 880279" d="M229.386,297.619A17.876,17.876,0,1,1,247.262,315.5,17.876,17.876,0,0,1,229.386,297.619Z" transform="translate(-57.731 -70.404)" fill="none" stroke="#263238" stroke-linecap="round" stroke-linejoin="round" stroke-width="2"/>
          </g>
        </g>
        <g id="Grupo_1102091" data-name="Grupo 1102091">
          <g id="Grupo_1102090" data-name="Grupo 1102090" clip-path="url(#clip-path)">
            <path id="Trazado_880280" data-name="Trazado 880280" d="M182.727,410.206a18.652,18.652,0,1,1,18.651,18.652,18.651,18.651,0,0,1-18.651-18.652" transform="translate(-45.988 -98.544)" fill="#7d6eb2"/>
            <path id="Trazado_880281" data-name="Trazado 880281" d="M200.85,400.7l-.267,1.807a10.3,10.3,0,0,0-1.749.712l-1.5-1.108-3.74,3.706,1,1.46a10.385,10.385,0,0,0-1,2.386l-1.841.339.142,5.259,1.765.268a10.383,10.383,0,0,0,.9,2.107l-.992,1.521,3.828,3.616,1.357-1.055a10.356,10.356,0,0,0,2.029.816l.3,1.814,5.261-.053.3-1.8a10.375,10.375,0,0,0,1.884-.768l1.522,1.067,3.739-3.706-1.049-1.446a10.387,10.387,0,0,0,.983-2.392l1.814-.379-.142-5.26-1.779-.227a10.367,10.367,0,0,0-.893-2.067l1.08-1.569-3.828-3.617-1.493,1.1a10.409,10.409,0,0,0-2.043-.8l-.338-1.78Zm2.782,9.828a1.97,1.97,0,1,1-1.953,1.994,1.974,1.974,0,0,1,1.953-1.994" transform="translate(-48.26 -100.831)" fill="#fff"/>
          </g>
        </g>
        <g id="Grupo_1102093" data-name="Grupo 1102093">
          <g id="Grupo_1102092" data-name="Grupo 1102092" clip-path="url(#clip-path)">
            <path id="Trazado_880282" data-name="Trazado 880282" d="M381.919,83.645a45.033,45.033,0,1,1-52.895-56.926" transform="translate(-73.928 -6.724)" fill="none" stroke="#263238" stroke-linecap="round" stroke-linejoin="round" stroke-width="2"/>
            <path id="Trazado_880283" data-name="Trazado 880283" d="M359.3,17.351A8.6,8.6,0,0,0,361.617,23a22.224,22.224,0,0,0,6.858,4.508l-.647,1.587a6.42,6.42,0,0,0,4.523-1.919c2.2-2.449,2.786-6.849,1-9.377a7.5,7.5,0,0,0-5.324-3.014,12.657,12.657,0,0,0-3.816-5.427c-3.6-3.091-11.529-4.28-15.272-.576a8.073,8.073,0,0,0-2.055,5.865,7.558,7.558,0,0,0,2.616,4.326,13.3,13.3,0,0,0,5.6-.015,18.238,18.238,0,0,0,4.207-1.607" transform="translate(-87.29 -1.631)" fill="#263238"/>
            <line id="Línea_1726" data-name="Línea 1726" x1="1.133" y2="5.127" transform="translate(280.23 9.118)" fill="none" stroke="#263238" stroke-linecap="round" stroke-linejoin="round" stroke-width="2"/>
            <line id="Línea_1727" data-name="Línea 1727" x1="3.917" y2="3.497" transform="translate(279.263 11.221)" fill="none" stroke="#263238" stroke-linecap="round" stroke-linejoin="round" stroke-width="2"/>
            <line id="Línea_1728" data-name="Línea 1728" x1="1.133" y2="5.127" transform="translate(280.23 9.118)" fill="none" stroke="#263238" stroke-linecap="round" stroke-linejoin="round" stroke-width="2"/>
            <path id="Trazado_880284" data-name="Trazado 880284" d="M323.877,130.059s6.742,5.426,21.427,6.23a42.1,42.1,0,0,0,23.32-5.96s1.994-2.014,1.994-8c0-7.431-7.775-10.227-7.775-10.227l-30.556-.52Z" transform="translate(-81.512 -28.083)" fill="#ffc051"/>
            <path id="Trazado_880285" data-name="Trazado 880285" d="M290.109,68.126A128.917,128.917,0,0,1,309.267,55.4c11.17-6.054,19.943-6.2,26.952-5.221,14.238,1.985,20.661,10.055,20.661,10.055a24.636,24.636,0,0,1,14.65-4.549c9.383.421,17.811,25.273,16.155,38.585s-13.079,16.706-22.778,14.663a38.342,38.342,0,0,1-13.555-5.587s-9.543,6.163-20.676,6.163c-18.66,0-23.722-11.577-23.722-11.577s-8.9,8.937-20.678,8.937c-5.214,0-17.33-.572-25.264-21.536-2.914-7.7-7.969-26.929,5.213-31.726,15.948-5.8,23.884,14.518,23.884,14.518" transform="translate(-64.827 -12.515)" fill="#26aab7"/>
            <path id="Trazado_880286" data-name="Trazado 880286" d="M324.274,70.582s-4.834,7.085-5.389,14.755c-.443,6.123.555,9.57,2.307,14.28a25.892,25.892,0,0,0,6.352,9.575" transform="translate(-80.229 -17.764)" fill="none" stroke="#263238" stroke-linecap="round" stroke-linejoin="round" stroke-width="2"/>
            <path id="Trazado_880287" data-name="Trazado 880287" d="M388.516,65.358s-3.671,3.02-2.284,17.809a39.378,39.378,0,0,0,2.779,11.415" transform="translate(-97.126 -16.449)" fill="none" stroke="#263238" stroke-linecap="round" stroke-linejoin="round" stroke-width="2"/>
            <path id="Trazado_880288" data-name="Trazado 880288" d="M355.068,56.155a1.47,1.47,0,1,1,1.277,1.64,1.469,1.469,0,0,1-1.277-1.64" transform="translate(-89.359 -13.808)" fill="#fff"/>
            <path id="Trazado_880289" data-name="Trazado 880289" d="M354.253,62.719a1.47,1.47,0,1,1,1.277,1.64,1.469,1.469,0,0,1-1.277-1.64" transform="translate(-89.154 -15.46)" fill="#fff"/>
            <path id="Trazado_880290" data-name="Trazado 880290" d="M350.718,28.111a1,1,0,0,1,1.221.742,1.045,1.045,0,0,1-.768,1.24,1.017,1.017,0,0,1-.452-1.982" transform="translate(-88.071 -7.068)" fill="#263238"/>
            <path id="Trazado_880291" data-name="Trazado 880291" d="M360.078,30.323a1,1,0,0,1,1.152.838,1.042,1.042,0,0,1-.866,1.169,1.014,1.014,0,0,1-.287-2.007" transform="translate(-90.406 -7.628)" fill="#263238"/>
            <path id="Trazado_880292" data-name="Trazado 880292" d="M348.395,29.073a10.569,10.569,0,0,1,10.248-10.731,10.313,10.313,0,0,1,10.6,10.167A10.57,10.57,0,0,1,359,39.239,10.313,10.313,0,0,1,348.395,29.073Z" transform="translate(-87.682 -4.615)" fill="none" stroke="#263238" stroke-linecap="round" stroke-linejoin="round" stroke-width="2"/>
            <path id="Trazado_880293" data-name="Trazado 880293" d="M363.524,35.448a1.08,1.08,0,1,0-1.487.38,1.084,1.084,0,0,0,1.487-.38" transform="translate(-90.984 -8.508)" fill="#7d6eb2"/>
            <path id="Trazado_880294" data-name="Trazado 880294" d="M354.416,30.806l-2.44,3.225,2.018.159" transform="translate(-88.583 -7.753)" fill="none" stroke="#263238" stroke-linecap="round" stroke-linejoin="round" stroke-width="2"/>
            <path id="Trazado_880295" data-name="Trazado 880295" d="M364.59,32.7a4.178,4.178,0,1,0-5.669,1.773A4.2,4.2,0,0,0,364.59,32.7Z" transform="translate(-89.775 -6.676)" fill="none" stroke="#aee6e6" stroke-linecap="round" stroke-linejoin="round" stroke-width="2"/>
            <path id="Trazado_880296" data-name="Trazado 880296" d="M351.521,28.9a3.643,3.643,0,1,0-4.943,1.545A3.663,3.663,0,0,0,351.521,28.9Z" transform="translate(-86.74 -5.921)" fill="none" stroke="#aee6e6" stroke-linecap="round" stroke-linejoin="round" stroke-width="2"/>
            <line id="Línea_1729" data-name="Línea 1729" x1="1.935" y1="0.513" transform="translate(264.938 22.497)" fill="none" stroke="#aee6e6" stroke-linecap="round" stroke-linejoin="round" stroke-width="2"/>
            <path id="Trazado_880297" data-name="Trazado 880297" d="M374.972,23.183a2.671,2.671,0,0,1,3.409-1.771l9.306,1.213a2.848,2.848,0,0,1,1.518,3.641l-6.892,19.726a2.67,2.67,0,0,1-3.409,1.771L369.6,46.551a2.848,2.848,0,0,1-1.518-3.641Z" transform="translate(-92.592 -5.349)" fill="#7d6eb2"/>
            <path id="Trazado_880298" data-name="Trazado 880298" d="M398.758,54.312s1.627-8.449-1.17-14.494c-4.239-9.163-15.258-10.8-16.573-7.044-.613,1.75,2.7,1.138,5.357,3.124a17.615,17.615,0,0,1,3.252,2.912,16.128,16.128,0,0,0-5.678-4.165c-5.8-2.116-5.832,2.52-5.832,2.52a26.321,26.321,0,0,1,4.917,2.169,17.063,17.063,0,0,1,3.149,2.4,22.08,22.08,0,0,0-4.09-2.852c-2.367-1.258-4.229-1.929-4.869.155-.879,2.868,8.421,7.471,8.421,7.471a14.378,14.378,0,0,0,1.182,6.229,7.657,7.657,0,0,0,4.728,4.48" transform="translate(-94.922 -7.775)" fill="none" stroke="#263238" stroke-linecap="round" stroke-linejoin="round" stroke-width="2"/>
            <line id="Línea_1730" data-name="Línea 1730" x1="6.952" y2="20.262" transform="translate(277.998 18.147)" fill="none" stroke="#fff" stroke-linecap="round" stroke-linejoin="round" stroke-width="2"/>
            <path id="Trazado_880299" data-name="Trazado 880299" d="M353.763,38.7a3.168,3.168,0,0,0,1.826-.184,2.313,2.313,0,0,0,1.244-1.233" transform="translate(-89.033 -9.384)" fill="none" stroke="#263238" stroke-linecap="round" stroke-linejoin="round" stroke-width="2"/>
            <path id="Trazado_880300" data-name="Trazado 880300" d="M278.514,52a32.034,32.034,0,0,0,4.235-9.086c1.434-5.336,2.172-10.921-.037-11.27-3.418-.54-5.71,9.478-5.71,9.478a12.55,12.55,0,0,0-4.184-.292,11.585,11.585,0,0,0-4.025,1.64" transform="translate(-67.648 -7.96)" fill="none" stroke="#263238" stroke-linecap="round" stroke-linejoin="round" stroke-width="2"/>
            <path id="Trazado_880301" data-name="Trazado 880301" d="M275.021,35.581s-1.146-12.213-4.149-13.262-1.432,12.086-1.432,12.086-3.4-11.915-6.062-11.357,1.485,12.264,1.485,12.264-3.938-10.218-6.552-8.565c-1.991,1.258.51,9.666,2.535,15.326a81.415,81.415,0,0,0,4.663,9.163" transform="translate(-64.827 -5.602)" fill="none" stroke="#263238" stroke-linecap="round" stroke-linejoin="round" stroke-width="2"/>
          </g>
        </g>
        <g id="Grupo_1102095" data-name="Grupo 1102095">
          <g id="Grupo_1102094" data-name="Grupo 1102094" clip-path="url(#clip-path)">
            <path id="Trazado_880302" data-name="Trazado 880302" d="M341.7,298.83a1.134,1.134,0,0,1,1.161,1.125,1.183,1.183,0,0,1-1.158,1.176,1.15,1.15,0,0,1,0-2.3" transform="translate(-85.711 -75.208)" fill="#263238"/>
            <path id="Trazado_880303" data-name="Trazado 880303" d="M332.511,296.075a1.133,1.133,0,0,1,1.161,1.125,1.181,1.181,0,0,1-1.158,1.176,1.15,1.15,0,0,1,0-2.3" transform="translate(-83.399 -74.514)" fill="#263238"/>
            <path id="Trazado_880304" data-name="Trazado 880304" d="M331.377,291.471a13.359,13.359,0,0,0,6.5-.661,12.642,12.642,0,0,0,4.1-2.9,14.664,14.664,0,0,0,2.65,7.188c1.643,2.143,6,3.545,6,3.545" transform="translate(-83.399 -72.459)" fill="none" stroke="#263238" stroke-linecap="round" stroke-linejoin="round" stroke-width="2"/>
            <path id="Trazado_880305" data-name="Trazado 880305" d="M329.1,301.849a11.273,11.273,0,0,1,5.819-14.718,11,11,0,0,1,14.557,5.79,11.271,11.271,0,0,1-5.819,14.717A11,11,0,0,1,329.1,301.849Z" transform="translate(-82.6 -72.029)" fill="none" stroke="#263238" stroke-linecap="round" stroke-linejoin="round" stroke-width="2"/>
            <path id="Trazado_880306" data-name="Trazado 880306" d="M346.066,304.848a1.48,1.48,0,1,0-2.091.23,1.488,1.488,0,0,0,2.091-.23" transform="translate(-86.432 -76.113)" fill="#7d6eb2"/>
            <path id="Trazado_880307" data-name="Trazado 880307" d="M338.976,307.3a2.619,2.619,0,0,1-1.859,1.151,3.541,3.541,0,0,1-2.789-1.29" transform="translate(-84.142 -77.305)" fill="none" stroke="#263238" stroke-linecap="round" stroke-linejoin="round" stroke-width="2"/>
            <path id="Trazado_880308" data-name="Trazado 880308" d="M340.659,304.772a4.56,4.56,0,0,0,.835,3.2,4.935,4.935,0,0,0,2.851,1.442" transform="translate(-85.729 -76.703)" fill="none" stroke="#263238" stroke-linecap="round" stroke-linejoin="round" stroke-width="2"/>
            <path id="Trazado_880309" data-name="Trazado 880309" d="M337.124,297.531l-3.245,3.873,2.388.685" transform="translate(-84.029 -74.881)" fill="none" stroke="#263238" stroke-linecap="round" stroke-linejoin="round" stroke-width="2"/>
            <path id="Trazado_880310" data-name="Trazado 880310" d="M356.789,283.594s6.421-16.371,12.906-12.118c2.822,1.851,1.525,6.695-1.337,8.657C364.084,283.067,356.789,283.594,356.789,283.594Z" transform="translate(-89.795 -68.146)" fill="none" stroke="#263238" stroke-linecap="round" stroke-linejoin="round" stroke-width="2"/>
            <path id="Trazado_880311" data-name="Trazado 880311" d="M321.828,394.01l-5.658,9.376a51.424,51.424,0,0,0,26.35,7.436c12.509-.123,23.682-6.628,23.682-6.628l-7.679-9.78Z" transform="translate(-79.572 -99.162)" fill="#263238"/>
            <path id="Trazado_880312" data-name="Trazado 880312" d="M343.62,301.3c20.787,3.861,36.492,21.545,36.492,42.778,0,24.058-20.162,43.56-45.033,43.56s-45.033-19.5-45.033-43.56c0-16.327,10.908-33.216,25.59-39.893" transform="translate(-72.997 -75.829)" fill="none" stroke="#263238" stroke-linecap="round" stroke-linejoin="round" stroke-width="2"/>
            <path id="Trazado_880313" data-name="Trazado 880313" d="M285.3,352.552s-11.267-12.995-21.967-7.21c-9.335,5.047-8.168,14.86-3.95,22.185s12.6,18.026,23.338,16.373c9.354-1.44,18.9-11.827,18.9-11.827s2.963,6.269,12.529,8.8a46.189,46.189,0,0,0,14.763,1.1s14.09,13.189,30.978,4.524c11.315-5.806,15.966-20.863,12.987-33.939C369.5,337.7,356.368,324.5,340.719,322.5s-25.457,1.089-35,6.86-20.42,23.189-20.42,23.189" transform="translate(-64.484 -81.013)" fill="#aee6e6"/>
            <path id="Trazado_880314" data-name="Trazado 880314" d="M368.184,354.83a18.148,18.148,0,0,0-.372,6.011,20.935,20.935,0,0,0,2.817,8.275s-6-3.485-11.014-2.54-8.033,2.9-10.321,8.4.468,11.544.468,11.544" transform="translate(-87.68 -89.302)" fill="none" stroke="#26aab7" stroke-linecap="round" stroke-linejoin="round" stroke-width="2"/>
            <path id="Trazado_880315" data-name="Trazado 880315" d="M330.189,349.242a2.38,2.38,0,0,0-3-1.529l-8.409.867a2.38,2.38,0,0,0-1.5,3.013l5.461,16.554a2.379,2.379,0,0,0,3,1.529l8.409-.867a2.38,2.38,0,0,0,1.5-3.013Z" transform="translate(-79.821 -87.481)" fill="#fff"/>
            <path id="Trazado_880316" data-name="Trazado 880316" d="M336.167,369.449s-2.258.644-6.578-.447-8.169-4.708-8.651-3.9c-1.037,1.74,1.834,6.816,5.683,7.984a36.479,36.479,0,0,0,6.915,1.411,36.154,36.154,0,0,1-7.247-1.552,10.625,10.625,0,0,1-4.155-3.2,4.339,4.339,0,0,0,.205,4.256c1.12,1.925,2.944,2.537,4.092,3.215a41.4,41.4,0,0,0,4.209,1.389,20.009,20.009,0,0,1-4.191-1.325,12.85,12.85,0,0,1-4.253-3.241s-1.61,3.4,3.375,6.6c7.313,4.7,17.834,3.053,17.834,3.053" transform="translate(-80.718 -91.857)" fill="none" stroke="#263238" stroke-linecap="round" stroke-linejoin="round" stroke-width="2"/>
            <path id="Trazado_880317" data-name="Trazado 880317" d="M338.342,359.847a17,17,0,0,1,7.682,3.844,34.366,34.366,0,0,1,6.459,8.388" transform="translate(-85.152 -90.564)" fill="none" stroke="#263238" stroke-linecap="round" stroke-linejoin="round" stroke-width="2"/>
            <path id="Trazado_880318" data-name="Trazado 880318" d="M331.242,330.789s-1.542,5.166,2.111,5.754c3.315.534,6.506-6.092,6.506-6.092s-.435,6.67,4.095,7.064,6.661-8.235,6.661-8.235" transform="translate(-83.284 -82.871)" fill="none" stroke="#fff" stroke-linecap="round" stroke-linejoin="round" stroke-width="2"/>
            <path id="Trazado_880319" data-name="Trazado 880319" d="M261.074,352.011s-.912-6.885-5.125-8.649-9.117,1.811-9.117,1.811a49.378,49.378,0,0,1-2.975-4.118c-1.2-1.925-2.318-3.716-3.554-3.37s-.822,4.869.709,6.935,2.54,3.236,2.54,3.236a37.694,37.694,0,0,1-2.762-3.387c-2.466-3.822-2.068-4.669-3.48-6.127-1.226-1.265-2.773-.248-2.49,2.919a10.822,10.822,0,0,0,2.892,6.316c1.565,1.9,2.556,3.177,2.556,3.177a7.732,7.732,0,0,1-4.949-2.06c-1.844-1.592-2.58-4.465-3.708-4.029s-1.714,2.97.813,6.4,5.369,5.1,8.67,5.21,8.291-.952,12.495,1.831" transform="translate(-58.047 -84.976)" fill="none" stroke="#263238" stroke-linecap="round" stroke-linejoin="round" stroke-width="2"/>
          </g>
        </g>
        <g id="Grupo_1102100" data-name="Grupo 1102100">
          <g id="Grupo_1102099" data-name="Grupo 1102099" clip-path="url(#clip-path)">
            <path id="Trazado_880320" data-name="Trazado 880320" d="M41.285,402.906l-4.824,8.89s10.518,7.79,24.041,7.895c11.333.088,24.018-5.7,24.018-5.7l-4.292-10.417Z" transform="translate(-9.176 -101.401)" fill="#263238"/>
            <path id="Trazado_880321" data-name="Trazado 880321" d="M41.657,306.827c-12.036,1.888-26.212,11.954-31.213,30.61C4.005,361.46,16.8,386.367,40.615,393.522s52.874-4.5,59.407-30.289c7.965-31.445-16.783-45.722-16.783-45.722" transform="translate(-2.211 -77.22)" fill="none" stroke="#263238" stroke-linecap="round" stroke-linejoin="round" stroke-width="2"/>
            <path id="Trazado_880322" data-name="Trazado 880322" d="M54.292,389.87c9.523-.358,12.345-1.2,19.614-6.031s9.458-13.307,9.458-13.307,20.039,10.9,32.328,3.063,8.084-42.107,1.941-49.009c-4.343-4.879-17.419-6.968-22.7,0-5.6,7.387-1.295,16.986-1.295,16.986s-14.851-10.849-41.158-9.112c-10.527.7-21.544,6.341-28.756,15.073-5.746,6.956-10.285,15.795-10.69,21.092-.043.567,2.972,7.908,7.152,13.275s11.695,10.471,11.695,10.471l3.93-7.1s8.955,4.957,18.478,4.6" transform="translate(-3.281 -80.563)" fill="#26aab7"/>
            <path id="Trazado_880323" data-name="Trazado 880323" d="M83.078,340.823l-2.722,6.808L73.8,341.76l-6.047,7.326-5.491-6.8" transform="translate(-15.671 -85.776)" fill="none" stroke="#fff" stroke-linecap="round" stroke-linejoin="round" stroke-width="2"/>
            <line id="Línea_1731" data-name="Línea 1731" x1="15.246" y2="11.024" transform="translate(97.771 206.554)" fill="none" stroke="#263238" stroke-linecap="round" stroke-linejoin="round" stroke-width="2"/>
            <line id="Línea_1732" data-name="Línea 1732" x1="33.239" y2="3.421" transform="translate(92.09 231.428)" fill="none" stroke="#263238" stroke-linecap="round" stroke-linejoin="round" stroke-width="2"/>
            <path id="Trazado_880324" data-name="Trazado 880324" d="M109.211,311.633l-8.557,1.129-1.383-3.8,10.2-7.145" transform="translate(-24.984 -75.961)" fill="none" stroke="#263238" stroke-linecap="round" stroke-linejoin="round" stroke-width="2"/>
            <path id="Trazado_880325" data-name="Trazado 880325" d="M150.817,275.075A15.385,15.385,0,0,1,163.075,285.3c3.98,10.775.6,15.819.6,15.819a21.169,21.169,0,0,1-11.343-11.575c-3.512-8.435-1.52-14.471-1.52-14.471" transform="translate(-37.815 -69.229)" fill="#263238"/>
            <path id="Trazado_880326" data-name="Trazado 880326" d="M138.78,321.6a21.368,21.368,0,0,0,2.432-4.677,18.039,18.039,0,0,0,.718-5.138" transform="translate(-34.927 -78.469)" fill="none" stroke="#263238" stroke-linecap="round" stroke-linejoin="round" stroke-width="2"/>
            <path id="Trazado_880327" data-name="Trazado 880327" d="M129.016,314.588a6.181,6.181,0,0,0-3.486-2.123,13.728,13.728,0,0,0-5.233.529s-6.377-6.222-8.572-5.167.205,5.954,3.43,9.217a58.081,58.081,0,0,0,6.884,5.49" transform="translate(-27.905 -77.442)" fill="none" stroke="#263238" stroke-linecap="round" stroke-linejoin="round" stroke-width="2"/>
            <path id="Trazado_880328" data-name="Trazado 880328" d="M128.066,290.341a8.314,8.314,0,0,1,3.531,6.63c.043,2.844-1.414,3.5-3.156,1.759s-3.391-5.448-3.3-6.778S126.286,289.293,128.066,290.341Z" transform="translate(-31.495 -72.976)" fill="none" stroke="#263238" stroke-linecap="round" stroke-linejoin="round" stroke-width="2"/>
            <path id="Trazado_880329" data-name="Trazado 880329" d="M122.249,293.381a10.4,10.4,0,0,1,3.7,8.156c-.269,3.055-1.968,3.762-3.813,1.575s-3.309-7.313-3.05-8.721S120.282,291.927,122.249,293.381Z" transform="translate(-29.963 -73.661)" fill="none" stroke="#263238" stroke-linecap="round" stroke-linejoin="round" stroke-width="2"/>
            <path id="Trazado_880330" data-name="Trazado 880330" d="M115.852,296.9a10.413,10.413,0,0,1,3.311,8.159c-.109,3.064-2.019,2.7-3.754.429a14.628,14.628,0,0,1-2.633-6.339C112.427,296.945,113.959,295.349,115.852,296.9Z" transform="translate(-28.37 -74.566)" fill="none" stroke="#263238" stroke-linecap="round" stroke-linejoin="round" stroke-width="2"/>
            <path id="Trazado_880331" data-name="Trazado 880331" d="M153.087,285.55s4.933.5,6.368,4.4a10.11,10.11,0,0,1-.6,7.623" transform="translate(-38.528 -71.866)" fill="none" stroke="#ffc051" stroke-linecap="round" stroke-linejoin="round" stroke-width="2"/>
            <path id="Trazado_880332" data-name="Trazado 880332" d="M87.621,314.072a10.881,10.881,0,1,0-11.1,10.658A10.881,10.881,0,0,0,87.621,314.072Z" transform="translate(-16.576 -76.25)" fill="none" stroke="#263238" stroke-linecap="round" stroke-linejoin="round" stroke-width="2"/>
            <path id="Trazado_880333" data-name="Trazado 880333" d="M75.433,293.656c4.317.692,3.135,5.121,3.135,5.121s3.849-1.726,6.408,1.288c2.576,3.033-1.083,7.089-1.083,7.089a20.759,20.759,0,0,0-4.851-4.56,12.71,12.71,0,0,0-5.33-1.632,18.97,18.97,0,0,1-6.037,9.549,12.347,12.347,0,0,1-5.357,2.881c.792,3.724,5.44,7.365,5.44,7.365s-6.858,4.248-10.3.785c-2.586-2.6-.2-6.729-.2-6.729a5.4,5.4,0,0,1-4.352-6.89c.817-3.689,5.526-5.767,5.526-5.767s-.748-4.257,2.464-6.305c3.873-2.47,8.654.658,8.654.658s2.754-3.353,5.879-2.852" transform="translate(-13.266 -73.893)" fill="#263238"/>
            <path id="Trazado_880334" data-name="Trazado 880334" d="M79.553,317.848a1.26,1.26,0,1,0-1.286,1.234,1.261,1.261,0,0,0,1.286-1.234" transform="translate(-19.387 -79.67)" fill="#ff367c"/>
            <path id="Trazado_880335" data-name="Trazado 880335" d="M82.74,313.853a1.148,1.148,0,1,0-1.171,1.124,1.148,1.148,0,0,0,1.171-1.124" transform="translate(-20.246 -78.694)" fill="#263238"/>
            <path id="Trazado_880336" data-name="Trazado 880336" d="M91.244,310.324a1.148,1.148,0,1,0-1.171,1.125,1.149,1.149,0,0,0,1.171-1.125" transform="translate(-22.386 -77.806)" fill="#263238"/>
            <path id="Trazado_880337" data-name="Trazado 880337" d="M86.911,312.221l3.16,4.209-2.342-.028" transform="translate(-21.873 -78.578)" fill="none" stroke="#263238" stroke-linecap="round" stroke-linejoin="round" stroke-width="2"/>
            <path id="Trazado_880338" data-name="Trazado 880338" d="M81.594,322.62a2.148,2.148,0,1,1,2.62,1.536A2.148,2.148,0,0,1,81.594,322.62Z" transform="translate(-20.518 -80.518)" fill="none" stroke="#263238" stroke-linecap="round" stroke-linejoin="round" stroke-width="2"/>
            <g id="Grupo_1102098" data-name="Grupo 1102098" transform="translate(11.73 239.581)" opacity="0.3" style="isolation: isolate">
              <g id="Grupo_1102097" data-name="Grupo 1102097">
                <g id="Grupo_1102096" data-name="Grupo 1102096" clip-path="url(#clip-path-12)">
                  <path id="Trazado_880339" data-name="Trazado 880339" d="M106.76,320.167a16.525,16.525,0,0,0-6.174.888,3.356,3.356,0,1,0,6.174-.888M94.576,330.994a3.262,3.262,0,0,0-1.661.491,18.35,18.35,0,0,0,.257,5.94,3.278,3.278,0,0,0,1.4.35,3.412,3.412,0,0,0,3.391-3.414,3.372,3.372,0,0,0-3.391-3.367m19.106,0a3.353,3.353,0,0,0-3.367,3.367,3.379,3.379,0,1,0,3.367-3.367m-54.6,1.4c-1.778-.009-3.525-.043-5.425.07A3.266,3.266,0,0,0,53,334.361a3.391,3.391,0,1,0,6.781,0,3.247,3.247,0,0,0-.7-1.964m13.189,1.1a3.226,3.226,0,0,0-.164.865,3.412,3.412,0,0,0,3.391,3.414,3.35,3.35,0,0,0,3.274-2.877c-1.981-.542-4.164-.993-6.5-1.4m-31.851,2.175a43.279,43.279,0,0,0-3.929,1.941,3.218,3.218,0,0,0,.8.163,3.4,3.4,0,0,0,3.133-2.1m6.127,7.951a3.379,3.379,0,1,0,0,6.758,3.379,3.379,0,0,0,0-6.758m19.082,0a3.379,3.379,0,1,0,3.391,3.391,3.393,3.393,0,0,0-3.391-3.391m19.105,0a3.379,3.379,0,1,0,3.391,3.391,3.392,3.392,0,0,0-3.391-3.391m19.082,0a3.379,3.379,0,1,0,3.391,3.391,3.372,3.372,0,0,0-3.391-3.391m19.106,0a3.379,3.379,0,0,0,0,6.758,3.449,3.449,0,0,0,1.263-.233c-.015-2.146-.15-4.236-.351-6.338a3.348,3.348,0,0,0-.912-.187m-94.9.117a40.651,40.651,0,0,0-3.625,3.812c-.074.09-.137.19-.21.281a3.366,3.366,0,1,0,3.835-4.093m9.261,12.511a3.373,3.373,0,0,0-3.391,3.367,3.391,3.391,0,1,0,6.782,0,3.373,3.373,0,0,0-3.391-3.367m19.105,0A3.372,3.372,0,0,0,53,359.617a3.391,3.391,0,1,0,6.781,0,3.372,3.372,0,0,0-3.391-3.367m19.105,0a3.372,3.372,0,0,0-3.391,3.367,3.379,3.379,0,1,0,6.758,0,3.353,3.353,0,0,0-3.367-3.367m19.082,0a3.353,3.353,0,0,0-3.367,3.367,3.379,3.379,0,1,0,3.367-3.367m19.106,0a3.353,3.353,0,0,0-3.367,3.367,3.379,3.379,0,1,0,3.367-3.367m-95.248.046a49.562,49.562,0,0,0-2.759,5.566,3.369,3.369,0,1,0,2.759-5.566m9,12.582a3.391,3.391,0,1,0,3.391,3.391,3.412,3.412,0,0,0-3.391-3.391m19.106,0a3.391,3.391,0,1,0,0,6.781,3.391,3.391,0,0,0,0-6.781m19.082,0a3.391,3.391,0,1,0,3.391,3.391,3.393,3.393,0,0,0-3.391-3.391m19.105,0a3.392,3.392,0,0,0-3.391,3.391,3.323,3.323,0,0,0,1.006,2.386,30.367,30.367,0,0,0,1.684-4.116s1.607.858,4.069,1.894c0-.058.023-.106.023-.164a3.392,3.392,0,0,0-3.391-3.391m19.082,0a3.391,3.391,0,1,0,3.391,3.391,3.372,3.372,0,0,0-3.391-3.391M37.283,381.506a3.393,3.393,0,0,0-3.391,3.391,3.334,3.334,0,0,0,1.357,2.619l1.239-2.222S37.977,386,40,386.838a3.263,3.263,0,0,0,.678-1.941,3.392,3.392,0,0,0-3.391-3.391m19.105,0a3.391,3.391,0,1,0,3.391,3.391,3.392,3.392,0,0,0-3.391-3.391m19.105,0A3.392,3.392,0,0,0,72.1,384.9a3.174,3.174,0,0,0,.07.421c.791-.486,1.476-.87,2.385-1.473a20.3,20.3,0,0,0,2.455-1.941,3.264,3.264,0,0,0-1.52-.4" transform="translate(-15.675 -320.156)" fill="#fff"/>
                </g>
              </g>
            </g>
            <path id="Trazado_880340" data-name="Trazado 880340" d="M172.023,266.182a.342.342,0,0,1,.555-.025l2.3,2.909a.342.342,0,0,1-.046.473l-8,6.8a.343.343,0,0,1-.489-.046l-.369-.461a.342.342,0,0,1-.019-.4Z" transform="translate(-41.754 -66.952)" fill="#aee6e6"/>
            <path id="Trazado_880341" data-name="Trazado 880341" d="M173.8,298.29a.343.343,0,0,1,.387-.2l13.23,2.874a.342.342,0,0,1,.231.492l-2.259,4.375a.343.343,0,0,1-.491.13l-11-7.169a.342.342,0,0,1-.127-.423Z" transform="translate(-43.725 -75.02)" fill="#aee6e6"/>
            <path id="Trazado_880342" data-name="Trazado 880342" d="M184.87,276.339a.343.343,0,0,1,.5.188l1.568,4.809a.343.343,0,0,1-.272.445l-11.256,1.779a.342.342,0,0,1-.393-.295l-.092-.712a.341.341,0,0,1,.163-.337Z" transform="translate(-44.024 -69.535)" fill="#aee6e6"/>
            <path id="Trazado_880343" data-name="Trazado 880343" d="M49.536,376.385a128.681,128.681,0,0,1-3.962,13.189c-2.671,7.5-6.69,16.077-6.69,16.077" transform="translate(-9.786 -94.726)" fill="none" stroke="#fff" stroke-linecap="round" stroke-linejoin="round" stroke-width="2"/>
            <path id="Trazado_880344" data-name="Trazado 880344" d="M104.1,359.847a57.4,57.4,0,0,1,0,18.523,29.523,29.523,0,0,1-8.238,15.45" transform="translate(-24.125 -90.564)" fill="none" stroke="#263238" stroke-linecap="round" stroke-linejoin="round" stroke-width="2"/>
          </g>
        </g>
        <g id="Grupo_1102102" data-name="Grupo 1102102">
          <g id="Grupo_1102101" data-name="Grupo 1102101" clip-path="url(#clip-path)">
            <path id="Trazado_880345" data-name="Trazado 880345" d="M95.941,32.166c20.767,7.576,30.971,32.743,24.655,53.766A45.033,45.033,0,0,1,34.34,60.018c4.857-16.165,20.7-26.7,29.858-28.974" transform="translate(-8.16 -7.813)" fill="none" stroke="#263238" stroke-linecap="round" stroke-linejoin="round" stroke-width="2"/>
            <path id="Trazado_880346" data-name="Trazado 880346" d="M65.036,121.8l-4.984,11.7s14.382,7.177,21.994,7.151c19.18-.067,27.3-7.693,27.3-7.693L100.79,120.72Z" transform="translate(-15.114 -30.382)" fill="#263238"/>
            <path id="Trazado_880347" data-name="Trazado 880347" d="M31.28,65.274s11.082-12.284,28.9-13.717S88.387,53.071,94.442,58c8,6.517,17.051,14.131,19.828,28.7,1.9,9.957-4.475,24.726-15.01,26.933a35.3,35.3,0,0,1-24.722-4.364,35.285,35.285,0,0,1-20.979-1.933C44.894,103.626,41.224,92.68,41.224,92.68a27.784,27.784,0,0,1-22.052,6.715C7.6,97.748,1.823,85.2,1.062,73.219S6.622,48.444,11.268,45.29c6.248-4.242,15.057-3.858,19.511.032s.5,19.952.5,19.952" transform="translate(-0.251 -10.635)" fill="#aee6e6"/>
            <path id="Trazado_880348" data-name="Trazado 880348" d="M68.075,50.025s5.051-25.471,11.5-31.5c6.489-6.064,17.432-4.731,20.985,1.188,4.077,6.79,2.3,30.312,2.3,30.312H68.075Z" transform="translate(-17.133 -3.668)" fill="#26aab7"/>
            <path id="Trazado_880349" data-name="Trazado 880349" d="M100.074,47.766a19.224,19.224,0,0,1-8.019,5.818,30.884,30.884,0,0,1-8.737,1.406" transform="translate(-20.969 -12.021)" fill="none" stroke="#fff" stroke-linecap="round" stroke-linejoin="round" stroke-width="2"/>
            <path id="Trazado_880350" data-name="Trazado 880350" d="M82.658,66.079a4.289,4.289,0,0,0-4.279,4.3l-.885,9.639c.647-.334,5.984-3.584,11.4-.979,4.944,2.378,9.071,9,9.083,9.044a13.57,13.57,0,0,1,3.221-.861,11.235,11.235,0,0,1,3.2.148l1.549-16.991a4.31,4.31,0,0,0-4.3-4.3ZM86.19,93.2a19.052,19.052,0,0,1-5.173,1.493,9.382,9.382,0,0,1-4.8-.8l-.664,7.377a4.289,4.289,0,0,0,4.3,4.279H88.19a7.018,7.018,0,0,1-.738-2.312,10.121,10.121,0,0,1,.147-3.123,29.513,29.513,0,0,1,1.352-4.082S86.8,93.969,86.19,93.2" transform="translate(-19.014 -16.63)" fill="#fff"/>
            <line id="Línea_1733" data-name="Línea 1733" x1="0.663" y2="7.443" transform="translate(60.105 78.132)" fill="none" stroke="#26aab7" stroke-linecap="round" stroke-linejoin="round" stroke-width="2"/>
            <line id="Línea_1734" data-name="Línea 1734" x1="0.816" y2="9.154" transform="translate(62.25 52.346)" fill="none" stroke="#26aab7" stroke-linecap="round" stroke-linejoin="round" stroke-width="2"/>
            <path id="Trazado_880351" data-name="Trazado 880351" d="M117.536,99.015s-6.483-6.023-14.673-4.28c-6.457,1.374-11.289,7.052-11.289,14.631,0,5.687,4.375,11.1,4.375,11.1" transform="translate(-23.047 -23.763)" fill="none" stroke="#26aab7" stroke-linecap="round" stroke-linejoin="round" stroke-width="2"/>
            <path id="Trazado_880352" data-name="Trazado 880352" d="M84.383,32.8a10.3,10.3,0,1,1,10.3,10.3,10.3,10.3,0,0,1-10.3-10.3" transform="translate(-21.237 -5.662)" fill="#fff"/>
            <path id="Trazado_880353" data-name="Trazado 880353" d="M100.628,33.957a1.046,1.046,0,0,0-1.316.7A1.091,1.091,0,0,0,100.04,36a1.062,1.062,0,0,0,.588-2.04" transform="translate(-24.984 -8.535)" fill="#263238"/>
            <path id="Trazado_880354" data-name="Trazado 880354" d="M108.224,34.029a1.045,1.045,0,0,0-1.316.7,1.091,1.091,0,0,0,.728,1.338,1.062,1.062,0,0,0,.588-2.04" transform="translate(-26.895 -8.553)" fill="#263238"/>
            <path id="Trazado_880355" data-name="Trazado 880355" d="M105.04,29.945a9.978,9.978,0,0,1-6.106-1.924,7.315,7.315,0,0,1-2.389-2.612A11.07,11.07,0,0,1,91.772,29.7c-4.244,1.988-7.175,1.479-7.175,1.479s-.055-8.68,10.51-8.68c7.649,0,9.933,7.448,9.933,7.448" transform="translate(-21.291 -5.662)" fill="#263238"/>
            <path id="Trazado_880356" data-name="Trazado 880356" d="M102.719,39.378A10.4,10.4,0,0,0,101.3,24.842a10.149,10.149,0,0,0-14.386,1.43,10.4,10.4,0,0,0,1.416,14.535A10.149,10.149,0,0,0,102.719,39.378Z" transform="translate(-21.291 -5.662)" fill="none" stroke="#263238" stroke-linecap="round" stroke-linejoin="round" stroke-width="2"/>
            <path id="Trazado_880357" data-name="Trazado 880357" d="M95.915,38.315a1.061,1.061,0,1,1,1.4.572,1.067,1.067,0,0,1-1.4-.572" transform="translate(-24.118 -9.269)" fill="#7d6eb2"/>
            <path id="Trazado_880358" data-name="Trazado 880358" d="M98.671,41.454a2.885,2.885,0,0,0,1.163,1.432,2.591,2.591,0,0,0,1.849.335" transform="translate(-24.833 -10.433)" fill="none" stroke="#263238" stroke-linecap="round" stroke-linejoin="round" stroke-width="2"/>
            <path id="Trazado_880359" data-name="Trazado 880359" d="M103.981,34.839,104.8,38.9l-2.7-.075" transform="translate(-25.695 -8.768)" fill="none" stroke="#263238" stroke-linecap="round" stroke-linejoin="round" stroke-width="2"/>
            <path id="Trazado_880360" data-name="Trazado 880360" d="M35.087,42.908a17.245,17.245,0,0,0,5.574-6.442c2.006-4.33,4.621-11.812,4.047-13.35-.844-2.264-4.24-1.229-6.133,2.49a43.441,43.441,0,0,0-1.907,4.28,8.609,8.609,0,0,0-4.744-.8A9.206,9.206,0,0,0,27.759,31.7" transform="translate(-6.986 -5.518)" fill="none" stroke="#263238" stroke-linecap="round" stroke-linejoin="round" stroke-width="2"/>
            <path id="Trazado_880361" data-name="Trazado 880361" d="M33.947,25.7a30.663,30.663,0,0,0-1.017-8.916c-1.026-3.629-3.27-6.849-4.919-6.232-1.708.639-1.39,4.659-.6,6.836a45.793,45.793,0,0,1,1.446,6.288,29.255,29.255,0,0,0-1.487-6.18c-1.444-3.624-3.751-6.879-5.606-6.741s-.707,3.986.589,7.121a65.129,65.129,0,0,1,2.335,6.814l-2.49-6.9s-2.1-4.283-3.738-3.334c-1.985,1.148.393,6.889,1.07,10.034.506,2.35.429,5.777,1.3,8.842a39.831,39.831,0,0,0,2.43,5.9" transform="translate(-4.451 -2.637)" fill="none" stroke="#263238" stroke-linecap="round" stroke-linejoin="round" stroke-width="2"/>
            <path id="Trazado_880362" data-name="Trazado 880362" d="M97.745,92.587s-5.026-8.428-11.517-10.316C77.2,79.644,68.3,87.817,72.163,91.151c.99.855,1.527-1.628,4.655-2.863a21.583,21.583,0,0,1,6.156-1.258s-6.108.433-8.572,2.694c-4.039,3.707-.825,6.469-.825,6.469A26.732,26.732,0,0,1,78.069,93.1a23.386,23.386,0,0,1,5.755-1.646,27.225,27.225,0,0,0-6.65,2.215c-2.347,1.376-3.919,2.628-2.457,4.29,2.011,2.287,10.343-.873,10.343-.873a10.781,10.781,0,0,0,9.6,4.219" transform="translate(-17.928 -20.577)" fill="none" stroke="#263238" stroke-linecap="round" stroke-linejoin="round" stroke-width="2"/>
          </g>
        </g>
        <g id="Grupo_1102107" data-name="Grupo 1102107">
          <g id="Grupo_1102106" data-name="Grupo 1102106" clip-path="url(#clip-path)">
            <path id="Trazado_880363" data-name="Trazado 880363" d="M229.458,232.894l6.042,16.835s-10.156,8.732-31.184,7.576c-16.944-.931-29.031-12.961-29.031-12.961l7.509-12.008Z" transform="translate(-44.114 -58.473)" fill="#263238"/>
            <path id="Trazado_880364" data-name="Trazado 880364" d="M220.49,132.3a51.361,51.361,0,1,1-33.674-.272" transform="translate(-38.23 -33.229)" fill="none" stroke="#263238" stroke-linecap="round" stroke-linejoin="round" stroke-width="2"/>
            <path id="Trazado_880365" data-name="Trazado 880365" d="M239.053,164.2s-14.4-15.365-36.893-15.053c-30.332.421-45.2,14.3-53.408,26.321-7.45,10.914-18.49,44.716,4.068,52.261,12.46,4.167,25.87-7.771,25.87-7.771a72.258,72.258,0,0,0,23.024,3.974c14.134,0,21.876-6.57,21.876-6.57s20.11,7.251,27.882-3.329C266,194.266,239.053,164.2,239.053,164.2" transform="translate(-35.08 -37.536)" fill="#7d6eb2"/>
            <g id="Grupo_1102105" data-name="Grupo 1102105" transform="translate(108.497 111.628)" opacity="0.297" style="isolation: isolate">
              <g id="Grupo_1102104" data-name="Grupo 1102104">
                <g id="Grupo_1102103" data-name="Grupo 1102103" clip-path="url(#clip-path-15)">
                  <path id="Trazado_880366" data-name="Trazado 880366" d="M203.894,149.17v74.716c.519-.01,1-.044,1.5-.07V149.264c-.512-.013-.976-.1-1.5-.094m-4.4.281c-.507.029-1,.057-1.5.094v74.037c.5.042.989.064,1.5.094Zm10.289.141v73.78c.508-.08,1.013-.139,1.5-.233V149.684c-.476-.07-1.012-.037-1.5-.093m-16.183.28c-.507.064-1,.139-1.5.211v72.845c.527.088.946.2,1.5.28Zm22.052.772v71.395c.529-.169,1.011-.336,1.5-.515v-70.53c-.484-.132-1-.23-1.5-.35m-27.945.3c-.495.1-1.013.194-1.5.3v70.506c.6.153.821.2,1.5.351Zm-5.893,1.4c-.521.156-.989.349-1.5.514v67.162c.04.015,1.218.347,1.5.445Zm39.732.07v67.045c.49-.271,1.121-.56,1.5-.795V152.982c-.485-.2-.995-.373-1.5-.561m-45.6,1.94c-.517.213-.995.433-1.5.656v68.8c.518-.316,1.043-.611,1.5-.912Zm51.495.632v63.117c.553.159.755.194,1.5.374V155.765c-.477-.265-.994-.512-1.5-.772m-57.388,2.222c-.476.262-1.036.477-1.5.748v68.846c.517-.2,1-.415,1.5-.632Zm63.281,1.239v60.872c.491.073.983.129,1.5.187V159.459c-.444-.323-1-.671-1.5-1.006m-69.174,2.5c-.48.35-1.037.67-1.5,1.029v66.368c.506-.07,1-.132,1.5-.234Zm75.067,2.128v56.639c.505-.005.99.031,1.5,0V164.534c-.014-.016-.257-.327-.257-.327s-.849-.746-1.239-1.122m-80.96,2.783c-.522.505-1.006,1.008-1.5,1.52v60.825c.5.084,1,.239,1.5.281Zm86.853,4.326v48.851c.526-.139.989-.422,1.5-.608V172.391c-.508-.751-1.021-1.536-1.5-2.2m-92.746,2.315c-.514.673-1.025,1.345-1.5,2.011v51.728c.465.251.994.456,1.5.678Zm98.615,7.2v36.34a12.261,12.261,0,0,0,1.5-1.567v-31.85c-.486-1.025-.977-1.952-1.5-2.923m-104.508,2.712c-.511,1.136-1.018,2.3-1.5,3.555V221.22a17.544,17.544,0,0,0,1.5,1.661Z" transform="translate(-144.987 -149.17)" fill="#fff"/>
                </g>
              </g>
            </g>
            <path id="Trazado_880367" data-name="Trazado 880367" d="M186.961,182.051s-2.854,7.524-3.43,11.806-.8,9.07-.8,9.07" transform="translate(-45.988 -45.818)" fill="none" stroke="#fff" stroke-linecap="round" stroke-linejoin="round" stroke-width="2"/>
            <path id="Trazado_880368" data-name="Trazado 880368" d="M211.89,152.1a18.669,18.669,0,0,0,9.747,4.448c6.267.75,5.733-4.646,5.733-4.646" transform="translate(-53.327 -38.229)" fill="none" stroke="#fff" stroke-linecap="round" stroke-linejoin="round" stroke-width="2"/>
            <path id="Trazado_880369" data-name="Trazado 880369" d="M247.072,173.052a4.584,4.584,0,0,1,4.443,4.719l-4.8,28.838a4.609,4.609,0,0,1-4.444,4.747h-.028l-59.182.333a2.545,2.545,0,0,1-2.264-2.264v-1.38a2.567,2.567,0,0,1,2.264-2.285l6.225-.332,4.691-27.656a4.584,4.584,0,0,1,4.444-4.719Z" transform="translate(-45.502 -43.553)" fill="#fff"/>
            <path id="Trazado_880370" data-name="Trazado 880370" d="M239.757,184.734a2.683,2.683,0,1,0-2.683,2.684A2.683,2.683,0,0,0,239.757,184.734Z" transform="translate(-58.99 -45.818)" fill="none" stroke="#7d6eb2" stroke-linecap="round" stroke-linejoin="round" stroke-width="2"/>
            <line id="Línea_1735" data-name="Línea 1735" x1="43.902" transform="translate(154.072 162.375)" fill="none" stroke="#7d6eb2" stroke-linecap="round" stroke-linejoin="round" stroke-width="2"/>
            <path id="Trazado_880371" data-name="Trazado 880371" d="M266.381,213.07a37.968,37.968,0,0,1,.763-4.614s-7.779-.229-8.627-2.68c-.746-2.16,1.317-2.708,4.108-3.031a23.13,23.13,0,0,1,5.226.026,17.881,17.881,0,0,0-4.143-.192,27.57,27.57,0,0,0-5.532,1.055s-2.733-4.016,3.531-5.645a16.907,16.907,0,0,1,7.376.214,18.443,18.443,0,0,0-4.539-.577c-3.47-.134-5.968,2.368-6.481.494-1.1-4.026,10.732-7.688,15.927-1.55,3.173,3.748,1.8,9.505-.468,13.4C271.834,212.865,266.381,217.176,266.381,213.07Z" transform="translate(-64.827 -48.648)" fill="none" stroke="#263238" stroke-linecap="round" stroke-linejoin="round" stroke-width="2"/>
            <path id="Trazado_880372" data-name="Trazado 880372" d="M173.988,224.833a30.33,30.33,0,0,1,3-11.386c1.921-3.962,9.04-11.178,10.618-10.917,2.331.385,2.131,4-.079,7.975a12.13,12.13,0,0,1-3.243,3.683s1.449-.83,4.242-2.249c3.731-1.9,8.052-4.526,9.2-2.6.991,1.657-1.268,4.33-4.315,6.108a27.761,27.761,0,0,1-4.933,2.352s2.875-1.159,4.945-2.292,4.8-2.715,5.873-1.449c1.473,1.737-2.737,4.737-5.2,6.144a17.584,17.584,0,0,1-2.862,1.5,18.592,18.592,0,0,0,3.5-1.815c2.529-1.592,5.074-2.942,5.94-1.464,1.029,1.755-4.639,7.073-7.249,8.736-6.311,4.02-11,4.484-11,4.484" transform="translate(-43.788 -50.97)" fill="none" stroke="#263238" stroke-linecap="round" stroke-linejoin="round" stroke-width="2"/>
            <path id="Trazado_880373" data-name="Trazado 880373" d="M213.8,106.05a7.864,7.864,0,0,0-3.621.45A9.789,9.789,0,0,0,204,112.417a13.449,13.449,0,0,0-9.024.794c-2.785,1.173-4.578,5.136-4.419,8.473a6.364,6.364,0,0,0,4.011,5.577s-2.716,4.493,2.472,6.183c4.5,1.466,7.905-3.016,7.905-3.016l-.713-3.022a15.146,15.146,0,0,0,6.785-4.742,27.749,27.749,0,0,0,4.626-8.677,24.6,24.6,0,0,0,5.137,5.586,24.876,24.876,0,0,0,6.672,3.4L227,127.25l-1.381,1.97s4.307,2.218,6.635-1.25a5.15,5.15,0,0,0-.433-6.623c2.27-1.254,4.491-3.158,3.829-5.733-1.7-6.612-9.14-4.667-12.755-5.859-2.711-.894-5.657-3.331-9.094-3.7" transform="translate(-47.956 -26.678)" fill="#7d6eb2"/>
            <path id="Trazado_880374" data-name="Trazado 880374" d="M230.559,130.865a12.065,12.065,0,1,0-16.179,5.419A12.064,12.064,0,0,0,230.559,130.865Z" transform="translate(-52.271 -28.544)" fill="none" stroke="#263238" stroke-linecap="round" stroke-linejoin="round" stroke-width="2"/>
            <path id="Trazado_880375" data-name="Trazado 880375" d="M221.934,133.544a1.346,1.346,0,1,0-1.71.859,1.353,1.353,0,0,0,1.71-.859" transform="translate(-55.195 -33.159)" fill="#7d6eb2"/>
            <path id="Trazado_880376" data-name="Trazado 880376" d="M227.025,131.036a1.124,1.124,0,1,0-1.424.706,1.124,1.124,0,0,0,1.424-.706" transform="translate(-56.585 -32.605)" fill="#263238"/>
            <path id="Trazado_880377" data-name="Trazado 880377" d="M235.615,131.915a1.124,1.124,0,1,0-1.425.706,1.124,1.124,0,0,0,1.425-.706" transform="translate(-58.747 -32.826)" fill="#263238"/>
            <path id="Trazado_880378" data-name="Trazado 880378" d="M230.1,130.762l.887,4.689-2.57-.866" transform="translate(-57.486 -32.909)" fill="none" stroke="#263238" stroke-linecap="round" stroke-linejoin="round" stroke-width="2"/>
            <path id="Trazado_880379" data-name="Trazado 880379" d="M223.745,137.313a2.736,2.736,0,0,0,1.262,2.007,4.814,4.814,0,0,0,2.466.024" transform="translate(-56.311 -34.558)" fill="none" stroke="#263238" stroke-linecap="round" stroke-linejoin="round" stroke-width="2"/>
          </g>
        </g>
      </g>
    </g>
  </g>
</svg>
