<svg xmlns="http://www.w3.org/2000/svg" width="67" height="59.184" viewBox="0 0 67 59.184">
  <g id="Grupo_1102533" data-name="Grupo 1102533" transform="translate(-180 -12927.838)">
    <g id="Grupo_1100170" data-name="Grupo 1100170" transform="translate(0 9177.685)">
      <path id="_12068" data-name="12068" d="M66.039,71.828c-6.861-.947-14.108-.716-20.351,2.283C37.03,78.27,31.344,87.7,31.126,97.3s4.784,19.038,12.512,24.741a35.81,35.81,0,0,0,27.37,6.013c9.53-1.727,18.474-7.326,23.445-15.638,3.187-5.33,4.677-11.911,2.916-17.867a24.409,24.409,0,0,0-5.793-9.521A42.8,42.8,0,0,0,66.039,71.828Z" transform="translate(148.881 3680.691)" fill="#26aab7"/>
      <path id="Trazado_873155" data-name="Trazado 873155" d="M303.26,44.546a1.582,1.582,0,1,0-.106-2.456A1.573,1.573,0,0,0,303.26,44.546Z" transform="translate(138.287 4055.916) rotate(-90)" fill="#7d6eb2"/>
      <path id="Trazado_873156" data-name="Trazado 873156" d="M321.56,66.974a3.448,3.448,0,1,0-1.687-4.918A3.468,3.468,0,0,0,321.56,66.974Z" transform="translate(128.241 4079.581) rotate(-90)" fill="#ffd947"/>
      <circle id="Elipse_11521" data-name="Elipse 11521" cx="3.689" cy="3.689" r="3.689" transform="translate(237.702 3796.368) rotate(-90)" fill="none" stroke="#fff" stroke-linecap="round" stroke-linejoin="round" stroke-width="1.5"/>
    </g>
    <g id="Grupo_1102262" data-name="Grupo 1102262" transform="translate(167.624 12913.618)">
      <g id="Grupo_1102261" data-name="Grupo 1102261" transform="translate(23.563 21.2)">
        <g id="Grupo_1102257" data-name="Grupo 1102257" transform="translate(0 31.901)">
          <path id="Trazado_880701" data-name="Trazado 880701" d="M37.364,348.993a6.6,6.6,0,1,1-6.6,6.6A6.6,6.6,0,0,1,37.364,348.993Z" transform="translate(-30.767 -348.993)" fill="#8ac9fe" fill-rule="evenodd"/>
          <path id="Trazado_880702" data-name="Trazado 880702" d="M47.944,360.742a5.428,5.428,0,1,1-5.428,5.428A5.429,5.429,0,0,1,47.944,360.742Z" transform="translate(-41.347 -359.573)" fill="#eceff1" fill-rule="evenodd"/>
        </g>
        <g id="Grupo_1102258" data-name="Grupo 1102258" transform="translate(10.057 13.194)">
          <path id="Trazado_880703" data-name="Trazado 880703" d="M144.648,162.771a9.111,9.111,0,0,1,2.671,1.107l1.736-.77,2.045,2.045-.77,1.736a9.108,9.108,0,0,1,1.107,2.671l1.771.682v2.893l-1.771.682a9.116,9.116,0,0,1-1.107,2.67l.77,1.736-2.045,2.046-1.736-.771a9.113,9.113,0,0,1-2.671,1.108l-.682,1.77h-2.893l-.682-1.771a9.118,9.118,0,0,1-2.67-1.107l-1.736.771-2.046-2.046.771-1.734a9.143,9.143,0,0,1-1.108-2.671l-1.77-.682v-2.893l1.77-.682a9.116,9.116,0,0,1,1.108-2.671l-.771-1.736,2.046-2.045,1.734.77a9.141,9.141,0,0,1,2.671-1.107l.682-1.771h2.893Z" transform="translate(-131.833 -161)" fill="#7d6eb2" fill-rule="evenodd"/>
          <path id="Trazado_880704" data-name="Trazado 880704" d="M183.711,163.367l.583-.259,2.045,2.045-.77,1.736a9.109,9.109,0,0,1,1.107,2.671l1.771.682v2.893l-1.771.682a9.117,9.117,0,0,1-1.107,2.67l.77,1.736-2.045,2.046-.583-.259,1.787-1.787-.771-1.736a9.117,9.117,0,0,0,1.107-2.67l1.771-.682v-2.893l-1.771-.682a9.109,9.109,0,0,0-1.107-2.671l.771-1.736Zm-12.744,0,.259-.259,1.734.77c-.122.068-.244.139-.362.213Zm8.921-.6a9.111,9.111,0,0,1,2.671,1.107l-.478.213a11.921,11.921,0,0,0-3.034-1.32L178.364,161h.842ZM172.961,179.5l-1.736.771-.259-.259,1.631-.725Q172.776,179.394,172.961,179.5Zm9.6,0a9.114,9.114,0,0,1-2.671,1.108l-.682,1.77h-.842l.682-1.77a11.948,11.948,0,0,0,3.036-1.32Z" transform="translate(-167.073 -161)" fill="#ffd064" fill-rule="evenodd"/>
          <path id="Trazado_880705" data-name="Trazado 880705" d="M193.593,217.717a5.043,5.043,0,1,1-5.043,5.044A5.044,5.044,0,0,1,193.593,217.717Z" transform="translate(-182.906 -212.073)" fill="#eceff1" fill-rule="evenodd"/>
          <path id="Trazado_880706" data-name="Trazado 880706" d="M193.593,217.717c.115,0,.228,0,.342.012a5.043,5.043,0,0,0,0,10.063c-.114.007-.227.011-.342.011a5.043,5.043,0,0,1,0-10.087Z" transform="translate(-182.906 -212.073)" fill="#d1d1d6" fill-rule="evenodd"/>
        </g>
        <g id="Grupo_1102259" data-name="Grupo 1102259" transform="translate(31.431 24.435)">
          <path id="Trazado_880707" data-name="Trazado 880707" d="M353.23,273.965a6.6,6.6,0,1,1-6.6,6.6A6.6,6.6,0,0,1,353.23,273.965Z" transform="translate(-346.633 -273.965)" fill="#aee6e6" fill-rule="evenodd"/>
          <path id="Trazado_880708" data-name="Trazado 880708" d="M407.821,273.965a6.6,6.6,0,1,1,0,13.195c-.19,0-.379-.009-.565-.024a6.6,6.6,0,0,0,0-13.146C407.442,273.974,407.631,273.965,407.821,273.965Z" transform="translate(-401.224 -273.965)" fill="#aee6e6" fill-rule="evenodd"/>
        </g>
        <g id="Grupo_1102260" data-name="Grupo 1102260" transform="translate(6.598 0)">
          <path id="Trazado_880709" data-name="Trazado 880709" d="M103.667,41.6a6.6,6.6,0,1,0-6.6-6.6A6.61,6.61,0,0,0,103.667,41.6Z" transform="translate(-97.07 -28.407)" fill="#aee6e6" fill-rule="evenodd"/>
          <path id="Trazado_880710" data-name="Trazado 880710" d="M163.485,35a6.6,6.6,0,0,1-6.011,6.571q.29.026.587.026a6.619,6.619,0,0,0,.944-.067l.118-.018a6.6,6.6,0,0,0-1.063-13.109q-.3,0-.587.026A6.6,6.6,0,0,1,163.485,35Z" transform="translate(-151.463 -28.407)" fill="#aee6e6" fill-rule="evenodd"/>
          <path id="Trazado_880711" data-name="Trazado 880711" d="M121.916,101.1a4.609,4.609,0,0,0-4.581,4.112,6.6,6.6,0,0,0,9.161,0A4.607,4.607,0,0,0,121.916,101.1Z" transform="translate(-115.318 -93.864)" fill="#26aab7" fill-rule="evenodd"/>
          <path id="Trazado_880712" data-name="Trazado 880712" d="M157.482,101.134c2.742.348,3.847,2.423,4.1,4.91a6.547,6.547,0,0,0,1.065-.835,4.607,4.607,0,0,0-4.58-4.112A4.534,4.534,0,0,0,157.482,101.134Z" transform="translate(-151.471 -93.864)" fill="#aee6e6" fill-rule="evenodd"/>
          <path id="Trazado_880713" data-name="Trazado 880713" d="M142.294,55.445a2.329,2.329,0,1,0-2.329-2.329A2.334,2.334,0,0,0,142.294,55.445Z" transform="translate(-135.697 -48.56)" fill="#fff" fill-rule="evenodd"/>
          <path id="Trazado_880714" data-name="Trazado 880714" d="M162.462,53.116a2.33,2.33,0,0,1-2.036,2.311,2.433,2.433,0,0,0,.293.018,2.329,2.329,0,0,0,0-4.658,2.414,2.414,0,0,0-.293.018A2.33,2.33,0,0,1,162.462,53.116Z" transform="translate(-154.122 -48.56)" fill="#aee6e6" fill-rule="evenodd"/>
        </g>
      </g>
      <path id="Trazado_880715" data-name="Trazado 880715" d="M36.09,64.115a7.393,7.393,0,1,1-10.537-10.2,20.729,20.729,0,0,1,4.241-23.63,7.4,7.4,0,0,1,13.521-5.911q.493-.023.992-.023A20.738,20.738,0,0,1,65.036,45.082q0,.3-.009.607a7.392,7.392,0,0,1-5.634,13.6,20.732,20.732,0,0,1-23.3,4.823ZM26.909,53.057a7.4,7.4,0,0,1,10,9.675A19.14,19.14,0,0,0,57.844,58.6a7.392,7.392,0,0,1,5.6-13.527,19.145,19.145,0,0,0-19.136-19.13q-.194,0-.388,0A7.4,7.4,0,0,1,30.538,31.8a19.137,19.137,0,0,0-3.629,21.26ZM47.032,35.5a9.879,9.879,0,0,1,2.124.88l1.362-.606a.8.8,0,0,1,.886.165l2.044,2.044a.8.8,0,0,1,.165.885l-.6,1.362a9.869,9.869,0,0,1,.881,2.128l1.389.535a.8.8,0,0,1,.51.743v2.891a.8.8,0,0,1-.51.743l-1.389.535a9.97,9.97,0,0,1-.881,2.124l.6,1.363a.8.8,0,0,1-.165.885L51.4,54.223a.8.8,0,0,1-.885.165l-1.362-.6a9.866,9.866,0,0,1-2.125.88L46.5,56.054a.8.8,0,0,1-.743.51H42.863a.8.8,0,0,1-.743-.51l-.535-1.389a9.946,9.946,0,0,1-2.127-.881l-1.363.6a.8.8,0,0,1-.885-.165l-2.044-2.044A.8.8,0,0,1,35,51.293l.605-1.361a9.94,9.94,0,0,1-.882-2.124l-1.39-.535a.8.8,0,0,1-.51-.743V43.638a.8.8,0,0,1,.51-.743l1.39-.535a9.946,9.946,0,0,1,.882-2.127L35,38.871a.8.8,0,0,1,.164-.886l2.044-2.044a.8.8,0,0,1,.886-.165l1.362.606a9.883,9.883,0,0,1,2.124-.88l.537-1.393a.8.8,0,0,1,.743-.509h2.891a.8.8,0,0,1,.743.511Zm-1.34.953-.485-1.263h-1.8l-.488,1.264a.8.8,0,0,1-.559.488,8.3,8.3,0,0,0-2.437,1.01.8.8,0,0,1-.741.05l-1.236-.549-1.271,1.271.549,1.236a.8.8,0,0,1-.05.741,8.367,8.367,0,0,0-1.013,2.441.8.8,0,0,1-.488.557l-1.26.485v1.8l1.26.485a.8.8,0,0,1,.488.557,8.347,8.347,0,0,0,1.012,2.438.8.8,0,0,1,.05.742l-.549,1.236,1.271,1.271,1.236-.548a.8.8,0,0,1,.738.049,8.358,8.358,0,0,0,2.441,1.011.8.8,0,0,1,.559.489l.485,1.26h1.8l.485-1.26a.8.8,0,0,1,.559-.489,8.263,8.263,0,0,0,2.436-1.009.8.8,0,0,1,.741-.051l1.236.548,1.272-1.272L51.389,50.2a.8.8,0,0,1,.049-.738,8.375,8.375,0,0,0,1.011-2.438.8.8,0,0,1,.488-.559l1.26-.485v-1.8l-1.26-.485a.8.8,0,0,1-.489-.559,8.279,8.279,0,0,0-1.01-2.439.8.8,0,0,1-.05-.74l.548-1.236-1.271-1.271L49.429,38a.8.8,0,0,1-.741-.05,8.3,8.3,0,0,0-2.437-1.01A.8.8,0,0,1,45.692,36.454Zm-1.385,2.788a5.841,5.841,0,1,1-5.839,5.839,5.84,5.84,0,0,1,5.839-5.839Zm0,1.592a4.249,4.249,0,1,0,4.25,4.247A4.246,4.246,0,0,0,44.307,40.835Zm17.284,17.2a5.8,5.8,0,1,0-5.8-5.8A5.813,5.813,0,0,0,61.591,58.034ZM60.8,48.3v-.244a.8.8,0,1,1,1.592,0v.235a2.741,2.741,0,0,1,1.881,1.627.8.8,0,0,1-1.468.616,1.324,1.324,0,0,0-1.74-.648.783.783,0,0,0-.569.753v0a.641.641,0,0,0,.426.547,2.944,2.944,0,0,0,.808.232h0c1.239.2,2.582.787,2.759,2.259a2.337,2.337,0,0,1-2.1,2.506v.221a.8.8,0,1,1-1.592,0v-.232A2.718,2.718,0,0,1,58.7,54.2a.8.8,0,0,1,1.545-.385,1.307,1.307,0,0,0,1.409.862h0a2.059,2.059,0,0,0,.84-.191.6.6,0,0,0,.406-.614h0a.8.8,0,0,0-.543-.634,3.6,3.6,0,0,0-.893-.244c-1.218-.2-2.5-.83-2.569-2.275a2.325,2.325,0,0,1,1.576-2.311,2.959,2.959,0,0,1,.318-.1Zm-19.1-17.457a5.8,5.8,0,1,0-9.874,0,5.427,5.427,0,0,1,2.6-2.675,3.126,3.126,0,1,1,4.682,0,5.427,5.427,0,0,1,2.6,2.675Zm-8.663,1.4a5.8,5.8,0,0,0,7.453,0,3.81,3.81,0,0,0-7.453,0Zm3.726-4.606A1.534,1.534,0,1,0,35.224,26.1,1.538,1.538,0,0,0,36.758,27.639ZM30.16,53.9a5.8,5.8,0,1,0,5.8,5.8A5.8,5.8,0,0,0,30.16,53.9Zm-.8,1.882a.8.8,0,0,1,1.592,0v3.46l2.44,1.41a.8.8,0,0,1-.8,1.379l-2.838-1.639a.8.8,0,0,1-.4-.689Z" fill-rule="evenodd"/>
    </g>
  </g>
</svg>
