<svg xmlns="http://www.w3.org/2000/svg" width="245" height="59.184" viewBox="0 0 245 59.184">
  <g id="Grupo_1102060" data-name="Grupo 1102060" transform="translate(-180 -12927.839)">
    <path id="Trazado_880187" data-name="Trazado 880187" d="M0,0H176a41,41,0,0,1,41,41v1H0Z" transform="translate(208 12937.687)" fill="#aee6e6"/>
    <text id="Responsables" transform="translate(267 12965.366)" fill="#12263f" font-size="20" font-family="Roboto-Black, Roboto" font-weight="800"><tspan x="0" y="0">Responsables</tspan></text>
    <g id="Grupo_1100170" data-name="Grupo 1100170" transform="translate(0 9177.686)">
      <path id="_12068" data-name="12068" d="M66.039,71.828c-6.861-.947-14.108-.716-20.351,2.283C37.03,78.27,31.344,87.7,31.126,97.3s4.784,19.038,12.512,24.741a35.81,35.81,0,0,0,27.37,6.013c9.53-1.727,18.474-7.326,23.445-15.638,3.187-5.33,4.677-11.911,2.916-17.867a24.409,24.409,0,0,0-5.793-9.521A42.8,42.8,0,0,0,66.039,71.828Z" transform="translate(148.881 3680.691)" fill="#26aab7"/>
      <path id="Trazado_873155" data-name="Trazado 873155" d="M303.26,44.546a1.582,1.582,0,1,0-.106-2.456A1.573,1.573,0,0,0,303.26,44.546Z" transform="translate(138.287 4055.916) rotate(-90)" fill="#7d6eb2"/>
      <path id="Trazado_873156" data-name="Trazado 873156" d="M321.56,66.974a3.448,3.448,0,1,0-1.687-4.918A3.468,3.468,0,0,0,321.56,66.974Z" transform="translate(128.241 4079.581) rotate(-90)" fill="#ffd947"/>
      <circle id="Elipse_11521" data-name="Elipse 11521" cx="3.689" cy="3.689" r="3.689" transform="translate(237.702 3796.368) rotate(-90)" fill="none" stroke="#fff" stroke-linecap="round" stroke-linejoin="round" stroke-width="1.5"/>
    </g>
    <g id="Grupo_1102251" data-name="Grupo 1102251" transform="translate(178.082 12922.104)">
      <g id="Grupo_1102256" data-name="Grupo 1102256" transform="translate(8.849 11.642)">
        <g id="Grupo_1102251-2" data-name="Grupo 1102251" transform="translate(32.452 0.041)">
          <path id="Trazado_880681" data-name="Trazado 880681" d="M321.35,124.675h17.207a.736.736,0,0,0,.724-.886,9.521,9.521,0,0,0-18.655,0A.736.736,0,0,0,321.35,124.675Z" transform="translate(-320.611 -105.083)" fill="#8ac9fe" fill-rule="evenodd"/>
          <path id="Trazado_880682" data-name="Trazado 880682" d="M408.171,124.675h1.682a.736.736,0,0,0,.724-.886,9.523,9.523,0,0,0-9.327-7.609q-.425,0-.841.037a9.525,9.525,0,0,1,8.486,7.572A.736.736,0,0,1,408.171,124.675Z" transform="translate(-391.908 -105.083)" fill="#60b7ff" fill-rule="evenodd"/>
          <circle id="Elipse_12024" data-name="Elipse 12024" cx="4.813" cy="4.813" r="4.813" transform="translate(4.166 0.799) rotate(-4.759)" fill="#f6dccd"/>
          <path id="Trazado_880683" data-name="Trazado 880683" d="M402.683,15.825a4.813,4.813,0,0,1,0,9.626,4.867,4.867,0,0,1-.671-.047,4.813,4.813,0,0,0,0-9.533A4.833,4.833,0,0,1,402.683,15.825Z" transform="translate(-393.34 -15.42)" fill="#f1cbbc" fill-rule="evenodd"/>
        </g>
        <g id="Grupo_1102252" data-name="Grupo 1102252" transform="translate(0 0.446)">
          <path id="Trazado_880684" data-name="Trazado 880684" d="M16.743,124.675H33.95a.736.736,0,0,0,.724-.886,9.521,9.521,0,0,0-18.655,0,.736.736,0,0,0,.724.886Z" transform="translate(-16.004 -105.488)" fill="#8ac9fe" fill-rule="evenodd"/>
          <path id="Trazado_880685" data-name="Trazado 880685" d="M103.564,124.675h1.682a.736.736,0,0,0,.724-.886,9.523,9.523,0,0,0-9.327-7.609q-.425,0-.841.037a9.525,9.525,0,0,1,8.486,7.572A.736.736,0,0,1,103.564,124.675Z" transform="translate(-87.301 -105.488)" fill="#60b7ff" fill-rule="evenodd"/>
          <circle id="Elipse_12025" data-name="Elipse 12025" cx="4.813" cy="4.813" r="4.813" transform="translate(4.53 0)" fill="#f6dccd"/>
          <path id="Trazado_880686" data-name="Trazado 880686" d="M98.076,15.825a4.813,4.813,0,0,1,0,9.626A4.867,4.867,0,0,1,97.4,25.4a4.813,4.813,0,0,0,0-9.533A4.832,4.832,0,0,1,98.076,15.825Z" transform="translate(-88.733 -15.825)" fill="#f1cbbc" fill-rule="evenodd"/>
        </g>
        <g id="Grupo_1102253" data-name="Grupo 1102253" transform="translate(0 34.32)">
          <path id="Trazado_880687" data-name="Trazado 880687" d="M42.2,339.541l7.962-4.613c1.494-.866,3.014-1.48,4.656-.947a55.986,55.986,0,0,0,7.871,2.419,2.212,2.212,0,0,1,1.53,2.65,2.141,2.141,0,0,1-2.65,1.53l1.066.171a4.963,4.963,0,0,0,3.412-.595l7.655-4.459c5.951-3.466,6.824,1.866,4.846,3.084l-13.892,8.554a5.094,5.094,0,0,1-4.125.582l-10.076-2.7-3.732,2.154a1.507,1.507,0,0,1-2.055-.551l-3.018-5.227A1.507,1.507,0,0,1,42.2,339.541Z" transform="translate(-38.742 -333.782)" fill="#f6dccd" fill-rule="evenodd"/>
          <path id="Trazado_880688" data-name="Trazado 880688" d="M42.2,339.541l7.962-4.613c1.494-.866,3.014-1.48,4.656-.947.98.318,2.291.83,3.766,1.323l-15.424,8.9-1.509-2.614A1.507,1.507,0,0,1,42.2,339.541Z" transform="translate(-38.741 -333.782)" fill="#f1cbbc" fill-rule="evenodd"/>
          <path id="Trazado_880689" data-name="Trazado 880689" d="M20.257,359.461l6.314,11.157a1.13,1.13,0,0,1-.426,1.536L24,373.37a1.13,1.13,0,0,1-1.536-.426l-6.315-11.157a1.13,1.13,0,0,1,.426-1.536l2.148-1.216A1.13,1.13,0,0,1,20.257,359.461Z" transform="translate(-16.002 -356.215)" fill="#d1d1d6" fill-rule="evenodd"/>
          <path id="Trazado_880690" data-name="Trazado 880690" d="M48.253,367.128l1.118,1.975,1.105,1.953a1.13,1.13,0,0,1-.422,1.534l.767-.434a1.13,1.13,0,0,0,.426-1.536l-1.109-1.959-2.227-3.934-2.229-3.939-.75-1.325a1.131,1.131,0,0,0-1.313-.522l1.3,2.293,2.227,3.934,1.109,1.959Z" transform="translate(-40.677 -356.216)" fill="#b1b1b5" fill-rule="evenodd"/>
        </g>
        <g id="Grupo_1102254" data-name="Grupo 1102254" transform="translate(5.689 0)">
          <path id="Trazado_880691" data-name="Trazado 880691" d="M332.407,262.261a14.009,14.009,0,0,1-2.363,2.6l6.426,6.3,2.446-2.521Z" transform="translate(-302.276 -235.561)" fill="#a79ba7" fill-rule="evenodd"/>
          <path id="Trazado_880692" data-name="Trazado 880692" d="M346.767,261.854a1.614,1.614,0,0,1-.7.938l6.384,6.342.782-.857Z" transform="translate(-316.593 -235.197)" fill="#837683" fill-rule="evenodd"/>
          <path id="Trazado_880693" data-name="Trazado 880693" d="M384.387,318.463l2.761-2.845a1.269,1.269,0,0,0-.027-1.79l-7.647-7.421a1.27,1.27,0,0,0-1.79.027l-2.761,2.845a1.27,1.27,0,0,0,.027,1.79l7.647,7.421A1.27,1.27,0,0,0,384.387,318.463Z" transform="translate(-342.056 -274.686)" fill="#aee6e6" fill-rule="evenodd"/>
          <path id="Trazado_880694" data-name="Trazado 880694" d="M407.356,306.408,415,313.829a1.27,1.27,0,0,1,.027,1.79l-2.761,2.845a1.255,1.255,0,0,1-.343.251,1.271,1.271,0,0,0,1.474-.251l2.761-2.845a1.27,1.27,0,0,0-.027-1.79l-7.647-7.421a1.271,1.271,0,0,0-1.447-.224A1.249,1.249,0,0,1,407.356,306.408Z" transform="translate(-371.069 -274.687)" fill="#e3a76f" fill-rule="evenodd"/>
          <circle id="Elipse_12026" data-name="Elipse 12026" cx="13.925" cy="13.925" r="13.925" transform="translate(0 19.691) rotate(-45)" fill="#7d6eb2"/>
          <path id="Trazado_880695" data-name="Trazado 880695" d="M248.607,65.749a13.926,13.926,0,0,1,0,27.851q-.34,0-.676-.017a13.925,13.925,0,0,0,0-27.818Q248.267,65.75,248.607,65.749Z" transform="translate(-228.911 -59.985)" fill="#685e68" fill-rule="evenodd"/>
          <circle id="Elipse_12027" data-name="Elipse 12027" cx="9.847" cy="9.847" r="9.847" transform="translate(5.767 19.691) rotate(-45)" fill="#eceff1"/>
          <path id="Trazado_880696" data-name="Trazado 880696" d="M171.7,104.034c.224,0,.446.008.666.023a9.846,9.846,0,0,0,0,19.648c-.22.015-.442.023-.666.023a9.847,9.847,0,0,1,0-19.693Z" transform="translate(-152.002 -94.191)" fill="#d1d1d6" fill-rule="evenodd"/>
        </g>
        <g id="Grupo_1102255" data-name="Grupo 1102255" transform="translate(18.209 12.621)">
          <circle id="Elipse_12028" data-name="Elipse 12028" cx="3.477" cy="3.477" r="3.477" transform="translate(2.643 6.425) rotate(-67.486)" fill="#f6dccd"/>
          <path id="Trazado_880697" data-name="Trazado 880697" d="M249.808,140.106a3.477,3.477,0,1,1-.533,6.913,3.477,3.477,0,0,0,0-6.872A3.511,3.511,0,0,1,249.808,140.106Z" transform="translate(-242.632 -139.041)" fill="#f1cbbc" fill-rule="evenodd"/>
          <path id="Trazado_880698" data-name="Trazado 880698" d="M194.095,211.037a10.546,10.546,0,0,0,7.176-2.8,7.393,7.393,0,0,0-14.352,0A10.546,10.546,0,0,0,194.095,211.037Z" transform="translate(-186.919 -194.894)" fill="#9bc9ff" fill-rule="evenodd"/>
          <path id="Trazado_880699" data-name="Trazado 880699" d="M211.955,208.537q.175-.148.344-.3a7.392,7.392,0,0,0-13.037-2.727,7.392,7.392,0,0,1,12.693,3.03Z" transform="translate(-197.947 -194.894)" fill="#60b7ff" fill-rule="evenodd"/>
        </g>
      </g>
      <path id="Trazado_880700" data-name="Trazado 880700" d="M34.234,41.29a8.954,8.954,0,0,0,5.928-2.238,6.023,6.023,0,0,0-11.855,0A8.955,8.955,0,0,0,34.234,41.29Zm2.624-11.521a2.624,2.624,0,1,0-2.624,2.624A2.627,2.627,0,0,0,36.858,29.768ZM25.239,32.3a8.994,8.994,0,1,1,16.287,5.255,7.708,7.708,0,0,0-4.373-4.589,4.329,4.329,0,1,0-5.838,0,7.708,7.708,0,0,0-4.373,4.589,8.941,8.941,0,0,1-1.7-5.255Zm19.693,0a10.7,10.7,0,1,1-10.7-10.7,10.711,10.711,0,0,1,10.7,10.7ZM59.01,52.359l-7.647-7.421a.414.414,0,0,0-.288-.115h-.006a.408.408,0,0,0-.291.123l-2.761,2.846a.418.418,0,0,0,.009.585l2,1.941.007.008,5.64,5.472a.419.419,0,0,0,.585-.009l2.761-2.846A.419.419,0,0,0,59.01,52.359ZM48.362,51.08a.844.844,0,0,1-.151.121L34.318,59.756a4.256,4.256,0,0,1-3.458.484l-10.078-2.7a.844.844,0,0,0-.647.085l-1.381.8-3.618-6.393L20.7,48.81c1.242-.719,2.582-1.323,3.967-.873.462.149,1,.343,1.617.567a39.953,39.953,0,0,0,6.3,1.869,1.349,1.349,0,0,1,.921,1.6,1.269,1.269,0,0,1-1.578.924c-1.117-.23-2.182-.535-3.309-.856-.538-.153-1.1-.312-1.668-.466a.852.852,0,1,0-.441,1.646c.559.15,1.109.306,1.641.459,1.172.335,2.279.651,3.474.9l.017,0,.017,0,.952.154a6.747,6.747,0,0,0,1.078.088,5.635,5.635,0,0,0,2.9-.788l7.656-4.458a8.565,8.565,0,0,1,2.043-.9,2.089,2.089,0,0,0,.554.92ZM18.678,61.746,12.362,50.588a.279.279,0,0,0-.242-.137.267.267,0,0,0-.133.034L9.84,51.7a.279.279,0,0,0-.1.375l6.315,11.159a.276.276,0,0,0,.166.128.272.272,0,0,0,.208-.025l2.148-1.216a.279.279,0,0,0,.1-.375ZM44.519,42.9l3.026,2.936,1.26-1.3-3.066-2.975A14.982,14.982,0,0,1,44.519,42.9ZM34.234,45.369A13.073,13.073,0,1,1,47.307,32.3,13.088,13.088,0,0,1,34.234,45.369ZM9.85,31.269h9.642a14.669,14.669,0,0,1,1.8-6.1,8.464,8.464,0,0,0-3.1-.58h0A8.525,8.525,0,0,0,9.85,31.269Zm8.341-8.386h0a3.9,3.9,0,1,0-3.9-3.9A3.9,3.9,0,0,0,18.193,22.883Zm29.053,2.409a14.671,14.671,0,0,1,1.732,5.977h10.01a8.524,8.524,0,0,0-8.34-6.681h0A8.576,8.576,0,0,0,47.244,25.292Zm3.4-2.409h0a3.9,3.9,0,1,0-3.9-3.9A3.9,3.9,0,0,0,50.645,22.883Zm9.6,31.248-2.761,2.845a2.12,2.12,0,0,1-3,.046l-4.9-4.756a2.55,2.55,0,0,1-.48.386L35.212,61.207a5.935,5.935,0,0,1-3.139.9,6.385,6.385,0,0,1-1.654-.223l-9.736-2.61-1.088.628.567,1a1.982,1.982,0,0,1-.748,2.7L17.265,64.82a1.959,1.959,0,0,1-.97.257,1.988,1.988,0,0,1-1.728-1L8.252,52.914A1.982,1.982,0,0,1,9,50.217L11.148,49a1.982,1.982,0,0,1,2.7.747l.451.8,5.545-3.21c1.508-.872,3.322-1.677,5.347-1.019.49.159,1.063.366,1.671.586a38.231,38.231,0,0,0,6.089,1.8.923.923,0,0,1,.112.028,3.075,3.075,0,0,1,2.09,3.682,3.374,3.374,0,0,1-.174.495,4.207,4.207,0,0,0,.751-.346l7.656-4.46a9.524,9.524,0,0,1,2.856-1.164l-3.015-2.926A14.769,14.769,0,0,1,19.472,32.974H8.849A.852.852,0,0,1,8,32.031a10.217,10.217,0,0,1,6.813-8.579,5.6,5.6,0,1,1,6.752,0q.329.114.649.251a14.765,14.765,0,0,1,24.124.124q.456-.211.93-.375a5.6,5.6,0,1,1,6.752,0,10.218,10.218,0,0,1,6.813,8.579.852.852,0,0,1-.847.943H49a14.682,14.682,0,0,1-2.254,7.184l3.318,3.219a2.125,2.125,0,0,1,2.491.339L60.2,51.136a2.12,2.12,0,0,1,.045,2.995ZM12.526,52.489a.767.767,0,1,1-.87-.649A.767.767,0,0,1,12.526,52.489Z" transform="translate(0 -1.554)" fill="#242222" fill-rule="evenodd"/>
    </g>
  </g>
</svg>
