<svg xmlns="http://www.w3.org/2000/svg" width="295" height="59.184" viewBox="0 0 295 59.184">
  <g id="Grupo_1101999" data-name="Grupo 1101999" transform="translate(-180 -12927.837)">
    <path id="Trazado_880187" data-name="Trazado 880187" d="M0,0H226a41,41,0,0,1,41,41v1H0Z" transform="translate(208 12937.687)" fill="#aee6e6"/>
    <text id="Comunicación_BTL_" data-name="Comunicación BTL " transform="translate(267 12965.366)" fill="#12263f" font-size="20" font-family="Roboto-Black, Roboto" font-weight="800"><tspan x="0" y="0">Comunicación BTL </tspan></text>
    <g id="Grupo_1100170" data-name="Grupo 1100170" transform="translate(0 9177.686)">
      <path id="_12068" data-name="12068" d="M66.039,71.828c-6.861-.947-14.108-.716-20.351,2.283C37.03,78.27,31.344,87.7,31.126,97.3s4.784,19.038,12.512,24.741a35.81,35.81,0,0,0,27.37,6.013c9.53-1.727,18.474-7.326,23.445-15.638,3.187-5.33,4.677-11.911,2.916-17.867a24.409,24.409,0,0,0-5.793-9.521A42.8,42.8,0,0,0,66.039,71.828Z" transform="translate(148.881 3680.691)" fill="#26aab7"/>
      <path id="Trazado_873155" data-name="Trazado 873155" d="M303.26,44.546a1.582,1.582,0,1,0-.106-2.456A1.573,1.573,0,0,0,303.26,44.546Z" transform="translate(138.287 4055.916) rotate(-90)" fill="#7d6eb2"/>
      <path id="Trazado_873156" data-name="Trazado 873156" d="M321.56,66.974a3.448,3.448,0,1,0-1.687-4.918A3.468,3.468,0,0,0,321.56,66.974Z" transform="translate(128.241 4079.581) rotate(-90)" fill="#ffd947"/>
      <circle id="Elipse_11521" data-name="Elipse 11521" cx="3.689" cy="3.689" r="3.689" transform="translate(237.702 3796.368) rotate(-90)" fill="none" stroke="#fff" stroke-linecap="round" stroke-linejoin="round" stroke-width="1.5"/>
    </g>
    <g id="Grupo_1102215" data-name="Grupo 1102215" transform="translate(187.915 12931.781)">
      <g id="Grupo_1102213" data-name="Grupo 1102213" transform="translate(0.825 0.825)">
        <g id="Grupo_1102196" data-name="Grupo 1102196" transform="translate(16.506)">
          <path id="Trazado_880585" data-name="Trazado 880585" d="M27.6,5.853a14.164,14.164,0,0,0-3.3-1.18V1.825A.828.828,0,0,1,25.127,1H53.188a.828.828,0,0,1,.825.825V43.091a.828.828,0,0,1-.825.825H25.952A1.663,1.663,0,0,0,27.6,42.266a1.655,1.655,0,0,0-1.651-1.651A1.663,1.663,0,0,0,27.6,38.965a1.655,1.655,0,0,0-1.651-1.651H24.3a1.446,1.446,0,0,0-.33.033l-.008-.083a2.426,2.426,0,0,0,1.263-.677,2.47,2.47,0,0,0,.726-1.75.828.828,0,0,0-.825-.825H21A14.85,14.85,0,0,0,34.3,12.555H49.886a.828.828,0,0,0,.825-.825v-6.6a.828.828,0,0,0-.825-.825L28.428,4.277A.828.828,0,0,0,27.6,5.1v.743Z" transform="translate(-21 -1)" fill="#aee6e6"/>
        </g>
        <g id="Grupo_1102197" data-name="Grupo 1102197" transform="translate(23.109 3.277)">
          <path id="Trazado_880586" data-name="Trazado 880586" d="M29.825,4.97l21.458.025a.828.828,0,0,1,.825.825v6.6a.828.828,0,0,1-.825.825H35.7a14.8,14.8,0,0,0-6.7-6.7V5.8A.828.828,0,0,1,29.825,4.97Z" transform="translate(-29 -4.97)" fill="#7d6eb2"/>
        </g>
        <g id="Grupo_1102198" data-name="Grupo 1102198" transform="translate(37.965 31.362)">
          <path id="Trazado_880587" data-name="Trazado 880587" d="M55.253,39.825v6.6a.828.828,0,0,1-.825.825h-6.6A.828.828,0,0,1,47,46.428v-6.6A.828.828,0,0,1,47.825,39h6.6A.828.828,0,0,1,55.253,39.825Z" transform="translate(-47 -39)" fill="#7d6eb2"/>
        </g>
        <g id="Grupo_1102199" data-name="Grupo 1102199" transform="translate(26.41 31.362)">
          <path id="Trazado_880588" data-name="Trazado 880588" d="M41.253,39.825v6.6a.828.828,0,0,1-.825.825h-6.6A.828.828,0,0,1,33,46.428v-6.6A.828.828,0,0,1,33.825,39h6.6A.828.828,0,0,1,41.253,39.825Z" transform="translate(-33 -39)" fill="#7d6eb2"/>
        </g>
        <g id="Grupo_1102200" data-name="Grupo 1102200" transform="translate(0 36.314)">
          <path id="Trazado_880589" data-name="Trazado 880589" d="M5.952,45.825v8.253a.828.828,0,0,1-.825.825H1V45H5.127A.828.828,0,0,1,5.952,45.825Z" transform="translate(-1 -45)" fill="#e6e9ed"/>
        </g>
        <g id="Grupo_1102201" data-name="Grupo 1102201" transform="translate(18.157 36.314)">
          <path id="Trazado_880590" data-name="Trazado 880590" d="M26.3,45a1.655,1.655,0,0,1,1.651,1.651A1.663,1.663,0,0,1,26.3,48.3H24.651A1.655,1.655,0,0,1,23,46.651a1.614,1.614,0,0,1,.487-1.164,1.657,1.657,0,0,1,.834-.454,1.446,1.446,0,0,1,.33-.033Z" transform="translate(-23 -45)" fill="#f0d0b4"/>
        </g>
        <g id="Grupo_1102202" data-name="Grupo 1102202" transform="translate(18.157 39.615)">
          <path id="Trazado_880591" data-name="Trazado 880591" d="M26.3,49a1.655,1.655,0,0,1,1.651,1.651A1.663,1.663,0,0,1,26.3,52.3H24.651A1.655,1.655,0,0,1,23,50.651,1.663,1.663,0,0,1,24.651,49Z" transform="translate(-23 -49)" fill="#f0d0b4"/>
        </g>
        <g id="Grupo_1102203" data-name="Grupo 1102203" transform="translate(18.157 42.917)">
          <path id="Trazado_880592" data-name="Trazado 880592" d="M24.651,56.3A1.655,1.655,0,0,1,23,54.651,1.663,1.663,0,0,1,24.651,53H26.3a1.655,1.655,0,0,1,1.651,1.651A1.663,1.663,0,0,1,26.3,56.3Z" transform="translate(-23 -53)" fill="#f0d0b4"/>
        </g>
        <g id="Grupo_1102204" data-name="Grupo 1102204" transform="translate(4.952 33.013)">
          <path id="Trazado_880593" data-name="Trazado 880593" d="M16.9,53.38v2.476H12.975A8.46,8.46,0,0,1,7,53.38V45.127A8.5,8.5,0,0,1,14.288,41h8.394a.828.828,0,0,1,.825.825,2.47,2.47,0,0,1-.726,1.75,2.426,2.426,0,0,1-1.263.677,2.377,2.377,0,0,1-.487.05H18.554A5.722,5.722,0,0,1,16.9,46.1Z" transform="translate(-7 -41)" fill="#f0d0b4"/>
        </g>
        <g id="Grupo_1102205" data-name="Grupo 1102205" transform="translate(14.856 36.265)">
          <path id="Trazado_880594" data-name="Trazado 880594" d="M22.788,45.476A1.614,1.614,0,0,0,22.3,46.64a1.656,1.656,0,0,0,1.651,1.651A1.663,1.663,0,0,0,22.3,49.941a1.655,1.655,0,0,0,1.651,1.651A1.663,1.663,0,0,0,22.3,53.243a1.655,1.655,0,0,0,1.651,1.651v1.651A1.655,1.655,0,0,1,22.3,58.195H20.651A1.655,1.655,0,0,1,19,56.544V46.789a5.722,5.722,0,0,0,1.651-1.8h2.476a2.377,2.377,0,0,0,.487-.05l.008.083a1.657,1.657,0,0,0-.834.454Z" transform="translate(-19 -44.94)" fill="#969faa"/>
        </g>
        <g id="Grupo_1102206" data-name="Grupo 1102206" transform="translate(1.651 3.301)">
          <path id="Trazado_880595" data-name="Trazado 880595" d="M31.16,13.253A14.853,14.853,0,1,1,17.856,5a14.563,14.563,0,0,1,3.3.371,14.164,14.164,0,0,1,3.3,1.18A14.8,14.8,0,0,1,31.16,13.253Z" transform="translate(-3 -5)" fill="#ccd1d9"/>
        </g>
        <g id="Grupo_1102207" data-name="Grupo 1102207" transform="translate(4.952 6.603)">
          <path id="Trazado_880596" data-name="Trazado 880596" d="M18.554,9A11.554,11.554,0,1,1,7,20.554,11.557,11.557,0,0,1,18.554,9Z" transform="translate(-7 -9)" fill="#69d6f4"/>
        </g>
        <g id="Grupo_1102208" data-name="Grupo 1102208" transform="translate(13.205 19.808)">
          <path id="Trazado_880597" data-name="Trazado 880597" d="M20.3,26.651v4.127a.828.828,0,0,1-.825.825H17.825A.828.828,0,0,1,17,30.777V25Z" transform="translate(-17 -25)" fill="#aab2bd"/>
        </g>
        <g id="Grupo_1102209" data-name="Grupo 1102209" transform="translate(13.205 13.205)">
          <path id="Trazado_880598" data-name="Trazado 880598" d="M21.952,17v9.079L20.3,25.253,17,23.6V18.651Z" transform="translate(-17 -17)" fill="#e6e9ed"/>
        </g>
        <g id="Grupo_1102210" data-name="Grupo 1102210" transform="translate(21.458 14.856)">
          <path id="Trazado_880599" data-name="Trazado 880599" d="M28.7,19.421a2.119,2.119,0,0,1,0,4.11l-1.7.421V19Z" transform="translate(-27 -19)" fill="#fcd770"/>
        </g>
        <g id="Grupo_1102211" data-name="Grupo 1102211" transform="translate(18.157 11.554)">
          <path id="Trazado_880600" data-name="Trazado 880600" d="M26.3,23.253v2.476a.828.828,0,0,1-.825.825H23.825A.828.828,0,0,1,23,25.729v-9.9A.828.828,0,0,1,23.825,15h1.651a.828.828,0,0,1,.825.825v7.428Z" transform="translate(-23 -15)" fill="#7d6eb2"/>
        </g>
        <g id="Grupo_1102212" data-name="Grupo 1102212" transform="translate(8.253 14.856)">
          <path id="Trazado_880601" data-name="Trazado 880601" d="M15.952,19v4.952H13.476a2.476,2.476,0,1,1,0-4.952Z" transform="translate(-11 -19)" fill="#7d6eb2"/>
        </g>
      </g>
      <g id="Grupo_1102214" data-name="Grupo 1102214">
        <path id="Trazado_880602" data-name="Trazado 880602" d="M19.9,28.856V26.065l.106.053a1.647,1.647,0,0,0,1.545,1.088h1.651a1.652,1.652,0,0,0,1.651-1.651V23.723l1.075-.269a2.939,2.939,0,0,0,0-5.7l-1.075-.269V15.651A1.652,1.652,0,0,0,23.205,14H21.554A1.652,1.652,0,0,0,19.9,15.651v.23l-4.26,1.42H13.3a3.3,3.3,0,1,0,0,6.6h1.651v4.952A1.652,1.652,0,0,0,16.6,30.506h1.651A1.652,1.652,0,0,0,19.9,28.856Zm5.626-9.5a1.289,1.289,0,0,1,0,2.5l-.674.168V19.184Zm-3.976-3.7h1.651v9.9H21.554ZM19.9,24.219l-3.3-1.651V18.722l3.3-1.1Zm-6.6-1.966a1.651,1.651,0,0,1,0-3.3h1.651v3.3Zm3.3,6.6V24.414l1.651.825v3.617Z" transform="translate(-1.747 -2.446)"/>
        <path id="Trazado_880603" data-name="Trazado 880603" d="M30.76,20.38A12.38,12.38,0,1,0,18.38,32.76,12.394,12.394,0,0,0,30.76,20.38Zm-23.109,0A10.729,10.729,0,1,1,18.38,31.109,10.742,10.742,0,0,1,7.651,20.38Z" transform="translate(-1.048 -1.397)"/>
        <path id="Trazado_880604" data-name="Trazado 880604" d="M49.519,0H21.458a1.652,1.652,0,0,0-1.651,1.651V3.517a15.663,15.663,0,0,0-8.885,29.762,9.39,9.39,0,0,0-5.156,3.259,1.631,1.631,0,0,0-.815-.224H0V47.869H4.952A1.629,1.629,0,0,0,5.98,47.5a9.2,9.2,0,0,0,5.774,2.021h3.253a2.473,2.473,0,0,0,2.324,1.651h1.651a2.479,2.479,0,0,0,2.476-2.476v-.825h.825a2.479,2.479,0,0,0,2.476-2.476,2.448,2.448,0,0,0-.152-.825H49.519a1.652,1.652,0,0,0,1.651-1.651V1.651A1.652,1.652,0,0,0,49.519,0ZM4.952,46.218h-3.3V37.965h3.3ZM3.3,18.982a14.03,14.03,0,1,1,14.03,14.03A14.046,14.046,0,0,1,3.3,18.982ZM24.759,4.926l21.459.026v6.6H31.137a15.786,15.786,0,0,0-6.378-6.377ZM19.808,42.091a.826.826,0,0,1,.825-.825h1.651a.825.825,0,0,1,0,1.651H20.633A.826.826,0,0,1,19.808,42.091Zm2.476-2.476H20.633a.825.825,0,0,1,0-1.651h1.651a.825.825,0,0,1,0,1.651ZM6.6,45.854V38.22a7.708,7.708,0,0,1,6.463-3.556h8.393a1.652,1.652,0,0,1-1.651,1.651H16.822l-.228.456a3.608,3.608,0,0,1-2.1,1.821l-.725.242.522,1.565.564-.188v3.722a8.462,8.462,0,0,0-3.04-1.8L11.293,43.7a6.822,6.822,0,0,1,3.5,2.672l.065.1v1.4h-3.1A7.568,7.568,0,0,1,6.6,45.854Zm12.38,3.665H17.332a.826.826,0,0,1-.825-.825V39.369a5.225,5.225,0,0,0,1.306-1.4h.5a2.4,2.4,0,0,0,.492,2.476,2.438,2.438,0,0,0,0,3.3,2.453,2.453,0,0,0,1.007,3.975v.977A.826.826,0,0,1,18.982,49.519Zm4.127-4.127a.826.826,0,0,1-.825.825H20.633a.825.825,0,1,1,0-1.651h1.651A.826.826,0,0,1,23.109,45.393Zm26.41-2.476H24.608a2.4,2.4,0,0,0-.492-2.476,2.456,2.456,0,0,0-1.485-4.091,3.272,3.272,0,0,0,.478-1.686,1.634,1.634,0,0,0-.34-.992A15.621,15.621,0,0,0,31.9,13.205H46.218a1.652,1.652,0,0,0,1.651-1.651v-6.6A1.652,1.652,0,0,0,46.219,3.3L24.76,3.276a1.648,1.648,0,0,0-1.571,1.171,15.566,15.566,0,0,0-1.73-.576V1.651H49.519Z"/>
        <path id="Trazado_880605" data-name="Trazado 880605" d="M54.253,38h-6.6A1.652,1.652,0,0,0,46,39.651v6.6A1.652,1.652,0,0,0,47.651,47.9h6.6A1.652,1.652,0,0,0,55.9,46.253v-6.6A1.652,1.652,0,0,0,54.253,38Zm-6.6,8.253v-6.6h6.6l0,6.6Z" transform="translate(-8.035 -6.638)"/>
        <path id="Trazado_880606" data-name="Trazado 880606" d="M40.253,38h-6.6A1.652,1.652,0,0,0,32,39.651v6.6A1.652,1.652,0,0,0,33.651,47.9h6.6A1.652,1.652,0,0,0,41.9,46.253v-6.6A1.652,1.652,0,0,0,40.253,38Zm-6.6,8.253v-6.6h6.6l0,6.6Z" transform="translate(-5.59 -6.638)"/>
        <path id="Trazado_880607" data-name="Trazado 880607" d="M48,34h1.651v1.651H48Z" transform="translate(-8.385 -5.939)"/>
        <path id="Trazado_880608" data-name="Trazado 880608" d="M52,34h1.651v1.651H52Z" transform="translate(-9.083 -5.939)"/>
        <path id="Trazado_880609" data-name="Trazado 880609" d="M56,34h1.651v1.651H56Z" transform="translate(-9.782 -5.939)"/>
        <path id="Trazado_880610" data-name="Trazado 880610" d="M42,30H55.205v1.651H42Z" transform="translate(-7.337 -5.24)"/>
        <path id="Trazado_880611" data-name="Trazado 880611" d="M42,26H55.205v1.651H42Z" transform="translate(-7.337 -4.542)"/>
        <path id="Trazado_880612" data-name="Trazado 880612" d="M42,22H55.205v1.651H42Z" transform="translate(-7.337 -3.843)"/>
        <path id="Trazado_880613" data-name="Trazado 880613" d="M48,18h8.253v1.651H48Z" transform="translate(-8.385 -3.144)"/>
        <path id="Trazado_880614" data-name="Trazado 880614" d="M42,18h3.3v1.651H42Z" transform="translate(-7.337 -3.144)"/>
      </g>
    </g>
  </g>
</svg>
