<svg xmlns="http://www.w3.org/2000/svg" width="78.501" height="70.994" viewBox="0 0 78.501 70.994">
  <g id="Grupo_1102524" data-name="Grupo 1102524" transform="translate(-565 -16887.045)">
    <path id="_12068" data-name="12068" d="M72.033,71.913c-8.038-1.11-16.53-.839-23.844,2.675C38.045,79.46,31.382,90.507,31.127,101.757s5.606,22.305,14.66,28.988,21,9.051,32.068,7.045c11.165-2.023,21.645-8.583,27.469-18.322,3.735-6.245,5.48-13.956,3.417-20.934a28.6,28.6,0,0,0-6.787-11.156A50.145,50.145,0,0,0,72.033,71.913Z" transform="translate(533.881 16819.559)" fill="#26aab7"/>
    <g id="Grupo_1102138" data-name="Grupo 1102138" transform="translate(570.172 16887.045)">
      <g id="Grupo_1102137" data-name="Grupo 1102137" transform="translate(0.965 0.957)">
        <g id="Grupo_1102134" data-name="Grupo 1102134" transform="translate(0.118 0)">
          <path id="Trazado_880500" data-name="Trazado 880500" d="M30.931,28.669,17.119,34.186a.414.414,0,0,0-.233.532L21.23,46.071a.414.414,0,0,0,.54.236l9.161-3.659L36.642,36.5Zm36.8,0,13.811,5.517a.414.414,0,0,1,.233.532L77.43,46.07a.414.414,0,0,1-.54.236l-9.161-3.659-5.394-6.887Z" transform="translate(-16.859 -26.921)" fill="#aee6e6" fill-rule="evenodd"/>
          <path id="Trazado_880501" data-name="Trazado 880501" d="M155.648,17.748,144.842,16H129.655l-10.806,1.748V68.672h36.8Z" transform="translate(-104.777 -16)" fill="#7d6eb2" fill-rule="evenodd"/>
          <path id="Trazado_880502" data-name="Trazado 880502" d="M196.616,16h15.34a7.67,7.67,0,1,1-15.34,0Z" transform="translate(-171.815 -16)" fill="#62529b" fill-rule="evenodd"/>
        </g>
        <g id="Grupo_1102135" data-name="Grupo 1102135" transform="translate(35.836 35.613)">
          <path id="Trazado_880503" data-name="Trazado 880503" d="M279.777,274.119h22.3a1.182,1.182,0,0,1,1.179,1.058l2.846,26.272a2.964,2.964,0,0,1-2.947,3.283H278.7a2.964,2.964,0,0,1-2.947-3.283l2.846-26.272A1.182,1.182,0,0,1,279.777,274.119Z" transform="translate(-275.733 -274.119)" fill="#aee6e6" fill-rule="evenodd"/>
          <path id="Trazado_880504" data-name="Trazado 880504" d="M356.4,363.028l.978,2.484a.406.406,0,0,0,.36.261l2.665.163a.414.414,0,0,1,.238.732l-2.06,1.7a.406.406,0,0,0-.137.423l.669,2.585a.414.414,0,0,1-.623.453l-2.252-1.435a.406.406,0,0,0-.445,0l-2.252,1.435a.414.414,0,0,1-.623-.453l.669-2.585a.406.406,0,0,0-.137-.423l-2.06-1.7a.414.414,0,0,1,.238-.733l2.665-.163a.406.406,0,0,0,.36-.261l.978-2.484a.414.414,0,0,1,.77,0Z" transform="translate(-340.819 -350.535)" fill="#62529b" fill-rule="evenodd"/>
        </g>
        <g id="Grupo_1102136" data-name="Grupo 1102136" transform="translate(0 49.943)">
          <path id="Trazado_880505" data-name="Trazado 880505" d="M93.831,428.03l16.863,4.519a.415.415,0,0,1,.293.507l-.613,2.289a2.793,2.793,0,0,1-3.41,1.969L88.4,432.339Z" transform="translate(-78.41 -421.125)" fill="#aee6e6" fill-rule="evenodd"/>
          <path id="Trazado_880506" data-name="Trazado 880506" d="M25.441,378.417a12.733,12.733,0,0,1,15.595,9L16.844,393.9a.414.414,0,0,1-.51-.306,12.733,12.733,0,0,1,9.107-15.18Z" transform="translate(-16 -377.98)" fill="#aee6e6" fill-rule="evenodd"/>
          <path id="Trazado_880507" data-name="Trazado 880507" d="M129.851,385.33a17.553,17.553,0,0,0-.542,4.234,32.776,32.776,0,0,0,.3,4.914l9.019-2.417.076-.021a12.734,12.734,0,0,0-8.029-8.7A6.237,6.237,0,0,0,129.851,385.33Z" transform="translate(-113.671 -382.6)" fill="#aee6e6" fill-rule="evenodd"/>
        </g>
      </g>
      <path id="Trazado_880508" data-name="Trazado 880508" d="M62.749,62.88a.966.966,0,0,0-.32.987l.384,1.483-1.293-.823A.962.962,0,0,0,61,64.376a.971.971,0,0,0-.519.151l-1.291.823.384-1.483a.966.966,0,0,0-.322-.987l-1.182-.974,1.53-.094a.965.965,0,0,0,.839-.61L61,59.776l.562,1.426a.967.967,0,0,0,.84.61l1.53.094ZM50.352,9.066H34.769L24.007,10.807a.973.973,0,0,0-.2.056L9.613,16.531a.966.966,0,0,0-.544,1.242L13.709,29.9a.964.964,0,0,0,1.259.552L23.2,27.165V59A13.7,13.7,0,0,0,9.474,76.237a.966.966,0,0,0,1.184.682L24.174,73.3l14.1,3.778a3.746,3.746,0,0,0,4.593-2.651l.721-2.689a.967.967,0,0,0-.683-1.183l-7.11-1.9a13.605,13.605,0,0,0-2.8-5H45.862l-1,9.2A3.918,3.918,0,0,0,48.773,77.2H73.231a3.919,3.919,0,0,0,3.907-4.354L74.292,46.579a2.148,2.148,0,0,0-2.139-1.92H68.37V43.17a7.378,7.378,0,0,0-6.445-7.308v-8.7l8.228,3.286a.964.964,0,0,0,1.26-.552l4.64-12.126a.966.966,0,0,0-.544-1.242l-14.19-5.668a.97.97,0,0,0-.2-.056ZM66.5,60.127l-3.362-.205L61.9,56.787a.966.966,0,0,0-1.8,0l-1.235,3.135-3.362.205a.966.966,0,0,0-.556,1.709l2.6,2.143-.845,3.262A.966.966,0,0,0,58.16,68.3L61,66.487,63.843,68.3A.966.966,0,0,0,65.3,67.241l-.845-3.262,2.6-2.143a.966.966,0,0,0-.556-1.709Zm8.224,14.486a1.978,1.978,0,0,0,.5-1.554L72.371,46.787a.217.217,0,0,0-.218-.2H68.37V49.1a1.38,1.38,0,1,1-1.932,0V46.591H55.565V49.1a1.379,1.379,0,1,1-1.931,0V46.591H49.851a.216.216,0,0,0-.218.2L46.786,73.06a1.986,1.986,0,0,0,1.987,2.214H73.231A1.978,1.978,0,0,0,74.722,74.613ZM30.9,61.719H46.071l1.641-15.14a2.147,2.147,0,0,1,2.139-1.92h3.783V43.17a7.378,7.378,0,0,1,6.36-7.3V12.583L51.12,11.147a8.634,8.634,0,0,1-17.118,0l-8.874,1.436V59.21a13.778,13.778,0,0,1,5.771,2.51Zm-4.156,8.891c-.5-4.913.227-7.572.687-8.691a11.753,11.753,0,0,1,6.356,6.8ZM41,73.926a1.82,1.82,0,0,1-2.227,1.285L27.9,72.3l7.025-1.882,6.541,1.753Zm-21.34-12.6a11.658,11.658,0,0,1,5.929-.038c-.6,1.5-1.324,4.524-.738,9.83L11.129,74.794a11.782,11.782,0,0,1,8.532-13.469Zm-4.5-33.032L11.213,17.972,23.2,13.186v11.9ZM49.193,10.979a6.7,6.7,0,0,1-13.268,0Zm10.8,33.681H55.565V43.17a5.444,5.444,0,0,1,4.429-5.342Zm6.444-1.49v1.49H61.925V37.813A5.445,5.445,0,0,1,66.438,43.17ZM61.925,13.186l11.983,4.786-3.95,10.321-8.033-3.208Z" transform="translate(-9.005 -9.066)" fill-rule="evenodd"/>
    </g>
  </g>
</svg>
