<svg xmlns="http://www.w3.org/2000/svg" width="78.501" height="82.098" viewBox="0 0 78.501 82.098">
  <g id="Grupo_1102525" data-name="Grupo 1102525" transform="translate(-569 -17284.941)">
    <path id="_12068" data-name="12068" d="M72.033,71.913c-8.038-1.11-16.53-.839-23.844,2.675C38.045,79.46,31.382,90.507,31.127,101.757s5.606,22.305,14.66,28.988,21,9.051,32.068,7.045c11.165-2.023,21.645-8.583,27.469-18.322,3.735-6.245,5.48-13.956,3.417-20.934a28.6,28.6,0,0,0-6.787-11.156A50.145,50.145,0,0,0,72.033,71.913Z" transform="translate(537.881 17228.559)" fill="#26aab7"/>
    <g id="Grupo_1102141" data-name="Grupo 1102141" transform="translate(583.04 17284.941)">
      <g id="Grupo_1102139" data-name="Grupo 1102139" transform="translate(1.397 1.397)">
        <path id="Trazado_880509" data-name="Trazado 880509" d="M96,25.37V76.435a2.3,2.3,0,0,0,2.3,2.3h40.112a2.3,2.3,0,0,0,2.3-2.3V25.369a2.3,2.3,0,0,0-1.041-1.923L119.628,10.371a2.3,2.3,0,0,0-2.508,0L97.042,23.446A2.3,2.3,0,0,0,96,25.37Z" transform="translate(-95.999 -9.998)" fill="#aee6e6"/>
        <circle id="Elipse_12012" data-name="Elipse 12012" cx="3.906" cy="3.906" r="3.906" transform="translate(18.446 7.544)" fill="#aee6e6"/>
      </g>
      <g id="Grupo_1102140" data-name="Grupo 1102140">
        <path id="Trazado_880510" data-name="Trazado 880510" d="M131.823,13.674,127.118,10.6a1.4,1.4,0,1,0-1.527,2.34l4.705,3.071a.9.9,0,0,1,.408.753V67.834a.9.9,0,0,1-.9.9H89.692a.9.9,0,0,1-.9-.9V16.769a.9.9,0,0,1,.409-.754L109.28,2.939a.9.9,0,0,1,.982,0l4.8,3.133a1.4,1.4,0,0,0,1.527-2.34L111.789.6a3.7,3.7,0,0,0-4.034,0L87.677,13.674A3.681,3.681,0,0,0,86,16.769V67.834a3.7,3.7,0,0,0,3.693,3.693H129.8a3.7,3.7,0,0,0,3.693-3.693V16.767a3.682,3.682,0,0,0-1.675-3.093Z" transform="translate(-85.999 0.001)"/>
        <path id="Trazado_880511" data-name="Trazado 880511" d="M228.645,59.3a5.3,5.3,0,1,0-5.3,5.3A5.309,5.309,0,0,0,228.645,59.3Zm-7.812,0a2.509,2.509,0,1,1,2.509,2.509A2.512,2.512,0,0,1,220.833,59.3Z" transform="translate(-199.593 -46.453)"/>
        <path id="Trazado_880512" data-name="Trazado 880512" d="M130.26,197.9a1.4,1.4,0,0,0,1.4-1.4V181.1a1.4,1.4,0,0,0-1.4-1.4H127.4a1.4,1.4,0,1,0,0,2.794h1.466v14.012A1.4,1.4,0,0,0,130.26,197.9Z" transform="translate(-120.411 -154.595)"/>
        <path id="Trazado_880513" data-name="Trazado 880513" d="M203.871,192.518V185.1a5.392,5.392,0,0,0-10.784,0v7.416a5.392,5.392,0,0,0,10.784,0Zm-2.794,0a2.6,2.6,0,0,1-5.2,0V185.1a2.6,2.6,0,0,1,5.2,0Z" transform="translate(-178.126 -154.604)"/>
        <path id="Trazado_880514" data-name="Trazado 880514" d="M286.923,196.556a4.189,4.189,0,0,0,5.3,4.042l-3,7.142a1.4,1.4,0,1,0,2.576,1.081l.735-1.751a4.193,4.193,0,1,0,2.006-4.78l3.156-7.52a1.4,1.4,0,1,0-2.576-1.081l-.347.827a4.19,4.19,0,0,0-7.85,2.04Zm9.65,8a1.4,1.4,0,1,1-1.4,1.4A1.4,1.4,0,0,1,296.573,204.556Zm-5.459-9.4a1.4,1.4,0,1,1-1.4,1.4A1.4,1.4,0,0,1,291.114,195.159Z" transform="translate(-258.853 -165.491)"/>
        <path id="Trazado_880515" data-name="Trazado 880515" d="M259.706,361.084a1.4,1.4,0,1,0,0-2.794h-4.5a1.4,1.4,0,0,0-1.4,1.4v11.094a1.4,1.4,0,1,0,2.794,0v-4.255h2.742a1.4,1.4,0,0,0,0-2.794h-2.742v-2.648Z" transform="translate(-230.368 -308.236)"/>
        <path id="Trazado_880516" data-name="Trazado 880516" d="M140.8,371.967a6.985,6.985,0,1,0-6.985-6.985A6.993,6.993,0,0,0,140.8,371.967Zm0-11.176a4.191,4.191,0,1,1-4.191,4.191A4.2,4.2,0,0,1,140.8,360.791Z" transform="translate(-127.132 -307.984)"/>
        <path id="Trazado_880517" data-name="Trazado 880517" d="M331.892,361.084a1.4,1.4,0,1,0,0-2.794h-4.5a1.4,1.4,0,0,0-1.4,1.4v11.094a1.4,1.4,0,1,0,2.794,0v-4.255h2.742a1.4,1.4,0,1,0,0-2.794h-2.742v-2.648Z" transform="translate(-292.469 -308.236)"/>
        <circle id="Elipse_12013" data-name="Elipse 12013" cx="1.397" cy="1.397" r="1.397" transform="translate(33.689 6.95)"/>
      </g>
    </g>
  </g>
</svg>
