<svg xmlns="http://www.w3.org/2000/svg" width="132" height="132" viewBox="0 0 132 132">
  <g id="Grupo_1102435" data-name="Grupo 1102435" transform="translate(6335 9258)">
    <g id="Grupo_1102411" data-name="Grupo 1102411" transform="translate(19.333 10.999)">
      <g id="Grupo_1102406" data-name="Grupo 1102406" transform="translate(-6351.333 -9247.383)">
        <path id="_12068" data-name="12068" d="M96.789,72.265c-12.9-1.782-26.531-1.346-38.272,4.293-16.282,7.82-26.975,25.551-27.385,43.609s9,35.8,23.53,46.529,33.7,14.528,51.472,11.308c17.921-3.248,34.743-13.777,44.091-29.409,5.994-10.023,8.8-22.4,5.485-33.6-2-6.76-6.086-12.75-10.894-17.906A80.487,80.487,0,0,0,96.789,72.265Z" transform="translate(-31.119 -71.333)" fill="#26aab7"/>
      </g>
      <g id="hablando_2_" data-name="hablando (2)" transform="translate(-6330.835 -9247.383)">
        <g id="Grupo_1102409" data-name="Grupo 1102409" transform="translate(1.366 1.364)">
          <path id="Trazado_880847" data-name="Trazado 880847" d="M77.723,28.279H67.661a11.04,11.04,0,1,0,0,22.079,2.144,2.144,0,0,1,1.878,1.11l1.275,2.317a2.144,2.144,0,0,0,3.757,0l1.275-2.317a2.144,2.144,0,0,1,1.878-1.11,11.04,11.04,0,1,0,0-22.079Z" transform="translate(-47.67 -28.279)" fill="#50e1cd"/>
          <path id="Trazado_880848" data-name="Trazado 880848" d="M290.025,28.279h10.062a11.04,11.04,0,0,1,0,22.079,2.144,2.144,0,0,0-1.878,1.11l-1.275,2.317a2.144,2.144,0,0,1-3.757,0L291.9,51.469a2.144,2.144,0,0,0-1.878-1.11,11.04,11.04,0,1,1,0-22.079Z" transform="translate(-229.517 -28.279)" fill="#50e1cd"/>
          <path id="Trazado_880849" data-name="Trazado 880849" d="M299.229,431.348c0-6.8,5.724-11.669,5.724-11.669h14.461s5.724,4.873,5.724,11.669Z" transform="translate(-246.072 -348.36)" fill="#93bbe7"/>
          <path id="Trazado_880850" data-name="Trazado 880850" d="M274.181,211.4a2.66,2.66,0,0,1-1.947-4.475,23.5,23.5,0,0,1,16.912-7.413,23.794,23.794,0,0,1,23.794,23.806Z" transform="translate(-223.403 -168.309)" fill="#e8a882"/>
          <path id="Trazado_880851" data-name="Trazado 880851" d="M53.83,206.924a23.5,23.5,0,0,0-16.912-7.413,23.794,23.794,0,0,0-23.794,23.806v9.9a10.316,10.316,0,0,0,10.316,10.316h5.877v-3.907L51.883,211.4A2.66,2.66,0,0,0,53.83,206.924Z" transform="translate(-12.1 -168.309)" fill="#6a647f"/>
          <path id="Trazado_880852" data-name="Trazado 880852" d="M23.583,221.522c0-10.891,7.326-19.934,16.947-21.7a23.574,23.574,0,0,0-27.4,23.494v9.9a10.316,10.316,0,0,0,10.316,10.316h5.877v-3.907l1.229-1.537a22.739,22.739,0,0,1-6.965-16.568Z" transform="translate(-12.101 -168.309)" fill="#5c586f"/>
          <path id="Trazado_880853" data-name="Trazado 880853" d="M96.486,431.348c0-6.8-5.724-11.669-5.724-11.669H76.3s-5.724,4.873-5.724,11.669Z" transform="translate(-59.083 -348.36)" fill="#fdd89f"/>
          <path id="Trazado_880854" data-name="Trazado 880854" d="M79.252,276.43a18.113,18.113,0,1,1-35.213-5.984,8.547,8.547,0,0,1,8.08-5.686H76.337C79,267.912,79.252,271.984,79.252,276.43Z" transform="translate(-36.553 -221.67)" fill="#da9d81"/>
          <circle id="Elipse_12039" data-name="Elipse 12039" cx="6.162" cy="6.162" r="6.162" transform="translate(78.235 48.91)" fill="#ffcabd"/>
          <path id="Trazado_880855" data-name="Trazado 880855" d="M292.905,199.782a23.144,23.144,0,0,0-3.76-.27,23.5,23.5,0,0,0-16.912,7.413,2.66,2.66,0,0,0,1.947,4.475l2.577.792A23.39,23.39,0,0,1,292.905,199.782Z" transform="translate(-223.403 -168.31)" fill="#e3986d"/>
          <path id="Trazado_880856" data-name="Trazado 880856" d="M270.168,276.43a18.113,18.113,0,1,0,35.213-5.984,8.547,8.547,0,0,0-8.08-5.686H273.084C270.425,267.912,270.168,271.984,270.168,276.43Z" transform="translate(-222.306 -221.67)" fill="#ffdcce"/>
          <path id="Trazado_880857" data-name="Trazado 880857" d="M18.982,275.842a23.356,23.356,0,0,1,2.179-9.91,8.517,8.517,0,0,0-6.175,5.473c-.032.091-.06.185-.091.277a5.024,5.024,0,0,0-1.233-.144,6.162,6.162,0,0,0,0,12.325,4.869,4.869,0,0,0,1.426-.2,18.068,18.068,0,0,0,14.883,11.713A22.277,22.277,0,0,1,18.982,275.842Z" transform="translate(-7.5 -222.628)" fill="#c7856a"/>
          <path id="Trazado_880858" data-name="Trazado 880858" d="M273.464,275.016a21.475,21.475,0,0,1,2.6-10.257h-2.983c-2.659,3.152-2.916,7.224-2.916,11.67a18.118,18.118,0,0,0,14.672,17.786A22.218,22.218,0,0,1,273.464,275.016Z" transform="translate(-222.306 -221.669)" fill="#ffcabd"/>
          <path id="Trazado_880859" data-name="Trazado 880859" d="M62.4,37.932A13.351,13.351,0,0,1,65.5,29.443,11.04,11.04,0,0,0,67.661,51.31a2.144,2.144,0,0,1,1.878,1.11l1.275,2.317a2.144,2.144,0,0,0,3.757,0l.974-1.769C68.4,50.736,62.4,44.416,62.4,37.932Z" transform="translate(-47.67 -29.231)" fill="#00d1b3"/>
        </g>
        <g id="Grupo_1102410" data-name="Grupo 1102410">
          <path id="Trazado_880860" data-name="Trazado 880860" d="M99.4,313.522a1.367,1.367,0,0,0-1.367,1.367v1.868a1.367,1.367,0,1,0,2.733,0v-1.868A1.367,1.367,0,0,0,99.4,313.522Z" transform="translate(-80.169 -260.182)"/>
          <path id="Trazado_880861" data-name="Trazado 880861" d="M206.093,313.522a1.367,1.367,0,0,0-1.367,1.367v1.868a1.367,1.367,0,1,0,2.733,0v-1.868A1.367,1.367,0,0,0,206.093,313.522Z" transform="translate(-167.422 -260.182)"/>
          <path id="Trazado_880862" data-name="Trazado 880862" d="M144.7,323.8a1.367,1.367,0,0,0-1.928.132,2.03,2.03,0,0,1-3.065,0,1.367,1.367,0,1,0-2.06,1.8,4.763,4.763,0,0,0,7.186,0A1.367,1.367,0,0,0,144.7,323.8Z" transform="translate(-112.294 -268.316)"/>
          <path id="Trazado_880863" data-name="Trazado 880863" d="M400.316,313.522a1.367,1.367,0,0,0-1.367,1.367v1.868a1.367,1.367,0,1,0,2.733,0v-1.868A1.367,1.367,0,0,0,400.316,313.522Z" transform="translate(-326.255 -260.182)"/>
          <path id="Trazado_880864" data-name="Trazado 880864" d="M293.621,313.522a1.367,1.367,0,0,0-1.367,1.367v1.868a1.367,1.367,0,1,0,2.733,0v-1.868A1.367,1.367,0,0,0,293.621,313.522Z" transform="translate(-239.001 -260.182)"/>
          <path id="Trazado_880865" data-name="Trazado 880865" d="M338.926,323.8a1.367,1.367,0,0,0-1.928.132,2.03,2.03,0,0,1-3.065,0,1.367,1.367,0,0,0-2.06,1.8,4.763,4.763,0,0,0,7.186,0A1.366,1.366,0,0,0,338.926,323.8Z" transform="translate(-271.126 -268.316)"/>
          <path id="Trazado_880866" data-name="Trazado 880866" d="M138.613,81.291a1.382,1.382,0,1,0,1.382,1.382A1.382,1.382,0,0,0,138.613,81.291Z" transform="translate(-112.226 -70.267)"/>
          <path id="Trazado_880867" data-name="Trazado 880867" d="M106.737,81.291a1.382,1.382,0,1,0,1.382,1.382A1.382,1.382,0,0,0,106.737,81.291Z" transform="translate(-86.158 -70.267)"/>
          <path id="Trazado_880868" data-name="Trazado 880868" d="M170.489,81.291a1.382,1.382,0,1,0,1.382,1.382A1.382,1.382,0,0,0,170.489,81.291Z" transform="translate(-138.294 -70.267)"/>
          <path id="Trazado_880869" data-name="Trazado 880869" d="M71.589,20.791H61.528a12.406,12.406,0,0,0,0,24.811.777.777,0,0,1,.681.4l1.274,2.317a3.513,3.513,0,0,0,6.151,0l1.274-2.317a.777.777,0,0,1,.681-.4,12.406,12.406,0,0,0,0-24.812Zm0,22.078a3.51,3.51,0,0,0-3.076,1.818L67.239,47a.777.777,0,0,1-1.362,0L64.6,44.687a3.51,3.51,0,0,0-3.076-1.818,9.673,9.673,0,1,1,0-19.345H71.589a9.673,9.673,0,0,1,0,19.345Z" transform="translate(-40.171 -20.791)"/>
          <path id="Trazado_880870" data-name="Trazado 880870" d="M360.965,84.054a1.382,1.382,0,1,0-1.382-1.382A1.382,1.382,0,0,0,360.965,84.054Z" transform="translate(-294.062 -70.267)"/>
          <path id="Trazado_880871" data-name="Trazado 880871" d="M392.841,84.054a1.382,1.382,0,1,0-1.382-1.382A1.382,1.382,0,0,0,392.841,84.054Z" transform="translate(-320.13 -70.267)"/>
          <path id="Trazado_880872" data-name="Trazado 880872" d="M329.09,84.054a1.382,1.382,0,1,0-1.382-1.382A1.382,1.382,0,0,0,329.09,84.054Z" transform="translate(-267.995 -70.267)"/>
          <path id="Trazado_880873" data-name="Trazado 880873" d="M283.88,45.6a.777.777,0,0,1,.681.4l1.274,2.317a3.513,3.513,0,0,0,6.151,0l1.274-2.317a.777.777,0,0,1,.681-.4,12.406,12.406,0,0,0,0-24.811H283.88a12.406,12.406,0,1,0,0,24.811Zm0-22.078h10.062a9.673,9.673,0,0,1,0,19.345,3.511,3.511,0,0,0-3.076,1.818l-1.274,2.317a.777.777,0,0,1-1.362,0l-1.274-2.317a3.51,3.51,0,0,0-3.075-1.818,9.673,9.673,0,0,1,0-19.345Z" transform="translate(-222.008 -20.792)"/>
          <path id="Trazado_880874" data-name="Trazado 880874" d="M12.708,238.775h.286a14.994,14.994,0,0,0-1.5,6.4,1.367,1.367,0,0,0,1.367,1.367H38.77a1.367,1.367,0,0,0,1.367-1.367c0-5.093-2.845-9.117-4.7-11.2a19.458,19.458,0,0,0,10-17.026c0-3.918-.182-7.708-2.093-10.938a4.028,4.028,0,0,0,.753-6.144,24.74,24.74,0,0,0-29.773-4.9,1.367,1.367,0,1,0,1.3,2.406,22.006,22.006,0,0,1,26.487,4.37,1.259,1.259,0,0,1,.241,1.386,1.274,1.274,0,0,1-1.193.786H16.916a9.939,9.939,0,0,0-9.044,5.827,7.669,7.669,0,0,0-2.993.47,22.729,22.729,0,0,1,6.454-9.834,1.366,1.366,0,1,0-1.819-2.04A25.4,25.4,0,0,0,1.4,212.9a7.5,7.5,0,0,0-.372,8.145v6.052a11.7,11.7,0,0,0,11.682,11.681ZM6.99,212.49a19.641,19.641,0,0,0-.515,4.453,19.98,19.98,0,0,0,.671,5.09,4.8,4.8,0,0,1-.156-9.543Zm5.719,23.551a8.959,8.959,0,0,1-8.949-8.949v-3.319a7.561,7.561,0,0,0,4.344.989,19.543,19.543,0,0,0,8.185,9.106,21.467,21.467,0,0,0-1.717,2.174ZM37.316,243.8h-3.55v-2.837a1.367,1.367,0,0,0-2.733,0V243.8H20.6v-2.837a1.367,1.367,0,0,0-2.733,0V243.8H14.314a16.145,16.145,0,0,1,4.568-8.7,19.632,19.632,0,0,0,13.942.076A16,16,0,0,1,37.316,243.8ZM19.14,232.252h0a16.776,16.776,0,0,1-9-20.84,7.18,7.18,0,0,1,6.79-4.771H40.486c2.036,2.789,2.212,6.465,2.212,10.3A16.746,16.746,0,0,1,19.14,232.252Z" transform="translate(-0.001 -160.82)"/>
          <path id="Trazado_880875" data-name="Trazado 880875" d="M272.655,233.945c-1.857,2.084-4.7,6.108-4.7,11.2a1.367,1.367,0,0,0,1.367,1.367h25.908a1.367,1.367,0,0,0,1.367-1.367c0-5.181-2.961-9.268-4.795-11.3a19.46,19.46,0,0,0,8.178-9.109,7.532,7.532,0,0,0,6.713-11.863,25.345,25.345,0,0,0-8.54-14.934,1.367,1.367,0,1,0-1.773,2.08,22.675,22.675,0,0,1,6.833,10.164,7.646,7.646,0,0,0-2.994-.471,9.938,9.938,0,0,0-9.061-5.827H266.938a1.293,1.293,0,0,1-.951-2.171A22,22,0,0,1,292.01,197.1a1.367,1.367,0,0,0,1.239-2.436A24.737,24.737,0,0,0,264,199.837a4.028,4.028,0,0,0,.753,6.144c-1.911,3.23-2.093,7.019-2.093,10.938A19.467,19.467,0,0,0,272.655,233.945Zm17.571,9.834v-2.837a1.367,1.367,0,0,0-2.733,0v2.837H277.055v-2.837a1.367,1.367,0,0,0-2.733,0v2.837h-3.55a16.007,16.007,0,0,1,4.492-8.622,19.626,19.626,0,0,0,13.944-.077,16.031,16.031,0,0,1,4.567,8.7Zm-7.961-10.114a16.741,16.741,0,0,1-16.873-16.746c0-3.838.177-7.515,2.212-10.3,24.637.257,24.453-.669,27.291,1.036a7.064,7.064,0,0,1,3.129,3.973A16.756,16.756,0,0,1,282.264,233.665Zm18.679-11.654a19.908,19.908,0,0,0,.671-5.092,19.7,19.7,0,0,0-.515-4.453,4.8,4.8,0,0,1-.156,9.545Z" transform="translate(-214.798 -160.795)"/>
        </g>
      </g>
    </g>
    <rect id="Rectángulo_401748" data-name="Rectángulo 401748" width="132" height="132" transform="translate(-6335 -9258)" fill="none"/>
  </g>
</svg>
