<svg xmlns="http://www.w3.org/2000/svg" width="126" height="113.131" viewBox="0 0 126 113.131">
  <g id="Grupo_1102430" data-name="Grupo 1102430" transform="translate(-1054 -2488.266)">
    <g id="Grupo_1102403" data-name="Grupo 1102403" transform="translate(658.667 158.264)">
      <path id="_12068" data-name="12068" d="M96.789,72.265c-12.9-1.782-26.531-1.346-38.272,4.293-16.282,7.82-26.975,25.551-27.385,43.609s9,35.8,23.53,46.529,33.7,14.528,51.472,11.308c17.921-3.248,34.743-13.777,44.091-29.409,5.994-10.023,8.8-22.4,5.485-33.6-2-6.76-6.086-12.75-10.894-17.906A80.487,80.487,0,0,0,96.789,72.265Z" transform="translate(364.214 2264.021)" fill="#26aab7"/>
    </g>
    <g id="habla" transform="translate(1070.167 2488.266)">
      <path id="Trazado_880908" data-name="Trazado 880908" d="M173.167,7.5V68.115a30.308,30.308,0,1,0,0-60.615Z" transform="translate(-141.487 -6.128)" fill="#8ae7ff"/>
      <path id="Trazado_880909" data-name="Trazado 880909" d="M62.627,37.808C62.627,21.069,51.515,7.5,37.808,7.5A30.306,30.306,0,0,0,15.734,58.573,14.681,14.681,0,0,1,7.5,67.05a14.646,14.646,0,0,0,15.432-2.833,30.167,30.167,0,0,0,14.876,3.9c13.707,0,24.819-13.569,24.819-30.308Z" transform="translate(-6.128 -6.128)" fill="#c4f3ff"/>
      <path id="Trazado_880910" data-name="Trazado 880910" d="M360.907,224.239a30.306,30.306,0,0,0-22.074-51.073l.659,60.6a30.153,30.153,0,0,0,14.217-3.887,14.646,14.646,0,0,0,15.432,2.833A14.679,14.679,0,0,1,360.907,224.239Z" transform="translate(-276.846 -141.486)" fill="#c4f3ff"/>
      <path id="Trazado_880911" data-name="Trazado 880911" d="M228.294,203.474c0-16.738-11.112-30.308-24.819-30.308a30.308,30.308,0,0,0,0,60.615c.221,0,.44-.006.659-.011C217.536,233.344,228.294,219.943,228.294,203.474Z" transform="translate(-141.487 -141.486)" fill="#fff"/>
      <path id="Trazado_880912" data-name="Trazado 880912" d="M128.991,135.667H107.038a1.372,1.372,0,1,0,0,2.744h21.953a1.372,1.372,0,0,0,0-2.744Z" transform="translate(-86.335 -110.848)"/>
      <path id="Trazado_880913" data-name="Trazado 880913" d="M26.444,60.138a28.671,28.671,0,0,1-8.966-3.244,1.372,1.372,0,0,0-1.607.188A13.22,13.22,0,0,1,6.86,60.615a13.4,13.4,0,0,1-1.832-.125,16.057,16.057,0,0,0,5.864-7.567,1.372,1.372,0,0,0-.287-1.418A28.936,28.936,0,1,1,60.142,26.444a1.372,1.372,0,0,0,2.7-.493A31.682,31.682,0,1,0,8.008,52.732,13.306,13.306,0,0,1,.857,59.65a1.372,1.372,0,0,0,0,2.544A16.021,16.021,0,0,0,16.985,59.75a31.4,31.4,0,0,0,8.966,3.088,1.372,1.372,0,1,0,.493-2.7Z" transform="translate(0)"/>
      <path id="Trazado_880914" data-name="Trazado 880914" d="M107.038,195.667a1.372,1.372,0,1,0,0,2.744h15.516a1.372,1.372,0,0,0,0-2.744Z" transform="translate(-86.335 -159.871)"/>
      <path id="Trazado_880915" data-name="Trazado 880915" d="M130.363,167.039a1.372,1.372,0,0,0-1.372-1.372H107.038a1.372,1.372,0,1,0,0,2.744h21.953A1.372,1.372,0,0,0,130.363,167.039Z" transform="translate(-86.335 -135.359)"/>
      <path id="Trazado_880916" data-name="Trazado 880916" d="M294.658,331.333H272.705a1.372,1.372,0,0,0,0,2.744h21.953a1.372,1.372,0,1,0,0-2.744Z" transform="translate(-221.694 -270.718)"/>
      <path id="Trazado_880917" data-name="Trazado 880917" d="M294.658,361.333H272.705a1.372,1.372,0,0,0,0,2.744h21.953a1.372,1.372,0,1,0,0-2.744Z" transform="translate(-221.694 -295.23)"/>
      <path id="Trazado_880918" data-name="Trazado 880918" d="M294.658,301.333H272.705a1.372,1.372,0,0,0,0,2.744h21.953a1.372,1.372,0,1,0,0-2.744Z" transform="translate(-221.694 -246.206)"/>
      <path id="Trazado_880919" data-name="Trazado 880919" d="M228.169,225.318a13.309,13.309,0,0,1-7.151-6.919,31.63,31.63,0,1,0-8.977,7.018,16.02,16.02,0,0,0,16.128,2.444,1.372,1.372,0,0,0,0-2.544Zm-6,.965a13.221,13.221,0,0,1-9.011-3.532,1.372,1.372,0,0,0-1.607-.188,28.969,28.969,0,1,1,6.873-5.39,1.371,1.371,0,0,0-.287,1.418A16.057,16.057,0,0,0,224,226.157,13.4,13.4,0,0,1,222.166,226.282Z" transform="translate(-135.359 -135.359)"/>
    </g>
  </g>
</svg>
