<svg xmlns="http://www.w3.org/2000/svg" xmlns:xlink="http://www.w3.org/1999/xlink" width="111.558" height="119.687" viewBox="0 0 111.558 119.687">
  <defs>
    <linearGradient id="linear-gradient" x1="0.106" y1="0.757" x2="0.86" y2="0.054" gradientUnits="objectBoundingBox">
      <stop offset="0" stop-color="#fff2ed" stop-opacity="0"/>
      <stop offset="0.294" stop-color="#ffe9dd" stop-opacity="0.373"/>
      <stop offset="0.787" stop-color="#ffd5ba"/>
    </linearGradient>
  </defs>
  <g id="Grupo_1102522" data-name="Grupo 1102522" transform="translate(11599.778 11936.187)">
    <g id="Grupo_1102393" data-name="Grupo 1102393" transform="translate(-11617.166 -11936.187)">
      <g id="Grupo_1102304" data-name="Grupo 1102304" transform="translate(17.388 0)">
        <path id="Trazado_880779" data-name="Trazado 880779" d="M17.812,22.739c7.572-38.889,51.462-18.025,74.8-9.131,8.19,3.121,20.34,2.307,27.154,2.424,9.065.156,10.146,12.843,4.68,18.35-21.635,21.8,26.491,35.536-9.066,55.013-7.058,3.867-15.171,5.8-21.6,10.638-8.658,6.519-13.27,17.892-26.3,19.523-10.876,1.361-22.017-8.192-16.946-20.573,25.6-62.5-38.939-44.336-32.727-76.244Z" transform="translate(-17.388 0)" fill="url(#linear-gradient)"/>
      </g>
      <g id="Grupo_1102352" data-name="Grupo 1102352" transform="translate(17.562 7.536)">
        <g id="Grupo_1102346" data-name="Grupo 1102346" transform="translate(9.649)">
          <g id="Grupo_1102311" data-name="Grupo 1102311" transform="translate(1.169 6.779)">
            <path id="Trazado_880780" data-name="Trazado 880780" d="M158.454,128.369l-24.272-42.04a1.542,1.542,0,0,0-2.106-.564L128.1,88.058a1.542,1.542,0,0,0-.564,2.106l1.952,3.381a33.845,33.845,0,0,1-7.966,13.716V68.253a7.012,7.012,0,0,0-7.013-7.013H71.425a7.012,7.012,0,0,0-7.013,7.013v83.575a7.012,7.012,0,0,0,7.013,7.013h43.087a7.012,7.012,0,0,0,7.006-6.729,2.328,2.328,0,0,0,1.082-.309l5.185-2.993a1.169,1.169,0,0,0,.312-1.763l-4.939-5.9,3.418-1.973a1.542,1.542,0,0,0,.391-2.349l-3.812-4.371c6.956-3.048,17.239-6.158,26.7-3.631l1.952,3.381a1.542,1.542,0,0,0,2.106.564l3.972-2.293a1.542,1.542,0,0,0,.565-2.106Z" transform="translate(-64.412 -61.24)" fill="#0000cb" opacity="0.1"/>
            <g id="Grupo_1102310" data-name="Grupo 1102310" transform="translate(84.187 33.845)" opacity="0.1">
              <g id="Grupo_1102309" data-name="Grupo 1102309">
                <g id="Grupo_1102305" data-name="Grupo 1102305" transform="translate(3.185 5.065)">
                  <path id="Trazado_880781" data-name="Trazado 880781" d="M439.347,230.89a1.169,1.169,0,0,1-.586-2.181l1.491-.861a1.169,1.169,0,1,1,1.169,2.024l-1.491.861A1.163,1.163,0,0,1,439.347,230.89Z" transform="translate(-438.177 -227.691)" fill="#0000cb"/>
                </g>
                <g id="Grupo_1102308" data-name="Grupo 1102308">
                  <g id="Grupo_1102306" data-name="Grupo 1102306">
                    <path id="Trazado_880782" data-name="Trazado 880782" d="M425.72,209.68a1.169,1.169,0,0,1-.895-1.92l1.107-1.319a1.169,1.169,0,1,1,1.791,1.5l-1.107,1.319A1.166,1.166,0,0,1,425.72,209.68Z" transform="translate(-424.552 -206.023)" fill="#0000cb"/>
                  </g>
                  <g id="Grupo_1102307" data-name="Grupo 1102307" transform="translate(5.583 10.69)">
                    <path id="Trazado_880783" data-name="Trazado 880783" d="M449.6,254.39a1.169,1.169,0,0,1-.2-2.32l1.7-.3a1.169,1.169,0,0,1,.406,2.3l-1.7.3A1.172,1.172,0,0,1,449.6,254.39Z" transform="translate(-448.433 -251.753)" fill="#0000cb"/>
                  </g>
                </g>
              </g>
            </g>
          </g>
          <g id="Grupo_1102332" data-name="Grupo 1102332" transform="translate(1.169 1.169)">
            <g id="Grupo_1102331" data-name="Grupo 1102331">
              <g id="Grupo_1102330" data-name="Grupo 1102330">
                <g id="Grupo_1102329" data-name="Grupo 1102329">
                  <g id="Grupo_1102328" data-name="Grupo 1102328">
                    <g id="Grupo_1102313" data-name="Grupo 1102313">
                      <path id="Trazado_880784" data-name="Trazado 880784" d="M121.525,44.253v83.575a7.012,7.012,0,0,1-7.013,7.013H71.425a7.012,7.012,0,0,1-7.013-7.013V44.253a7.012,7.012,0,0,1,7.013-7.013h43.087A7.013,7.013,0,0,1,121.525,44.253Z" transform="translate(-64.412 -37.24)" fill="#7d6eb2"/>
                      <circle id="Elipse_12036" data-name="Elipse 12036" cx="1.169" cy="1.169" r="1.169" transform="translate(32.462 5.052)" fill="#fff"/>
                      <path id="Trazado_880785" data-name="Trazado 880785" d="M132.174,61.188v83.575a2.338,2.338,0,0,1-2.338,2.338H86.75a2.338,2.338,0,0,1-2.338-2.338V61.188A2.338,2.338,0,0,1,86.75,58.85h10.48a2.338,2.338,0,0,1,2.338,2.338v1.066a2.338,2.338,0,0,0,2.338,2.338h12.778a2.338,2.338,0,0,0,2.338-2.338V61.188a2.338,2.338,0,0,1,2.338-2.338h10.48a2.338,2.338,0,0,1,2.338,2.338Z" transform="translate(-79.737 -53.798)" fill="#fff"/>
                      <path id="Trazado_880786" data-name="Trazado 880786" d="M218.4,277.5v25.031l-5.264,3.039a10.793,10.793,0,1,1-10.793-18.694l8.338-4.813a1.538,1.538,0,0,1,1.643.065A66.067,66.067,0,0,0,218.4,277.5Z" transform="translate(-165.965 -221.336)" fill="#d8d8ff"/>
                      <g id="Grupo_1102312" data-name="Grupo 1102312" transform="translate(8.793 7.755)">
                        <path id="Trazado_880787" data-name="Trazado 880787" d="M106.976,72.754H103.2a1.169,1.169,0,1,1,0-2.338h3.779a1.169,1.169,0,1,1,0,2.338Z" transform="translate(-102.028 -70.416)" fill="#9393ff"/>
                      </g>
                    </g>
                    <g id="Grupo_1102314" data-name="Grupo 1102314" transform="translate(9.353 16.427)">
                      <path id="Trazado_880788" data-name="Trazado 880788" d="M142.829,109.848V143.58a2.339,2.339,0,0,1-2.338,2.338H106.76a2.338,2.338,0,0,1-2.338-2.338V134.1l1.169-1.73v-7.439l-1.169-1.582v-13.5a2.338,2.338,0,0,1,2.338-2.338h33.732a2.338,2.338,0,0,1,2.338,2.338Z" transform="translate(-104.422 -107.51)" fill="#26aab7"/>
                    </g>
                    <g id="Grupo_1102315" data-name="Grupo 1102315" transform="translate(19.147 57.614)">
                      <path id="Trazado_880789" data-name="Trazado 880789" d="M152.225,283.7h-4.4a1.506,1.506,0,0,0-1.506,1.506v1.916a1.507,1.507,0,0,0,1.506,1.506h2.2l.619.73a.526.526,0,0,0,.8,0l.619-.73h.159a1.506,1.506,0,0,0,1.506-1.506v-1.916A1.507,1.507,0,0,0,152.225,283.7Z" transform="translate(-146.321 -283.703)" fill="#9393ff"/>
                    </g>
                    <g id="Grupo_1102317" data-name="Grupo 1102317" transform="translate(10.289 57.597)">
                      <g id="Grupo_1102316" data-name="Grupo 1102316">
                        <path id="Trazado_880790" data-name="Trazado 880790" d="M112.107,284.23l-.224.224-.279-.279a1.862,1.862,0,1,0-2.633,2.633l2.493,2.493a.593.593,0,0,0,.838,0l2.493-2.493a1.862,1.862,0,0,0-.041-2.673A1.914,1.914,0,0,0,112.107,284.23Z" transform="translate(-108.426 -283.63)" fill="#ffd947"/>
                      </g>
                    </g>
                    <g id="Grupo_1102327" data-name="Grupo 1102327" transform="translate(10.722 68.832)">
                      <g id="Grupo_1102321" data-name="Grupo 1102321" transform="translate(0)">
                        <g id="Grupo_1102320" data-name="Grupo 1102320">
                          <g id="Grupo_1102318" data-name="Grupo 1102318">
                            <path id="Trazado_880791" data-name="Trazado 880791" d="M124.911,332.859a1.169,1.169,0,0,1-1.169,1.169H111.451a1.169,1.169,0,1,1,0-2.338h12.291A1.169,1.169,0,0,1,124.911,332.859Z" transform="translate(-110.282 -331.69)" fill="#ffd947"/>
                          </g>
                          <g id="Grupo_1102319" data-name="Grupo 1102319" transform="translate(0 4.764)">
                            <path id="Trazado_880792" data-name="Trazado 880792" d="M145.95,353.239a1.168,1.168,0,0,1-1.169,1.169h-33.33a1.169,1.169,0,1,1,0-2.338h33.33A1.169,1.169,0,0,1,145.95,353.239Z" transform="translate(-110.282 -352.07)" fill="#6c6cff"/>
                          </g>
                        </g>
                      </g>
                      <g id="Grupo_1102326" data-name="Grupo 1102326" transform="translate(0 11.424)">
                        <g id="Grupo_1102325" data-name="Grupo 1102325">
                          <g id="Grupo_1102322" data-name="Grupo 1102322">
                            <path id="Trazado_880793" data-name="Trazado 880793" d="M123.741,382.9H111.449a1.169,1.169,0,0,1,0-2.338h12.292a1.169,1.169,0,0,1,0,2.338Z" transform="translate(-110.28 -380.561)" fill="#ffd947"/>
                          </g>
                          <g id="Grupo_1102324" data-name="Grupo 1102324" transform="translate(0 4.765)">
                            <g id="Grupo_1102323" data-name="Grupo 1102323">
                              <path id="Trazado_880794" data-name="Trazado 880794" d="M144.779,403.281H111.449a1.169,1.169,0,1,1,0-2.338h33.331a1.169,1.169,0,1,1,0,2.338Z" transform="translate(-110.28 -400.943)" fill="#6c6cff"/>
                            </g>
                          </g>
                        </g>
                      </g>
                    </g>
                  </g>
                </g>
              </g>
            </g>
          </g>
          <g id="Grupo_1102335" data-name="Grupo 1102335" transform="translate(10.522 22.878)">
            <g id="Grupo_1102333" data-name="Grupo 1102333">
              <path id="Trazado_880795" data-name="Trazado 880795" d="M135.627,140.752a2.01,2.01,0,0,0-2.019-2.005h-5.553l1.4-4.955a2.9,2.9,0,0,0-2.789-3.683,1.144,1.144,0,0,0-1.015.617l-1.966,3.789a3.7,3.7,0,0,1-2.333,1.87l-2.261.6a3.431,3.431,0,0,0-1.852,1.24l-1.854,2.439H104.423v10.751H116.5a2.286,2.286,0,0,1,1.57.624l1.6,1.515a3.43,3.43,0,0,0,2.355.936h9.3a2.01,2.01,0,0,0,2.019-2.005,1.968,1.968,0,0,0-1.967-1.93h.863a2.01,2.01,0,0,0,2.019-2.005,1.968,1.968,0,0,0-1.967-1.93h.634a2.01,2.01,0,0,0,2.019-2.005,1.968,1.968,0,0,0-1.967-1.93h.686a1.969,1.969,0,0,0,1.967-1.931Z" transform="translate(-104.423 -130.109)" fill="#aee6e6"/>
            </g>
            <g id="Grupo_1102334" data-name="Grupo 1102334" transform="translate(20.421 7.494)">
              <path id="Trazado_880796" data-name="Trazado 880796" d="M194.993,163.313h-2.64a.572.572,0,0,1,0-1.144h2.962Z" transform="translate(-191.782 -162.169)" fill="#aee6e6"/>
            </g>
          </g>
          <g id="Grupo_1102345" data-name="Grupo 1102345">
            <g id="Grupo_1102343" data-name="Grupo 1102343" transform="translate(32.151 25.487)">
              <g id="Grupo_1102339" data-name="Grupo 1102339">
                <g id="Grupo_1102336" data-name="Grupo 1102336" transform="translate(16.073 40.598)">
                  <path id="Trazado_880797" data-name="Trazado 880797" d="M280.813,327.962l-4.573,2.64L265.7,318.522l6.2-3.577,9.3,10.668A1.542,1.542,0,0,1,280.813,327.962Z" transform="translate(-265.704 -314.944)" fill="#ffd947"/>
                  <path id="Trazado_880798" data-name="Trazado 880798" d="M274.924,327.986a1.558,1.558,0,0,1-.194.881L265.7,318.519l6.2-3.579,9.11,10.447C278.727,326.228,276.666,327.14,274.924,327.986Z" transform="translate(-265.702 -314.94)" fill="#ffd947"/>
                </g>
                <g id="Grupo_1102337" data-name="Grupo 1102337" transform="translate(14.034 48.855)">
                  <path id="Trazado_880799" data-name="Trazado 880799" d="M275.342,364.659l-5.185,2.994a2.338,2.338,0,0,1-2.961-.524l-10.21-12.194,8.09-4.671L275.654,362.9A1.169,1.169,0,0,1,275.342,364.659Z" transform="translate(-256.985 -350.262)" fill="#62529b"/>
                  <path id="Trazado_880800" data-name="Trazado 880800" d="M268.242,355.05a1.547,1.547,0,0,1-.764,1.459l-6.185,3.57-4.311-5.147,8.091-4.671,3.768,4.5C268.637,354.858,268.439,354.954,268.242,355.05Z" transform="translate(-256.982 -350.26)" fill="#62529b"/>
                </g>
                <path id="Trazado_880801" data-name="Trazado 880801" d="M238.338,183.529l9.787,16.952s23.037-15.186,40.231-5.928l-24.769-42.9c-.58,19.519-25.25,31.877-25.25,31.877Z" transform="translate(-228.662 -149.225)" fill="#fff"/>
                <path id="Trazado_880802" data-name="Trazado 880802" d="M364.129,186.186l-3.972,2.293a1.542,1.542,0,0,1-2.106-.564l-24.272-42.04a1.542,1.542,0,0,1,.564-2.106l3.972-2.293a1.542,1.542,0,0,1,2.106.564l24.272,42.04A1.542,1.542,0,0,1,364.129,186.186Z" transform="translate(-301.634 -141.268)" fill="#7d6eb2"/>
                <g id="Grupo_1102338" data-name="Grupo 1102338" transform="translate(0 30.592)">
                  <path id="Trazado_880803" data-name="Trazado 880803" d="M221.475,291.035l-8.339,4.814a10.793,10.793,0,1,1-10.793-18.694l8.338-4.814a1.542,1.542,0,0,1,2.106.564l9.251,16.023A1.542,1.542,0,0,1,221.475,291.035Z" transform="translate(-196.946 -272.134)" fill="#62529b"/>
                </g>
              </g>
              <g id="Grupo_1102342" data-name="Grupo 1102342" transform="translate(7.002 38.052)">
                <g id="Grupo_1102340" data-name="Grupo 1102340">
                  <path id="Trazado_880804" data-name="Trazado 880804" d="M232.825,306.23l-4.173,2.409a1.169,1.169,0,1,1-1.169-2.024l4.173-2.409a1.169,1.169,0,0,1,1.169,2.024Z" transform="translate(-226.899 -304.049)" fill="#ffd947"/>
                </g>
                <g id="Grupo_1102341" data-name="Grupo 1102341" transform="translate(2.091 3.622)">
                  <path id="Trazado_880805" data-name="Trazado 880805" d="M241.772,321.726l-4.173,2.409a1.169,1.169,0,0,1-1.169-2.024L240.6,319.7a1.169,1.169,0,1,1,1.169,2.024Z" transform="translate(-235.846 -319.545)" fill="#ffd947"/>
                </g>
              </g>
            </g>
            <g id="Grupo_1102344" data-name="Grupo 1102344">
              <path id="Trazado_880807" data-name="Trazado 880807" d="M438.335,206.306a1.168,1.168,0,0,0,1.6.428l1.491-.861a1.169,1.169,0,1,0-1.169-2.024l-1.491.861A1.169,1.169,0,0,0,438.335,206.306Z" transform="translate(-349.636 -163.612)" fill="#0000cb"/>
              <path id="Trazado_880808" data-name="Trazado 880808" d="M425.72,185.68a1.166,1.166,0,0,0,.9-.417l1.107-1.319a1.169,1.169,0,0,0-1.791-1.5l-1.107,1.319a1.169,1.169,0,0,0,.895,1.92Z" transform="translate(-339.195 -147.009)" fill="#0000cb"/>
              <path id="Trazado_880809" data-name="Trazado 880809" d="M448.451,229.423a1.167,1.167,0,0,0,1.354.948l1.7-.3a1.169,1.169,0,0,0-.406-2.3l-1.7.3A1.169,1.169,0,0,0,448.451,229.423Z" transform="translate(-357.494 -182.049)" fill="#0000cb"/>
            </g>
          </g>
        </g>
        <g id="Grupo_1102347" data-name="Grupo 1102347" transform="translate(82.447 81.713)">
          <path id="Trazado_880810" data-name="Trazado 880810" d="M374.645,389.43a1.169,1.169,0,0,1-1.169-1.169,1.482,1.482,0,0,0-1.48-1.48,1.169,1.169,0,1,1,0-2.338,1.482,1.482,0,0,0,1.48-1.48,1.169,1.169,0,1,1,2.338,0,1.482,1.482,0,0,0,1.48,1.48,1.169,1.169,0,1,1,0,2.338,1.482,1.482,0,0,0-1.48,1.48A1.169,1.169,0,0,1,374.645,389.43Z" transform="translate(-370.827 -381.794)" fill="#7d6eb2"/>
        </g>
        <g id="Grupo_1102348" data-name="Grupo 1102348" transform="translate(0 27.999)">
          <path id="Trazado_880811" data-name="Trazado 880811" d="M21.951,159.649a1.169,1.169,0,0,1-1.169-1.169A1.482,1.482,0,0,0,19.3,157a1.169,1.169,0,0,1,0-2.338,1.482,1.482,0,0,0,1.481-1.481,1.169,1.169,0,0,1,2.338,0,1.482,1.482,0,0,0,1.48,1.481,1.169,1.169,0,0,1,0,2.338,1.482,1.482,0,0,0-1.48,1.48A1.169,1.169,0,0,1,21.951,159.649Z" transform="translate(-18.133 -152.013)" fill="#ff9c33"/>
        </g>
        <g id="Grupo_1102350" data-name="Grupo 1102350" transform="translate(77.149 92.726)">
          <path id="Trazado_880813" data-name="Trazado 880813" d="M353.491,436.137a1.167,1.167,0,0,1-.687-.223l-.9-.655-.9.655a1.169,1.169,0,0,1-1.8-1.307l.345-1.061-.9-.656a1.169,1.169,0,0,1,.687-2.114h1.115l.345-1.061a1.169,1.169,0,0,1,2.223,0l.345,1.061h1.115a1.169,1.169,0,0,1,.687,2.114l-.9.656.345,1.061a1.169,1.169,0,0,1-1.113,1.53Z" transform="translate(-348.163 -428.908)" fill="#8282ff"/>
        </g>
        <g id="Grupo_1102351" data-name="Grupo 1102351" transform="translate(91.391 19.977)">
          <path id="Trazado_880814" data-name="Trazado 880814" d="M411.237,124.927a1.169,1.169,0,0,1-1.111-1.53l.345-1.061-.9-.656a1.169,1.169,0,0,1,.687-2.114h1.115l.345-1.061a1.169,1.169,0,0,1,2.223,0l.345,1.061H415.4a1.169,1.169,0,0,1,.687,2.114l-.9.656.345,1.061a1.169,1.169,0,0,1-1.8,1.307l-.9-.655-.9.655A1.175,1.175,0,0,1,411.237,124.927Z" transform="translate(-409.087 -117.698)" fill="#7d6eb2"/>
        </g>
      </g>
    </g>
  </g>
</svg>
