<svg xmlns="http://www.w3.org/2000/svg" width="83" height="84.133" viewBox="0 0 83 84.133">
  <g id="Grupo_1102523" data-name="Grupo 1102523" transform="translate(-568 -16513.904)">
    <path id="_12068" data-name="12068" d="M72.033,71.913c-8.038-1.11-16.53-.839-23.844,2.675C38.045,79.46,31.382,90.507,31.127,101.757s5.606,22.305,14.66,28.988,21,9.051,32.068,7.045c11.165-2.023,21.645-8.583,27.469-18.322,3.735-6.245,5.48-13.956,3.417-20.934a28.6,28.6,0,0,0-6.787-11.156A50.145,50.145,0,0,0,72.033,71.913Z" transform="translate(536.881 16459.557)" fill="#26aab7"/>
    <g id="Grupo_1102133" data-name="Grupo 1102133" transform="translate(568 16513.904)">
      <g id="Grupo_1102131" data-name="Grupo 1102131" transform="translate(1.216 1.216)">
        <path id="Trazado_880476" data-name="Trazado 880476" d="M86.788,7.5H8.781A1.281,1.281,0,0,0,7.5,8.781V27.72l9.078,14.465L33.884,52.334,45.872,56.65H86.788a1.281,1.281,0,0,0,1.281-1.281V8.781A1.281,1.281,0,0,0,86.788,7.5Z" transform="translate(-7.5 -7.5)" fill="#aee6e6"/>
        <path id="Trazado_880477" data-name="Trazado 880477" d="M476.525,7.5h-3.884a1.281,1.281,0,0,1,1.281,1.281V55.37a1.281,1.281,0,0,1-1.281,1.281h3.884a1.281,1.281,0,0,0,1.281-1.281V8.781A1.281,1.281,0,0,0,476.525,7.5Z" transform="translate(-397.237 -7.5)" fill="#64caff"/>
        <g id="Grupo_1102130" data-name="Grupo 1102130" transform="translate(4.465 3.805)">
          <g id="Grupo_1102125" data-name="Grupo 1102125">
            <path id="Trazado_880478" data-name="Trazado 880478" d="M43.275,35.573H36.034a.992.992,0,0,1-.937-1.319l.69-1.979a1.947,1.947,0,0,1,1.839-1.306h4.058a1.947,1.947,0,0,1,1.839,1.306l.69,1.979A.992.992,0,0,1,43.275,35.573Z" transform="translate(-35.041 -30.969)" fill="#ffea76"/>
            <path id="Trazado_880479" data-name="Trazado 880479" d="M61.557,34.254l-.69-1.979a1.947,1.947,0,0,0-1.838-1.306h-3.48a1.947,1.947,0,0,1,1.838,1.306l.69,1.979a.992.992,0,0,1-.937,1.319h3.48A.992.992,0,0,0,61.557,34.254Z" transform="translate(-52.224 -30.969)" fill="#ffe54c"/>
          </g>
          <g id="Grupo_1102126" data-name="Grupo 1102126" transform="translate(15.563)">
            <path id="Trazado_880480" data-name="Trazado 880480" d="M139.275,35.573h-7.241a.992.992,0,0,1-.937-1.319l.69-1.979a1.947,1.947,0,0,1,1.839-1.306h4.058a1.947,1.947,0,0,1,1.839,1.306l.69,1.979A.992.992,0,0,1,139.275,35.573Z" transform="translate(-131.041 -30.969)" fill="#ffea76"/>
            <path id="Trazado_880481" data-name="Trazado 880481" d="M157.557,34.254l-.69-1.979a1.947,1.947,0,0,0-1.838-1.306h-3.48a1.947,1.947,0,0,1,1.838,1.306l.69,1.979a.992.992,0,0,1-.937,1.319h3.48A.992.992,0,0,0,157.557,34.254Z" transform="translate(-148.224 -30.969)" fill="#ffe54c"/>
          </g>
          <g id="Grupo_1102127" data-name="Grupo 1102127" transform="translate(31.125)">
            <path id="Trazado_880482" data-name="Trazado 880482" d="M235.275,35.573h-7.241a.992.992,0,0,1-.937-1.319l.69-1.979a1.947,1.947,0,0,1,1.839-1.306h4.058a1.947,1.947,0,0,1,1.838,1.306l.69,1.979A.992.992,0,0,1,235.275,35.573Z" transform="translate(-227.041 -30.969)" fill="#ffea76"/>
            <path id="Trazado_880483" data-name="Trazado 880483" d="M253.557,34.254l-.69-1.979a1.947,1.947,0,0,0-1.838-1.306h-3.48a1.947,1.947,0,0,1,1.838,1.306l.69,1.979a.992.992,0,0,1-.937,1.319h3.48a.992.992,0,0,0,.937-1.319Z" transform="translate(-244.224 -30.969)" fill="#ffe54c"/>
          </g>
          <g id="Grupo_1102128" data-name="Grupo 1102128" transform="translate(46.688)">
            <path id="Trazado_880484" data-name="Trazado 880484" d="M331.275,35.573h-7.241a.992.992,0,0,1-.937-1.319l.69-1.979a1.947,1.947,0,0,1,1.838-1.306h4.058a1.947,1.947,0,0,1,1.839,1.306l.69,1.979a.992.992,0,0,1-.937,1.319Z" transform="translate(-323.041 -30.969)" fill="#ffea76"/>
            <path id="Trazado_880485" data-name="Trazado 880485" d="M349.557,34.254l-.69-1.979a1.947,1.947,0,0,0-1.839-1.306h-3.48a1.947,1.947,0,0,1,1.839,1.306l.69,1.979a.992.992,0,0,1-.937,1.319h3.48A.992.992,0,0,0,349.557,34.254Z" transform="translate(-340.224 -30.969)" fill="#ffe54c"/>
          </g>
          <g id="Grupo_1102129" data-name="Grupo 1102129" transform="translate(62.25)">
            <path id="Trazado_880486" data-name="Trazado 880486" d="M427.275,35.573h-7.241a.992.992,0,0,1-.937-1.319l.69-1.979a1.947,1.947,0,0,1,1.839-1.306h4.058a1.947,1.947,0,0,1,1.838,1.306l.69,1.979A.992.992,0,0,1,427.275,35.573Z" transform="translate(-419.041 -30.969)" fill="#ffea76"/>
            <path id="Trazado_880487" data-name="Trazado 880487" d="M445.557,34.254l-.69-1.979a1.947,1.947,0,0,0-1.839-1.306h-3.48a1.947,1.947,0,0,1,1.838,1.306l.69,1.979a.992.992,0,0,1-.937,1.319h3.48A.992.992,0,0,0,445.557,34.254Z" transform="translate(-436.224 -30.969)" fill="#ffe54c"/>
          </g>
        </g>
        <path id="Trazado_880488" data-name="Trazado 880488" d="M8.781,170.676H41.349l.266-4.459L36.035,164,29.9,161.81l-1.785-4.731L25.4,154.938l-3.213-.659L18.321,152.3l-4.131-4.5-3.427-4.212-3.264.58V169.4a1.281,1.281,0,0,0,1.281,1.281Z" transform="translate(-7.5 -121.526)" fill="#7d6eb2"/>
        <path id="Trazado_880489" data-name="Trazado 880489" d="M9.743,135.811c3.595,2.65,1.863,5,5.458,7.65s5.326.3,8.92,2.952,1.863,5,5.457,7.649,5.326.3,8.92,2.952a7.521,7.521,0,0,1,2.851,4.147h4.524c-1.562-2.063-1-4.005-3.9-6.144-3.594-2.65-5.326-.3-8.92-2.952s-1.863-5-5.457-7.649-5.326-.3-8.92-2.952-1.863-5-5.458-7.65c-2.358-1.739-3.914-1.326-5.721-1.585v2.421a7.192,7.192,0,0,1,2.242,1.16Z" transform="translate(-7.501 -112.01)" fill="#62529b"/>
        <path id="Trazado_880490" data-name="Trazado 880490" d="M193.2,315.985H168.81a2.314,2.314,0,0,1-2.314-2.314v-2.978h29.019v2.978A2.314,2.314,0,0,1,193.2,315.985Z" transform="translate(-140.721 -261.543)" fill="#728d9a"/>
        <path id="Trazado_880491" data-name="Trazado 880491" d="M217.943,343.34h12.339v26.126H217.943Z" transform="translate(-183.828 -288.897)" fill="#728d9a"/>
        <path id="Trazado_880492" data-name="Trazado 880492" d="M217.943,343.34h12.339v3.295H217.943Z" transform="translate(-183.828 -288.897)" fill="#4f6c77"/>
      </g>
      <g id="Grupo_1102132" data-name="Grupo 1102132">
        <path id="Trazado_880493" data-name="Trazado 880493" d="M252.664,108.172a1.216,1.216,0,1,0,2.275-.859l-6.876-18.22-.013-.033a1.629,1.629,0,0,0-1.512-1.013h0a1.629,1.629,0,0,0-1.511,1.016l-.011.027-6.939,18.219a1.216,1.216,0,1,0,2.272.865l1.43-3.754h9.471Zm-9.96-6.183,3.831-10.058,3.8,10.058Z" transform="translate(-199.414 -73.775)"/>
        <path id="Trazado_880494" data-name="Trazado 880494" d="M377.234,117.863a1.216,1.216,0,0,0,1.216-1.216V99.891a1.216,1.216,0,0,0-2.432,0v5.914a6.834,6.834,0,1,0,0,10.447v.4A1.216,1.216,0,0,0,377.234,117.863Zm-5.619-2.432a4.4,4.4,0,1,1,4.4-4.4A4.408,4.408,0,0,1,371.615,115.432Z" transform="translate(-305.647 -82.679)"/>
        <path id="Trazado_880495" data-name="Trazado 880495" d="M296.691,260.722h19.22a1.216,1.216,0,0,0,0-2.432h-19.22a1.216,1.216,0,0,0,0,2.432Z" transform="translate(-247.576 -216.419)"/>
        <path id="Trazado_880496" data-name="Trazado 880496" d="M53.015,239.133H45.841a1.216,1.216,0,1,0,0,2.432h7.174a1.216,1.216,0,0,0,0-2.432Z" transform="translate(-37.391 -200.367)"/>
        <path id="Trazado_880497" data-name="Trazado 880497" d="M53.015,266.876H45.841a1.216,1.216,0,1,0,0,2.432h7.174a1.216,1.216,0,0,0,0-2.432Z" transform="translate(-37.391 -223.613)"/>
        <path id="Trazado_880498" data-name="Trazado 880498" d="M211.659,424.055a1.216,1.216,0,0,0-1.216,1.216V437.1a1.216,1.216,0,0,0,2.432,0V425.271A1.216,1.216,0,0,0,211.659,424.055Z" transform="translate(-176.328 -355.312)"/>
        <path id="Trazado_880499" data-name="Trazado 880499" d="M81.784,28.3A1.216,1.216,0,0,0,83,27.081V2.5A2.5,2.5,0,0,0,80.5,0H2.5A2.5,2.5,0,0,0,0,2.5V49.085a2.5,2.5,0,0,0,2.5,2.5H25.775v1.763a3.534,3.534,0,0,0,3.53,3.53h4.81v8.384a1.216,1.216,0,0,0,2.432,0V56.874h9.907v24.91a1.216,1.216,0,0,0,2.432,0V68.824h2.157v.89a1.216,1.216,0,0,0,2.432,0V65.5a1.216,1.216,0,0,0-2.432,0v.89H48.885V56.874H53.7a3.534,3.534,0,0,0,3.53-3.53V51.582H80.5a2.5,2.5,0,0,0,2.5-2.5v-17.3a1.216,1.216,0,1,0-2.432,0v17.3a.065.065,0,0,1-.065.065H40.235a9.362,9.362,0,0,1-.674-1.528,8.773,8.773,0,0,0-8.26-6.09,6.358,6.358,0,0,1-6.118-4.511,8.31,8.31,0,0,0-3.146-4.379,8.31,8.31,0,0,0-5.113-1.711,5.939,5.939,0,0,1-3.807-1.241,7.476,7.476,0,0,1-.695-.578,1.216,1.216,0,1,0-1.667,1.77,9.849,9.849,0,0,0,.919.765,8.308,8.308,0,0,0,5.113,1.711,5.939,5.939,0,0,1,3.807,1.24A5.939,5.939,0,0,1,22.9,37.871a8.772,8.772,0,0,0,8.259,6.09,6.359,6.359,0,0,1,6.119,4.512c.082.219.166.445.26.678H2.5a.065.065,0,0,1-.065-.065V22.76A5.918,5.918,0,0,1,6.215,24a5.522,5.522,0,0,1,1.914,2.279,1.216,1.216,0,1,0,2.211-1.011,7.889,7.889,0,0,0-2.682-3.225A8.312,8.312,0,0,0,2.545,20.33l-.113-.006V2.5A.065.065,0,0,1,2.5,2.432H9.159V3.8H8.265A3.166,3.166,0,0,0,5.278,5.926l-.69,1.979A2.208,2.208,0,0,0,6.674,10.84h7.4a2.208,2.208,0,0,0,2.085-2.935l-.69-1.979A3.166,3.166,0,0,0,12.485,3.8h-.894V2.432H24.722V3.8h-.894a3.166,3.166,0,0,0-2.987,2.122l-.69,1.979a2.208,2.208,0,0,0,2.085,2.935h7.4a2.208,2.208,0,0,0,2.085-2.935l-.69-1.979A3.166,3.166,0,0,0,28.047,3.8h-.894V2.432H40.284V3.8H39.39A3.166,3.166,0,0,0,36.4,5.926l-.69,1.979A2.208,2.208,0,0,0,37.8,10.84h7.4a2.208,2.208,0,0,0,2.085-2.935L46.6,5.926A3.166,3.166,0,0,0,43.61,3.8h-.894V2.432H55.847V3.8h-.894a3.166,3.166,0,0,0-2.987,2.122l-.69,1.979a2.208,2.208,0,0,0,2.085,2.935h7.4a2.208,2.208,0,0,0,2.085-2.935l-.69-1.979A3.166,3.166,0,0,0,59.172,3.8h-.894V2.432H71.409V3.8h-.894a3.166,3.166,0,0,0-2.987,2.122l-.69,1.979a2.208,2.208,0,0,0,2.085,2.935h7.4a2.208,2.208,0,0,0,2.085-2.935l-.69-1.979A3.166,3.166,0,0,0,74.735,3.8h-.894V2.432H80.5a.065.065,0,0,1,.065.065V27.08A1.216,1.216,0,0,0,81.784,28.3ZM54.794,51.582v1.763a1.1,1.1,0,0,1-1.1,1.1H29.3a1.1,1.1,0,0,1-1.1-1.1V51.582ZM13.175,6.727l.586,1.682H6.988l.586-1.682a.732.732,0,0,1,.691-.491h4.22A.732.732,0,0,1,13.175,6.727Zm15.563,0,.586,1.682H22.551l.586-1.682a.732.732,0,0,1,.691-.491h4.22A.732.732,0,0,1,28.738,6.727Zm15.563,0,.586,1.682H38.113L38.7,6.727a.732.732,0,0,1,.691-.491h4.22A.732.732,0,0,1,44.3,6.727Zm15.563,0,.586,1.682H53.676l.586-1.682a.732.732,0,0,1,.69-.49h4.22a.732.732,0,0,1,.691.491Zm15.563,0,.586,1.682H69.238l.586-1.682a.732.732,0,0,1,.69-.49h4.22A.732.732,0,0,1,75.425,6.727Z" transform="translate(0 0)"/>
      </g>
    </g>
  </g>
</svg>
