<svg xmlns="http://www.w3.org/2000/svg" width="78.501" height="81.348" viewBox="0 0 78.501 81.348">
  <g id="Grupo_1102241" data-name="Grupo 1102241" transform="translate(-186.5 -10038.904)">
    <path id="_12068" data-name="12068" d="M72.033,71.913c-8.038-1.11-16.53-.839-23.844,2.675C38.045,79.46,31.382,90.507,31.127,101.757s5.606,22.305,14.66,28.988,21,9.051,32.068,7.045c11.165-2.023,21.645-8.583,27.469-18.322,3.735-6.245,5.48-13.956,3.417-20.934a28.6,28.6,0,0,0-6.787-11.156A50.145,50.145,0,0,0,72.033,71.913Z" transform="translate(155.381 9980.771)" fill="#26aab7"/>
    <g id="Grupo_1102239" data-name="Grupo 1102239" transform="translate(189.367 10038.905)">
      <path id="Trazado_880659" data-name="Trazado 880659" d="M352,33.991V17.626a7.626,7.626,0,1,1,15.253,0V30.813a3.177,3.177,0,0,1-3.178,3.178Zm0,0" transform="translate(-296.071 -8.411)" fill="#aee6e6"/>
      <path id="Trazado_880660" data-name="Trazado 880660" d="M71.963,10H17.626A7.626,7.626,0,0,0,10,17.626V76.411a3.177,3.177,0,0,0,3.178,3.178H64.337V17.626A7.626,7.626,0,0,1,71.963,10" transform="translate(-8.411 -8.411)" fill="#fff"/>
      <path id="Trazado_880661" data-name="Trazado 880661" d="M247.075,235.114l-2.338-5.61a16.086,16.086,0,0,1-1.237-6.187V211a3.37,3.37,0,0,1,6.567-1.066l2.395,7.184a4.247,4.247,0,0,0,8.276-1.343V184.7l4.835,4.825a21.6,21.6,0,0,1,6.34,15.287V221.7a31.3,31.3,0,0,1-3.019,13.41" transform="translate(-204.813 -155.357)" fill="#ffd0bb"/>
      <g id="Grupo_1102239-2" data-name="Grupo 1102239" transform="translate(10.116 10.168)">
        <path id="Trazado_880662" data-name="Trazado 880662" d="M72.248,74.168H65.257a1.589,1.589,0,0,1-1.589-1.589V65.589A1.589,1.589,0,0,1,65.257,64h6.991a1.589,1.589,0,0,1,1.589,1.589V72.58A1.589,1.589,0,0,1,72.248,74.168Zm0,0" transform="translate(-63.668 -64)" fill="#7d6eb2"/>
        <path id="Trazado_880663" data-name="Trazado 880663" d="M72.248,194.168H65.257a1.589,1.589,0,0,1-1.589-1.589v-6.991A1.589,1.589,0,0,1,65.257,184h6.991a1.589,1.589,0,0,1,1.589,1.589v6.991A1.589,1.589,0,0,1,72.248,194.168Zm0,0" transform="translate(-63.668 -164.934)" fill="#7d6eb2"/>
        <path id="Trazado_880664" data-name="Trazado 880664" d="M72.248,314.168H65.257a1.589,1.589,0,0,1-1.589-1.589v-6.99A1.589,1.589,0,0,1,65.257,304h6.991a1.589,1.589,0,0,1,1.589,1.589v6.99A1.589,1.589,0,0,1,72.248,314.168Zm0,0" transform="translate(-63.668 -265.869)" fill="#7d6eb2"/>
      </g>
      <path id="Trazado_880665" data-name="Trazado 880665" d="M63.552,0H9.215A9.226,9.226,0,0,0,0,9.215V68a4.772,4.772,0,0,0,4.766,4.766H25.633a1.589,1.589,0,1,0,0-3.178H4.766A1.59,1.59,0,0,1,3.178,68V9.215A6.044,6.044,0,0,1,9.215,3.178H56.6a9.175,9.175,0,0,0-2.262,6.037v51.2a2.659,2.659,0,0,1-5.18.841l-2.394-7.184A4.959,4.959,0,0,0,37.1,55.641v1.238H28.863a1.589,1.589,0,1,0,0,3.178H37.1v7.9a17.58,17.58,0,0,0,1.36,6.8l2.337,5.61a1.589,1.589,0,1,0,2.933-1.222l-2.337-5.61a14.426,14.426,0,0,1-1.115-5.576V55.642a1.781,1.781,0,0,1,3.471-.564l2.394,7.184a5.836,5.836,0,0,0,11.372-1.846V33.177L59.637,35.3a19.877,19.877,0,0,1,5.874,14.163V66.348a29.9,29.9,0,0,1-2.865,12.729,1.589,1.589,0,0,0,2.871,1.362,33.1,33.1,0,0,0,3.172-14.091V49.459a23.034,23.034,0,0,0-6.807-16.412l-4.368-4.36V27.169H68A4.772,4.772,0,0,0,72.767,22.4V9.215A9.225,9.225,0,0,0,63.552,0Zm6.037,22.4A1.591,1.591,0,0,1,68,23.991H57.514V9.215a6.037,6.037,0,1,1,12.075,0Zm0,0"/>
      <path id="Trazado_880666" data-name="Trazado 880666" d="M196.589,438a1.589,1.589,0,1,0,1.123.465A1.6,1.6,0,0,0,196.589,438Zm0,0" transform="translate(-164.018 -368.407)"/>
      <path id="Trazado_880667" data-name="Trazado 880667" d="M67.014,57.178A3.181,3.181,0,0,0,63.836,54H56.846a3.181,3.181,0,0,0-3.178,3.178v6.991a3.181,3.181,0,0,0,3.178,3.178h6.991a3.181,3.181,0,0,0,3.178-3.178Zm-3.178,6.991H56.846V57.178h6.991l0,6.991Zm0,0" transform="translate(-45.141 -45.42)"/>
      <path id="Trazado_880668" data-name="Trazado 880668" d="M67.014,177.178A3.181,3.181,0,0,0,63.836,174H56.846a3.181,3.181,0,0,0-3.178,3.178v6.991a3.181,3.181,0,0,0,3.178,3.178h6.991a3.181,3.181,0,0,0,3.178-3.178Zm-3.178,6.991H56.846v-6.991h6.991l0,6.991Zm0,0" transform="translate(-45.141 -146.355)"/>
      <path id="Trazado_880669" data-name="Trazado 880669" d="M63.836,294H56.846a3.181,3.181,0,0,0-3.178,3.178v6.99a3.181,3.181,0,0,0,3.178,3.178h6.991a3.181,3.181,0,0,0,3.178-3.178v-6.99A3.181,3.181,0,0,0,63.836,294Zm0,10.168H56.846v-6.99h6.991l0,6.99Zm0,0" transform="translate(-45.141 -247.289)"/>
      <path id="Trazado_880670" data-name="Trazado 880670" d="M229.936,121.178a1.589,1.589,0,1,0,0-3.178H218.983a1.589,1.589,0,1,0,0,3.178Zm0,0" transform="translate(-182.855 -99.252)"/>
      <path id="Trazado_880671" data-name="Trazado 880671" d="M173.257,121.178a1.589,1.589,0,1,0-1.123-.465A1.6,1.6,0,0,0,173.257,121.178Zm0,0" transform="translate(-144.393 -99.252)"/>
      <path id="Trazado_880672" data-name="Trazado 880672" d="M173.253,241.178h18.219a1.589,1.589,0,1,0,0-3.178H173.253a1.589,1.589,0,0,0,0,3.178Zm0,0" transform="translate(-144.39 -200.186)"/>
    </g>
  </g>
</svg>
