<svg xmlns="http://www.w3.org/2000/svg" width="90.833" height="81.063" viewBox="0 0 90.833 81.063">
  <g id="Grupo_1102526" data-name="Grupo 1102526" transform="translate(-568 -17636.119)">
    <path id="_12068" data-name="12068" d="M72.033,71.913c-8.038-1.11-16.53-.839-23.844,2.675C38.045,79.46,31.382,90.507,31.127,101.757s5.606,22.305,14.66,28.988,21,9.051,32.068,7.045c11.165-2.023,21.645-8.583,27.469-18.322,3.735-6.245,5.48-13.956,3.417-20.934a28.6,28.6,0,0,0-6.787-11.156A50.145,50.145,0,0,0,72.033,71.913Z" transform="translate(536.881 17575.559)" fill="#26aab7"/>
    <g id="Grupo_1102142" data-name="Grupo 1102142" transform="translate(573.167 17636.119)">
      <path id="Trazado_880518" data-name="Trazado 880518" d="M29.509,210.293l10.039,17.388-14.49,8.366a10.039,10.039,0,1,1-10.039-17.388Zm0,0" transform="translate(-8.326 -175.107)" fill="#7d6eb2"/>
      <path id="Trazado_880519" data-name="Trazado 880519" d="M277.975,67.736a3.346,3.346,0,0,1-2.816,5.018l-1.882.37-.042-.212L251.7,35.6l-.141-.11,1.2-1.535a3.346,3.346,0,0,1,5.754.069c33.429,57.9-8.744-15.147,19.461,33.709Zm0,0" transform="translate(-209.466 -26.941)" fill="#2bbdc4"/>
      <path id="Trazado_880520" data-name="Trazado 880520" d="M117.9,350.155a5.019,5.019,0,0,1-8.694,5.02L100,339.234l8.694-5.02,9.2,15.941Zm0,0" transform="translate(-83.272 -278.295)" fill="#7d6eb2"/>
      <path id="Trazado_880521" data-name="Trazado 880521" d="M340.606,108.934l3.346,5.8-4.123,6.244-6.693-11.592Zm0,0" transform="translate(-277.397 -90.708)" fill="#e9eef0"/>
      <path id="Trazado_880522" data-name="Trazado 880522" d="M169.191,88.53l.042.212-32.588,6.391L126.6,77.746l20.906-26.634.141.11Zm0,0" transform="translate(-105.422 -42.561)" fill="#adf3ff"/>
      <path id="Trazado_880523" data-name="Trazado 880523" d="M124.474,292.7a1.673,1.673,0,1,0-2.286-.612A1.674,1.674,0,0,0,124.474,292.7Zm0,0" transform="translate(-101.557 -241.124)"/>
      <path id="Trazado_880524" data-name="Trazado 880524" d="M16.06,81.736l8.426,14.6a6.692,6.692,0,1,0,11.592-6.692l-5.02-8.7,4.347-2.51a1.674,1.674,0,0,0,.612-2.286L33.842,72.38l32.048-6.286a5.019,5.019,0,0,0,4.069-7.521L64.4,48.942l3.554-5.382A1.674,1.674,0,0,0,68,41.8L64.657,36a1.677,1.677,0,0,0-1.55-.833l-6.437.386L50.5,24.865a4.976,4.976,0,0,0-4.284-2.509h-.064a4.975,4.975,0,0,0-4.226,2.314L20.066,52.514l-14.21,8.2a11.712,11.712,0,0,0,10.2,21.019ZM33.18,91.313a3.346,3.346,0,0,1-5.8,3.346L19.018,80.167l5.8-3.346L33.18,91.313Zm-3.8-13.268-1.673-2.9,2.9-1.673,1.673,2.9ZM62.276,38.574l2.312,4.005L62.527,45.7l-3.986-6.9ZM44.722,26.5a1.673,1.673,0,0,1,2.877.033L67.06,60.246a1.673,1.673,0,0,1-1.408,2.508,6.143,6.143,0,0,0-.918.156L44.149,27.254c.432-.556.488-.609.573-.75Zm-2.8,3.586,19.342,33.5-29.19,5.725L23.2,53.944ZM4.468,75.043A8.36,8.36,0,0,1,7.53,63.616l13.041-7.529,8.366,14.49L15.9,78.106A8.376,8.376,0,0,1,4.468,75.043Zm0,0" transform="translate(0 -18.615)"/>
      <path id="Trazado_880525" data-name="Trazado 880525" d="M53.273,310.409a1.673,1.673,0,0,0-2.286-.612l-2.9,1.673a1.675,1.675,0,0,1-2.286-.612,1.673,1.673,0,0,0-2.9,1.673,5.026,5.026,0,0,0,6.857,1.837l2.9-1.673a1.673,1.673,0,0,0,.612-2.286Zm0,0" transform="translate(-35.54 -257.776)"/>
      <path id="Trazado_880526" data-name="Trazado 880526" d="M446.458,42.693l-9.323,5.188a1.673,1.673,0,1,0,1.627,2.924l9.323-5.188a1.673,1.673,0,0,0-1.627-2.924Zm0,0" transform="translate(-363.279 -35.373)"/>
      <path id="Trazado_880527" data-name="Trazado 880527" d="M448.635,138.41l-6.465-1.732a1.673,1.673,0,1,0-.866,3.232l6.465,1.732a1.673,1.673,0,1,0,.865-3.232Zm0,0" transform="translate(-366.433 -113.762)"/>
      <path id="Trazado_880528" data-name="Trazado 880528" d="M385.284,1.241,383.55,7.706a1.673,1.673,0,0,0,3.233.867l1.733-6.465a1.673,1.673,0,1,0-3.232-.867Zm0,0" transform="translate(-319.327 0)"/>
    </g>
  </g>
</svg>
