<svg xmlns="http://www.w3.org/2000/svg" width="132" height="132" viewBox="0 0 132 132">
  <g id="Grupo_1102434" data-name="Grupo 1102434" transform="translate(6658 9258)">
    <g id="Grupo_1102427" data-name="Grupo 1102427" transform="translate(0.25)">
      <g id="Grupo_1102405" data-name="Grupo 1102405" transform="translate(-7050.583 -11571.736)">
        <path id="_12068" data-name="12068" d="M96.789,72.265c-12.9-1.782-26.531-1.346-38.272,4.293-16.282,7.82-26.975,25.551-27.385,43.609s9,35.8,23.53,46.529,33.7,14.528,51.472,11.308c17.921-3.248,34.743-13.777,44.091-29.409,5.994-10.023,8.8-22.4,5.485-33.6-2-6.76-6.086-12.75-10.894-17.906A80.487,80.487,0,0,0,96.789,72.265Z" transform="translate(364.214 2264.021)" fill="#26aab7"/>
      </g>
      <g id="correo-electronico" transform="translate(-6631.333 -9236.383)">
        <path id="Trazado_880831" data-name="Trazado 880831" d="M21.516,163,10,172.247v42.747a7.154,7.154,0,0,0,7.154,7.154H88.69a7.154,7.154,0,0,0,7.154-7.154V172.247L84.328,163.28" transform="translate(-8.255 -134.56)" fill="#72d8ff"/>
        <rect id="Rect치ngulo_401743" data-name="Rect치ngulo 401743" width="61.416" height="66.487" transform="translate(13.958 1.745)" fill="#edf2fa"/>
        <path id="Trazado_880832" data-name="Trazado 880832" d="M64.612,247.335H40.277L10,216v42.747a7.154,7.154,0,0,0,7.154,7.154H88.69a7.154,7.154,0,0,0,7.154-7.154V216Z" transform="translate(-8.255 -178.313)" fill="#feda9b"/>
        <path id="Trazado_880833" data-name="Trazado 880833" d="M44.055,364.913l25.3-22.98a17.375,17.375,0,0,1,23.366,0l25.3,22.98Z" transform="translate(-36.368 -278.546)" fill="#ffb954"/>
        <g id="Grupo_1102407" data-name="Grupo 1102407" transform="translate(24.26 13.016)">
          <path id="Trazado_880834" data-name="Trazado 880834" d="M319.762,84.282a5.671,5.671,0,1,0-8.021-8.021Z" transform="translate(-281.608 -74.6)" fill="#ff5d5d"/>
          <path id="Trazado_880835" data-name="Trazado 880835" d="M158.7,200.992l-6.568,6.568a7.671,7.671,0,0,1-10.848,0h0a7.671,7.671,0,0,1,0-10.848l6.568-6.568Z" transform="translate(-139.04 -169.984)" fill="#ff5d5d"/>
        </g>
        <path id="Trazado_880836" data-name="Trazado 880836" d="M229.645,252.336l7.687,7.687-4.668,4.668-7.69-7.69Z" transform="translate(-185.721 -208.309)" fill="#6a80ff"/>
        <path id="Trazado_880837" data-name="Trazado 880837" d="M200.409,68.865l-10.85-10.851L201.45,30.087l26.876,26.876Z" transform="translate(-156.485 -24.837)" fill="#4dbaf6"/>
        <path id="Trazado_880838" data-name="Trazado 880838" d="M262.981,60.017l7.164-3.054L243.27,30.087l-3.052,7.167Z" transform="translate(-198.305 -24.837)" fill="#fff"/>
        <path id="Trazado_880839" data-name="Trazado 880839" d="M188.511,56.511A1.744,1.744,0,1,0,189.745,56,1.758,1.758,0,0,0,188.511,56.511Z" transform="translate(-155.198 -46.229)"/>
        <path id="Trazado_880840" data-name="Trazado 880840" d="M112.62,59.49h7.009a1.745,1.745,0,1,0,0-3.49H112.62a1.745,1.745,0,0,0,0,3.49Z" transform="translate(-91.53 -46.229)"/>
        <path id="Trazado_880841" data-name="Trazado 880841" d="M112.62,115.49h8.409a1.745,1.745,0,1,0,0-3.49H112.62a1.745,1.745,0,0,0,0,3.49Z" transform="translate(-91.53 -92.458)"/>
        <path id="Trazado_880842" data-name="Trazado 880842" d="M88.66,36.312h0L77.145,27.343l-.025-.018V25.474a1.745,1.745,0,0,0-3.49,0V49.145c0,.011,0,.021,0,.032L59.194,63.614,57.523,62.1a19.077,19.077,0,0,0-9.208-4.617l4.53-4.53a1.745,1.745,0,0,0,0-2.468l-5.861-5.861L72.525,33.731a1.745,1.745,0,0,0,.549-2.839l-8.34-8.34a7.419,7.419,0,0,0-10.2-10.2L46.2,4.015a1.745,1.745,0,0,0-2.839.55L31.6,32.181,25.272,38.51A9.415,9.415,0,1,0,38.587,51.825l.665-.665,5.977,5.977c-.187-.005-.375-.009-.563-.009A19.081,19.081,0,0,0,31.81,62.095l-1.672,1.518L15.7,49.176c0-.011,0-.021,0-.032V3.49H35.242a1.745,1.745,0,1,0,0-3.49H13.958a1.745,1.745,0,0,0-1.745,1.745v25.3c-.015.011-.031.021-.046.033L.652,36.327h0A1.74,1.74,0,0,0,0,37.687V80.435a8.908,8.908,0,0,0,8.9,8.9H80.435a8.908,8.908,0,0,0,8.9-8.9V37.687A1.74,1.74,0,0,0,88.66,36.312ZM42.506,15.477l19.11,19.11L44.325,41.96l-9.184-9.184Zm15.9-.716a3.921,3.921,0,0,1,3.72,5.179L57.15,14.968A3.927,3.927,0,0,1,58.4,14.761ZM45.558,8.31l7.6,7.6,0,0,0,0,8.018,8.018h0l7.6,7.6-3.7,1.579-21.1-21.1ZM31.93,51.094a5.926,5.926,0,0,1-4.19-10.116l5.334-5.334,8.38,8.381L36.12,49.358A5.886,5.886,0,0,1,31.93,51.094Zm11.991-4.6,5.222,5.222-2.2,2.2-5.222-5.222Zm33.2-14.746,7.838,6.1L77.12,45.688ZM34.157,64.678a15.57,15.57,0,0,1,21.02,0l23.3,21.166H10.858l5.762-5.234H29.427a1.745,1.745,0,0,0,0-3.49H20.461ZM12.213,31.518v14.17L4.354,37.83ZM3.49,80.435V41.9L27.553,65.963,6.513,85.076a1.785,1.785,0,0,0-.138.141A5.413,5.413,0,0,1,3.49,80.435Zm79.468,4.782a1.756,1.756,0,0,0-.138-.141L61.78,65.963,85.843,41.9V80.435A5.413,5.413,0,0,1,82.958,85.217Z"/>
        <path id="Trazado_880843" data-name="Trazado 880843" d="M383.745,10.934a1.74,1.74,0,0,0,1.234-.511l7.048-7.048A1.745,1.745,0,0,0,389.559.907l-7.048,7.048a1.745,1.745,0,0,0,1.234,2.979Z" transform="translate(-315.349 -0.327)"/>
        <path id="Trazado_880844" data-name="Trazado 880844" d="M346.157,6.994A1.745,1.745,0,0,0,347.9,5.25v-3.5a1.745,1.745,0,1,0-3.49,0v3.5A1.745,1.745,0,0,0,346.157,6.994Z" transform="translate(-284.319)"/>
        <path id="Trazado_880845" data-name="Trazado 880845" d="M407.3,77.521h-3.622a1.745,1.745,0,1,0,0,3.49H407.3a1.745,1.745,0,0,0,0-3.49Z" transform="translate(-331.801 -63.995)"/>
        <path id="Trazado_880846" data-name="Trazado 880846" d="M201.4,445.49a1.743,1.743,0,1,0-1.235-.511A1.761,1.761,0,0,0,201.4,445.49Z" transform="translate(-164.824 -364.88)"/>
      </g>
    </g>
    <rect id="Rect치ngulo_401747" data-name="Rect치ngulo 401747" width="132" height="132" transform="translate(-6658 -9258)" fill="none"/>
  </g>
</svg>
