<svg xmlns="http://www.w3.org/2000/svg" width="132" height="132" viewBox="0 0 132 132">
  <g id="Grupo_1102431" data-name="Grupo 1102431" transform="translate(-423 -2461)">
    <g id="Grupo_1102429" data-name="Grupo 1102429" transform="translate(3.001)">
      <g id="Grupo_1102402" data-name="Grupo 1102402" transform="translate(27.666 149.71)">
        <path id="_12068" data-name="12068" d="M96.789,72.265c-12.9-1.782-26.531-1.346-38.272,4.293-16.282,7.82-26.975,25.551-27.385,43.609s9,35.8,23.53,46.529,33.7,14.528,51.472,11.308c17.921-3.248,34.742-13.777,44.091-29.409,5.994-10.023,8.8-22.4,5.485-33.6-2-6.76-6.086-12.75-10.894-17.906A80.487,80.487,0,0,0,96.789,72.265Z" transform="translate(364.214 2264.021)" fill="#26aab7"/>
      </g>
      <g id="escuchando_1_" data-name="escuchando (1)" transform="translate(441.911 2430.146)">
        <g id="Grupo_1102412" data-name="Grupo 1102412" transform="translate(1.507 48.751)">
          <path id="Trazado_880876" data-name="Trazado 880876" d="M37.41,320.83l-9.837,21.827H53.836l6.123-12.541Z" transform="translate(-23.404 -266.058)" fill="#ffe0cf"/>
          <path id="Trazado_880877" data-name="Trazado 880877" d="M117.429,143.974l-2.631-3.41a29.03,29.03,0,0,1-5.942-15.294l-.494-5.862-12.7-6.236-24.728,10.4-1.149,34.7,31.5,9.047a4.938,4.938,0,0,0,6.114-3.661l.214-.934a1.632,1.632,0,0,0-.459-1.54l-3.392-3.266a1.482,1.482,0,0,1,.686-2.51l4.131-.979a1.632,1.632,0,0,0,1.214-1.224L110.53,150l5.8-2.175a2.49,2.49,0,0,0,1.1-3.853Z" transform="translate(-56.932 -101.137)" fill="#ffe0cf"/>
          <path id="Trazado_880878" data-name="Trazado 880878" d="M63.764,69.438l-8.675,3.949a13.3,13.3,0,0,0-7.568,9.691l-1.082,5.867a2.928,2.928,0,0,1-5.112,1.363L35,82.849a6.107,6.107,0,0,0-10.678,2.934l-.07.417a6.107,6.107,0,0,0,1.563,5.189A9.226,9.226,0,0,1,27.5,101.442l-2.927,6.581a2.661,2.661,0,0,1-4.964-.266L17.632,101.6a10.75,10.75,0,0,0-3.207-4.842l-1.092-.943A17.379,17.379,0,0,1,8,77.832q.052-.18.106-.358A24.969,24.969,0,0,1,23.434,61.351c6.631-2.459,13.3-3.79,20.072-2.515a10.267,10.267,0,0,0,9.4-3.044,3.451,3.451,0,0,1,5.528,4.046,1.453,1.453,0,0,0,1.752,2.08l.481-.17a4.149,4.149,0,0,1,3.1,7.689Z" transform="translate(-7.317 -54.702)" fill="#5844a0"/>
          <path id="Trazado_880879" data-name="Trazado 880879" d="M375.2,179.265a18.712,18.712,0,0,0-6.851-13.758,15.4,15.4,0,0,0-23.689,5.388,16.211,16.211,0,0,0-1.4,9.025,30.633,30.633,0,0,0,6.775,15.6,15.078,15.078,0,0,1,2.494,14.831c-3.326,8.856,7.371,16.3,14.514,10.1q.512-.445,1.027-.938l8.225-12.043" transform="translate(-274.006 -139.937)" fill="#ffe0cf"/>
          <path id="Trazado_880880" data-name="Trazado 880880" d="M357.121,209.07a13.8,13.8,0,0,0-2.283-13.576,28.041,28.041,0,0,1-6.2-14.282,14.839,14.839,0,0,1,1.28-8.262,14.1,14.1,0,0,1,19.716-6.285q-.614-.6-1.286-1.157a15.4,15.4,0,0,0-23.689,5.388,16.211,16.211,0,0,0-1.4,9.025,30.634,30.634,0,0,0,6.775,15.6,15.079,15.079,0,0,1,2.494,14.831c-3.326,8.856,7.371,16.3,14.514,10.1q.27-.235.541-.483C361.43,222.1,354.493,216.068,357.121,209.07Z" transform="translate(-274.006 -139.938)" fill="#ffcfc0"/>
        </g>
        <g id="Grupo_1102413" data-name="Grupo 1102413" transform="translate(0.002 47.208)">
          <path id="Trazado_880881" data-name="Trazado 880881" d="M63.913,94.214a4,4,0,0,0-.686-3.57L60.6,87.234A27.429,27.429,0,0,1,54.97,72.753l-.494-5.862q0-.06-.015-.118l4.133-1.881a5.693,5.693,0,0,0-4.252-10.55l-.263.093a4.995,4.995,0,0,0-8.11-5.65,8.692,8.692,0,0,1-7.987,2.584c-6.3-1.186-12.94-.365-20.894,2.585a27.327,27.327,0,0,0-4.93,2.419,1.543,1.543,0,0,0,1.632,2.62,24.235,24.235,0,0,1,4.372-2.145c7.406-2.747,13.523-3.524,19.25-2.446a11.762,11.762,0,0,0,10.809-3.5,1.909,1.909,0,0,1,2.162-.439,1.908,1.908,0,0,1,.894,2.676,3,3,0,0,0,3.612,4.289l.481-.169a2.606,2.606,0,0,1,1.946,4.829L48.641,66.03a14.852,14.852,0,0,0-8.447,10.817l-1.082,5.866a1.384,1.384,0,0,1-2.417.645L30.366,75.9a7.638,7.638,0,0,0-7.433-2.531c-6.023,1.288-8.029,8.88-4.057,13.126a7.668,7.668,0,0,1,1.41,8.37l-2.927,6.582a1.116,1.116,0,0,1-2.084-.112l-1.983-6.159a12.287,12.287,0,0,0-3.667-5.538l-1.092-.943c-7.939-6.856-6.8-18.385.856-26.176a1.544,1.544,0,1,0-2.2-2.163C-1.89,69.6-2.644,83.122,6.516,91.031l1.092.943a9.2,9.2,0,0,1,2.746,4.147l1.983,6.159a4.2,4.2,0,0,0,1.207,1.861L4.27,124.716a1.544,1.544,0,0,0,1.407,2.178H18.886a1.544,1.544,0,1,0,0-3.087H8.065l8.389-18.612a4.17,4.17,0,0,0,3.725-2.494l2.927-6.582a10.749,10.749,0,0,0-1.976-11.734c-2.277-2.434-1.293-7.2,2.448-8a4.557,4.557,0,0,1,4.434,1.51l6.329,7.459a4.472,4.472,0,0,0,7.807-2.082l1.082-5.866a11.763,11.763,0,0,1,6.69-8.567l1.563-.711.412,4.884A30.511,30.511,0,0,0,58.152,89.12l2.631,3.41A.947.947,0,0,1,60.365,94l-5.8,2.175a1.544,1.544,0,0,0-.963,1.1l-.735,3.207a.089.089,0,0,1-.066.066l-4.132.979a3.026,3.026,0,0,0-1.4,5.124l3.392,3.266a.089.089,0,0,1,.025.084l-.214.934a3.395,3.395,0,0,1-4.2,2.517l-13.922-3.8a1.544,1.544,0,1,0-.813,2.978l4.324,1.18-4.882,10H25.124a1.544,1.544,0,1,0,0,3.087h6.815a1.544,1.544,0,0,0,1.387-.866l5.562-11.393,6.567,1.792a6.532,6.532,0,0,0,1.721.233,6.492,6.492,0,0,0,6.3-5.038l.214-.934a3.192,3.192,0,0,0-.893-3L49.49,104.5l4.022-.953a3.156,3.156,0,0,0,2.363-2.381l.55-2.4,5.024-1.884A4,4,0,0,0,63.913,94.214Z" transform="translate(-0.002 -47.208)"/>
          <path id="Trazado_880882" data-name="Trazado 880882" d="M116.336,208.018a1.544,1.544,0,0,0-2.088-.636,3.006,3.006,0,0,0-1.281,4.018l.627,1.254a1.544,1.544,0,1,0,2.761-1.381l-.6-1.2A1.543,1.543,0,0,0,116.336,208.018Z" transform="translate(-89.46 -174.273)"/>
          <path id="Trazado_880883" data-name="Trazado 880883" d="M225.073,202.528v-3.394a1.544,1.544,0,0,0-3.087,0v3.394a1.544,1.544,0,0,0,3.087,0Z" transform="translate(-176.299 -166.64)"/>
          <path id="Trazado_880884" data-name="Trazado 880884" d="M371.2,201.259a1.543,1.543,0,0,0-2.145.4c-8.764,12.831-7.848,11.694-8.989,12.686a7.578,7.578,0,0,1-12.057-8.391,16.694,16.694,0,0,0-2.743-16.349,28.946,28.946,0,0,1-6.442-14.832,14.633,14.633,0,0,1,1.267-8.166,13.707,13.707,0,0,1,10.01-7.744,1.544,1.544,0,0,0-.566-3.035A16.761,16.761,0,0,0,337.3,165.3a17.713,17.713,0,0,0-1.531,9.885,32.382,32.382,0,0,0,7.108,16.371,13.6,13.6,0,0,1,2.246,13.313,10.4,10.4,0,0,0,3.9,12.509,10.692,10.692,0,0,0,6.121,1.981,10.56,10.56,0,0,0,6.951-2.683c1.708-1.483.315.193,9.514-13.276A1.543,1.543,0,0,0,371.2,201.259Z" transform="translate(-266.539 -133.457)"/>
          <path id="Trazado_880885" data-name="Trazado 880885" d="M428.659,159.411a13.707,13.707,0,0,1,5.691,2.793,17.18,17.18,0,0,1,6.286,12.623,1.544,1.544,0,0,0,1.541,1.484h.061a1.543,1.543,0,0,0,1.483-1.6,20.269,20.269,0,0,0-7.416-14.893,16.766,16.766,0,0,0-6.963-3.414,1.544,1.544,0,1,0-.682,3.011Z" transform="translate(-339.482 -133.896)"/>
          <path id="Trazado_880886" data-name="Trazado 880886" d="M374.97,203.981c-3,6.564.966,14.772,7.2,18.572a4.64,4.64,0,0,1,2.189,4.4l-.343,3.462a1.544,1.544,0,1,0,3.072.3l.343-3.462a7.744,7.744,0,0,0-3.654-7.336c-5.052-3.082-8.273-9.676-6-14.653a7.43,7.43,0,0,1,5.112-4.177c5.186-1.2,9.763,3.3,9.966,8.528a1.544,1.544,0,0,0,3.085-.12c-.276-7.105-6.6-13.075-13.749-11.415a10.5,10.5,0,0,0-7.221,5.9Z" transform="translate(-296.986 -166.807)"/>
          <path id="Trazado_880887" data-name="Trazado 880887" d="M411.219,238.312a1.326,1.326,0,0,1,1.942.237l1.805,2.531a1.544,1.544,0,1,0,2.514-1.793l-1.805-2.531a4.413,4.413,0,0,0-7.22,5.076l4.052,5.846a1.544,1.544,0,0,0,2.537-1.759l-4.052-5.846A1.322,1.322,0,0,1,411.219,238.312Z" transform="translate(-323.763 -196.277)"/>
          <path id="Trazado_880888" data-name="Trazado 880888" d="M297.712,324.688a9.98,9.98,0,0,0-2.023-7.448,1.544,1.544,0,1,0-2.441,1.89,6.953,6.953,0,0,1-1.273,9.79,1.544,1.544,0,0,0,1.876,2.452A9.978,9.978,0,0,0,297.712,324.688Z" transform="translate(-231.403 -261.19)"/>
          <path id="Trazado_880889" data-name="Trazado 880889" d="M309.491,302.341a1.544,1.544,0,0,0-.284,2.164,11.934,11.934,0,0,1-2.176,16.739,1.544,1.544,0,1,0,1.886,2.444,15.021,15.021,0,0,0,2.739-21.065A1.543,1.543,0,0,0,309.491,302.341Z" transform="translate(-243.364 -249.578)"/>
          <path id="Trazado_880890" data-name="Trazado 880890" d="M282.395,334.605a5.5,5.5,0,0,0-1.156-4.156,1.544,1.544,0,0,0-2.418,1.919,2.444,2.444,0,0,1-.453,3.486,1.544,1.544,0,0,0,1.847,2.474A5.5,5.5,0,0,0,282.395,334.605Z" transform="translate(-220.584 -271.691)"/>
        </g>
      </g>
    </g>
    <rect id="Rectángulo_401744" data-name="Rectángulo 401744" width="132" height="132" transform="translate(423 2461)" fill="none"/>
  </g>
</svg>
