<svg xmlns="http://www.w3.org/2000/svg" width="626.5" height="236.861" viewBox="0 0 626.5 236.861">
  <g id="Grupo_1101916" data-name="Grupo 1101916" transform="translate(-478.5 -1919)">
    <circle id="Elipse_11998" data-name="Elipse 11998" cx="66.5" cy="66.5" r="66.5" transform="translate(494 1923)" fill="#7d6eb2"/>
    <circle id="Elipse_11999" data-name="Elipse 11999" cx="66.5" cy="66.5" r="66.5" transform="translate(972 1923)" fill="#7d6eb2"/>
    <circle id="Elipse_12000" data-name="Elipse 12000" cx="37.5" cy="37.5" r="37.5" transform="translate(758 2001)" fill="#7d6eb2"/>
    <circle id="Elipse_12001" data-name="Elipse 12001" cx="37.5" cy="37.5" r="37.5" transform="translate(758 1919)" fill="#7d6eb2"/>
    <text id="Consumidor" transform="translate(1038 2003.5)" fill="#fff" font-size="22" font-family="Roboto-Black, Roboto" font-weight="800"><tspan x="-60.468" y="0">Consumidor</tspan></text>
    <text id="Medio" transform="translate(768 2047)" fill="#fff" font-size="20" font-family="Roboto-Black, Roboto" font-weight="800"><tspan x="0" y="0">Medio</tspan></text>
    <text id="Feed_back" data-name="Feed
back" transform="translate(775 2117)" fill="#7d6eb2" font-size="20" font-family="Roboto-Black, Roboto" font-weight="800"><tspan x="0" y="0">Feed</tspan><tspan x="0" y="17">back</tspan></text>
    <text id="Código" transform="translate(764 1963)" fill="#fff" font-size="20" font-family="Roboto-Black, Roboto" font-weight="800"><tspan x="0" y="0">Código</tspan></text>
    <g id="Grupo_1101904" data-name="Grupo 1101904">
      <path id="Trazado_880103" data-name="Trazado 880103" d="M-7735.731-9706h111.341" transform="translate(8376 11701)" fill="none" stroke="#7d6eb2" stroke-width="7"/>
      <g id="Polígono_5" data-name="Polígono 5" transform="translate(764 1974) rotate(90)" fill="#7d6eb2">
        <path d="M 34.11914825439453 35.49999618530273 L 6.880849838256836 35.49999618530273 C 5.619880199432373 35.49999618530273 4.488709926605225 34.84915542602539 3.854979991912842 33.75899505615234 C 3.221250057220459 32.66884613037109 3.215430021286011 31.36382675170898 3.839400053024292 30.26806640625 L 17.45854949951172 6.35150671005249 C 18.0889892578125 5.244406700134277 19.2259693145752 4.583446502685547 20.5 4.583446502685547 C 21.77401924133301 4.583446502685547 22.9110107421875 5.244406700134277 23.54145050048828 6.35150671005249 L 37.16059875488281 30.26806640625 C 37.78456878662109 31.36382675170898 37.77875137329102 32.66884613037109 37.14501953125 33.75899505615234 C 36.51129150390625 34.84915542602539 35.38011932373047 35.49999618530273 34.11914825439453 35.49999618530273 Z" stroke="none"/>
        <path d="M 20.5 5.083446502685547 C 19.4079704284668 5.083446502685547 18.43341064453125 5.649974822998047 17.89303970336914 6.598926544189453 L 4.273891448974609 30.51548767089844 C 3.739059448242188 31.4547061920166 3.744049072265625 32.57330703735352 4.287239074707031 33.50771713256836 C 4.830440521240234 34.44213485717773 5.800010681152344 34.99999618530273 6.880851745605469 34.99999618530273 L 34.11914825439453 34.99999618530273 C 35.19998168945312 34.99999618530273 36.16955947875977 34.44213485717773 36.71274948120117 33.50771713256836 C 37.25595092773438 32.57329559326172 37.26094055175781 31.4547061920166 36.72610855102539 30.51548767089844 L 23.10696029663086 6.598926544189453 C 22.56657981872559 5.649974822998047 21.59202003479004 5.083446502685547 20.5 5.083446502685547 M 20.49999618530273 4.083442687988281 C 21.85441780090332 4.083442687988281 23.20883941650391 4.756992340087891 23.9759407043457 6.104087829589844 L 37.59508895874023 30.02064514160156 C 39.11357116699219 32.68723678588867 37.18777847290039 35.99999618530273 34.11914825439453 35.99999618530273 L 6.880851745605469 35.99999618530273 C 3.812210083007812 35.99999618530273 1.886428833007812 32.68723678588867 3.404911041259766 30.02064514160156 L 17.0240592956543 6.104087829589844 C 17.7911548614502 4.756992340087891 19.14557456970215 4.083442687988281 20.49999618530273 4.083442687988281 Z" stroke="none" fill="#7d6eb2"/>
      </g>
    </g>
    <g id="Grupo_1101905" data-name="Grupo 1101905">
      <path id="Trazado_880103-2" data-name="Trazado 880103" d="M-7735.731-9706h99.854" transform="translate(8376 11701)" fill="none" stroke="#7d6eb2" stroke-linecap="round" stroke-width="13"/>
      <g id="Polígono_5-2" data-name="Polígono 5" transform="translate(764 1974) rotate(90)" fill="#7d6eb2">
        <path d="M 34.11914825439453 35.49999618530273 L 6.880849838256836 35.49999618530273 C 5.619880199432373 35.49999618530273 4.488709926605225 34.84915542602539 3.854979991912842 33.75899505615234 C 3.221250057220459 32.66884613037109 3.215430021286011 31.36382675170898 3.839400053024292 30.26806640625 L 17.45854949951172 6.35150671005249 C 18.0889892578125 5.244406700134277 19.2259693145752 4.583446502685547 20.5 4.583446502685547 C 21.77401924133301 4.583446502685547 22.9110107421875 5.244406700134277 23.54145050048828 6.35150671005249 L 37.16059875488281 30.26806640625 C 37.78456878662109 31.36382675170898 37.77875137329102 32.66884613037109 37.14501953125 33.75899505615234 C 36.51129150390625 34.84915542602539 35.38011932373047 35.49999618530273 34.11914825439453 35.49999618530273 Z" stroke="none"/>
        <path d="M 20.5 5.083446502685547 C 19.4079704284668 5.083446502685547 18.43341064453125 5.649974822998047 17.89303970336914 6.598926544189453 L 4.273891448974609 30.51548767089844 C 3.739059448242188 31.4547061920166 3.744049072265625 32.57330703735352 4.287239074707031 33.50771713256836 C 4.830440521240234 34.44213485717773 5.800010681152344 34.99999618530273 6.880851745605469 34.99999618530273 L 34.11914825439453 34.99999618530273 C 35.19998168945312 34.99999618530273 36.16955947875977 34.44213485717773 36.71274948120117 33.50771713256836 C 37.25595092773438 32.57329559326172 37.26094055175781 31.4547061920166 36.72610855102539 30.51548767089844 L 23.10696029663086 6.598926544189453 C 22.56657981872559 5.649974822998047 21.59202003479004 5.083446502685547 20.5 5.083446502685547 M 20.49999618530273 4.083442687988281 C 21.85441780090332 4.083442687988281 23.20883941650391 4.756992340087891 23.9759407043457 6.104087829589844 L 37.59508895874023 30.02064514160156 C 39.11357116699219 32.68723678588867 37.18777847290039 35.99999618530273 34.11914825439453 35.99999618530273 L 6.880851745605469 35.99999618530273 C 3.812210083007812 35.99999618530273 1.886428833007812 32.68723678588867 3.404911041259766 30.02064514160156 L 17.0240592956543 6.104087829589844 C 17.7911548614502 4.756992340087891 19.14557456970215 4.083442687988281 20.49999618530273 4.083442687988281 Z" stroke="none" fill="#7d6eb2"/>
      </g>
    </g>
    <g id="Grupo_1101906" data-name="Grupo 1101906" transform="translate(200)">
      <path id="Trazado_880103-3" data-name="Trazado 880103" d="M-7735.731-9706h94.666" transform="translate(8376 11701)" fill="none" stroke="#7d6eb2" stroke-linecap="round" stroke-width="13"/>
      <g id="Polígono_5-3" data-name="Polígono 5" transform="translate(764 1974) rotate(90)" fill="#7d6eb2">
        <path d="M 34.11914825439453 35.49999618530273 L 6.880849838256836 35.49999618530273 C 5.619880199432373 35.49999618530273 4.488709926605225 34.84915542602539 3.854979991912842 33.75899505615234 C 3.221250057220459 32.66884613037109 3.215430021286011 31.36382675170898 3.839400053024292 30.26806640625 L 17.45854949951172 6.35150671005249 C 18.0889892578125 5.244406700134277 19.2259693145752 4.583446502685547 20.5 4.583446502685547 C 21.77401924133301 4.583446502685547 22.9110107421875 5.244406700134277 23.54145050048828 6.35150671005249 L 37.16059875488281 30.26806640625 C 37.78456878662109 31.36382675170898 37.77875137329102 32.66884613037109 37.14501953125 33.75899505615234 C 36.51129150390625 34.84915542602539 35.38011932373047 35.49999618530273 34.11914825439453 35.49999618530273 Z" stroke="none"/>
        <path d="M 20.5 5.083446502685547 C 19.4079704284668 5.083446502685547 18.43341064453125 5.649974822998047 17.89303970336914 6.598926544189453 L 4.273891448974609 30.51548767089844 C 3.739059448242188 31.4547061920166 3.744049072265625 32.57330703735352 4.287239074707031 33.50771713256836 C 4.830440521240234 34.44213485717773 5.800010681152344 34.99999618530273 6.880851745605469 34.99999618530273 L 34.11914825439453 34.99999618530273 C 35.19998168945312 34.99999618530273 36.16955947875977 34.44213485717773 36.71274948120117 33.50771713256836 C 37.25595092773438 32.57329559326172 37.26094055175781 31.4547061920166 36.72610855102539 30.51548767089844 L 23.10696029663086 6.598926544189453 C 22.56657981872559 5.649974822998047 21.59202003479004 5.083446502685547 20.5 5.083446502685547 M 20.49999618530273 4.083442687988281 C 21.85441780090332 4.083442687988281 23.20883941650391 4.756992340087891 23.9759407043457 6.104087829589844 L 37.59508895874023 30.02064514160156 C 39.11357116699219 32.68723678588867 37.18777847290039 35.99999618530273 34.11914825439453 35.99999618530273 L 6.880851745605469 35.99999618530273 C 3.812210083007812 35.99999618530273 1.886428833007812 32.68723678588867 3.404911041259766 30.02064514160156 L 17.0240592956543 6.104087829589844 C 17.7911548614502 4.756992340087891 19.14557456970215 4.083442687988281 20.49999618530273 4.083442687988281 Z" stroke="none" fill="#7d6eb2"/>
      </g>
    </g>
    <path id="Trazado_880104" data-name="Trazado 880104" d="M-7376-9634.059s-82.68,82.075-202.007,83.4-185.317-69.746-185.317-69.746" transform="translate(8376 11700)" fill="none" stroke="#7d6eb2" stroke-linecap="round" stroke-width="13"/>
    <g id="Polígono_6" data-name="Polígono 6" transform="translate(623.896 2048.817) rotate(73)" fill="#7d6eb2">
      <path d="M 34.11914825439453 35.49999618530273 L 6.880849838256836 35.49999618530273 C 5.619880199432373 35.49999618530273 4.488709926605225 34.84915542602539 3.854979991912842 33.75899505615234 C 3.221250057220459 32.66884613037109 3.215430021286011 31.36382675170898 3.839400053024292 30.26806640625 L 17.45854949951172 6.35150671005249 C 18.0889892578125 5.244406700134277 19.2259693145752 4.583446502685547 20.5 4.583446502685547 C 21.77401924133301 4.583446502685547 22.9110107421875 5.244406700134277 23.54145050048828 6.35150671005249 L 37.16059875488281 30.26806640625 C 37.78456878662109 31.36382675170898 37.77875137329102 32.66884613037109 37.14501953125 33.75899505615234 C 36.51129150390625 34.84915542602539 35.38011932373047 35.49999618530273 34.11914825439453 35.49999618530273 Z" stroke="none"/>
      <path d="M 20.5 5.083446502685547 C 19.4079704284668 5.083446502685547 18.43341064453125 5.649974822998047 17.89303970336914 6.598926544189453 L 4.273891448974609 30.51548767089844 C 3.739059448242188 31.4547061920166 3.744049072265625 32.57330703735352 4.287239074707031 33.50771713256836 C 4.830440521240234 34.44213485717773 5.800010681152344 34.99999618530273 6.880851745605469 34.99999618530273 L 34.11914825439453 34.99999618530273 C 35.19998168945312 34.99999618530273 36.16955947875977 34.44213485717773 36.71274948120117 33.50771713256836 C 37.25595092773438 32.57329559326172 37.26094055175781 31.4547061920166 36.72610855102539 30.51548767089844 L 23.10696029663086 6.598926544189453 C 22.56657981872559 5.649974822998047 21.59202003479004 5.083446502685547 20.5 5.083446502685547 M 20.49999618530273 4.083442687988281 C 21.85441780090332 4.083442687988281 23.20883941650391 4.756992340087891 23.9759407043457 6.104087829589844 L 37.59508895874023 30.02064514160156 C 39.11357116699219 32.68723678588867 37.18777847290039 35.99999618530273 34.11914825439453 35.99999618530273 L 6.880851745605469 35.99999618530273 C 3.812210083007812 35.99999618530273 1.886428833007812 32.68723678588867 3.404911041259766 30.02064514160156 L 17.0240592956543 6.104087829589844 C 17.7911548614502 4.756992340087891 19.14557456970215 4.083442687988281 20.49999618530273 4.083442687988281 Z" stroke="none" fill="#7d6eb2"/>
    </g>
    <text id="Anunciante" transform="translate(478.5 1974.359)" fill="#fff" font-size="22" font-family="Roboto-Black, Roboto" font-weight="800"><tspan x="-56.391" y="21">Anunciante</tspan></text>
  </g>
</svg>
