<svg xmlns="http://www.w3.org/2000/svg" xmlns:xlink="http://www.w3.org/1999/xlink" width="505" height="353" viewBox="0 0 505 353">
  <defs>
    <clipPath id="clip-path">
      <rect id="Rectángulo_402036" data-name="Rectángulo 402036" width="360.937" height="352.999" fill="none"/>
    </clipPath>
    <clipPath id="clip-path-5">
      <rect id="Rectángulo_402012" data-name="Rectángulo 402012" width="150.45" height="47.949" fill="none"/>
    </clipPath>
    <clipPath id="clip-path-6">
      <rect id="Rectángulo_402013" data-name="Rectángulo 402013" width="3.855" height="15.108" fill="none"/>
    </clipPath>
    <clipPath id="clip-path-13">
      <rect id="Rectángulo_402034" data-name="Rectángulo 402034" width="7.726" height="19.161" fill="none"/>
    </clipPath>
  </defs>
  <g id="Grupo_1102519" data-name="Grupo 1102519" transform="translate(-915 -415)">
    <path id="Trazado_881152" data-name="Trazado 881152" d="M85,0H420a85,85,0,0,1,85,85v31.88H0V85A85,85,0,0,1,85,0Z" transform="translate(915 651.12)" fill="#7d6eb2" opacity="0.43"/>
    <g id="Grupo_1102518" data-name="Grupo 1102518" transform="translate(429.715 40)">
      <g id="Grupo_1102517" data-name="Grupo 1102517" transform="translate(550 375)">
        <g id="Grupo_1102516" data-name="Grupo 1102516" clip-path="url(#clip-path)">
          <g id="Grupo_1102490" data-name="Grupo 1102490">
            <g id="Grupo_1102489" data-name="Grupo 1102489" clip-path="url(#clip-path)">
              <path id="Trazado_880980" data-name="Trazado 880980" d="M25.966,435.71c-1.034-.887-3.342-3.7-1.563-6.968.652-1.2,2.038-1.791,3.293-2.32a13.364,13.364,0,0,0,3.61-1.869c1.957-1.665,2.5-4.432,3.8-6.654a8.317,8.317,0,0,1,7.217-4.327c3.369.154,6.178,2.9,7.451,6.041s1.317,6.619,1.344,10.007c.015,1.873-.068,3.984-1.444,5.249-1.268,1.166-3.177,1.181-4.895,1.128l-18.407-.565" transform="translate(-5.126 -89.264)" fill="#f5f5f5"/>
              <path id="Trazado_880981" data-name="Trazado 880981" d="M58.147,377.257H9.74l8.72,51.994a5.8,5.8,0,0,0,4.133,4.629c.056.017.114.03.17.046.144.037.283.085.43.111a6.153,6.153,0,0,0,.985.114c0,.016,0,.033.008.049l.236-.038H46a6.092,6.092,0,0,0,1.186-.118,5.829,5.829,0,0,0,4.9-5.082l4.2-35.825.189-1.424h-.022l1.665-14.188Zm-9.132,33.166H44.048l.5-15.09H50.3Zm1.771-15.09h4.756l-1.771,15.09H49.5ZM36.594,427.151l-.3-13.11h7.154l-.436,13.11Zm-7.734-13.11h6.952l.3,13.11H29.88Zm.537,13.11H23.569c-.554-3.54-1.274-8.139-2.054-13.11h6.864Zm-.818-16.728-1.173-15.09H35.38l.348,15.09Zm7.63,0-.348-15.09h8.206l-.5,15.09Zm-.431-18.709-.321-13.974h9.2l-.464,13.974Zm-.481,0H27.125L26.04,377.74h8.936Zm-8.654,0H18c-.306-1.93-.6-3.757-.859-5.4-.9-5.65-1.241-7.775-1.43-8.574h9.848Zm.282,3.619,1.173,15.09H20.947c-.241-1.531-.485-3.079-.728-4.63-.561-3.562-1.122-7.123-1.65-10.46Zm-6.464,15.09H15.79l-2.531-15.09h4.825c.737,4.663,1.554,9.854,2.378,15.09m.568,3.619c.712,4.536,1.413,9.009,2.054,13.11H18.595l-2.2-13.11Zm22.463,13.11.435-13.11h4.779l-1.12,13.11Zm1.177-35.437.464-13.974h6.675l-1.194,13.974ZM15.251,377.74c.192,1.01,1.076,6.509,2.259,13.974H12.652L10.308,377.74Zm36.558,49.411H48.068l1.12-13.11h4.159Zm4.158-35.437H51.1L52.29,377.74h5.317Z" transform="translate(-2.102 -81.427)" fill="#e0e0e0"/>
              <rect id="Rectángulo_401968" data-name="Rectángulo 401968" width="65.243" height="58.37" transform="translate(285.08 74.503)" fill="#fafafa"/>
              <path id="Trazado_880982" data-name="Trazado 880982" d="M428.744,153.333s-.011-.374-.017-1.084-.009-1.763-.017-3.127c-.009-2.741-.022-6.746-.038-11.849-.018-10.2-.044-24.772-.076-42.311l.148.148-65.237.026H363.5l.175-.174c-.008,21.236-.015,41.219-.021,58.37l-.154-.154,47.189.078L424,153.3l3.523.018.908.009c.205,0,.314.009.314.009s-.1.006-.3.009l-.892.009-3.493.018-13.274.041-47.288.078h-.153v-.154c-.006-17.152-.013-37.135-.021-58.37v-.174h.18l65.237.027h.148v.147c-.032,17.579-.058,32.183-.076,42.4-.017,5.088-.03,9.082-.038,11.815-.008,1.352-.013,2.389-.017,3.1s-.017,1.052-.017,1.052" transform="translate(-78.421 -20.459)" fill="#e0e0e0"/>
              <path id="Trazado_880983" data-name="Trazado 880983" d="M391.229,108.188c0,.1-3.434.174-7.669.174s-7.67-.078-7.67-.174,3.433-.174,7.67-.174,7.669.078,7.669.174" transform="translate(-81.132 -23.314)" fill="#e0e0e0"/>
              <path id="Trazado_880984" data-name="Trazado 880984" d="M419.106,113.777c0,.1-9.434.174-21.07.174s-21.071-.078-21.071-.174,9.432-.174,21.071-.174,21.07.078,21.07.174" transform="translate(-81.364 -24.52)" fill="#e0e0e0"/>
              <rect id="Rectángulo_401969" data-name="Rectángulo 401969" width="2.748" height="2.748" transform="translate(294.87 96.681)" fill="#e0e0e0"/>
              <rect id="Rectángulo_401970" data-name="Rectángulo 401970" width="2.748" height="2.748" transform="translate(301.636 96.681)" fill="#e0e0e0"/>
              <rect id="Rectángulo_401971" data-name="Rectángulo 401971" width="2.748" height="2.748" transform="translate(308.527 96.556)" fill="#e0e0e0"/>
              <rect id="Rectángulo_401972" data-name="Rectángulo 401972" width="2.748" height="2.748" transform="translate(315.168 96.681)" fill="#e0e0e0"/>
              <rect id="Rectángulo_401973" data-name="Rectángulo 401973" width="2.748" height="2.748" transform="translate(321.934 96.681)" fill="#e0e0e0"/>
              <rect id="Rectángulo_401974" data-name="Rectángulo 401974" width="2.748" height="2.748" transform="translate(328.7 96.681)" fill="#e0e0e0"/>
              <rect id="Rectángulo_401975" data-name="Rectángulo 401975" width="2.748" height="2.748" transform="translate(335.466 96.681)" fill="#ebebeb"/>
              <rect id="Rectángulo_401976" data-name="Rectángulo 401976" width="2.748" height="2.748" transform="translate(294.87 102.524)" fill="#ebebeb"/>
              <rect id="Rectángulo_401977" data-name="Rectángulo 401977" width="2.748" height="2.748" transform="translate(301.636 102.524)" fill="#e0e0e0"/>
              <rect id="Rectángulo_401978" data-name="Rectángulo 401978" width="2.748" height="2.748" transform="translate(308.402 102.524)" fill="#ebebeb"/>
              <rect id="Rectángulo_401979" data-name="Rectángulo 401979" width="2.748" height="2.748" transform="translate(315.168 102.524)" fill="#e0e0e0"/>
              <rect id="Rectángulo_401980" data-name="Rectángulo 401980" width="2.748" height="2.748" transform="translate(321.934 102.524)" fill="#e0e0e0"/>
              <rect id="Rectángulo_401981" data-name="Rectángulo 401981" width="2.748" height="2.748" transform="translate(328.825 102.399)" fill="#e0e0e0"/>
              <rect id="Rectángulo_401982" data-name="Rectángulo 401982" width="2.748" height="2.748" transform="translate(335.466 102.524)" fill="#e0e0e0"/>
              <rect id="Rectángulo_401983" data-name="Rectángulo 401983" width="2.748" height="2.748" transform="translate(294.87 108.368)" fill="#e0e0e0"/>
              <rect id="Rectángulo_401984" data-name="Rectángulo 401984" width="2.748" height="2.748" transform="translate(301.761 108.243)" fill="#e0e0e0"/>
              <rect id="Rectángulo_401985" data-name="Rectángulo 401985" width="2.748" height="2.748" transform="translate(308.402 108.368)" fill="#e0e0e0"/>
              <rect id="Rectángulo_401986" data-name="Rectángulo 401986" width="2.748" height="2.748" transform="translate(315.168 108.368)" fill="#ebebeb"/>
              <rect id="Rectángulo_401987" data-name="Rectángulo 401987" width="2.748" height="2.748" transform="translate(321.934 108.368)" fill="#e0e0e0"/>
              <rect id="Rectángulo_401988" data-name="Rectángulo 401988" width="2.748" height="2.748" transform="translate(328.7 108.368)" fill="#e0e0e0"/>
              <rect id="Rectángulo_401989" data-name="Rectángulo 401989" width="2.748" height="2.748" transform="translate(335.466 108.368)" fill="#e0e0e0"/>
              <rect id="Rectángulo_401990" data-name="Rectángulo 401990" width="2.748" height="2.748" transform="translate(294.87 114.211)" fill="#e0e0e0"/>
              <rect id="Rectángulo_401991" data-name="Rectángulo 401991" width="2.748" height="2.748" transform="translate(301.636 114.211)" fill="#e0e0e0"/>
              <rect id="Rectángulo_401992" data-name="Rectángulo 401992" width="2.748" height="2.748" transform="translate(308.402 114.211)" fill="#e0e0e0"/>
              <rect id="Rectángulo_401993" data-name="Rectángulo 401993" width="2.748" height="2.748" transform="translate(315.292 114.087)" fill="#e0e0e0"/>
              <rect id="Rectángulo_401994" data-name="Rectángulo 401994" width="2.748" height="2.748" transform="translate(321.934 114.211)" fill="#e0e0e0"/>
              <rect id="Rectángulo_401995" data-name="Rectángulo 401995" width="2.748" height="2.748" transform="translate(328.7 114.211)" fill="#ebebeb"/>
              <rect id="Rectángulo_401996" data-name="Rectángulo 401996" width="2.748" height="2.748" transform="translate(335.466 114.211)" fill="#e0e0e0"/>
              <rect id="Rectángulo_401997" data-name="Rectángulo 401997" width="2.748" height="2.748" transform="translate(294.87 120.055)" fill="#e0e0e0"/>
              <rect id="Rectángulo_401998" data-name="Rectángulo 401998" width="2.748" height="2.748" transform="translate(301.636 120.055)" fill="#ebebeb"/>
              <rect id="Rectángulo_401999" data-name="Rectángulo 401999" width="2.748" height="2.748" transform="translate(308.402 120.055)" fill="#e0e0e0"/>
              <rect id="Rectángulo_402000" data-name="Rectángulo 402000" width="2.748" height="2.748" transform="translate(315.168 120.055)" fill="#e0e0e0"/>
              <rect id="Rectángulo_402001" data-name="Rectángulo 402001" width="2.748" height="2.748" transform="translate(321.934 120.055)" fill="#e0e0e0"/>
              <rect id="Rectángulo_402002" data-name="Rectángulo 402002" width="2.748" height="2.748" transform="translate(328.825 119.93)" fill="#e0e0e0"/>
              <rect id="Rectángulo_402003" data-name="Rectángulo 402003" width="2.748" height="2.748" transform="translate(335.466 120.055)" fill="#e0e0e0"/>
              <path id="Trazado_880985" data-name="Trazado 880985" d="M418,35.5a23.776,23.776,0,1,1-23.776-23.776A23.776,23.776,0,0,1,418,35.5" transform="translate(-79.958 -2.531)" fill="#e0e0e0"/>
              <path id="Trazado_880986" data-name="Trazado 880986" d="M416.68,35.82A21.516,21.516,0,1,1,395.164,14.3,21.517,21.517,0,0,1,416.68,35.82" transform="translate(-80.648 -3.087)" fill="#fff"/>
              <path id="Trazado_880987" data-name="Trazado 880987" d="M373.353,34.5s.006.119.007.351,0,.583,0,1.03q0,.341-.006.758c.011.278.049.582.077.911s.062.684.1,1.063a11.791,11.791,0,0,0,.2,1.2,20.607,20.607,0,0,0,2.013,5.889,21.506,21.506,0,0,0,5.07,6.465l.885.754c.313.235.644.454.97.686s.648.482,1.009.676l1.081.609.55.307.583.256,1.181.521c.4.163.827.278,1.245.423a10.962,10.962,0,0,0,1.281.38,19.868,19.868,0,0,0,2.7.493c.463.047.926.122,1.4.147l1.427.02c.239,0,.481.016.721,0l.725-.063c.483-.048.973-.072,1.461-.14a22.625,22.625,0,0,0,2.92-.652l.73-.214c.121-.037.245-.069.365-.111l.355-.144,1.432-.579c.47-.216.924-.474,1.391-.711.229-.126.471-.231.691-.376l.664-.432a24.353,24.353,0,0,0,2.573-1.911l1.171-1.132.295-.284.268-.311.535-.626.537-.628.479-.679.478-.683.24-.342c.074-.119.139-.243.209-.364l.829-1.467.687-1.553a22.986,22.986,0,0,0,1.554-6.7,22.991,22.991,0,0,0-.663-6.851l-.478-1.629-.63-1.564L414.5,26.9l-.194-.371-.385-.739-.386-.736-.451-.694-.449-.69-.226-.343-.255-.32q-.508-.641-1.013-1.275a24.257,24.257,0,0,0-2.3-2.232l-.6-.515c-.2-.173-.427-.308-.637-.463-.432-.3-.848-.611-1.286-.887l-1.344-.761-.333-.189c-.114-.056-.233-.1-.348-.158l-.7-.308a22.841,22.841,0,0,0-2.811-1.029c-.475-.131-.957-.219-1.431-.329l-.709-.157c-.237-.048-.478-.062-.715-.094l-1.418-.166c-.47-.038-.94-.024-1.4-.038a20.129,20.129,0,0,0-2.739.136,10.971,10.971,0,0,0-1.32.209c-.433.088-.869.147-1.289.256l-1.239.362-.611.178-.585.232-1.152.463c-.383.145-.729.363-1.088.538s-.711.361-1.052.554l-.975.631a21.531,21.531,0,0,0-5.872,5.746,20.64,20.64,0,0,0-2.766,5.575,11.887,11.887,0,0,0-.358,1.16l-.235,1.041c-.069.322-.148.618-.194.893l-.094.752c-.056.444-.1.783-.131,1.021s-.053.347-.053.347.005-.118.028-.35.061-.58.107-1.025c.025-.226.052-.478.082-.756s.118-.573.184-.9l.225-1.047a11.432,11.432,0,0,1,.35-1.167,20.511,20.511,0,0,1,2.744-5.623,21.566,21.566,0,0,1,5.888-5.811l.981-.641c.343-.2.7-.372,1.059-.562s.71-.4,1.1-.546l1.16-.47.59-.236.616-.181,1.249-.369c.423-.111.863-.172,1.3-.262a11.181,11.181,0,0,1,1.332-.214,20.11,20.11,0,0,1,2.764-.144c.469.013.943,0,1.418.035l1.432.165c.24.032.483.046.722.093l.717.157c.478.111.966.2,1.445.331a23.042,23.042,0,0,1,2.841,1.034l.7.311c.117.053.237.1.352.159l.337.19,1.36.768c.442.278.863.6,1.3.895.213.156.442.293.644.467l.609.52a24.31,24.31,0,0,1,2.328,2.253l1.026,1.288.257.324.228.347.454.7.455.7.391.743.39.748.2.375.161.392.638,1.581L416,30.425a23.237,23.237,0,0,1,.67,6.927A23.216,23.216,0,0,1,415.1,44.13l-.7,1.569-.839,1.483c-.071.122-.136.248-.211.368l-.242.346-.485.691-.485.685-.543.635-.542.632-.271.313-.3.288L409.3,52.281a24.459,24.459,0,0,1-2.6,1.929l-.671.436c-.222.146-.467.252-.7.379-.471.239-.931.5-1.405.717l-1.448.583-.359.144c-.122.042-.246.074-.369.111l-.738.216a22.958,22.958,0,0,1-2.952.654c-.492.068-.988.092-1.476.139l-.732.062c-.243.016-.486,0-.728,0l-1.441-.024c-.475-.024-.943-.1-1.41-.15a20.212,20.212,0,0,1-2.722-.5,11.164,11.164,0,0,1-1.292-.387c-.422-.146-.849-.264-1.255-.43l-1.19-.529-.587-.26-.554-.311-1.088-.618c-.364-.2-.679-.461-1.016-.684s-.662-.457-.976-.7q-.449-.387-.889-.763a21.583,21.583,0,0,1-5.078-6.532,20.513,20.513,0,0,1-1.986-5.934,11.781,11.781,0,0,1-.194-1.2q-.046-.57-.086-1.067c-.023-.331-.059-.635-.066-.915s.013-.532.017-.76c.013-.448.021-.791.028-1.03s.017-.351.017-.351" transform="translate(-80.571 -3.063)" fill="#ebebeb"/>
              <path id="Trazado_880988" data-name="Trazado 880988" d="M410.808,38.983a4.342,4.342,0,0,1-.765.05l-2.1.043c-1.785.024-4.272.042-7.079.045h-.139v-.139c0-.449,0-.923,0-1.4,0-3.135.016-5.974.042-8.027.019-.99.033-1.811.045-2.433a5.422,5.422,0,0,1,.054-.892,5.328,5.328,0,0,1,.055.892c.011.623.026,1.443.044,2.433.026,2.054.042,4.892.042,8.027,0,.481,0,.954,0,1.4l-.14-.139c2.807,0,5.295.021,7.079.045l2.1.042a4.281,4.281,0,0,1,.765.051" transform="translate(-86.492 -5.661)" fill="#e0e0e0"/>
              <path id="Trazado_880989" data-name="Trazado 880989" d="M400.945,18.577a6.007,6.007,0,0,1,.14,1.818,6.01,6.01,0,0,1-.14,1.818,6.051,6.051,0,0,1-.14-1.818,6.048,6.048,0,0,1,.14-1.818" transform="translate(-86.51 -4.01)" fill="#e0e0e0"/>
              <path id="Trazado_880990" data-name="Trazado 880990" d="M412.861,22.3a5.827,5.827,0,0,1-1.168,1.366,5.828,5.828,0,0,1-1.366,1.168,5.835,5.835,0,0,1,1.168-1.366,5.833,5.833,0,0,1,1.366-1.168" transform="translate(-88.564 -4.812)" fill="#e0e0e0"/>
              <path id="Trazado_880991" data-name="Trazado 880991" d="M420.069,30.331a7.506,7.506,0,0,1-1.491,1,7.512,7.512,0,0,1-1.571.866,4.824,4.824,0,0,1,1.426-1.1,4.792,4.792,0,0,1,1.637-.756" transform="translate(-90.007 -6.545)" fill="#e0e0e0"/>
              <path id="Trazado_880992" data-name="Trazado 880992" d="M423.858,42.216a21.965,21.965,0,0,1-4.958,0,21.963,21.963,0,0,1,4.958,0" transform="translate(-90.416 -9.082)" fill="#e0e0e0"/>
              <path id="Trazado_880993" data-name="Trazado 880993" d="M380.092,41.794a19.6,19.6,0,0,1-4.683,0,19.6,19.6,0,0,1,4.683,0" transform="translate(-81.029 -8.991)" fill="#e0e0e0"/>
              <path id="Trazado_880994" data-name="Trazado 880994" d="M383.459,50.707a10.267,10.267,0,0,1-1.769,1.605,10.218,10.218,0,0,1-1.945,1.386,10.328,10.328,0,0,1,1.77-1.605,10.33,10.33,0,0,1,1.945-1.386" transform="translate(-81.964 -10.944)" fill="#e0e0e0"/>
              <path id="Trazado_880995" data-name="Trazado 880995" d="M391.446,57.571a15.969,15.969,0,0,1-1.2,2.087,15.883,15.883,0,0,1-1.277,2.043A7.841,7.841,0,0,1,390,59.514a7.872,7.872,0,0,1,1.444-1.943" transform="translate(-83.953 -12.426)" fill="#e0e0e0"/>
              <path id="Trazado_880996" data-name="Trazado 880996" d="M400.945,65.059a11.15,11.15,0,0,1-.14-2.48,11.14,11.14,0,0,1,.14-2.479,11.063,11.063,0,0,1,.14,2.479,11.074,11.074,0,0,1-.14,2.48" transform="translate(-86.51 -12.972)" fill="#e0e0e0"/>
              <path id="Trazado_880997" data-name="Trazado 880997" d="M413.59,61.32a10.667,10.667,0,0,1-3.711-3.234,22.91,22.91,0,0,1,1.851,1.622,23.069,23.069,0,0,1,1.86,1.611" transform="translate(-88.468 -12.537)" fill="#e0e0e0"/>
              <path id="Trazado_880998" data-name="Trazado 880998" d="M420.157,54.473a8.6,8.6,0,0,1-1.642-1.444,8.634,8.634,0,0,1-1.444-1.642,8.65,8.65,0,0,1,1.642,1.444,8.613,8.613,0,0,1,1.444,1.641" transform="translate(-90.02 -11.091)" fill="#e0e0e0"/>
              <path id="Trazado_880999" data-name="Trazado 880999" d="M383.447,32.588A6.635,6.635,0,0,1,382,31.337a6.661,6.661,0,0,1-1.251-1.449,6.638,6.638,0,0,1,1.449,1.251,6.611,6.611,0,0,1,1.251,1.449" transform="translate(-82.18 -6.45)" fill="#e0e0e0"/>
              <path id="Trazado_881000" data-name="Trazado 881000" d="M391.354,24.29a6.357,6.357,0,0,1-1.424-1.22,6.335,6.335,0,0,1-1.226-1.419,6.39,6.39,0,0,1,1.424,1.22,6.381,6.381,0,0,1,1.226,1.419" transform="translate(-83.897 -4.672)" fill="#e0e0e0"/>
              <path id="Trazado_881001" data-name="Trazado 881001" d="M375.813,36.09a21.515,21.515,0,0,1,20.238-21.475c-.423-.025-.849-.042-1.28-.042a21.517,21.517,0,0,0,0,43.033c.431,0,.856-.016,1.28-.042A21.515,21.515,0,0,1,375.813,36.09" transform="translate(-80.564 -3.145)" fill="#f5f5f5"/>
              <rect id="Rectángulo_402004" data-name="Rectángulo 402004" width="60.574" height="95.727" transform="translate(14.227 13.781)" fill="#e0e0e0"/>
              <rect id="Rectángulo_402005" data-name="Rectángulo 402005" width="57.103" height="92.355" transform="translate(15.86 15.58)" fill="#f5f5f5"/>
              <rect id="Rectángulo_402006" data-name="Rectángulo 402006" width="22.77" height="35.333" transform="translate(44.411 20.959)" fill="#fff"/>
              <path id="Trazado_881002" data-name="Trazado 881002" d="M72.23,30.478a.85.85,0,1,1-.85-.85.85.85,0,0,1,.85.85" transform="translate(-15.223 -6.395)" fill="#e0e0e0"/>
              <rect id="Rectángulo_402007" data-name="Rectángulo 402007" width="22.77" height="35.333" transform="translate(21.464 66.124)" fill="#fff"/>
              <path id="Trazado_881003" data-name="Trazado 881003" d="M42.967,88.076a.85.85,0,1,1-.85-.85.85.85,0,0,1,.85.85" transform="translate(-8.907 -18.827)" fill="#e0e0e0"/>
              <rect id="Rectángulo_402008" data-name="Rectángulo 402008" width="19.446" height="27.591" transform="translate(21.156 20.959)" fill="#fff"/>
              <path id="Trazado_881004" data-name="Trazado 881004" d="M39.889,29.73a.706.706,0,1,1-.706-.706.706.706,0,0,1,.706.706" transform="translate(-8.305 -6.265)" fill="#e0e0e0"/>
              <rect id="Rectángulo_402009" data-name="Rectángulo 402009" width="20.929" height="11.596" transform="translate(47.132 68.957) rotate(-6.437)" fill="#fff"/>
              <path id="Trazado_881005" data-name="Trazado 881005" d="M74.2,89.03a.72.72,0,1,1-.72-.72.72.72,0,0,1,.72.72" transform="translate(-15.705 -19.061)" fill="#e0e0e0"/>
              <path id="Trazado_881006" data-name="Trazado 881006" d="M48.139,94.556c0,.094-3.576.169-7.985.169s-7.986-.075-7.986-.169,3.575-.169,7.986-.169,7.985.075,7.985.169" transform="translate(-6.943 -20.373)" fill="#e0e0e0"/>
              <path id="Trazado_881007" data-name="Trazado 881007" d="M48.139,97.78c0,.094-3.576.169-7.985.169s-7.986-.075-7.986-.169,3.575-.169,7.986-.169,7.985.076,7.985.169" transform="translate(-6.943 -21.068)" fill="#e0e0e0"/>
              <path id="Trazado_881008" data-name="Trazado 881008" d="M48.139,101c0,.094-3.576.169-7.985.169s-7.986-.075-7.986-.169,3.575-.169,7.986-.169,7.985.076,7.985.169" transform="translate(-6.943 -21.764)" fill="#e0e0e0"/>
              <path id="Trazado_881009" data-name="Trazado 881009" d="M48.139,104.228c0,.094-3.576.169-7.985.169s-7.986-.075-7.986-.169,3.575-.169,7.986-.169,7.985.076,7.985.169" transform="translate(-6.943 -22.46)" fill="#e0e0e0"/>
              <path id="Trazado_881010" data-name="Trazado 881010" d="M48.139,107.451c0,.094-3.576.169-7.985.169s-7.986-.075-7.986-.169,3.575-.169,7.986-.169,7.985.076,7.985.169" transform="translate(-6.943 -23.156)" fill="#e0e0e0"/>
              <path id="Trazado_881011" data-name="Trazado 881011" d="M48.139,110.675c0,.094-3.576.169-7.985.169s-7.986-.075-7.986-.169,3.575-.169,7.986-.169,7.985.076,7.985.169" transform="translate(-6.943 -23.852)" fill="#e0e0e0"/>
              <path id="Trazado_881012" data-name="Trazado 881012" d="M48.139,113.9c0,.094-3.576.169-7.985.169s-7.986-.075-7.986-.169,3.575-.169,7.986-.169,7.985.075,7.985.169" transform="translate(-6.943 -24.548)" fill="#e0e0e0"/>
              <path id="Trazado_881013" data-name="Trazado 881013" d="M79.789,91.147c.013.093-3.517.667-7.883,1.284s-7.918,1.041-7.931.948,3.516-.667,7.884-1.284,7.917-1.041,7.93-.948" transform="translate(-13.808 -19.67)" fill="#e0e0e0"/>
              <path id="Trazado_881014" data-name="Trazado 881014" d="M80.193,93.163c.013.093-3.517.667-7.883,1.284s-7.918,1.041-7.931.948,3.515-.667,7.884-1.284,7.917-1.04,7.93-.947" transform="translate(-13.896 -20.106)" fill="#e0e0e0"/>
              <path id="Trazado_881015" data-name="Trazado 881015" d="M80.563,95.025c.013.093-3.517.668-7.883,1.284s-7.918,1.041-7.931.948,3.515-.667,7.884-1.284,7.917-1.041,7.93-.948" transform="translate(-13.975 -20.507)" fill="#e0e0e0"/>
              <path id="Trazado_881016" data-name="Trazado 881016" d="M78.153,36.107c0,.094-4.039.169-9.021.169s-9.022-.075-9.022-.169,4.038-.169,9.022-.169,9.021.076,9.021.169" transform="translate(-12.974 -7.757)" fill="#e0e0e0"/>
              <path id="Trazado_881017" data-name="Trazado 881017" d="M78.153,38.024c0,.094-4.039.169-9.021.169s-9.022-.075-9.022-.169,4.038-.169,9.022-.169,9.021.076,9.021.169" transform="translate(-12.974 -8.171)" fill="#e0e0e0"/>
              <path id="Trazado_881018" data-name="Trazado 881018" d="M78.153,39.941c0,.094-4.039.169-9.021.169s-9.022-.075-9.022-.169,4.038-.169,9.022-.169,9.021.076,9.021.169" transform="translate(-12.974 -8.584)" fill="#e0e0e0"/>
              <path id="Trazado_881019" data-name="Trazado 881019" d="M78.153,41.858c0,.094-4.039.169-9.021.169s-9.022-.075-9.022-.169,4.038-.169,9.022-.169,9.021.076,9.021.169" transform="translate(-12.974 -8.998)" fill="#e0e0e0"/>
              <path id="Trazado_881020" data-name="Trazado 881020" d="M78.153,43.774c0,.094-4.039.17-9.021.17s-9.022-.076-9.022-.17,4.038-.169,9.022-.169,9.021.076,9.021.169" transform="translate(-12.974 -9.412)" fill="#e0e0e0"/>
              <path id="Trazado_881021" data-name="Trazado 881021" d="M78.153,45.691c0,.094-4.039.169-9.021.169s-9.022-.075-9.022-.169,4.038-.169,9.022-.169,9.021.075,9.021.169" transform="translate(-12.974 -9.825)" fill="#e0e0e0"/>
              <path id="Trazado_881022" data-name="Trazado 881022" d="M78.153,47.608c0,.094-4.039.169-9.021.169s-9.022-.075-9.022-.169,4.038-.169,9.022-.169,9.021.075,9.021.169" transform="translate(-12.974 -10.239)" fill="#e0e0e0"/>
              <path id="Trazado_881023" data-name="Trazado 881023" d="M78.153,53.3c0,.094-4.039.169-9.021.169S60.11,53.39,60.11,53.3s4.038-.169,9.022-.169,9.021.076,9.021.169" transform="translate(-12.974 -11.467)" fill="#e0e0e0"/>
              <path id="Trazado_881024" data-name="Trazado 881024" d="M78.315,55.321c0,.094-4.039.169-9.021.169s-9.022-.075-9.022-.169,4.038-.169,9.022-.169,9.021.076,9.021.169" transform="translate(-13.009 -11.904)" fill="#e0e0e0"/>
              <path id="Trazado_881025" data-name="Trazado 881025" d="M78.477,57.346c0,.095-4.039.169-9.021.169s-9.022-.074-9.022-.169,4.038-.169,9.022-.169,9.021.075,9.021.169" transform="translate(-13.044 -12.341)" fill="#e0e0e0"/>
              <path id="Trazado_881026" data-name="Trazado 881026" d="M78.639,59.37c0,.094-4.039.169-9.021.169S60.6,59.464,60.6,59.37s4.038-.169,9.022-.169,9.021.076,9.021.169" transform="translate(-13.079 -12.778)" fill="#e0e0e0"/>
              <path id="Trazado_881027" data-name="Trazado 881027" d="M78.8,61.395c0,.095-4.039.17-9.021.17s-9.022-.075-9.022-.17,4.038-.169,9.022-.169,9.021.076,9.021.169" transform="translate(-13.114 -13.215)" fill="#e0e0e0"/>
              <path id="Trazado_881028" data-name="Trazado 881028" d="M78.963,63.419c0,.094-4.039.169-9.021.169s-9.022-.075-9.022-.169,4.038-.169,9.022-.169,9.021.076,9.021.169" transform="translate(-13.149 -13.652)" fill="#e0e0e0"/>
            </g>
          </g>
          <g id="Grupo_1102492" data-name="Grupo 1102492">
            <g id="Grupo_1102491" data-name="Grupo 1102491" clip-path="url(#clip-path)">
              <path id="Trazado_881029" data-name="Trazado 881029" d="M360.937,449.846c0,.113-80.805.2-180.46.2C80.787,450.05,0,449.959,0,449.846s80.787-.2,180.477-.2c99.655,0,180.46.091,180.46.2" transform="translate(0 -97.051)" fill="#263238"/>
            </g>
          </g>
          <g id="Grupo_1102500" data-name="Grupo 1102500">
            <g id="Grupo_1102499" data-name="Grupo 1102499" clip-path="url(#clip-path)">
              <path id="Trazado_881030" data-name="Trazado 881030" d="M289.053,274.007H124.277a7.242,7.242,0,0,1-7.242-7.242V26.815a7.242,7.242,0,0,1,7.242-7.242H289.053a7.242,7.242,0,0,1,7.242,7.242v239.95a7.242,7.242,0,0,1-7.242,7.242" transform="translate(-25.261 -4.225)" fill="#e0e0e0"/>
              <path id="Trazado_881031" data-name="Trazado 881031" d="M289,273.959s.187-.016.555-.037a7.824,7.824,0,0,0,1.614-.313,7.477,7.477,0,0,0,2.368-1.285,7.273,7.273,0,0,0,2.174-2.995,6.915,6.915,0,0,0,.47-2.189c.042-.79.009-1.632.017-2.509q0-2.636-.008-5.76c0-4.164-.01-8.968-.016-14.375-.013-21.634-.031-52.935-.055-91.612-.006-19.34-.013-40.523-.021-63.264q0-17.055-.009-35.243,0-9.085,0-18.431-.006-4.669-.013-9.4a7.055,7.055,0,0,0-5.5-6.68,9.993,9.993,0,0,0-2.352-.18h-2.408l-4.839,0h-9.763l-19.86,0-40.963,0-86.139,0a7.07,7.07,0,0,0-7.072,6.719c-.035,3.649-.009,7.318-.017,10.958q0,10.931,0,21.713,0,21.558,0,42.45c0,27.831-.006,54.676-.009,80.249s-.012,49.874-.016,72.617q0,4.264,0,8.454c.006,1.394-.016,2.794.014,4.165a7.035,7.035,0,0,0,1.286,3.784,7.181,7.181,0,0,0,3.094,2.477,7.63,7.63,0,0,0,1.926.492c.656.058,1.334.045,2.007.045l8,0,30.356.012,91.607.055,24.906.033,6.477.016c1.459.006,2.207.018,2.207.018s-.747.012-2.207.018l-6.477.017-24.906.032-91.607.055-30.356.012-8,0c-.673,0-1.346.014-2.037-.046a7.875,7.875,0,0,1-2-.51,7.469,7.469,0,0,1-3.217-2.571,7.323,7.323,0,0,1-1.339-3.933c-.032-1.4-.009-2.778-.017-4.177q0-4.19,0-8.454c0-22.743-.01-47.044-.016-72.617s-.006-52.418-.01-80.249q0-20.872,0-42.45,0-10.78,0-21.713c.008-3.647-.019-7.292.018-10.974a7.414,7.414,0,0,1,7.417-7.05l86.139,0,40.963,0,19.86,0,9.763,0h7.247a10.323,10.323,0,0,1,2.422.189,7.373,7.373,0,0,1,5.749,6.982q0,4.736.01,9.41,0,9.344,0,18.431,0,18.17-.009,35.243c-.008,22.741-.015,43.924-.021,63.264-.024,38.676-.042,69.978-.056,91.612-.005,5.408-.011,10.211-.016,14.375q0,3.123-.008,5.76c-.011.88.019,1.715-.026,2.514a6.963,6.963,0,0,1-.483,2.21,7.317,7.317,0,0,1-2.206,3.01,7.47,7.47,0,0,1-2.392,1.278,7.573,7.573,0,0,1-1.623.3c-.369.016-.556.019-.556.019" transform="translate(-25.213 -4.177)" fill="#263238"/>
              <g id="Grupo_1102495" data-name="Grupo 1102495" transform="translate(107.413 216.084)" opacity="0.3">
                <g id="Grupo_1102494" data-name="Grupo 1102494">
                  <g id="Grupo_1102493" data-name="Grupo 1102493" clip-path="url(#clip-path-5)">
                    <path id="Trazado_881032" data-name="Trazado 881032" d="M136.979,323.51h150.45l-1.651-31.293V275.561l-148.8,23.25Z" transform="translate(-136.979 -275.561)"/>
                  </g>
                </g>
              </g>
              <g id="Grupo_1102498" data-name="Grupo 1102498" transform="translate(226.201 15.868)" opacity="0.3">
                <g id="Grupo_1102497" data-name="Grupo 1102497">
                  <g id="Grupo_1102496" data-name="Grupo 1102496" clip-path="url(#clip-path-6)">
                    <path id="Trazado_881033" data-name="Trazado 881033" d="M288.9,20.236l3.419,10.14v4.968h-3.855Z" transform="translate(-288.463 -20.236)"/>
                  </g>
                </g>
              </g>
              <path id="Trazado_881034" data-name="Trazado 881034" d="M127.23,32.573V266.3H290.5V32.573Z" transform="translate(-27.461 -7.031)" fill="#fff"/>
              <path id="Trazado_881035" data-name="Trazado 881035" d="M290.453,224.455s-.009-.3-.013-.9-.007-1.487-.012-2.656c-.006-2.346-.013-5.82-.023-10.345-.01-9.059-.025-22.323-.043-39.161-.016-33.684-.037-81.665-.063-138.869l.154.154-163.27.02.173-.173v.208c-.016,89.847-.031,171.9-.042,233.515l-.131-.13,89.135.057,24.306.035,6.329.018c1.426.007,2.158.02,2.158.02s-.732.013-2.158.02l-6.329.018-24.306.035-89.135.057h-.13v-.13c-.011-61.618-.027-143.667-.043-233.515v-.381h.173l163.27.02h.154v.154c-.026,57.2-.048,105.185-.063,138.869-.018,16.838-.033,30.1-.043,39.161-.01,4.525-.018,8-.023,10.345,0,1.17-.009,2.058-.012,2.656s-.013.9-.013.9" transform="translate(-27.414 -6.983)" fill="#263238"/>
              <path id="Trazado_881036" data-name="Trazado 881036" d="M266.28,35.452H183.67v-19a4.96,4.96,0,0,1,4.961-4.96H261.32a4.96,4.96,0,0,1,4.961,4.96Z" transform="translate(-39.644 -2.48)" fill="#263238"/>
              <path id="Trazado_881037" data-name="Trazado 881037" d="M243.964,0H222.939L225.4,18.022h15.838Z" transform="translate(-48.119 0)" fill="#263238"/>
              <path id="Trazado_881038" data-name="Trazado 881038" d="M262.435,11.444c0,.1-16.118.173-36,.173s-36-.078-36-.173,16.115-.173,36-.173,36,.078,36,.173" transform="translate(-41.104 -2.433)" fill="#455a64"/>
              <path id="Trazado_881039" data-name="Trazado 881039" d="M185.98,32.95c-.1,0-.173-3.388-.173-7.569s.078-7.57.173-7.57.173,3.389.173,7.57-.078,7.569-.173,7.569" transform="translate(-40.105 -3.844)" fill="#455a64"/>
              <path id="Trazado_881040" data-name="Trazado 881040" d="M285.561,31.048a68.282,68.282,0,0,1-.173-6.872,68.269,68.269,0,0,1,.173-6.872,68.3,68.3,0,0,1,.173,6.872,68.31,68.31,0,0,1-.173,6.872" transform="translate(-61.598 -3.735)" fill="#455a64"/>
              <path id="Trazado_881041" data-name="Trazado 881041" d="M260.186,38.848c0,.1-16.545.173-36.95.173s-36.954-.078-36.954-.173,16.542-.173,36.954-.173,36.95.078,36.95.173" transform="translate(-40.207 -8.348)" fill="#455a64"/>
              <rect id="Rectángulo_402014" data-name="Rectángulo 402014" width="90.167" height="5.542" transform="translate(152.201 70.397)" fill="#e0e0e0"/>
              <rect id="Rectángulo_402015" data-name="Rectángulo 402015" width="40.906" height="5.504" transform="translate(152.2 81.72)" fill="#e0e0e0"/>
              <path id="Trazado_881042" data-name="Trazado 881042" d="M173.626,107.6H158.836a3.029,3.029,0,0,1-3.028-3.029V89.785a3.029,3.029,0,0,1,3.028-3.029h14.789a3.029,3.029,0,0,1,3.029,3.029v14.788a3.029,3.029,0,0,1-3.029,3.029" transform="translate(-33.63 -18.726)" fill="#f4d755"/>
              <path id="Trazado_881043" data-name="Trazado 881043" d="M167.112,103.648l-5.84-4.513,1.575-2.038,3.916,3.026,5.569-6.408,1.944,1.69Z" transform="translate(-34.809 -20.228)" fill="#64a7b4"/>
              <rect id="Rectángulo_402016" data-name="Rectángulo 402016" width="90.167" height="5.542" transform="translate(152.201 104.714)" fill="#e0e0e0"/>
              <rect id="Rectángulo_402017" data-name="Rectángulo 402017" width="40.906" height="5.504" transform="translate(152.2 116.036)" fill="#e0e0e0"/>
              <path id="Trazado_881044" data-name="Trazado 881044" d="M173.626,151.365H158.836a3.029,3.029,0,0,1-3.028-3.029V133.547a3.029,3.029,0,0,1,3.028-3.029h14.789a3.029,3.029,0,0,1,3.029,3.029v14.788a3.029,3.029,0,0,1-3.029,3.029" transform="translate(-33.63 -28.171)" fill="#f4d755"/>
              <path id="Trazado_881045" data-name="Trazado 881045" d="M167.112,147.41l-5.84-4.513,1.575-2.038,3.916,3.026,5.569-6.408,1.944,1.69Z" transform="translate(-34.809 -29.673)" fill="#64a7b4"/>
              <rect id="Rectángulo_402018" data-name="Rectángulo 402018" width="90.167" height="5.542" transform="translate(152.201 141.482)" fill="#e0e0e0"/>
              <rect id="Rectángulo_402019" data-name="Rectángulo 402019" width="40.906" height="5.504" transform="translate(152.2 152.804)" fill="#e0e0e0"/>
              <rect id="Rectángulo_402020" data-name="Rectángulo 402020" width="90.167" height="5.542" transform="translate(152.201 175.473)" fill="#e0e0e0"/>
              <rect id="Rectángulo_402021" data-name="Rectángulo 402021" width="40.906" height="5.504" transform="translate(152.2 186.795)" fill="#e0e0e0"/>
              <path id="Trazado_881046" data-name="Trazado 881046" d="M173.626,198.254H158.836a3.029,3.029,0,0,1-3.028-3.029V180.436a3.029,3.029,0,0,1,3.028-3.029h14.789a3.029,3.029,0,0,1,3.029,3.029v14.788a3.029,3.029,0,0,1-3.029,3.029" transform="translate(-33.63 -38.292)" fill="#f4d755"/>
              <path id="Trazado_881047" data-name="Trazado 881047" d="M167.112,194.3l-5.84-4.513,1.575-2.038,3.916,3.026,5.569-6.408,1.944,1.69Z" transform="translate(-34.809 -39.794)" fill="#64a7b4"/>
              <path id="Trazado_881048" data-name="Trazado 881048" d="M173.826,243.091H158.441a3.088,3.088,0,0,1-3.084-3.085V224.622a3.088,3.088,0,0,1,3.084-3.085h15.385a3.089,3.089,0,0,1,3.085,3.085v15.384a3.089,3.089,0,0,1-3.085,3.085m-15.385-20.847a2.38,2.38,0,0,0-2.378,2.378v15.384a2.38,2.38,0,0,0,2.378,2.378h15.385a2.38,2.38,0,0,0,2.378-2.378V224.622a2.38,2.38,0,0,0-2.378-2.378Z" transform="translate(-33.532 -47.817)" fill="#f4d755"/>
              <rect id="Rectángulo_402022" data-name="Rectángulo 402022" width="90.167" height="5.542" transform="translate(152.201 214.355)" fill="#e0e0e0"/>
              <rect id="Rectángulo_402023" data-name="Rectángulo 402023" width="40.906" height="5.504" transform="translate(152.2 225.678)" fill="#e0e0e0"/>
              <path id="Trazado_881049" data-name="Trazado 881049" d="M173.826,292.676H158.441a3.088,3.088,0,0,1-3.084-3.085V274.207a3.088,3.088,0,0,1,3.084-3.085h15.385a3.089,3.089,0,0,1,3.085,3.085v15.385a3.089,3.089,0,0,1-3.085,3.085m-15.385-20.847a2.38,2.38,0,0,0-2.378,2.378v15.385a2.38,2.38,0,0,0,2.378,2.378h15.385a2.38,2.38,0,0,0,2.378-2.378V274.207a2.38,2.38,0,0,0-2.378-2.378Z" transform="translate(-33.532 -58.519)" fill="#f4d755"/>
              <rect id="Rectángulo_402024" data-name="Rectángulo 402024" width="89.898" height="7.697" transform="translate(141.348 48.936)" fill="#f4d755"/>
            </g>
          </g>
          <g id="Grupo_1102502" data-name="Grupo 1102502">
            <g id="Grupo_1102501" data-name="Grupo 1102501" clip-path="url(#clip-path)">
              <path id="Trazado_881050" data-name="Trazado 881050" d="M352.876,180.5l-1.593-3.782a15.649,15.649,0,1,0-2.64,4.946l0,.009Z" transform="translate(-69.235 -33.744)" fill="#fff"/>
              <path id="Trazado_881051" data-name="Trazado 881051" d="M352.829,180.45a1.923,1.923,0,0,1-.258.085l-.8.239-3.159.921a.075.075,0,0,1-.092-.051.079.079,0,0,1,0-.051l0-.008.127.076a15.557,15.557,0,0,1-5.959,4.661,16.11,16.11,0,0,1-4.839,1.281,15.732,15.732,0,0,1-5.67-.485,16.092,16.092,0,0,1-5.608-2.845,15.428,15.428,0,0,1-4.324-5.25,16.132,16.132,0,0,1-1.7-7.033,15.837,15.837,0,0,1,6.866-13.1,16.1,16.1,0,0,1,6.821-2.621,15.394,15.394,0,0,1,6.836.618,16.1,16.1,0,0,1,5.542,3.077,15.815,15.815,0,0,1,3.6,4.456l.575,1.2c.179.4.3.809.454,1.2a14.206,14.206,0,0,1,.606,2.348,15.559,15.559,0,0,1-.547,7.523l0-.05c.494,1.221.881,2.174,1.152,2.844l.287.726a1.811,1.811,0,0,1,.087.24,2.771,2.771,0,0,1-.122-.255l-.326-.729-1.212-2.77a.077.077,0,0,1,0-.051,15.608,15.608,0,0,0,.453-7.437A14.062,14.062,0,0,0,351,166.9c-.151-.385-.276-.789-.455-1.179l-.572-1.176a15.579,15.579,0,0,0-3.555-4.354,15.84,15.84,0,0,0-5.444-2.994,15.081,15.081,0,0,0-6.688-.585,15.765,15.765,0,0,0-6.662,2.573,15.5,15.5,0,0,0-6.708,12.8,15.811,15.811,0,0,0,1.648,6.875,15.124,15.124,0,0,0,4.215,5.147,15.82,15.82,0,0,0,5.484,2.81,15.53,15.53,0,0,0,5.562.507A15.968,15.968,0,0,0,342.6,186.1a15.613,15.613,0,0,0,5.938-4.536.075.075,0,0,1,.105-.013.077.077,0,0,1,.022.089l0,.008-.089-.1,3.138-.823.826-.211a2.728,2.728,0,0,1,.293-.067" transform="translate(-69.188 -33.697)" fill="#263238"/>
              <path id="Trazado_881052" data-name="Trazado 881052" d="M335.127,176.322a1.709,1.709,0,1,1-1.709-1.709,1.709,1.709,0,0,1,1.709,1.709" transform="translate(-71.596 -37.689)" fill="#263238"/>
              <path id="Trazado_881053" data-name="Trazado 881053" d="M342.468,176.322a1.709,1.709,0,1,1-1.709-1.709,1.709,1.709,0,0,1,1.709,1.709" transform="translate(-73.181 -37.689)" fill="#263238"/>
              <path id="Trazado_881054" data-name="Trazado 881054" d="M349.616,176.322a1.709,1.709,0,1,1-1.709-1.709,1.709,1.709,0,0,1,1.709,1.709" transform="translate(-74.724 -37.689)" fill="#263238"/>
            </g>
          </g>
          <g id="Grupo_1102504" data-name="Grupo 1102504">
            <g id="Grupo_1102503" data-name="Grupo 1102503" clip-path="url(#clip-path)">
              <path id="Trazado_881055" data-name="Trazado 881055" d="M96.72,138.742l.743-4.362a14.862,14.862,0,1,1,3.425,4.075l0,.007Z" transform="translate(-20.617 -24.218)" fill="#fff"/>
              <path id="Trazado_881056" data-name="Trazado 881056" d="M96.693,138.7a2.39,2.39,0,0,0,.26-.007l.794-.039,3.124-.173a.061.061,0,0,0,.058-.065.059.059,0,0,0-.011-.033l0-.007-.091.084a14.874,14.874,0,0,0,6.489,3.161,15.121,15.121,0,0,0,2.289.292c.4.027.807,0,1.221,0,.207-.006.416,0,.626-.018l.634-.073a14.786,14.786,0,0,0,5.188-1.585,14.91,14.91,0,0,0,7.671-16.483,15.123,15.123,0,0,0-5.9-8.95,15.053,15.053,0,0,0-3.144-1.706,14.8,14.8,0,0,0-6.77-1.028A14.957,14.957,0,0,0,95.4,127.415a14.753,14.753,0,0,0,1.982,6.956l-.008-.042c-.225,1.417-.4,2.513-.519,3.272-.054.354-.1.629-.126.83a2.655,2.655,0,0,0-.035.272s.024-.1.061-.293l.158-.841c.136-.746.332-1.823.587-3.217a.066.066,0,0,0-.007-.042,14.754,14.754,0,0,1,11.653-21.943,14.53,14.53,0,0,1,6.633,1.016,14.827,14.827,0,0,1,3.079,1.673,14.515,14.515,0,0,1,5.786,8.767,14.669,14.669,0,0,1-.082,6.764,14.806,14.806,0,0,1-7.412,9.427,14.6,14.6,0,0,1-5.1,1.583l-.623.076c-.206.023-.412.013-.616.021-.408,0-.81.033-1.2.009a14.681,14.681,0,0,1-8.708-3.335.062.062,0,0,0-.091.084l0,.007.046-.1-3.078.244-.808.069c-.183.016-.283.03-.283.03" transform="translate(-20.589 -24.178)" fill="#263238"/>
              <path id="Trazado_881057" data-name="Trazado 881057" d="M106.259,131.1l1.637-1.637,3.158,2.807,6.2-5.964,1.52,1.637-7.953,7.485Z" transform="translate(-22.935 -27.262)" fill="#64a7b4"/>
            </g>
          </g>
          <g id="Grupo_1102506" data-name="Grupo 1102506">
            <g id="Grupo_1102505" data-name="Grupo 1102505" clip-path="url(#clip-path)">
              <path id="Trazado_881058" data-name="Trazado 881058" d="M426.607,329.761c.02-.184.037-.368.045-.551.158-3.529-1.276-6.911-2.655-10.163-3.7-8.721-7.277-17.972-6.237-27.384,1.374-12.446,10.526-22.739,13.792-34.775a3.263,3.263,0,0,1,3.157-2.392h0a3.265,3.265,0,0,1,3.134,4.238c-3.639,11.257-11.939,21.125-13.243,32.93-1.039,9.411,2.539,18.663,6.237,27.384,1.38,3.253,2.813,6.635,2.656,10.163s-2.427,7.237-5.924,7.8H375.565a3.277,3.277,0,0,1-3.281-3.272v-.708a3.277,3.277,0,0,1,3.281-3.272Z" transform="translate(-80.354 -54.93)" fill="#455a64"/>
              <path id="Trazado_881059" data-name="Trazado 881059" d="M433.175,430.389H357.708a3.316,3.316,0,0,1-2.69-1.422,4.073,4.073,0,0,1-.551-3.646l21.482-65.829,1.121.366-21.482,65.829a2.887,2.887,0,0,0,.385,2.588,2.151,2.151,0,0,0,1.736.936h75.467a2.122,2.122,0,0,0,1.7-.892,2.893,2.893,0,0,0,.452-2.515l-18.462-65.97,1.135-.318,18.461,65.97a4.075,4.075,0,0,1-.648,3.545,3.318,3.318,0,0,1-2.643,1.357" transform="translate(-76.464 -77.593)" fill="#e0e0e0"/>
              <path id="Trazado_881060" data-name="Trazado 881060" d="M319.916,294.661s2.749-6.679,5.463-8.092a34.71,34.71,0,0,1,6.173-2.316h12.086l.12,7.824a5.323,5.323,0,0,1-4.138,1.419c-2.393-.331-8.365-1.808-8.365-1.808l-2.948.162-2.717,3.485s-2.206.67-1.43-1.417,1.123-3.007,1.123-3.007-2.61,4.061-3.611,4.248a2.218,2.218,0,0,1-1.756-.5" transform="translate(-69.051 -61.354)" fill="#6f4439"/>
              <path id="Trazado_881061" data-name="Trazado 881061" d="M376.338,265.406l-9.618,13.835-16.614.945-.227,7.59L362.4,290.24a20.179,20.179,0,0,0,17.968-5.334l1.832-16.733Z" transform="translate(-75.518 -57.285)" fill="#ae7461"/>
              <path id="Trazado_881062" data-name="Trazado 881062" d="M374.109,408.706l11.18,10.933s-8.071,15.584-6.214,17.815l23.337-21.96-16.675-17.784Z" transform="translate(-80.748 -85.842)" fill="#263238"/>
              <path id="Trazado_881063" data-name="Trazado 881063" d="M396.236,415.759a1.241,1.241,0,0,1,1.632.406,1.258,1.258,0,0,1-.48,1.633,1.306,1.306,0,0,1-1.725-.438,1.322,1.322,0,0,1,.686-1.655" transform="translate(-85.383 -89.706)" fill="#e0e0e0"/>
              <path id="Trazado_881064" data-name="Trazado 881064" d="M403.673,419.915l-1.756-1.724-21.719,21.7s-.635,1.4.136,1.984Z" transform="translate(-82.009 -90.263)" fill="#455a64"/>
              <path id="Trazado_881065" data-name="Trazado 881065" d="M387.744,425.671c.106.1.722-.383,1.61-.565.885-.2,1.615-.012,1.68-.153.085-.119-.694-.6-1.766-.363s-1.642,1.006-1.524,1.081" transform="translate(-83.688 -91.63)" fill="#fff"/>
              <path id="Trazado_881066" data-name="Trazado 881066" d="M385.779,429.977c.073.129.739-.153,1.557-.063.822.067,1.386.467,1.495.354.123-.083-.394-.787-1.415-.881s-1.732.484-1.637.589" transform="translate(-83.265 -92.677)" fill="#fff"/>
              <path id="Trazado_881067" data-name="Trazado 881067" d="M386.621,435c.126-.075-.225-.761-1.076-1.074s-1.606-.046-1.569.089c.02.15.665.14,1.359.408.7.251,1.163.674,1.286.578" transform="translate(-82.877 -93.626)" fill="#fff"/>
              <path id="Trazado_881068" data-name="Trazado 881068" d="M384.863,421.825c.141.053.523-.587,1.206-1.152s1.367-.846,1.339-.994c-.008-.14-.874-.077-1.67.6s-1.011,1.515-.875,1.547" transform="translate(-83.061 -90.571)" fill="#fff"/>
              <path id="Trazado_881069" data-name="Trazado 881069" d="M357.437,312.358c-2.044,0-51.845,14.507-57.233,19.41s-9.421,65.587-9.421,65.587l20.881,7.159s4.4-29.637,7.069-39.209a48.939,48.939,0,0,0,1.632-14.714l41.346-18.007Z" transform="translate(-62.763 -67.42)" fill="#263238"/>
              <path id="Trazado_881070" data-name="Trazado 881070" d="M365.949,313.936c-.929.409-37.112,15.857-40.512,26.207-2.771,8.434.45,15.86,4.322,21.664,4.37,6.552,36.418,35.8,36.418,35.8l18.087-12.933-31.01-32.026s16.27-10.043,16.828-10.043,17.471-1.118,22.832-1.725c5.007-.567,7.746-7.747,7.746-7.747l4.466-20.583L371.569,304.8Z" transform="translate(-70.018 -65.789)" fill="#263238"/>
              <path id="Trazado_881071" data-name="Trazado 881071" d="M365.919,313.918s.116-.206.354-.6l1.063-1.756,4.155-6.806.021-.035.039.009,33.569,7.693.1.024-.023.1-4.448,20.587,0,.011,0,.008a18.041,18.041,0,0,1-3.186,5.16,9.185,9.185,0,0,1-2.454,1.953,3.762,3.762,0,0,1-.726.334,4.325,4.325,0,0,1-.766.245c-.264.049-.531.113-.8.15l-.793.084c-4.236.418-8.618.732-13.125,1.06l-6.853.467-1.744.106-.224.009c-.049,0-.042.016-.064.017a.85.85,0,0,0-.085.038c-.125.053-.255.127-.383.191l-.766.423c-1.018.579-2.033,1.181-3.053,1.789-4.075,2.436-8.216,4.976-12.429,7.57l.029-.231,24.217,25,6.8,7.019.123.128-.144.1-18.09,12.931-.1.071-.09-.082q-9.715-8.9-18.6-17.39c-2.952-2.822-5.822-5.605-8.583-8.367s-5.44-5.473-7.855-8.3c-.316-.34-.576-.73-.863-1.092a12.748,12.748,0,0,1-.8-1.124c-.5-.767-.977-1.542-1.417-2.331a32.093,32.093,0,0,1-2.246-4.838,23.829,23.829,0,0,1-1.247-5.016,20.975,20.975,0,0,1-.035-4.994,18.432,18.432,0,0,1,1.128-4.681,13.587,13.587,0,0,1,2.669-3.778,44.754,44.754,0,0,1,6.675-5.5,129.368,129.368,0,0,1,12.661-7.585c3.817-2.036,7.149-3.665,9.878-4.961s4.86-2.249,6.305-2.885l1.646-.711c.372-.158.564-.231.564-.231s-.186.091-.553.256l-1.635.736c-1.438.652-3.561,1.622-6.282,2.93s-6.044,2.952-9.851,5a130.637,130.637,0,0,0-12.622,7.61,44.661,44.661,0,0,0-6.631,5.484,13.391,13.391,0,0,0-2.618,3.716,18.2,18.2,0,0,0-1.1,4.622,20.741,20.741,0,0,0,.042,4.937,23.678,23.678,0,0,0,1.241,4.963,31.971,31.971,0,0,0,2.236,4.8c.438.783.913,1.553,1.412,2.316a12.688,12.688,0,0,0,.8,1.11c.284.358.539.739.855,1.078,2.4,2.807,5.088,5.517,7.849,8.273s5.633,5.536,8.587,8.355c5.905,5.639,12.129,11.443,18.6,17.374l-.188-.011,18.086-12.936-.021.231-6.8-7.017-24.212-25.01-.129-.134.158-.1c4.214-2.594,8.357-5.131,12.437-7.566,1.021-.607,2.037-1.208,3.06-1.789l.773-.427c.133-.068.258-.138.4-.2a.808.808,0,0,1,.116-.048.577.577,0,0,1,.148-.031l.212-.009,1.739-.1,6.851-.462c4.505-.324,8.889-.633,13.117-1.046a7.025,7.025,0,0,0,2.983-.78,8.9,8.9,0,0,0,2.386-1.9,17.8,17.8,0,0,0,3.143-5.074l-.005.018c1.622-7.445,3.135-14.394,4.483-20.579l.081.128-33.546-7.8.06-.025-4.209,6.789-1.085,1.736c-.244.388-.373.58-.373.58" transform="translate(-69.989 -65.771)" fill="#455a64"/>
              <path id="Trazado_881072" data-name="Trazado 881072" d="M380.468,185.28a3.393,3.393,0,0,1-2.005-6.447,3.53,3.53,0,0,1,2.548-6.2,4.224,4.224,0,0,1,6.045-4,4.748,4.748,0,0,1,5.816-.625,3.378,3.378,0,0,1,3.469,5.449" transform="translate(-81.245 -36.108)" fill="#263238"/>
              <path id="Trazado_881073" data-name="Trazado 881073" d="M394.883,172.377l-.743.066a14.4,14.4,0,0,0-13.129,14.451c.054,6.977.2,14.686.577,18.4.775,7.688,8.579,8.2,8.579,8.2l.166,9.3,18.628-2.23-1.313-33.681c-.017-8.052-4.717-14.753-12.766-14.513" transform="translate(-82.238 -37.205)" fill="#ae7461"/>
              <path id="Trazado_881074" data-name="Trazado 881074" d="M392.675,223.758a18.675,18.675,0,0,0,9.769-3.848s-1.982,5.888-9.723,5.874Z" transform="translate(-84.755 -47.466)" fill="#6f4439"/>
              <path id="Trazado_881075" data-name="Trazado 881075" d="M384.552,199.692a1.1,1.1,0,0,0,1.158,1.016,1.055,1.055,0,0,0,1.045-1.092A1.1,1.1,0,0,0,385.6,198.6a1.057,1.057,0,0,0-1.046,1.092" transform="translate(-83.002 -42.866)" fill="#263238"/>
              <path id="Trazado_881076" data-name="Trazado 881076" d="M383.539,195.133c.149.131.927-.558,2.11-.66,1.18-.118,2.1.414,2.217.258.058-.071-.1-.317-.506-.558a3.026,3.026,0,0,0-1.791-.383,2.908,2.908,0,0,0-1.664.7c-.339.311-.439.582-.366.64" transform="translate(-82.778 -41.825)" fill="#263238"/>
              <path id="Trazado_881077" data-name="Trazado 881077" d="M398.114,198.912a1.1,1.1,0,0,0,1.158,1.015,1.055,1.055,0,0,0,1.045-1.091,1.106,1.106,0,0,0-1.157-1.016,1.057,1.057,0,0,0-1.046,1.092" transform="translate(-85.929 -42.697)" fill="#263238"/>
              <path id="Trazado_881078" data-name="Trazado 881078" d="M398.39,194.1c.148.131.928-.558,2.109-.659,1.18-.118,2.1.413,2.218.257.057-.07-.1-.317-.507-.558a3.035,3.035,0,0,0-1.791-.383,2.91,2.91,0,0,0-1.664.7c-.338.311-.438.582-.365.64" transform="translate(-85.984 -41.603)" fill="#263238"/>
              <path id="Trazado_881079" data-name="Trazado 881079" d="M393.06,203.421a7.813,7.813,0,0,0-1.952-.177c-.3,0-.6-.039-.665-.241a1.546,1.546,0,0,1,.122-.913q.329-1.134.69-2.378a39.649,39.649,0,0,0,1.474-6.193,39.675,39.675,0,0,0-1.969,6.06q-.341,1.25-.651,2.389a1.755,1.755,0,0,0-.052,1.2.762.762,0,0,0,.536.4,2.091,2.091,0,0,0,.519.026,7.738,7.738,0,0,0,1.947-.169" transform="translate(-84.171 -41.769)" fill="#263238"/>
              <path id="Trazado_881080" data-name="Trazado 881080" d="M396.568,188.376c.183.286,1.168-.129,2.412-.279,1.241-.179,2.313-.037,2.4-.358.036-.153-.209-.4-.681-.6a3.762,3.762,0,0,0-1.907-.228,3.627,3.627,0,0,0-1.758.714c-.39.314-.548.618-.466.754" transform="translate(-85.591 -40.335)" fill="#263238"/>
              <path id="Trazado_881081" data-name="Trazado 881081" d="M382.909,188.893c.273.247,1.224-.118,2.4-.235,1.169-.151,2.184-.012,2.388-.313.088-.145-.092-.4-.549-.616a3.834,3.834,0,0,0-1.989-.267,3.772,3.772,0,0,0-1.866.709c-.39.313-.5.6-.38.723" transform="translate(-82.637 -40.456)" fill="#263238"/>
              <path id="Trazado_881082" data-name="Trazado 881082" d="M381.536,183.05s1.6-5,3.828-6.329c2.694-1.611,4.177,1.371,6.792.384s5.186-2.531,8.109-.7c3.2,2,1.935,3.719,2.422,7.119,1.975,13.777,4.85,17.469,4.993,10.885.016-.721,1.949-1.465,1.975-4.511.034-3.947-.235-8.714-1.354-11.414a11,11,0,0,0-4.972-5.347c-4.028-2.481-9.224-2.082-12.718-1.416s-9.931,5.324-9.076,11.33" transform="translate(-82.334 -36.955)" fill="#263238"/>
              <path id="Trazado_881083" data-name="Trazado 881083" d="M414.248,199.971a2.1,2.1,0,0,1,2.077-2.213c1.448.009,3.117.684,3.285,3.658.3,5.277-5.062,4.486-5.08,4.336-.012-.1-.177-3.572-.282-5.781" transform="translate(-89.411 -42.684)" fill="#ae7461"/>
              <path id="Trazado_881084" data-name="Trazado 881084" d="M415.929,204.172c.022-.018.1.06.255.122a.918.918,0,0,0,.688-.024,2.276,2.276,0,0,0,.938-2.1,3.052,3.052,0,0,0-.332-1.3,1.064,1.064,0,0,0-.731-.667.47.47,0,0,0-.529.282c-.062.152-.023.256-.05.266s-.118-.082-.088-.3a.585.585,0,0,1,.189-.343.7.7,0,0,1,.5-.163,1.294,1.294,0,0,1,1.006.765,3.118,3.118,0,0,1,.4,1.452,2.388,2.388,0,0,1-1.212,2.354.988.988,0,0,1-.848-.092c-.171-.122-.2-.238-.187-.249" transform="translate(-89.773 -43.155)" fill="#6f4439"/>
              <path id="Trazado_881085" data-name="Trazado 881085" d="M406.995,183.6a5.018,5.018,0,0,1-2.138,1.226,1.724,1.724,0,0,1-2.011-1.039c-.095-.361-.043-.794-.309-1.056-.317-.312-.837-.16-1.274-.074-1.516.3-3.453-1.234-3.973-2.688a1.379,1.379,0,0,1-1.8.543,4.944,4.944,0,0,1-1.368-1.015,2.173,2.173,0,0,0-1.886-.743,5.176,5.176,0,0,1-1.122.353c-.7,0-1.1-.779-1.27-1.456s-.318-1.47-.935-1.79a2.763,2.763,0,0,0-1.886.115c-.627.15-1.462.073-1.68-.535a1.254,1.254,0,0,1,.151-.975,3.422,3.422,0,0,1,3.909-1.646,4.637,4.637,0,0,1,8.407-1.645,4.705,4.705,0,0,1,7.644,1.046,3.411,3.411,0,0,1,4.268,4.6,3.238,3.238,0,0,1,2,2.412,1.854,1.854,0,0,1-1.925,2.073,1.889,1.889,0,0,1-3.089,2.165" transform="translate(-83.162 -36.501)" fill="#263238"/>
              <path id="Trazado_881086" data-name="Trazado 881086" d="M390.207,175.861s0,.033.009.1.025.158.059.278a3.31,3.31,0,0,0,.471.98,3.78,3.78,0,0,0,1.277,1.141,3.523,3.523,0,0,0,2.21.424l-.1-.109a1.916,1.916,0,0,0,.234,1.444,5.468,5.468,0,0,0,1.015,1.215,3.947,3.947,0,0,0,.642.551,1.847,1.847,0,0,0,.861.236,1.931,1.931,0,0,0,1.641-.757l-.2-.039a3.961,3.961,0,0,0,1.915,2.583,2.9,2.9,0,0,0,1.778.413,5.206,5.206,0,0,0,1.67-.525l-.147-.049a4.165,4.165,0,0,0,1.39,1.514,2.214,2.214,0,0,0,1.876.337,2.91,2.91,0,0,0,2.032-2.465l-.114.066a2.726,2.726,0,0,0,1.832.106,2.955,2.955,0,0,0,1.211-.674,2.548,2.548,0,0,0,.531-.7,1.222,1.222,0,0,0,.11-.284,3.158,3.158,0,0,1-.7.913,2.933,2.933,0,0,1-1.186.616,2.6,2.6,0,0,1-1.731-.129l-.1-.047-.011.114a2.746,2.746,0,0,1-1.926,2.288,2.013,2.013,0,0,1-1.706-.325,3.962,3.962,0,0,1-1.306-1.437l-.05-.093-.1.044a5.025,5.025,0,0,1-1.6.5,2.666,2.666,0,0,1-1.643-.386,3.748,3.748,0,0,1-1.81-2.433l-.055-.246-.147.208a1.714,1.714,0,0,1-1.448.667,1.639,1.639,0,0,1-.762-.2,3.766,3.766,0,0,1-.605-.518,5.324,5.324,0,0,1-.99-1.16,1.737,1.737,0,0,1-.231-1.3l.032-.129-.132.02a3.39,3.39,0,0,1-2.114-.374,3.771,3.771,0,0,1-1.264-1.075,4.081,4.081,0,0,1-.619-1.3" transform="translate(-84.222 -37.958)" fill="#455a64"/>
              <path id="Trazado_881087" data-name="Trazado 881087" d="M394.04,210.018c.012-.2,1.331-.043,2.4-1.058s1.095-2.436,1.281-2.425c.085-.009.218.343.163.939a3.308,3.308,0,0,1-.994,2.033,2.878,2.878,0,0,1-2,.8c-.558-.016-.866-.2-.848-.292" transform="translate(-85.05 -44.579)" fill="#263238"/>
              <path id="Trazado_881088" data-name="Trazado 881088" d="M290.751,410.792l-2.432,16.881s-18.916,2.922-19.686,5.993l34.358,6.415,4.927-26.13Z" transform="translate(-57.982 -88.666)" fill="#263238"/>
              <path id="Trazado_881089" data-name="Trazado 881089" d="M307.093,433.015a1.352,1.352,0,0,1,.692,1.7,1.372,1.372,0,0,1-1.747.63,1.425,1.425,0,0,1-.724-1.8,1.442,1.442,0,0,1,1.9-.46" transform="translate(-65.873 -93.434)" fill="#e0e0e0"/>
              <path id="Trazado_881090" data-name="Trazado 881090" d="M302.991,445.993l.387-2.655-33.086-5.158s-1.645.345-1.659,1.4Z" transform="translate(-57.982 -94.577)" fill="#455a64"/>
              <path id="Trazado_881091" data-name="Trazado 881091" d="M293.067,431.954c-.024.16.8.389,1.534,1.054.751.647,1.05,1.415,1.215,1.381.161,0,.084-1-.817-1.789s-1.942-.8-1.932-.645" transform="translate(-63.256 -93.216)" fill="#fff"/>
              <path id="Trazado_881092" data-name="Trazado 881092" d="M288.141,432.907c-.067.147.611.553,1.058,1.331.47.766.481,1.52.649,1.544.153.055.44-.855-.135-1.813s-1.541-1.214-1.572-1.063" transform="translate(-62.191 -93.43)" fill="#fff"/>
              <path id="Trazado_881093" data-name="Trazado 881093" d="M284.343,436.819c.146.062.525-.688.253-1.639s-.993-1.444-1.088-1.324c-.119.113.3.675.515,1.459.23.779.155,1.458.319,1.5" transform="translate(-61.188 -93.64)" fill="#fff"/>
              <path id="Trazado_881094" data-name="Trazado 881094" d="M294.347,427.067c.044.158.853.082,1.791.321.941.22,1.623.659,1.736.54.118-.1-.495-.819-1.6-1.085s-1.985.085-1.924.225" transform="translate(-63.531 -92.108)" fill="#fff"/>
              <path id="Trazado_881095" data-name="Trazado 881095" d="M386.9,234.767l.706-3.194,18.766-9.319,1.637,2.554s7.023,5.715,9.712,10.675-.5,45.575-.95,51.5c-.9,11.944-5.367,27.577-5.367,27.577s-6.022-4.191-23.737-11.465S369,292.53,369,292.53l10.44-13.239Z" transform="translate(-79.645 -47.971)" fill="#786ead"/>
              <path id="Trazado_881096" data-name="Trazado 881096" d="M389.822,239.636c-.1.589-8.587,20.957-8.587,20.957s4.407,2.459,5.022,2.581,3.565-23.539,3.565-23.539" transform="translate(-82.286 -51.723)" fill="#786ead"/>
              <path id="Trazado_881097" data-name="Trazado 881097" d="M390.085,243.895c.084.013-.669,5.189-1.681,11.559s-1.9,11.526-1.984,11.512.669-5.188,1.68-11.56,1.9-11.524,1.984-11.511" transform="translate(-83.404 -52.642)" fill="#263238"/>
              <path id="Trazado_881098" data-name="Trazado 881098" d="M315.176,292.89s5.055-7.458,8.067-8.768a37.242,37.242,0,0,1,6.781-2.019l12.71,1.7-.226,7.59a5.713,5.713,0,0,1-4.537,1.21c-2.537-.533-8.821-2.56-8.821-2.56L325.983,290l-3.17,3.528s-2.412.553-1.425-1.624,1.427-3.136,1.427-3.136-3.1,4.154-4.184,4.279a21.821,21.821,0,0,1-3.456-.152" transform="translate(-68.028 -60.889)" fill="#ae7461"/>
              <path id="Trazado_881099" data-name="Trazado 881099" d="M389.089,257.764l-8.812,20.478-30.171.294-.226,7.59s29.094,10.258,36.841,8.266S407.316,265,407.316,265Z" transform="translate(-75.518 -55.636)" fill="#ae7461"/>
              <path id="Trazado_881100" data-name="Trazado 881100" d="M405.277,234.99c-.824.747-3.55,3.95-6.46,10.911s-6.993,15.1-6.993,15.1l20.8,8.292s4.743-10.91,6.943-15.763c1.675-3.7,2.849-10.965,1.321-14.483s-8.367-10.621-15.611-4.053" transform="translate(-84.572 -50.141)" fill="#786ead"/>
              <path id="Trazado_881101" data-name="Trazado 881101" d="M405.277,234.99c-.824.747-3.55,3.95-6.46,10.911s-6.993,15.1-6.993,15.1l20.8,8.292s4.743-10.91,6.943-15.763c1.675-3.7,2.849-10.965,1.321-14.483S412.521,228.422,405.277,234.99Z" transform="translate(-84.572 -50.141)" fill="none" stroke="#222221" stroke-miterlimit="10" stroke-width="0.5"/>
              <path id="Trazado_881102" data-name="Trazado 881102" d="M405.224,234.971s.061-.066.191-.183.318-.3.587-.506a10.348,10.348,0,0,1,2.564-1.516,7.819,7.819,0,0,1,4.666-.346,11.143,11.143,0,0,1,5.33,3.187,12.734,12.734,0,0,1,2.172,2.934,9.539,9.539,0,0,1,.906,3.85,27.5,27.5,0,0,1-1.083,8.625,31.823,31.823,0,0,1-1.72,4.389l-1.972,4.488-4.153,9.438-.06.136-.137-.055-.3-.12-20.492-8.185-.14-.056.067-.135c1.943-3.893,3.664-7.521,5.137-10.772s2.606-6.174,3.835-8.46a34.9,34.9,0,0,1,3.172-5.12,15.249,15.249,0,0,1,1.03-1.22,3.989,3.989,0,0,1,.4-.374.654.654,0,0,1-.093.1l-.278.3c-.238.271-.579.682-.992,1.242a36.805,36.805,0,0,0-3.1,5.143c-1.2,2.285-2.3,5.219-3.773,8.478s-3.165,6.9-5.1,10.8l-.073-.191,20.5,8.158.3.12-.2.081,4.16-9.438,1.98-4.485a31.764,31.764,0,0,0,1.716-4.347,27.405,27.405,0,0,0,1.1-8.533,9.33,9.33,0,0,0-.863-3.757,12.556,12.556,0,0,0-2.117-2.89,11.015,11.015,0,0,0-5.214-3.171,7.739,7.739,0,0,0-4.584.291,10.743,10.743,0,0,0-2.57,1.453c-.274.2-.466.376-.6.481s-.211.159-.211.159" transform="translate(-84.519 -50.121)" fill="#786ead"/>
              <path id="Trazado_881103" data-name="Trazado 881103" d="M405.224,234.971s.061-.066.191-.183.318-.3.587-.506a10.348,10.348,0,0,1,2.564-1.516,7.819,7.819,0,0,1,4.666-.346,11.143,11.143,0,0,1,5.33,3.187,12.734,12.734,0,0,1,2.172,2.934,9.539,9.539,0,0,1,.906,3.85,27.5,27.5,0,0,1-1.083,8.625,31.823,31.823,0,0,1-1.72,4.389l-1.972,4.488-4.153,9.438-.06.136-.137-.055-.3-.12-20.492-8.185-.14-.056.067-.135c1.943-3.893,3.664-7.521,5.137-10.772s2.606-6.174,3.835-8.46a34.9,34.9,0,0,1,3.172-5.12,15.249,15.249,0,0,1,1.03-1.22,3.989,3.989,0,0,1,.4-.374.654.654,0,0,1-.093.1l-.278.3c-.238.271-.579.682-.992,1.242a36.805,36.805,0,0,0-3.1,5.143c-1.2,2.285-2.3,5.219-3.773,8.478s-3.165,6.9-5.1,10.8l-.073-.191,20.5,8.158.3.12-.2.081,4.16-9.438,1.98-4.485a31.764,31.764,0,0,0,1.716-4.347,27.405,27.405,0,0,0,1.1-8.533,9.33,9.33,0,0,0-.863-3.757,12.556,12.556,0,0,0-2.117-2.89,11.015,11.015,0,0,0-5.214-3.171,7.739,7.739,0,0,0-4.584.291,10.743,10.743,0,0,0-2.57,1.453c-.274.2-.466.376-.6.481S405.224,234.971,405.224,234.971Z" transform="translate(-84.519 -50.121)" fill="none" stroke="#222221" stroke-miterlimit="10" stroke-width="0.5"/>
              <path id="Trazado_881104" data-name="Trazado 881104" d="M330.59,286.964a7.6,7.6,0,0,0-5.78,2.922,2.237,2.237,0,0,1,.518-.864,6,6,0,0,1,4.258-2.152,2.243,2.243,0,0,1,1,.094" transform="translate(-70.106 -61.917)" fill="#6f4439"/>
              <path id="Trazado_881105" data-name="Trazado 881105" d="M385.019,270.008a.826.826,0,0,1-.067.212c-.062.159-.14.355-.234.6-.227.55-.536,1.3-.922,2.241-.824,1.949-1.972,4.666-3.331,7.882l-.035.082h-.09l-9.164.105-14.855.1-4.5,0-1.224-.017a2.176,2.176,0,0,1-.427-.027,2.164,2.164,0,0,1,.427-.035l1.223-.041,4.5-.092,14.854-.19,9.164-.074-.125.084,3.433-7.838c.416-.926.75-1.669.994-2.211.11-.235.2-.426.273-.581a.854.854,0,0,1,.107-.194" transform="translate(-75.58 -58.279)" fill="#6f4439"/>
            </g>
          </g>
          <rect id="Rectángulo_402029" data-name="Rectángulo 402029" width="5.807" height="113.633" transform="translate(36.676 239.013)" fill="#455a64"/>
          <rect id="Rectángulo_402030" data-name="Rectángulo 402030" width="5.807" height="112.845" transform="translate(275.058 239.814)" fill="#455a64"/>
          <rect id="Rectángulo_402031" data-name="Rectángulo 402031" width="264.451" height="6.857" transform="translate(22.167 237.893)" fill="#455a64"/>
          <g id="Grupo_1102508" data-name="Grupo 1102508">
            <g id="Grupo_1102507" data-name="Grupo 1102507" clip-path="url(#clip-path)">
              <path id="Trazado_881106" data-name="Trazado 881106" d="M324.322,312.076c0,.085-30.86.154-68.918.154s-68.925-.069-68.925-.154,30.854-.153,68.925-.153,68.918.069,68.918.153" transform="translate(-40.25 -67.326)" fill="#263238"/>
            </g>
          </g>
          <g id="Grupo_1102510" data-name="Grupo 1102510">
            <g id="Grupo_1102509" data-name="Grupo 1102509" clip-path="url(#clip-path)">
              <path id="Trazado_881107" data-name="Trazado 881107" d="M264.906,252.217h0a1.283,1.283,0,0,1,1.5,1.022l7.156,37.924h34.8a.942.942,0,1,1,0,1.884H271.452V292.9l-.169.031-7.4-39.212a1.281,1.281,0,0,1,1.022-1.5" transform="translate(-56.952 -54.434)" fill="#263238"/>
            </g>
          </g>
          <g id="Grupo_1102515" data-name="Grupo 1102515">
            <g id="Grupo_1102514" data-name="Grupo 1102514" clip-path="url(#clip-path)">
              <path id="Trazado_881108" data-name="Trazado 881108" d="M42.027,136.992a18.892,18.892,0,0,1,13.929-8.554c3.306-.35,4.737.216,7.179.647a10.49,10.49,0,0,1,6.309,3.41,17.6,17.6,0,0,1,4.141,7.693,25.271,25.271,0,0,1,.273,8.382,33.261,33.261,0,0,1-3.6,10.254l-5.026,1.07c-4.209.52-8.478,1.04-12.676.444s-8.393-2.454-10.918-5.862c-3.506-4.735-2.927-12.61.384-17.484" transform="translate(-8.475 -27.699)" fill="#263238"/>
              <path id="Trazado_881109" data-name="Trazado 881109" d="M50.781,137.175l9.83-4.96,2.69.072c5.993-.513,10.713,5.726,11.184,10.574.525,5.387.952,11.984.449,16.034-1.01,8.143-7.769,9.415-7.769,9.415s1.132,9.5,1.423,12.175L52.271,175.5l-3.94-35.348a2.849,2.849,0,0,1,2.45-2.976" transform="translate(-10.431 -28.537)" fill="#ffc09d"/>
              <path id="Trazado_881110" data-name="Trazado 881110" d="M66.764,164.767a1.709,1.709,0,0,1,.495-1.1,1.743,1.743,0,0,1,2.1-.307,2.338,2.338,0,0,1,1.079,2.106A2.122,2.122,0,0,1,69,166.478a2.445,2.445,0,0,1-.283.034,1.906,1.906,0,0,1-1.326-.392,1.7,1.7,0,0,1-.626-1.353" transform="translate(-14.41 -35.212)" fill="#ff9b6c"/>
              <path id="Trazado_881111" data-name="Trazado 881111" d="M79.125,154.82a1.04,1.04,0,0,1-.966,1.082.994.994,0,0,1-1.1-.9,1.039,1.039,0,0,1,.965-1.082.994.994,0,0,1,1.1.9" transform="translate(-16.631 -33.221)" fill="#263238"/>
              <path id="Trazado_881112" data-name="Trazado 881112" d="M78.533,149.154c-.124.14-.931-.416-2.049-.375-1.117.025-1.917.628-2.044.5-.061-.059.062-.307.409-.58a2.862,2.862,0,0,1,1.631-.564,2.737,2.737,0,0,1,1.636.467c.353.252.478.493.416.556" transform="translate(-16.064 -31.972)" fill="#263238"/>
              <path id="Trazado_881113" data-name="Trazado 881113" d="M71.309,158.814a7.384,7.384,0,0,1,1.8-.389c.284-.04.552-.106.594-.3a1.448,1.448,0,0,0-.219-.839q-.439-1.023-.918-2.145a37.522,37.522,0,0,1-2.09-5.619,37.319,37.319,0,0,1,2.537,5.438q.462,1.13.883,2.159a1.649,1.649,0,0,1,.187,1.115.717.717,0,0,1-.455.434,1.949,1.949,0,0,1-.483.084,7.259,7.259,0,0,1-1.84.065" transform="translate(-15.21 -32.272)" fill="#263238"/>
              <path id="Trazado_881114" data-name="Trazado 881114" d="M69.354,177.538a20.616,20.616,0,0,1-10.945-2.523S61.49,180.53,69.57,179.5Z" transform="translate(-12.607 -37.775)" fill="#ff9b6c"/>
              <path id="Trazado_881115" data-name="Trazado 881115" d="M78.536,144.822c-.18.279-1.041.126-2.039.243-1,.085-1.816.409-2.044.171-.1-.117,0-.387.334-.673a3.178,3.178,0,0,1,3.29-.334c.386.213.536.458.459.593" transform="translate(-16.062 -31.063)" fill="#263238"/>
              <path id="Trazado_881116" data-name="Trazado 881116" d="M65.064,155.859a1.039,1.039,0,0,0,1.074.974.994.994,0,0,0,1-1.011,1.04,1.04,0,0,0-1.073-.975.994.994,0,0,0-1,1.012" transform="translate(-14.043 -33.422)" fill="#263238"/>
              <path id="Trazado_881117" data-name="Trazado 881117" d="M60.413,150.257c.138.126.882-.511,2-.589s1.973.423,2.084.278c.055-.065-.094-.3-.468-.533a2.854,2.854,0,0,0-1.681-.39,2.743,2.743,0,0,0-1.578.638c-.324.288-.423.54-.355.6" transform="translate(-13.035 -32.163)" fill="#263238"/>
              <path id="Trazado_881118" data-name="Trazado 881118" d="M62.286,145.219c.234.242,1.081-.069,2.116-.138,1.033-.1,1.922.066,2.109-.21.082-.134-.071-.38-.467-.6a3.382,3.382,0,0,0-3.406.28c-.351.281-.457.549-.354.667" transform="translate(-13.436 -31.068)" fill="#263238"/>
              <path id="Trazado_881119" data-name="Trazado 881119" d="M50.061,158.866c-.022-.6-.768-2-1.367-2.074-1.6-.194-4.461.031-4.351,4.072.152,5.524,5.666,4.231,5.672,4.073,0-.124.122-3.989.045-6.071" transform="translate(-9.571 -33.832)" fill="#ffc09d"/>
              <path id="Trazado_881120" data-name="Trazado 881120" d="M48.869,163.478c-.025-.017-.094.07-.255.149a.961.961,0,0,1-.719.034,2.379,2.379,0,0,1-1.16-2.105,3.179,3.179,0,0,1,.231-1.386,1.114,1.114,0,0,1,.7-.758.491.491,0,0,1,.575.248c.078.153.046.264.076.273s.116-.1.065-.322a.613.613,0,0,0-.227-.341.725.725,0,0,0-.536-.125,1.355,1.355,0,0,0-.982.884,3.27,3.27,0,0,0-.291,1.549,2.5,2.5,0,0,0,1.47,2.347,1.031,1.031,0,0,0,.876-.171c.167-.14.193-.265.173-.274" transform="translate(-10.003 -34.348)" fill="#ff9b6c"/>
              <path id="Trazado_881121" data-name="Trazado 881121" d="M48.54,151.29l1.525,1.323c8.792-5.783,17.732-21.524,15.423-20.881a17.617,17.617,0,0,0-8.694-.167C52.38,132.728,44.08,135.729,44.681,141A27.677,27.677,0,0,0,48.54,151.29" transform="translate(-9.637 -28.294)" fill="#263238"/>
              <path id="Trazado_881122" data-name="Trazado 881122" d="M43.262,128.469c2.14,1.251,4.047,4.9,3.172,7.217a7.272,7.272,0,0,1-9.293,8.128,7,7,0,0,1-3.943-3.04,8.421,8.421,0,0,1-.86-5.844,9.31,9.31,0,0,1,3.869-6.114,6.875,6.875,0,0,1,7.055-.347" transform="translate(-6.942 -27.553)" fill="#263238"/>
              <path id="Trazado_881123" data-name="Trazado 881123" d="M45.7,151.477a5.3,5.3,0,0,0,1.006-.435c.634-.308,1.54-.777,2.636-1.4a39.874,39.874,0,0,0,7.922-5.857,26.486,26.486,0,0,0,5.731-8,19.022,19.022,0,0,0,1.023-2.814,4.838,4.838,0,0,0,.223-1.074c-.079-.024-.424,1.508-1.515,3.762a28.262,28.262,0,0,1-5.754,7.829,44.638,44.638,0,0,1-7.781,5.9c-1.07.656-1.952,1.163-2.56,1.514a5.75,5.75,0,0,0-.93.579" transform="translate(-9.863 -28.467)" fill="#455a64"/>
              <path id="Trazado_881124" data-name="Trazado 881124" d="M39.54,147.288c.076,0,.108-1.029.416-2.65A20.933,20.933,0,0,1,45.992,133.5c1.19-1.144,2.036-1.735,1.993-1.8a2.415,2.415,0,0,0-.63.362,13.642,13.642,0,0,0-1.564,1.217,19.023,19.023,0,0,0-6.126,11.309,13.517,13.517,0,0,0-.165,1.975,2.431,2.431,0,0,0,.04.726" transform="translate(-8.526 -28.425)" fill="#455a64"/>
              <path id="Trazado_881125" data-name="Trazado 881125" d="M47.033,167.349A2.069,2.069,0,1,0,49.1,165.28a2.069,2.069,0,0,0-2.069,2.069" transform="translate(-10.152 -35.674)" fill="#263238"/>
              <path id="Trazado_881126" data-name="Trazado 881126" d="M70.782,165.443c-.023-.2-1.314.03-2.425-.914s-1.212-2.344-1.394-2.322c-.084,0-.2.351-.11.935a3.265,3.265,0,0,0,1.09,1.951,2.845,2.845,0,0,0,2.019.683c.549-.045.844-.246.82-.333" transform="translate(-14.423 -35.011)" fill="#263238"/>
              <path id="Trazado_881127" data-name="Trazado 881127" d="M33.28,255.084s-6.168,21.763-2.5,33.578c2.2,7.088,33.049,46.133,34.535,47.813,1.034,1.169-13.191,38.054-15.793,45.738l16.356,7.927s20.467-43.519,21.718-51.147c1.607-9.795-21.417-51.7-20.572-52.256L75.3,269.475,68.428,251.7s-28.947.314-34.858.787Z" transform="translate(-6.392 -54.326)" fill="#263238"/>
              <path id="Trazado_881128" data-name="Trazado 881128" d="M76.81,272.382s39.9,14.157,44.4,16.554c4.906,2.612,8.609,11.776,4.52,19.566s-39.963,30.094-39.963,30.094L76.81,324.963l25.961-20.449-28.1-6.621-9.153-10.846Z" transform="translate(-14.141 -58.791)" fill="#263238"/>
              <path id="Trazado_881129" data-name="Trazado 881129" d="M97.841,344.464a14.583,14.583,0,0,0-.02-2.774A31.228,31.228,0,0,0,95.8,334.4c-.569-1.5-1.251-3.12-1.968-4.87-.365-.87-.71-1.795-1.07-2.731s-.776-1.881-1.194-2.855c-1.7-3.89-3.639-8.141-5.677-12.6L77.12,292.277l-.024-.052.013-.055c1.038-4.3,1.952-7.817,2.646-10.25.35-1.216.645-2.16.875-2.793a6.378,6.378,0,0,1,.3-.708,1.049,1.049,0,0,1,.143-.22,1.078,1.078,0,0,1-.1.242c-.071.155-.144.4-.252.718-.2.64-.465,1.59-.787,2.81-.638,2.443-1.5,5.971-2.506,10.275l-.011-.107C79.9,297.4,82.983,304,86.265,311.173c2.037,4.461,3.965,8.717,5.651,12.621.414.981.829,1.928,1.185,2.879s.688,1.854,1.047,2.73c.7,1.752,1.371,3.384,1.924,4.9a29.707,29.707,0,0,1,1.908,7.377,8.157,8.157,0,0,1-.139,2.789" transform="translate(-16.64 -60.047)" fill="#455a64"/>
              <g id="Grupo_1102513" data-name="Grupo 1102513" transform="translate(60.629 221.785)" opacity="0.3">
                <g id="Grupo_1102512" data-name="Grupo 1102512">
                  <g id="Grupo_1102511" data-name="Grupo 1102511" clip-path="url(#clip-path-13)">
                    <path id="Trazado_881130" data-name="Trazado 881130" d="M79.924,282.832c-.078.287,0,10.483,0,10.483l5.12,8.678-4.089-.963-3.638-7.573Z" transform="translate(-77.317 -282.832)"/>
                  </g>
                </g>
              </g>
              <path id="Trazado_881131" data-name="Trazado 881131" d="M107.494,278.236c-1.152-1.13-4.53-4.3-6.9-6.524a1.386,1.386,0,0,1,.921-2.4l27.326-.558a1.387,1.387,0,0,1,1.064.464l5.712,6.416a1.387,1.387,0,0,1-1,2.309l-26.116.685a1.38,1.38,0,0,1-1-.394" transform="translate(-21.616 -58.008)" fill="#455a64"/>
              <path id="Trazado_881132" data-name="Trazado 881132" d="M93.408,271.242a23.982,23.982,0,0,1,6.351-1.725c3.176-.316,4.764,1.021,6.465.863s6.351.3,6.351,1.543-6.464,1.7-6.464,1.7l5.67,1.815s6.465-.794,6.578,0-5.784,1.588-8.506,1.928-18.486.567-20.754,0-18.373-10.32-18.373-10.32l7.712-7.939Z" transform="translate(-15.265 -55.926)" fill="#ffc09d"/>
              <path id="Trazado_881133" data-name="Trazado 881133" d="M46.1,184.052a13.248,13.248,0,0,0-9.954,9.21c-2.109,6.715,1.914,34.31,3.624,39.292s20.125,21.017,21.744,19.654,10.593-9.3,10.593-9.3L57.7,225.878s.763-20.218-.191-24.033-7.4-18.175-11.409-17.793" transform="translate(-7.673 -39.724)" fill="#786ead"/>
              <path id="Trazado_881134" data-name="Trazado 881134" d="M36.5,216.214c1.054,9.583-1,13.7-1,13.7a7.443,7.443,0,0,0-2.682,4.91,1.4,1.4,0,0,0,1.443,1.559l34.859-.787s4.877.465,4.774-4.16c-.115-5.163,1.306-23.3-.568-30.434-.646-2.461-8.607-14.461-8.607-14.461L48.1,177.124l-1.759,4.529s-5.272,1.924-7.68,5.028a17.444,17.444,0,0,0-3.335,6.774c-1.442,4.966.61,17.618,1.175,22.759" transform="translate(-7.081 -38.231)" fill="#786ead"/>
              <path id="Trazado_881135" data-name="Trazado 881135" d="M143,206.548s-.3-.273-1.361.068-4.062,1.816-5.425,2.167-4.318,1.489-4.318,1.489a5.966,5.966,0,0,0-3.734,1.255c-2.089,1.444-7.986,5.339-7.986,5.339l2.025,5.735a11.988,11.988,0,0,1,2.926-.19,9.034,9.034,0,0,0,4.178-.171c1.6-.482,3.773-1.349,3.773-1.349s2.113.173,2.668-.594-.042-2.152-.042-2.152,2.074-1.9,1.182-2.972-2-2.254-2-2.254,6.151-3.261,7.313-4.125,1.392-1.556.8-2.248" transform="translate(-25.94 -44.559)" fill="#ffc09d"/>
              <path id="Trazado_881136" data-name="Trazado 881136" d="M112.786,219.735l-19.132,6.439-7.73,3.906,10.851,5.85,18.036-10.46Z" transform="translate(-18.546 -47.428)" fill="#ffc09d"/>
              <path id="Trazado_881137" data-name="Trazado 881137" d="M134.745,213.706a9.516,9.516,0,0,1-.235,4.93l-.087.3-.16-.26c1.269.228,2.4.452,3.213.634.836.167,1.277.519,1.236.562a11.115,11.115,0,0,0-1.287-.287c-.823-.11-1.964-.287-3.232-.508l-.223-.039.063-.22c.027-.093.056-.193.084-.294a25.05,25.05,0,0,0,.629-4.821" transform="translate(-28.916 -46.126)" fill="#ff9b6c"/>
              <path id="Trazado_881138" data-name="Trazado 881138" d="M134.841,217.172c.015-.034.17-.017.394.129a1.546,1.546,0,0,1,.623.891l-.2-.142a6.817,6.817,0,0,1,1.082-.107,4.2,4.2,0,0,1,2.44.5c-.032.114-1.1-.122-2.432-.092-.375.008-.729.031-1.039.062l-.174.017-.031-.16c-.147-.741-.714-1.029-.659-1.1" transform="translate(-29.103 -46.871)" fill="#ff9b6c"/>
              <path id="Trazado_881139" data-name="Trazado 881139" d="M138.027,215.3c.066.1-.449.534-.913,1.2s-.713,1.288-.827,1.259-.028-.763.494-1.495,1.194-1.055,1.246-.961" transform="translate(-29.407 -46.467)" fill="#ff9b6c"/>
              <path id="Trazado_881140" data-name="Trazado 881140" d="M73.038,183.774l1.921,5.161c2.091,1.983,7.3,7.555,8.288,11.391,1.294,5.015,7.122,17.623,7.122,17.623s13.219-5.636,14.131-4.71,5.543,11.788,4.02,14.069S93.5,235.563,88.036,234.22,77.4,224.971,77.4,224.971Z" transform="translate(-15.765 -39.666)" fill="#786ead"/>
              <path id="Trazado_881141" data-name="Trazado 881141" d="M84.106,204.947a7.314,7.314,0,0,1,.432,1.177,10.981,10.981,0,0,1,.4,1.417,19.357,19.357,0,0,1,.391,1.912,35.5,35.5,0,0,1,.455,5.055c.031,1.91-.035,4.009-.172,6.205-.3,4.388-.612,8.348-.577,11.221-.015.719.027,1.367.043,1.937s.045,1.061.081,1.461a7.477,7.477,0,0,1,.052,1.252,7.289,7.289,0,0,1-.21-1.236c-.06-.4-.119-.89-.151-1.462s-.1-1.224-.1-1.945c-.11-2.89.158-6.874.458-11.253.137-2.189.214-4.276.2-6.173a39.051,39.051,0,0,0-.364-5.018c-.406-2.839-1.025-4.522-.935-4.55" transform="translate(-18.152 -44.236)" fill="#263238"/>
              <path id="Trazado_881142" data-name="Trazado 881142" d="M94.843,234.777a36.04,36.04,0,0,1,.111-7.663,36.033,36.033,0,0,1-.111,7.663" transform="translate(-20.437 -49.02)" fill="#263238"/>
              <path id="Trazado_881143" data-name="Trazado 881143" d="M63.376,203.8a1.982,1.982,0,0,1,.031.463c0,.347.009.787.015,1.326.016,1.207.038,2.859.066,4.877.049,4.115.263,9.811.094,16.1a9.052,9.052,0,0,0,.8,4.369,19.609,19.609,0,0,0,2.591,3.328l4.766,5.444,3.186,3.694.851,1.018a1.949,1.949,0,0,1,.275.373,2.072,2.072,0,0,1-.337-.319l-.909-.968L71.525,239.9l-4.832-5.387a19.472,19.472,0,0,1-2.661-3.388,9.373,9.373,0,0,1-.859-4.557c.169-6.283,0-11.969.025-16.092,0-2.061.025-3.729.064-4.881.017-.576.042-1.023.062-1.327a1.986,1.986,0,0,1,.052-.461" transform="translate(-13.635 -43.989)" fill="#263238"/>
              <path id="Trazado_881144" data-name="Trazado 881144" d="M45.384,184.053c.017.046-.79.274-2.105.985a14.533,14.533,0,0,0-4.706,4.129A13.923,13.923,0,0,0,36.558,193a13.048,13.048,0,0,0-.578,2.341c-.114.819-.181,1.687-.238,2.567a44.655,44.655,0,0,0,.009,5.543c.128,1.916.394,3.905.6,5.942.431,4.075.841,7.955,1.215,11.492a58.4,58.4,0,0,0,1.382,9.3,16.114,16.114,0,0,0,2.708,5.662,12.861,12.861,0,0,0,1.139,1.288,3.9,3.9,0,0,1,.424.429c0,.005-.048-.024-.129-.085s-.2-.152-.351-.284a10.492,10.492,0,0,1-1.208-1.249,15.67,15.67,0,0,1-2.861-5.683,56,56,0,0,1-1.478-9.335c-.383-3.535-.8-7.414-1.247-11.488-.2-2.04-.465-4.02-.59-5.961a44.108,44.108,0,0,1,.014-5.592c.064-.892.135-1.751.259-2.6a13.315,13.315,0,0,1,.613-2.4,14.067,14.067,0,0,1,2.1-3.89,14.214,14.214,0,0,1,4.863-4.1,10.609,10.609,0,0,1,1.6-.677,3.343,3.343,0,0,1,.581-.168" transform="translate(-7.613 -39.726)" fill="#263238"/>
              <path id="Trazado_881145" data-name="Trazado 881145" d="M68.351,188.916a4.156,4.156,0,0,1-.807-.481l-2.126-1.444.227-.113c-.01,1.085-.022,2.357-.035,3.755l0,.3-.269-.135-4.4-2.214c-3-1.523-5.71-2.922-7.661-3.953l-2.3-1.239a4.413,4.413,0,0,1-.819-.5,4.339,4.339,0,0,1,.891.362l2.359,1.124c1.984.965,4.712,2.323,7.715,3.846l4.388,2.245-.271.162c.045-1.4.087-2.669.122-3.753l.009-.278.217.164,2.051,1.549a4.188,4.188,0,0,1,.715.609" transform="translate(-10.825 -39.473)" fill="#263238"/>
              <path id="Trazado_881146" data-name="Trazado 881146" d="M74.853,411.212l-6.446,13.5s12.374,11.342,11.44,13.956L51.665,426.615l9.129-21.457Z" transform="translate(-11.151 -87.45)" fill="#263238"/>
              <path id="Trazado_881147" data-name="Trazado 881147" d="M62.168,423.862a1.185,1.185,0,0,0-1.332.9,1.2,1.2,0,0,0,.968,1.31,1.249,1.249,0,0,0,1.405-.961,1.264,1.264,0,0,0-1.161-1.26" transform="translate(-13.128 -91.484)" fill="#e0e0e0"/>
              <path id="Trazado_881148" data-name="Trazado 881148" d="M51.664,431.936l1.01-2.125,26.643,12.347s1.032,1.052.529,1.827Z" transform="translate(-11.151 -92.771)" fill="#455a64"/>
              <path id="Trazado_881149" data-name="Trazado 881149" d="M72.79,430.028c-.061.128-.776-.107-1.633.021-.863.107-1.455.522-1.558.416-.117-.079.425-.769,1.466-.907s1.805.364,1.724.47" transform="translate(-15.019 -92.71)" fill="#fff"/>
              <path id="Trazado_881150" data-name="Trazado 881150" d="M76.068,433.191c-.023.14-.714.106-1.419.456-.717.329-1.092.874-1.226.809-.138-.034.1-.837.982-1.256s1.715-.135,1.664-.009" transform="translate(-15.839 -93.454)" fill="#fff"/>
              <path id="Trazado_881151" data-name="Trazado 881151" d="M77.09,437.926c-.137-.026-.048-.758.613-1.318s1.427-.57,1.438-.437c.031.14-.551.343-1.086.812s-.823.988-.965.943" transform="translate(-16.627 -94.128)" fill="#fff"/>
            </g>
          </g>
        </g>
      </g>
    </g>
  </g>
</svg>
