<svg xmlns="http://www.w3.org/2000/svg" width="78.501" height="80.465" viewBox="0 0 78.501 80.465">
  <g id="Grupo_1102527" data-name="Grupo 1102527" transform="translate(-572 -18059.574)">
    <path id="_12068" data-name="12068" d="M72.033,71.913c-8.038-1.11-16.53-.839-23.844,2.675C38.045,79.46,31.382,90.507,31.127,101.757s5.606,22.305,14.66,28.988,21,9.051,32.068,7.045c11.165-2.023,21.645-8.583,27.469-18.322,3.735-6.245,5.48-13.956,3.417-20.934a28.6,28.6,0,0,0-6.787-11.156A50.145,50.145,0,0,0,72.033,71.913Z" transform="translate(540.881 18001.559)" fill="#26aab7"/>
    <g id="Grupo_1102143" data-name="Grupo 1102143" transform="translate(581.406 18059.574)">
      <path id="Trazado_880529" data-name="Trazado 880529" d="M175.877,147.843H149.35a1.963,1.963,0,0,1-1.963-1.963V94.046H185.5a1.963,1.963,0,0,1,1.963,1.963V145.88a1.963,1.963,0,0,1-1.963,1.963Z" transform="translate(-134.178 -81.428)" fill="#636363"/>
      <path id="Trazado_880530" data-name="Trazado 880530" d="M187.461,99.317V96.009a1.963,1.963,0,0,0-1.963-1.963H147.387v5.271Z" transform="translate(-134.178 -81.428)" fill="#26aab7"/>
      <path id="Trazado_880531" data-name="Trazado 880531" d="M128.261,103.32H101.733a1.963,1.963,0,0,1-1.963-1.963V49.523h38.112a1.963,1.963,0,0,1,1.963,1.963v49.871a1.963,1.963,0,0,1-1.963,1.963Z" transform="translate(-92.95 -42.878)" fill="#636363"/>
      <path id="Trazado_880532" data-name="Trazado 880532" d="M139.848,54.82V51.486a1.963,1.963,0,0,0-1.963-1.963H99.774v5.3Z" transform="translate(-92.953 -42.878)" fill="#26aab7"/>
      <path id="Trazado_880533" data-name="Trazado 880533" d="M82.428,58.8H55.9a1.963,1.963,0,0,1-1.963-1.963V6.963A1.963,1.963,0,0,1,55.9,5H92.049a1.963,1.963,0,0,1,1.963,1.963v40.25Z" transform="translate(-53.267 -4.329)" fill="#ecf4f7"/>
      <path id="Trazado_880534" data-name="Trazado 880534" d="M94.012,10.316V6.963A1.963,1.963,0,0,0,92.049,5H55.9a1.963,1.963,0,0,0-1.963,1.963v3.353Z" transform="translate(-53.267 -4.329)" fill="#26aab7"/>
      <path id="Trazado_880535" data-name="Trazado 880535" d="M142.208,57.671l-4.361,2.293a.933.933,0,0,1-1.354-.984l.833-4.857a.933.933,0,0,0-.268-.826l-3.529-3.44a.933.933,0,0,1,.517-1.592l4.876-.709a.933.933,0,0,0,.7-.51l2.181-4.419a.933.933,0,0,1,1.674,0l2.181,4.419a.933.933,0,0,0,.7.51l4.877.709a.933.933,0,0,1,.517,1.592l-3.529,3.44a.933.933,0,0,0-.268.826l.833,4.857a.933.933,0,0,1-1.354.984l-4.361-2.293A.933.933,0,0,0,142.208,57.671Z" transform="translate(-121.935 -36.458)" fill="#83e1e5"/>
      <path id="Trazado_880536" data-name="Trazado 880536" d="M266.275,331.2V319.617h11.584Z" transform="translate(-237.114 -276.733)" fill="#636363"/>
      <path id="Trazado_880537" data-name="Trazado 880537" d="M150.151,214.573H134.319a1.543,1.543,0,0,1,0-3.086h15.832a1.543,1.543,0,1,1,0,3.086Z" transform="translate(-121.527 -183.111)" fill="#83e1e5"/>
      <path id="Trazado_880538" data-name="Trazado 880538" d="M102.892,14.581V64.453a2.637,2.637,0,0,1-2.634,2.634H64.11a2.637,2.637,0,0,1-2.634-2.634V63.2a.671.671,0,0,1,1.342,0v1.257a1.294,1.294,0,0,0,1.292,1.292h36.148a1.294,1.294,0,0,0,1.292-1.292V14.581a1.294,1.294,0,0,0-1.292-1.292h-1.8a.671.671,0,0,1,0-1.342h1.8a2.637,2.637,0,0,1,2.634,2.634ZM96.5,58.479V8.608A2.637,2.637,0,0,0,93.87,5.974h-.915a.671.671,0,1,0,0,1.342h.915a1.294,1.294,0,0,1,1.292,1.292V58.479a1.294,1.294,0,0,1-1.292,1.292H57.721a1.294,1.294,0,0,1-1.292-1.292v-.986a.671.671,0,1,0-1.342,0v.986a2.637,2.637,0,0,0,2.634,2.634H93.87A2.637,2.637,0,0,0,96.5,58.479ZM49.609,12.389a.671.671,0,0,0,.671-.671V10.465a.671.671,0,1,0-1.342,0v1.252a.671.671,0,0,0,.671.671Zm0,8.5a.671.671,0,0,0,.671-.671V14.043a.671.671,0,1,0-1.342,0v6.172a.671.671,0,0,0,.671.671Zm1.963,34.253a2.637,2.637,0,0,1-2.634-2.634V22.541a.671.671,0,0,1,1.342,0V52.505A1.294,1.294,0,0,0,51.572,53.8H77.428V42.884a.671.671,0,0,1,.671-.671H89.012V2.634A1.294,1.294,0,0,0,87.72,1.342H51.572A1.294,1.294,0,0,0,50.28,2.634V8.05a.671.671,0,1,1-1.342,0V2.634A2.637,2.637,0,0,1,51.572,0H87.72a2.637,2.637,0,0,1,2.634,2.634v40.25s0,.009,0,.013a.693.693,0,0,1-.012.118v0a.678.678,0,0,1-.033.11l-.013.032a.687.687,0,0,1-.041.077l-.018.029a.669.669,0,0,1-.076.092L78.573,54.943a.669.669,0,0,1-.1.084.507.507,0,0,1-.051.027.723.723,0,0,1-.064.034.679.679,0,0,1-.067.02c-.02.006-.038.013-.058.017a.671.671,0,0,1-.117.012H51.572Zm27.2-2.29,9.294-9.294H78.77ZM75.7,17.319a.262.262,0,0,0-.076.232l.833,4.857A1.6,1.6,0,0,1,74.13,24.1l-4.362-2.293a.263.263,0,0,0-.244,0L65.163,24.1a1.6,1.6,0,0,1-2.328-1.691l.833-4.857a.262.262,0,0,0-.075-.232l-3.529-3.44a1.6,1.6,0,0,1,.889-2.736l4.876-.709a.262.262,0,0,0,.2-.143l2.181-4.419a1.6,1.6,0,0,1,2.877,0l2.181,4.419a.262.262,0,0,0,.2.144l4.876.709a1.6,1.6,0,0,1,.889,2.736Zm-.937-.961,3.529-3.439a.262.262,0,0,0-.145-.448l-4.876-.709a1.6,1.6,0,0,1-1.208-.878L69.881,6.466a.262.262,0,0,0-.471,0L67.23,10.885a1.6,1.6,0,0,1-1.208.878l-4.876.709a.262.262,0,0,0-.146.448l3.529,3.439a1.6,1.6,0,0,1,.461,1.42l-.833,4.857a.263.263,0,0,0,.381.277L68.9,20.619a1.6,1.6,0,0,1,1.493,0l4.362,2.293a.263.263,0,0,0,.381-.277L74.3,17.778a1.6,1.6,0,0,1,.461-1.42ZM59.516,29.919A2.216,2.216,0,0,1,61.73,27.7H77.562a2.214,2.214,0,1,1,0,4.428H61.73A2.216,2.216,0,0,1,59.516,29.919Zm1.342,0a.873.873,0,0,0,.872.872H77.562a.872.872,0,1,0,0-1.744H61.73A.873.873,0,0,0,60.858,29.919ZM55.125,34.9a.671.671,0,0,0,.671.671H83.5a.671.671,0,0,0,0-1.342H55.8A.671.671,0,0,0,55.125,34.9Zm.671,4.664H83.5a.671.671,0,0,0,0-1.342H55.8a.671.671,0,0,0,0,1.342Zm0,3.994H74.439a.671.671,0,1,0,0-1.342H55.8a.671.671,0,0,0,0,1.342Zm0,3.993H74.439a.671.671,0,1,0,0-1.342H55.8a.671.671,0,0,0,0,1.342Z" transform="translate(-48.938 0)" fill="#1c1d21"/>
    </g>
  </g>
</svg>
