<svg xmlns="http://www.w3.org/2000/svg" xmlns:xlink="http://www.w3.org/1999/xlink" width="387.624" height="341.992" viewBox="0 0 387.624 341.992">
  <defs>
    <clipPath id="clip-path">
      <rect id="Rectángulo_401723" data-name="Rectángulo 401723" width="322.969" height="310.74" fill="none"/>
    </clipPath>
    <clipPath id="clip-path-3">
      <rect id="Rectángulo_401719" data-name="Rectángulo 401719" width="69.37" height="95.377" fill="none"/>
    </clipPath>
    <clipPath id="clip-path-4">
      <rect id="Rectángulo_401721" data-name="Rectángulo 401721" width="141.031" height="95.939" fill="none"/>
    </clipPath>
  </defs>
  <g id="Grupo_1102521" data-name="Grupo 1102521" transform="translate(-192.376 -11281.22)">
    <path id="stylish-happy-excited-friends-with-shopping-bags-are-looking-together-smart-phone-chatting-about-sales-mall" d="M233.145,74.29c-39.692-5.653-81.62-4.271-117.739,13.623C65.317,112.728,32.42,168.989,31.159,226.288s27.679,113.6,72.388,147.638,103.671,46.1,158.347,35.88c55.133-10.305,106.881-43.716,135.639-93.315,18.441-31.8,27.061-71.078,16.873-106.616-6.151-21.451-18.724-40.455-33.514-56.817A245.237,245.237,0,0,0,233.145,74.29Z" transform="translate(161.257 11209.887)" fill="#ffd947"/>
    <g id="Grupo_1102124" data-name="Grupo 1102124" transform="translate(225.576 11287.013)">
      <g id="Grupo_1102123" data-name="Grupo 1102123" clip-path="url(#clip-path)">
        <g id="Grupo_1102122" data-name="Grupo 1102122">
          <g id="Grupo_1102121" data-name="Grupo 1102121" clip-path="url(#clip-path)">
            <line id="Línea_1736" data-name="Línea 1736" x2="51.909" transform="translate(0.705 251.922)" fill="none" stroke="#263238" stroke-linecap="round" stroke-linejoin="round" stroke-width="2"/>
            <line id="Línea_1737" data-name="Línea 1737" x2="18.891" transform="translate(171.216 251.922)" fill="none" stroke="#263238" stroke-linecap="round" stroke-linejoin="round" stroke-width="2"/>
            <line id="Línea_1738" data-name="Línea 1738" x2="31.115" transform="translate(236.228 251.922)" fill="none" stroke="#263238" stroke-linecap="round" stroke-linejoin="round" stroke-width="2"/>
            <line id="Línea_1739" data-name="Línea 1739" x2="46.483" transform="translate(275.781 251.922)" fill="none" stroke="#263238" stroke-linecap="round" stroke-linejoin="round" stroke-width="2"/>
            <line id="Línea_1740" data-name="Línea 1740" y2="2.817" transform="translate(108.739 28.312)" fill="none" stroke="#263238" stroke-linecap="round" stroke-linejoin="round" stroke-width="2"/>
            <line id="Línea_1741" data-name="Línea 1741" y2="2.816" transform="translate(108.739 34.305)" fill="none" stroke="#263238" stroke-linecap="round" stroke-linejoin="round" stroke-width="2"/>
            <line id="Línea_1742" data-name="Línea 1742" x2="2.817" transform="translate(104.334 32.717)" fill="none" stroke="#263238" stroke-linecap="round" stroke-linejoin="round" stroke-width="2"/>
            <line id="Línea_1743" data-name="Línea 1743" x2="2.817" transform="translate(110.326 32.717)" fill="none" stroke="#263238" stroke-linecap="round" stroke-linejoin="round" stroke-width="2"/>
            <line id="Línea_1744" data-name="Línea 1744" y2="2.816" transform="translate(228.38 8.707)" fill="none" stroke="#263238" stroke-linecap="round" stroke-linejoin="round" stroke-width="2"/>
            <line id="Línea_1745" data-name="Línea 1745" y2="2.816" transform="translate(228.38 14.699)" fill="none" stroke="#263238" stroke-linecap="round" stroke-linejoin="round" stroke-width="2"/>
            <line id="Línea_1746" data-name="Línea 1746" x2="2.817" transform="translate(223.975 13.111)" fill="none" stroke="#263238" stroke-linecap="round" stroke-linejoin="round" stroke-width="2"/>
            <line id="Línea_1747" data-name="Línea 1747" x2="2.816" transform="translate(229.968 13.111)" fill="none" stroke="#263238" stroke-linecap="round" stroke-linejoin="round" stroke-width="2"/>
            <line id="Línea_1748" data-name="Línea 1748" y2="2.817" transform="translate(17.18 152.072)" fill="none" stroke="#263238" stroke-linecap="round" stroke-linejoin="round" stroke-width="2"/>
            <line id="Línea_1749" data-name="Línea 1749" y2="2.817" transform="translate(17.18 158.064)" fill="none" stroke="#263238" stroke-linecap="round" stroke-linejoin="round" stroke-width="2"/>
            <line id="Línea_1750" data-name="Línea 1750" x2="2.816" transform="translate(12.776 156.476)" fill="none" stroke="#263238" stroke-linecap="round" stroke-linejoin="round" stroke-width="2"/>
            <line id="Línea_1751" data-name="Línea 1751" x2="2.816" transform="translate(18.768 156.476)" fill="none" stroke="#263238" stroke-linecap="round" stroke-linejoin="round" stroke-width="2"/>
            <line id="Línea_1752" data-name="Línea 1752" y2="2.817" transform="translate(301.38 209.961)" fill="none" stroke="#263238" stroke-linecap="round" stroke-linejoin="round" stroke-width="2"/>
            <line id="Línea_1753" data-name="Línea 1753" y2="2.817" transform="translate(301.38 215.953)" fill="none" stroke="#263238" stroke-linecap="round" stroke-linejoin="round" stroke-width="2"/>
            <line id="Línea_1754" data-name="Línea 1754" x2="2.817" transform="translate(296.975 214.365)" fill="none" stroke="#263238" stroke-linecap="round" stroke-linejoin="round" stroke-width="2"/>
            <line id="Línea_1755" data-name="Línea 1755" x2="2.817" transform="translate(302.968 214.365)" fill="none" stroke="#263238" stroke-linecap="round" stroke-linejoin="round" stroke-width="2"/>
            <path id="Trazado_880401" data-name="Trazado 880401" d="M376.084,117.178a16.944,16.944,0,1,1,16.944,16.944A16.944,16.944,0,0,1,376.084,117.178Z" transform="translate(-110.95 -29.57)" fill="none" stroke="#7d6eb2" stroke-linecap="round" stroke-linejoin="round" stroke-width="2"/>
            <path id="Trazado_880402" data-name="Trazado 880402" d="M399.856,100.234v33.888" transform="translate(-117.963 -29.57)" fill="none" stroke="#7d6eb2" stroke-linecap="round" stroke-linejoin="round" stroke-width="2"/>
            <line id="Línea_1756" data-name="Línea 1756" x2="33.888" transform="translate(265.134 87.607)" fill="none" stroke="#7d6eb2" stroke-linecap="round" stroke-linejoin="round" stroke-width="2"/>
            <path id="Trazado_880403" data-name="Trazado 880403" d="M408.33,111.179a45.675,45.675,0,0,1-14.008,2.623,47.029,47.029,0,0,1-14.139-2.623" transform="translate(-112.16 -32.799)" fill="none" stroke="#7d6eb2" stroke-linecap="round" stroke-linejoin="round" stroke-width="2"/>
            <path id="Trazado_880404" data-name="Trazado 880404" d="M408.3,135.4a45.687,45.687,0,0,0-14.009-2.622,47.046,47.046,0,0,0-14.139,2.622" transform="translate(-112.151 -39.171)" fill="none" stroke="#7d6eb2" stroke-linecap="round" stroke-linejoin="round" stroke-width="2"/>
            <path id="Trazado_880405" data-name="Trazado 880405" d="M404.215,133.722s4.133-8.053,4.133-16.181-4.133-16.332-4.133-16.332" transform="translate(-119.249 -29.858)" fill="none" stroke="#7d6eb2" stroke-linecap="round" stroke-linejoin="round" stroke-width="2"/>
            <path id="Trazado_880406" data-name="Trazado 880406" d="M412.392,132.513s4.026-7.13,4.026-14.327-4.026-14.461-4.026-14.461" transform="translate(-121.662 -30.6)" fill="none" stroke="#7d6eb2" stroke-linecap="round" stroke-linejoin="round" stroke-width="2"/>
            <path id="Trazado_880407" data-name="Trazado 880407" d="M394.239,133.722s-4.133-8.053-4.133-16.181,4.133-16.332,4.133-16.332" transform="translate(-115.087 -29.858)" fill="none" stroke="#7d6eb2" stroke-linecap="round" stroke-linejoin="round" stroke-width="2"/>
            <path id="Trazado_880408" data-name="Trazado 880408" d="M386.108,132.513s-4.027-7.13-4.027-14.327,4.027-14.461,4.027-14.461" transform="translate(-112.719 -30.6)" fill="none" stroke="#7d6eb2" stroke-linecap="round" stroke-linejoin="round" stroke-width="2"/>
            <path id="Trazado_880409" data-name="Trazado 880409" d="M5.862,141.663a17.4,17.4,0,1,1,17.4,17.4A17.4,17.4,0,0,1,5.862,141.663Z" transform="translate(-1.729 -36.661)" fill="none" stroke="#263238" stroke-linecap="round" stroke-linejoin="round" stroke-width="2"/>
            <path id="Rectángulo_401718" data-name="Rectángulo 401718" d="M4.226,0h9.053A4.226,4.226,0,0,1,17.5,4.226v9.053a4.227,4.227,0,0,1-4.227,4.227H4.226A4.226,4.226,0,0,1,0,13.279V4.226A4.226,4.226,0,0,1,4.226,0Z" transform="translate(12.776 96.25)" fill="none" stroke="#7d6eb2" stroke-linecap="round" stroke-linejoin="round" stroke-width="2"/>
            <path id="Trazado_880410" data-name="Trazado 880410" d="M25.448,147.442a3.588,3.588,0,1,1,3.588,3.588A3.588,3.588,0,0,1,25.448,147.442Z" transform="translate(-7.508 -42.439)" fill="none" stroke="#7d6eb2" stroke-linecap="round" stroke-linejoin="round" stroke-width="2"/>
            <path id="Trazado_880411" data-name="Trazado 880411" d="M35.792,141.474a1.3,1.3,0,1,1,1.3,1.3,1.3,1.3,0,0,1-1.3-1.3" transform="translate(-10.559 -41.355)" fill="#ff367c" stroke="#7d6eb2" stroke-width="1"/>
            <path id="Trazado_880412" data-name="Trazado 880412" d="M222.165,23.771a1.673,1.673,0,0,1,1.48-1.814h15.284a1.673,1.673,0,0,1,1.48,1.814V35a1.673,1.673,0,0,1-1.48,1.815H223.645A1.673,1.673,0,0,1,222.165,35Z" transform="translate(-65.542 -6.478)" fill="none" stroke="#263238" stroke-linecap="round" stroke-linejoin="round" stroke-width="2"/>
            <path id="Trazado_880413" data-name="Trazado 880413" d="M230.832,26.578V34.92l4.1-2.238,3.54-1.932Z" transform="translate(-68.099 -7.841)" fill="none" stroke="#263238" stroke-linecap="round" stroke-linejoin="round" stroke-width="2"/>
            <circle id="Elipse_12011" data-name="Elipse 12011" cx="16.977" cy="16.977" r="16.977" transform="translate(143.564 13.72) rotate(-22.5)" fill="none" stroke="#7d6eb2" stroke-linecap="round" stroke-linejoin="round" stroke-width="2"/>
            <path id="Trazado_880414" data-name="Trazado 880414" d="M73.374,19.767A18.767,18.767,0,1,1,92.141,38.533,18.767,18.767,0,0,1,73.374,19.767Z" transform="translate(-21.646 -0.295)" fill="none" stroke="#26aab7" stroke-linecap="round" stroke-linejoin="round" stroke-width="2"/>
            <path id="Trazado_880415" data-name="Trazado 880415" d="M86.2,19.862V31.993s18.386,1.153,19.773-1.39c1.161-2.129,1.4-10.119-.677-10.607a24.217,24.217,0,0,0-7.254-.632s-.362-8.669-3.918-8.048c-1.077.188-1.886,8.048-1.886,8.048Z" transform="translate(-25.431 -3.329)" fill="none" stroke="#7d6eb2" stroke-linecap="round" stroke-linejoin="round" stroke-width="2"/>
            <line id="Línea_1757" data-name="Línea 1757" y2="12.571" transform="translate(64.145 16.247)" fill="none" stroke="#7d6eb2" stroke-linecap="round" stroke-linejoin="round" stroke-width="2"/>
            <line id="Línea_1758" data-name="Línea 1758" x2="5.463" y2="0.099" transform="translate(75.729 20.345)" fill="none" stroke="#7d6eb2" stroke-linecap="round" stroke-linejoin="round" stroke-width="2"/>
            <line id="Línea_1759" data-name="Línea 1759" x2="5.463" y2="0.099" transform="translate(75.729 24.3)" fill="none" stroke="#7d6eb2" stroke-linecap="round" stroke-linejoin="round" stroke-width="2"/>
            <path id="Trazado_880416" data-name="Trazado 880416" d="M398.195,18.044A16.254,16.254,0,1,1,414.448,34.3,16.254,16.254,0,0,1,398.195,18.044Z" transform="translate(-117.473 -0.528)" fill="none" stroke="#26aab7" stroke-linecap="round" stroke-linejoin="round" stroke-width="2"/>
            <path id="Trazado_880417" data-name="Trazado 880417" d="M422.9,16.073c-2.706.077-4.937,5.149-4.937,5.149s-1.81-5.631-4.979-5.022a2.139,2.139,0,0,0-1.356.763c-3.768,4.879,6.336,13.667,6.336,13.667s10.635-9.729,6.5-13.985a2.048,2.048,0,0,0-1.568-.572" transform="translate(-121.188 -4.741)" fill="#7d6eb2"/>
            <path id="Trazado_880418" data-name="Trazado 880418" d="M272.678,148.991a13.339,13.339,0,1,1,13.338,13.338A13.339,13.339,0,0,1,272.678,148.991Z" transform="translate(-80.444 -40.019)" fill="none" stroke="#263238" stroke-linecap="round" stroke-linejoin="round" stroke-width="2"/>
            <path id="Trazado_880419" data-name="Trazado 880419" d="M289.137,164.719a2.3,2.3,0,1,1,3.149-.8,2.3,2.3,0,0,1-3.149.8" transform="translate(-84.968 -47.334)" fill="#263238"/>
            <path id="Trazado_880420" data-name="Trazado 880420" d="M281.478,150.705a2.3,2.3,0,1,1,3.149-.8,2.3,2.3,0,0,1-3.149.8" transform="translate(-82.708 -43.199)" fill="#263238"/>
            <path id="Trazado_880421" data-name="Trazado 880421" d="M297.449,150.719a2.3,2.3,0,1,1,3.148-.8,2.3,2.3,0,0,1-3.148.8" transform="translate(-87.42 -43.203)" fill="#263238"/>
            <line id="Línea_1760" data-name="Línea 1760" x2="4.526" y2="8.728" transform="translate(200.817 106.681)" fill="none" stroke="#263238" stroke-linecap="round" stroke-linejoin="round" stroke-width="2"/>
            <line id="Línea_1761" data-name="Línea 1761" y1="0.207" x2="9.83" transform="translate(201.083 105.368)" fill="none" stroke="#263238" stroke-linecap="round" stroke-linejoin="round" stroke-width="2"/>
            <path id="Trazado_880422" data-name="Trazado 880422" d="M290.191,54.24l4.426,5.586L281.177,71.252,280,69.786Zm-4.11,30.945,22,4.778-4.163,8.062L285.669,86.138Z" transform="translate(-82.604 -16.002)" fill="#26aab7"/>
            <path id="Trazado_880423" data-name="Trazado 880423" d="M353.415,50.007,338.3,51.575l.682,3.442,9.1-.988-27.5,18.639L318.35,62.253,293.266,73.938l.918,2.051,20.806-7.936,1.672,13.027,34.216-24.048-2.2,8.248,3.424.685,3.36-13.883a1.749,1.749,0,0,0-2.043-2.075" transform="translate(-86.518 -14.743)" fill="#7d6eb2"/>
            <path id="Trazado_880424" data-name="Trazado 880424" d="M385.488,341.137V397.6" transform="translate(-113.724 -100.64)" fill="none" stroke="#263238" stroke-linecap="round" stroke-linejoin="round" stroke-width="2"/>
            <path id="Trazado_880425" data-name="Trazado 880425" d="M330.2,341.137v22.852" transform="translate(-97.413 -100.64)" fill="none" stroke="#263238" stroke-linecap="round" stroke-linejoin="round" stroke-width="2"/>
            <path id="Trazado_880426" data-name="Trazado 880426" d="M351.868,209.475c5.908.122,9.02,2.756,11.429,8.207,5.928,13.409,6.573,41.569,6.573,73.771v4.159a3.4,3.4,0,0,1-3.286,3.488H312.725a3.4,3.4,0,0,1-3.287-3.488v-4.159a3.4,3.4,0,0,1,3.287-3.488h21.141c-.006-30.917.019-57.951,5.788-70.757,2.379-5.282,6.305-7.854,12.214-7.732" transform="translate(-91.289 -61.797)" fill="#263238"/>
            <line id="Línea_1762" data-name="Línea 1762" y2="38.774" transform="translate(271.763 189.673)" fill="none" stroke="#fff" stroke-linecap="round" stroke-linejoin="round" stroke-width="2"/>
            <path id="Trazado_880427" data-name="Trazado 880427" d="M292.344,284.46s-31.268,9.23-36.64,17.769-12.259,64.326-12.259,64.326h34.574L304.6,284.323Z" transform="translate(-71.82 -83.879)" fill="#263238"/>
            <path id="Trazado_880428" data-name="Trazado 880428" d="M309.216,284.006s-33.031,9.249-36,20.148,13.08,68.631,13.08,68.631h38.922l-19.549-57.594s31.546-1.92,36.088-10.045c6.867-12.284-4.79-27.746-4.79-27.746Z" transform="translate(-80.493 -81.837)" fill="#7d6eb2"/>
            <g id="Grupo_1102117" data-name="Grupo 1102117" transform="translate(193.319 195.561)" opacity="0.25" style="isolation: isolate">
              <g id="Grupo_1102116" data-name="Grupo 1102116">
                <g id="Grupo_1102115" data-name="Grupo 1102115" clip-path="url(#clip-path-3)">
                  <path id="Trazado_880429" data-name="Trazado 880429" d="M337.36,277.4l-.854.2v31.628c.495-.222.992-.436,1.439-.675V278.274c-.147-.207-.584-.876-.585-.876m-5.079,1.213-1.439.337v32.325c.492-.139.963-.28,1.439-.427Zm-5.665,1.349-1.439.338v32.347c.481-.1.959-.188,1.439-.292Zm-5.665,1.349-1.439.338v31.965c.52-.079.909-.116,1.439-.2Zm-5.665,1.349-1.438.338v31.38c.443-.051.971-.145,1.438-.2Zm-5.665,1.349s-1.144.364-1.438.45V315c.434-.033.762-.076,1.438-.135Zm-5.642,1.777c-.4.132-1.012.393-1.439.539v86.453h1.439Zm38.169.472v18.882a16.425,16.425,0,0,0,1.438-3.552V290.75a33.558,33.558,0,0,0-1.438-4.5M298.315,287.9c-.493.183-.929.344-1.439.54v84.34h1.439Zm-5.665,2.135c-.483.207-.955.46-1.439.675v82.069h1.439Zm-5.665,2.653c-.5.25-.954.506-1.439.764v75.034c.383,1.414,1.146,4.293,1.146,4.293h.293Zm-5.665,3.237c-.508.331-.964.671-1.438,1.012v49c.508,2.143.941,3.8,1.438,5.822Zm-5.665,4.721a10.859,10.859,0,0,0-1.438,2.135v15.173c.381,2.625.881,5.444,1.438,8.406Zm32.527,20.77v51.364h1.438V325.637Zm5.665,16.679v34.685h1.438V342.316Zm5.665,16.679v18.006h1.439V359Zm5.665,16.68v1.326h.45Z" transform="translate(-274.217 -277.397)" fill="#fff"/>
                </g>
              </g>
            </g>
            <path id="Trazado_880430" data-name="Trazado 880430" d="M351.086,212.928s1.236-22.726,9.667-28.568c4.815-3.337,15.492-3.646,19.479,5.695s-1.958,48.6-15.514,54.753-24.185-3.83-24.185-3.83-4.417,16.646-27.949,19.307c-12.865,1.454-19.475-5.148-19.475-5.148s-8.477,9.34-17.446,8.536c-10.129-.907-17.116-6.284-13.172-22.695,3.746-15.587,14.42-27.18,26.362-33.657,10.452-5.67,19.682-7.252,33.491-5.886s28.742,11.493,28.742,11.493" transform="translate(-77.109 -53.76)" fill="#aee6e6"/>
            <path id="Trazado_880431" data-name="Trazado 880431" d="M329.229,216.415a1.686,1.686,0,1,1,1.686,1.687,1.686,1.686,0,0,1-1.686-1.687" transform="translate(-97.127 -63.348)" fill="#263238"/>
            <path id="Trazado_880432" data-name="Trazado 880432" d="M328.537,225.106a1.686,1.686,0,1,1,1.687,1.687,1.687,1.687,0,0,1-1.687-1.687" transform="translate(-96.923 -65.912)" fill="#263238"/>
            <path id="Trazado_880433" data-name="Trazado 880433" d="M337.4,244.358a4.443,4.443,0,0,0-4.344-4.534h-38.5a4.443,4.443,0,0,0-4.345,4.534v21.753a4.443,4.443,0,0,0,4.345,4.534h38.5a4.443,4.443,0,0,0,4.344-4.534Z" transform="translate(-85.619 -70.752)" fill="#fff"/>
            <line id="Línea_1763" data-name="Línea 1763" x1="27.25" transform="translate(220.086 195.134)" fill="none" stroke="#ffc051" stroke-linecap="round" stroke-linejoin="round" stroke-width="2"/>
            <path id="Trazado_880434" data-name="Trazado 880434" d="M325.053,253a2.356,2.356,0,1,0-2.354,2.463A2.41,2.41,0,0,0,325.053,253Z" transform="translate(-94.507 -73.911)" fill="none" stroke="#ffc051" stroke-linecap="round" stroke-linejoin="round" stroke-width="2"/>
            <path id="Trazado_880435" data-name="Trazado 880435" d="M281.642,264.521s2.863-11.229,5.249-10.718c1.864.4,1.776,2.052,1.745,3.482-.064,2.878-1.97,6.729.267,7.854s9.734-6.188,12.059-3.59c2.054,2.3-7.32,8.152-7.32,8.152a34.591,34.591,0,0,0,4.773-3.106c1.924-1.62,2.431-2.071,2.431-2.071s3.534,2.642-.668,6.29-5.524,3.253-5.524,3.253a9.058,9.058,0,0,0,3.985-1.979c2.81-2.224,3.388-3.462,3.388-3.462s2.276,4.276-2.517,8.085a15.3,15.3,0,0,1-17.095,1.627" transform="translate(-83.088 -74.87)" fill="none" stroke="#263238" stroke-linecap="round" stroke-linejoin="round" stroke-width="2"/>
            <path id="Trazado_880436" data-name="Trazado 880436" d="M406.83,176.145s-1.7-7.254,1.6-10.276,9-1.354,9-1.354a48.43,48.43,0,0,0,1.376-4.781c.468-2.173.9-4.193,2.158-4.283s2.371,4.215,1.645,6.625-1.268,3.825-1.268,3.825a36.811,36.811,0,0,0,1.423-4.037c1.006-4.338.359-4.988,1.178-6.8.709-1.573,2.474-1.148,3.261,1.865a10.592,10.592,0,0,1-.571,6.778c-.811,2.274-1.3,3.775-1.3,3.775a7.569,7.569,0,0,0,3.877-3.539c1.172-2.079.9-4.97,2.082-4.943s2.565,2.17,1.371,6.165-3.256,6.484-6.264,7.676-7.621,2.028-9.437,4.636" transform="translate(-119.892 -45.482)" fill="none" stroke="#263238" stroke-linecap="round" stroke-linejoin="round" stroke-width="2"/>
            <path id="Trazado_880437" data-name="Trazado 880437" d="M323.057,176.529s-3.9-1.525-3.649-4.4c.245-2.807,2.55-4.887,6.164-4.972,4.262-.1,8.181,4.4,8.181,4.4s5.945-2.2,9.078,2.042c2.546,3.442.331,8.083.331,8.083s3.1,3.268,1.021,6.63-7.675,2.493-7.675,2.493,5.875-7.5,1.5-13.023c-6.22-7.855-14.955-1.252-14.955-1.252" transform="translate(-94.227 -49.313)" fill="#263238"/>
            <path id="Trazado_880438" data-name="Trazado 880438" d="M356.823,180.724s3.227-7.864,7.417-11.085c3.942-3.031,10.222-4.092,12.083.08,1.495,3.352-.414,7.05-4.576,9.012-7.012,3.3-14.924,1.994-14.924,1.994" transform="translate(-105.268 -49.257)" fill="#263238"/>
            <path id="Trazado_880439" data-name="Trazado 880439" d="M335.5,176.906a11.353,11.353,0,0,0,2,8.033,11.925,11.925,0,0,0,6.269,4.691s3.253-6.685-1.914-11.022c-2.047-1.718-6.351-1.7-6.351-1.7" transform="translate(-98.948 -52.19)" fill="#263238"/>
            <path id="Trazado_880440" data-name="Trazado 880440" d="M321.12,185.9a9.6,9.6,0,1,1,9.6,9.6A9.6,9.6,0,0,1,321.12,185.9Z" transform="translate(-94.735 -52.01)" fill="none" stroke="#263238" stroke-linecap="round" stroke-linejoin="round" stroke-width="2"/>
            <path id="Trazado_880441" data-name="Trazado 880441" d="M332.371,189.516a1.071,1.071,0,1,1,.914,1.218,1.077,1.077,0,0,1-.914-1.218" transform="translate(-98.051 -55.634)" fill="#7d6eb2"/>
            <path id="Trazado_880442" data-name="Trazado 880442" d="M329.853,185.833a.914.914,0,1,1,.781,1.031.916.916,0,0,1-.781-1.031" transform="translate(-97.309 -54.59)" fill="#263238"/>
            <path id="Trazado_880443" data-name="Trazado 880443" d="M323.692,182.2a.914.914,0,1,1,.781,1.031.915.915,0,0,1-.781-1.031" transform="translate(-95.491 -53.517)" fill="#263238"/>
            <path id="Trazado_880444" data-name="Trazado 880444" d="M328.2,190.553a2.766,2.766,0,0,1-1.323,1.254,2.984,2.984,0,0,1-2.244-.29" transform="translate(-95.77 -56.216)" fill="none" stroke="#263238" stroke-linecap="round" stroke-linejoin="round" stroke-width="2"/>
            <path id="Trazado_880445" data-name="Trazado 880445" d="M326.918,183.988l-2.962,2.937,2.042.7" transform="translate(-95.571 -54.279)" fill="none" stroke="#263238" stroke-linecap="round" stroke-linejoin="round" stroke-width="2"/>
            <path id="Trazado_880446" data-name="Trazado 880446" d="M317.481,418.516c0,2.967.234,11.114.234,11.114s-34.879,2.118-38.377.417c-2.357-1.147,2.984-4.381,8.149-7.368a76.01,76.01,0,0,1,10.689-4.917" transform="translate(-82.24 -123.246)" fill="none" stroke="#263238" stroke-linecap="round" stroke-linejoin="round" stroke-width="2"/>
            <line id="Línea_1764" data-name="Línea 1764" x1="5.946" y1="5.16" transform="translate(208.771 294.377)" fill="none" stroke="#7d6eb2" stroke-linecap="round" stroke-linejoin="round" stroke-width="2"/>
            <line id="Línea_1765" data-name="Línea 1765" x1="5.946" y1="5.16" transform="translate(205.798 295.689)" fill="none" stroke="#7d6eb2" stroke-linecap="round" stroke-linejoin="round" stroke-width="2"/>
            <path id="Trazado_880447" data-name="Trazado 880447" d="M270.276,404.473c0,2.967.235,11.114.235,11.114s-34.88,2.118-38.377.416c-2.357-1.147,2.984-4.38,8.149-7.368a76.062,76.062,0,0,1,10.689-4.917" transform="translate(-68.314 -119.103)" fill="none" stroke="#263238" stroke-linecap="round" stroke-linejoin="round" stroke-width="2"/>
            <line id="Línea_1766" data-name="Línea 1766" x1="5.947" y1="5.16" transform="translate(175.492 284.476)" fill="none" stroke="#7d6eb2" stroke-linecap="round" stroke-linejoin="round" stroke-width="2"/>
            <line id="Línea_1767" data-name="Línea 1767" x1="5.947" y1="5.16" transform="translate(172.519 285.789)" fill="none" stroke="#7d6eb2" stroke-linecap="round" stroke-linejoin="round" stroke-width="2"/>
            <path id="Rectángulo_401720" data-name="Rectángulo 401720" d="M1.571,0H22.12a1.572,1.572,0,0,1,1.572,1.572V3.666a1.573,1.573,0,0,1-1.573,1.573H1.572A1.572,1.572,0,0,1,0,3.667v-2.1A1.571,1.571,0,0,1,1.571,0Z" transform="translate(97.419 260.73)" fill="none" stroke="#263238" stroke-linecap="round" stroke-linejoin="round" stroke-width="2"/>
            <path id="Trazado_880448" data-name="Trazado 880448" d="M78.007,88.094A11.272,11.272,0,0,1,89.451,77h89.537a11.272,11.272,0,0,1,11.443,11.092V283.376a11.271,11.271,0,0,1-11.443,11.091H89.451a11.271,11.271,0,0,1-11.444-11.091Z" transform="translate(-23.013 -22.717)" fill="none" stroke="#263238" stroke-linecap="round" stroke-linejoin="round" stroke-width="2"/>
            <path id="Trazado_880449" data-name="Trazado 880449" d="M91.467,98.659a9.688,9.688,0,0,1,9.512-9.855H175.4a9.688,9.688,0,0,1,9.512,9.855v173.5a9.687,9.687,0,0,1-9.512,9.854H100.979a9.687,9.687,0,0,1-9.512-9.854Z" transform="translate(-26.984 -26.198)" fill="none" stroke="#263238" stroke-linecap="round" stroke-linejoin="round" stroke-width="2"/>
            <line id="Línea_1768" data-name="Línea 1768" x1="26.32" y2="24.206" transform="translate(71.099 70.663)" fill="none" stroke="#263238" stroke-linecap="round" stroke-linejoin="round" stroke-width="2"/>
            <line id="Línea_1769" data-name="Línea 1769" x1="18.767" y2="18.325" transform="translate(70.495 85.563)" fill="none" stroke="#263238" stroke-linecap="round" stroke-linejoin="round" stroke-width="2"/>
            <line id="Línea_1770" data-name="Línea 1770" x1="26.321" y2="24.207" transform="translate(124.849 147.674)" fill="none" stroke="#263238" stroke-linecap="round" stroke-linejoin="round" stroke-width="2"/>
            <line id="Línea_1771" data-name="Línea 1771" x1="18.767" y2="18.325" transform="translate(124.245 162.574)" fill="none" stroke="#263238" stroke-linecap="round" stroke-linejoin="round" stroke-width="2"/>
            <path id="Trazado_880450" data-name="Trazado 880450" d="M218.176,93.495l-10.2,6.348,1.012,3.715,7.632-.472s2.992,6.805,8.09,8.528,6.853,1.166,10.572-1.05,3.694-8.04,3.694-8.04l17.686-.553s1.98-7.918.205-13.448S246.9,77.259,246.9,77.259l-15.836,9.966s-1.74-1.127-2.661-.819-1.024,2.047-1.024,2.047-1.877-1.28-3.072-.682-1.706,3.072-1.706,3.072-2.238-1.414-3.344-.751-1.084,3.4-1.084,3.4" transform="translate(-61.357 -22.793)" fill="#fff"/>
            <path id="Trazado_880451" data-name="Trazado 880451" d="M79.11,256.625c.9,5.244,3.934,18.43.151,18.61-2.621.125-3.411-4.292-4.624-9.472-.962-4.1-2.136-9.949-.286-11.236,2.289-1.594,4.464.377,4.759,2.1" transform="translate(-21.646 -74.916)" fill="#fff"/>
            <path id="Trazado_880452" data-name="Trazado 880452" d="M138.186,214.864s18.374,53.36,18.643,62.1-3.043,63.5-3.043,63.5h39.266s-2.188-53.687-5.028-68.6c-3.4-17.872-26.041-62.382-26.041-62.382Z" transform="translate(-40.767 -61.797)" fill="#aee6e6"/>
            <path id="Trazado_880453" data-name="Trazado 880453" d="M118.542,209.472s-9.762,7.209-10.814,14.118,4.807,15.319,4.807,15.319l-6.759,23.731L92.5,289.486s-.315,18.98.245,20.8c.89,2.9,3.62,6.354,8.01,6.506,4.672.16,15.772.082,15.772.082s17.75-36.064,20-45.527,6.8-59.776,6.8-59.776Z" transform="translate(-27.262 -61.797)" fill="#26aab7"/>
            <path id="Trazado_880454" data-name="Trazado 880454" d="M143.338,223.421s-3.068,41.154-6.094,50.234-21.746,48.07-21.746,48.07" transform="translate(-34.074 -65.912)" fill="none" stroke="#263238" stroke-linecap="round" stroke-linejoin="round" stroke-width="2"/>
            <path id="Trazado_880455" data-name="Trazado 880455" d="M102.6,172.528s-1.283,18.62,23.8,16.994c17.216-1.115,26.037-20.949,26.037-20.949s20.715,12.916,32.415,5.455,16.148-42.61,10.3-49.182c-4.134-4.644-17.41-5.113-22.435,1.521-5.328,7.032-3.411,17.544-3.411,17.544s-13.99-12.526-44.629-9.043c-23.484,2.67-33.492,12.688-44.038,22.332-6.071,5.552-29.6,37.507-24.79,55.336,1.583,5.866,14.1,15.352,24.945,3.885,10.267-10.856,21.8-43.893,21.8-43.893" transform="translate(-16.288 -35.805)" fill="#7d6eb2"/>
            <g id="Grupo_1102120" data-name="Grupo 1102120" transform="translate(40.262 89.731)" opacity="0.298" style="isolation: isolate">
              <g id="Grupo_1102119" data-name="Grupo 1102119">
                <g id="Grupo_1102118" data-name="Grupo 1102118" clip-path="url(#clip-path-4)">
                  <path id="Trazado_880456" data-name="Trazado 880456" d="M186.43,127.281a3.529,3.529,0,1,0,3.529,3.528,3.525,3.525,0,0,0-3.529-3.528m-70.021,13.173a3.529,3.529,0,1,0,3.529,3.528,3.544,3.544,0,0,0-3.529-3.528m19.916,0a3.529,3.529,0,1,0,3.529,3.528,3.544,3.544,0,0,0-3.529-3.528m19.916,0a3.529,3.529,0,1,0,3.53,3.528,3.544,3.544,0,0,0-3.53-3.528m19.917,0a3.529,3.529,0,1,0,3.529,3.528,3.545,3.545,0,0,0-3.529-3.528m19.917,0a3.529,3.529,0,1,0,0,7.058,3.45,3.45,0,0,0,1.551-.383c.259-2.052.434-4.01.517-5.934a3.44,3.44,0,0,0-2.068-.742m-96.12,3.889c-1.667.931-3.249,1.9-4.742,2.921a3.563,3.563,0,0,0,1.259.248,3.517,3.517,0,0,0,3.483-3.169m6.812,9.283a3.528,3.528,0,1,0,3.53,3.528,3.526,3.526,0,0,0-3.53-3.528m19.917,0a3.528,3.528,0,1,0,3.529,3.528,3.527,3.527,0,0,0-3.529-3.528m19.916,0a3.528,3.528,0,1,0,3.529,3.528,3.526,3.526,0,0,0-3.529-3.528m19.917,0a3.528,3.528,0,1,0,3.528,3.528,3.526,3.526,0,0,0-3.528-3.528m19.916,0a3.528,3.528,0,1,0,3.529,3.528,3.526,3.526,0,0,0-3.529-3.528m-99.333.044q-1.9,1.673-3.754,3.372c0,.039-.023.073-.023.112a3.529,3.529,0,1,0,3.777-3.484M76.554,166.8a3.53,3.53,0,1,0,3.552,3.528,3.526,3.526,0,0,0-3.552-3.528m19.917,0a3.53,3.53,0,1,0,3.551,3.528,3.526,3.526,0,0,0-3.551-3.528m19.938,0a3.53,3.53,0,1,0,3.529,3.528,3.544,3.544,0,0,0-3.529-3.528m19.916,0a3.53,3.53,0,1,0,3.529,3.528,3.544,3.544,0,0,0-3.529-3.528m19.916,0a3.544,3.544,0,0,0-3.551,3.528,3.341,3.341,0,0,0,.09.428c.021-.046.225-.426.225-.428s2.161,1.279,5.306,2.789a3.474,3.474,0,0,0,1.461-2.789,3.525,3.525,0,0,0-3.53-3.528m19.917,0a3.53,3.53,0,1,0,3.529,3.528,3.545,3.545,0,0,0-3.529-3.528M66.933,179.948a3.5,3.5,0,0,0-1.079.2c-.8,1.387-1.54,2.767-2.293,4.2a3.5,3.5,0,0,0,6.9-.855,3.545,3.545,0,0,0-3.529-3.551m19.917,0a3.54,3.54,0,1,0,3.529,3.551,3.545,3.545,0,0,0-3.529-3.551m19.916,0a3.474,3.474,0,0,0-2.316.9,14.7,14.7,0,0,0,3.935,5.732A3.5,3.5,0,0,0,110.3,183.5a3.546,3.546,0,0,0-3.53-3.551m19.917,0a3.54,3.54,0,1,0,3.529,3.551,3.546,3.546,0,0,0-3.529-3.551m19.916,0a3.545,3.545,0,0,0-3.529,3.551c0,.105.059.191.068.293a40.387,40.387,0,0,0,3.619-3.821c-.054,0-.1-.023-.157-.023M76.554,193.121a3.54,3.54,0,1,0,3.552,3.552,3.546,3.546,0,0,0-3.552-3.552m19.04.18a3.492,3.492,0,0,0-2.653,3.373,3.418,3.418,0,0,0,.405,1.55c.775-1.655,1.533-3.3,2.247-4.923m-36.438.877a61.241,61.241,0,0,0-2.046,5.935,3.508,3.508,0,0,0,3.08-3.439,3.571,3.571,0,0,0-1.034-2.5m7.777,12.115a3.541,3.541,0,1,0,3.529,3.53,3.527,3.527,0,0,0-3.529-3.53m19.917,0a3.53,3.53,0,0,0-1.507,6.722c1.2-1.813,2.4-3.846,3.574-5.979a3.439,3.439,0,0,0-2.068-.743m-10.3,13.173A3.527,3.527,0,0,0,73.025,223c0,.08.039.146.046.225a15.15,15.15,0,0,0,5.8-2.833,3.485,3.485,0,0,0-2.315-.922" transform="translate(-57.11 -127.281)" fill="#fff"/>
                </g>
              </g>
            </g>
            <path id="Trazado_880457" data-name="Trazado 880457" d="M168.236,143.435l-2.768,9.35-6.664-8.064-6.151,10.063-5.585-9.345" transform="translate(-43.387 -42.315)" fill="none" stroke="#fff" stroke-linecap="round" stroke-linejoin="round" stroke-width="2"/>
            <path id="Trazado_880458" data-name="Trazado 880458" d="M192.913,163.241a25.69,25.69,0,0,1,1.212,9.025,33.9,33.9,0,0,1-1.029,6.492" transform="translate(-56.912 -48.158)" fill="none" stroke="#fff" stroke-linecap="round" stroke-linejoin="round" stroke-width="2"/>
            <line id="Línea_1772" data-name="Línea 1772" x1="15.264" y2="9.371" transform="translate(169.99 54.754)" fill="none" stroke="#263238" stroke-linecap="round" stroke-linejoin="round" stroke-width="2"/>
            <line id="Línea_1773" data-name="Línea 1773" x1="31.799" y2="0.859" transform="translate(163.356 79.251)" fill="none" stroke="#263238" stroke-linecap="round" stroke-linejoin="round" stroke-width="2"/>
            <path id="Trazado_880459" data-name="Trazado 880459" d="M217.176,110.053l-8.2.458-1.04-3.7,10.2-6.05" transform="translate(-61.343 -29.725)" fill="none" stroke="#263238" stroke-linecap="round" stroke-linejoin="round" stroke-width="2"/>
            <path id="Trazado_880460" data-name="Trazado 880460" d="M262.442,76.712a14.648,14.648,0,0,1,10.9,10.59c3,10.515-.563,15.059-.563,15.059a20.155,20.155,0,0,1-9.937-11.8c-2.728-8.26-.4-13.847-.4-13.847" transform="translate(-77.152 -22.631)" fill="#263238"/>
            <path id="Trazado_880461" data-name="Trazado 880461" d="M246.711,122.185a20.361,20.361,0,0,0,2.644-4.264,17.2,17.2,0,0,0,1.05-4.826" transform="translate(-72.783 -33.364)" fill="none" stroke="#263238" stroke-linecap="round" stroke-linejoin="round" stroke-width="2"/>
            <path id="Trazado_880462" data-name="Trazado 880462" d="M236.576,114.409a5.892,5.892,0,0,0-3.156-2.266,13.084,13.084,0,0,0-5.006.127s-5.606-6.364-7.766-5.521-.233,5.667,2.594,9a55.306,55.306,0,0,0,6.14,5.706" transform="translate(-64.821 -31.47)" fill="none" stroke="#263238" stroke-linecap="round" stroke-linejoin="round" stroke-width="2"/>
            <path id="Trazado_880463" data-name="Trazado 880463" d="M238.315,90.361a7.915,7.915,0,0,1,2.875,6.547c-.164,2.7-1.594,3.22-3.122,1.444s-2.828-5.415-2.643-6.672S236.7,89.238,238.315,90.361Z" transform="translate(-69.449 -26.525)" fill="none" stroke="#263238" stroke-linecap="round" stroke-linejoin="round" stroke-width="2"/>
            <path id="Trazado_880464" data-name="Trazado 880464" d="M232.206,92.955a9.894,9.894,0,0,1,2.924,8.007c-.475,2.881-2.138,3.43-3.734,1.222s-2.615-7.18-2.269-8.5S230.442,91.434,232.206,92.955Z" transform="translate(-67.576 -27.191)" fill="none" stroke="#263238" stroke-linecap="round" stroke-linejoin="round" stroke-width="2"/>
            <path id="Trazado_880465" data-name="Trazado 880465" d="M225.491,96.021A9.909,9.909,0,0,1,228.048,104c-.324,2.9-2.11,2.422-3.594.137a13.93,13.93,0,0,1-2.044-6.207C222.236,95.818,223.8,94.414,225.491,96.021Z" transform="translate(-65.61 -28.122)" fill="none" stroke="#263238" stroke-linecap="round" stroke-linejoin="round" stroke-width="2"/>
            <path id="Trazado_880466" data-name="Trazado 880466" d="M264.127,87.426s4.647.828,5.729,4.637a9.626,9.626,0,0,1-1.117,7.193" transform="translate(-77.921 -25.792)" fill="none" stroke="#ffc051" stroke-linecap="round" stroke-linejoin="round" stroke-width="2"/>
            <path id="Trazado_880467" data-name="Trazado 880467" d="M169.4,118.117a9.057,9.057,0,1,0-9.24,8.872A9.057,9.057,0,0,0,169.4,118.117Z" transform="translate(-44.631 -32.12)" fill="none" stroke="#263238" stroke-linecap="round" stroke-linejoin="round" stroke-width="2"/>
            <path id="Trazado_880468" data-name="Trazado 880468" d="M159.133,101.453c3.462.61,2.914,4.256,2.914,4.256a3.282,3.282,0,0,1,4.458.615c2.437,2.488-.117,5.769-.117,5.769a17.421,17.421,0,0,0-3.923-3.825,10.058,10.058,0,0,0-4.281-1.4,15.489,15.489,0,0,1-4.756,7.878,9.537,9.537,0,0,1-4.266,2.348c.666,3.1,3.626,6.64,3.626,6.64s-4.9,2.531-7.5-.3c-2.047-2.229-.166-5.2-.166-5.2s-3.994-1-2.987-5.922c.623-3.055,4.3-4.343,4.3-4.343s-.455-3.294,2.1-4.969c3.082-2.019,6.146.526,6.146.526s1.942-2.513,4.449-2.071" transform="translate(-41.884 -29.915)" fill="#263238"/>
            <path id="Trazado_880469" data-name="Trazado 880469" d="M163.254,121.956a1.049,1.049,0,1,0-1.07,1.028,1.05,1.05,0,0,0,1.07-1.028" transform="translate(-47.544 -35.663)" fill="#ff367c"/>
            <path id="Trazado_880470" data-name="Trazado 880470" d="M165.8,118.356a.833.833,0,1,0-.85.816.833.833,0,0,0,.85-.816" transform="translate(-48.421 -34.666)" fill="#263238"/>
            <path id="Trazado_880471" data-name="Trazado 880471" d="M172.906,115.363a.833.833,0,1,0-.85.816.833.833,0,0,0,.85-.816" transform="translate(-50.518 -33.783)" fill="#263238"/>
            <path id="Trazado_880472" data-name="Trazado 880472" d="M169.225,116.229l2.63,3.5-1.949-.025" transform="translate(-49.924 -34.289)" fill="none" stroke="#263238" stroke-linecap="round" stroke-linejoin="round" stroke-width="2"/>
            <path id="Trazado_880473" data-name="Trazado 880473" d="M165.183,126.1a1.787,1.787,0,1,1,2.181,1.279A1.788,1.788,0,0,1,165.183,126.1Z" transform="translate(-48.714 -36.541)" fill="none" stroke="#263238" stroke-linecap="round" stroke-linejoin="round" stroke-width="2"/>
            <path id="Trazado_880474" data-name="Trazado 880474" d="M57.448,253.786a29.437,29.437,0,0,0-11.381,10.3c-2.431,3.838-4.018,7.781-2.557,8.48,1.894.905,4.35-2.513,4.35-2.513l3.655-4.484a39.748,39.748,0,0,0-2.615,5.075c-1.46,3.241-2.121,6.5-.327,7.931,1.778,1.415,3.612-3.712,4.772-5.98a48.686,48.686,0,0,1,2.821-4.673,33.249,33.249,0,0,0-1.668,4.3c-.584,2.405-1.128,7.073,1.655,7.07,1.807,0,2.166-2.529,3.06-5.506,1.445-4.812,3.217-8.142,5.442-8.07,1.767.057,1.514,2.323,2.169,5.011,1.01,4.138,3.149,5.2,4.5,3.3,2.042-2.868-1.275-16.113-1.275-16.113" transform="translate(-12.671 -74.871)" fill="none" stroke="#263238" stroke-linecap="round" stroke-linejoin="round" stroke-width="2"/>
            <path id="Trazado_880475" data-name="Trazado 880475" d="M170.286,398.952c0,2.967-.235,11.114-.235,11.114s34.88,2.118,38.377.416c2.357-1.146-2.983-4.38-8.149-7.368A76.014,76.014,0,0,0,189.59,398.2" transform="translate(-50.168 -117.474)" fill="none" stroke="#263238" stroke-linecap="round" stroke-linejoin="round" stroke-width="2"/>
            <line id="Línea_1774" data-name="Línea 1774" y1="5.16" x2="5.947" transform="translate(140.642 280.583)" fill="none" stroke="#7d6eb2" stroke-linecap="round" stroke-linejoin="round" stroke-width="2"/>
            <line id="Línea_1775" data-name="Línea 1775" y1="5.16" x2="5.947" transform="translate(143.615 281.896)" fill="none" stroke="#7d6eb2" stroke-linecap="round" stroke-linejoin="round" stroke-width="2"/>
          </g>
        </g>
      </g>
    </g>
  </g>
</svg>
