<svg xmlns="http://www.w3.org/2000/svg" width="78.501" height="67.148" viewBox="0 0 78.501 67.148">
  <g id="Grupo_1102534" data-name="Grupo 1102534" transform="translate(-196.999 -25849.92)">
    <g id="Grupo_1102531" data-name="Grupo 1102531">
      <g id="Grupo_1102532" data-name="Grupo 1102532">
        <g id="Grupo_1102530" data-name="Grupo 1102530">
          <path id="_12068" data-name="12068" d="M72.033,71.913c-8.038-1.11-16.53-.839-23.844,2.675C38.045,79.46,31.382,90.507,31.127,101.757s5.606,22.305,14.66,28.988,21,9.051,32.068,7.045c11.165-2.023,21.645-8.583,27.469-18.322,3.735-6.245,5.48-13.956,3.417-20.934a28.6,28.6,0,0,0-6.787-11.156A50.145,50.145,0,0,0,72.033,71.913Z" transform="translate(165.88 25778.588)" fill="#26aab7"/>
        </g>
      </g>
    </g>
    <g id="Grupo_1102533" data-name="Grupo 1102533">
      <g id="Grupo_1102267" data-name="Grupo 1102267" transform="translate(185.043 25854.439)">
        <g id="Grupo_1102267-2" data-name="Grupo 1102267" transform="translate(40.106 44.041)">
          <path id="Trazado_880727" data-name="Trazado 880727" d="M158.205,400.2h33.286l3.183-6.081-3.183-6.085H158.205Z" transform="translate(-158.205 -388.029)" fill="#7d6eb2" fill-rule="evenodd"/>
        </g>
        <g id="Grupo_1102268" data-name="Grupo 1102268" transform="translate(25.837 42.991)">
          <path id="Trazado_880728" data-name="Trazado 880728" d="M46.755,391.994V379.362a.586.586,0,0,0-.587-.584H33.07a.583.583,0,0,0-.584.584v13.1a.587.587,0,0,0,.577.587H46.175a.59.59,0,0,0,.58-.587v-.466Z" transform="translate(-32.486 -378.778)" fill="#f9f7f8" fill-rule="evenodd"/>
        </g>
        <g id="Grupo_1102269" data-name="Grupo 1102269" transform="translate(25.837 21.92)">
          <path id="Trazado_880729" data-name="Trazado 880729" d="M33.07,207.394h13.1a.588.588,0,0,0,.587-.584v-13.1a.589.589,0,0,0-.587-.587H33.07a.586.586,0,0,0-.584.587v13.1A.585.585,0,0,0,33.07,207.394Z" transform="translate(-32.486 -193.125)" fill="#f9f7f8" fill-rule="evenodd"/>
        </g>
        <g id="Grupo_1102270" data-name="Grupo 1102270" transform="translate(40.106 22.97)">
          <path id="Trazado_880730" data-name="Trazado 880730" d="M158.205,202.375v12.17h33.286l3.183-6.085-3.183-6.085Z" transform="translate(-158.205 -202.375)" fill="#75cef8" fill-rule="evenodd"/>
        </g>
        <g id="Grupo_1102271" data-name="Grupo 1102271" transform="translate(40.106 1.901)">
          <path id="Trazado_880731" data-name="Trazado 880731" d="M158.205,28.917h33.286l3.183-6.082-3.183-6.085H158.205Z" transform="translate(-158.205 -16.751)" fill="#aee6e6" fill-rule="evenodd"/>
        </g>
        <g id="Grupo_1102272" data-name="Grupo 1102272" transform="translate(25.837 0.851)">
          <path id="Trazado_880732" data-name="Trazado 880732" d="M46.755,20.716V8.084a.586.586,0,0,0-.587-.584H33.07a.583.583,0,0,0-.584.584v13.1a.586.586,0,0,0,.584.587h13.1a.589.589,0,0,0,.587-.587Z" transform="translate(-32.486 -7.5)" fill="#f9f7f8" fill-rule="evenodd"/>
        </g>
        <g id="Grupo_1102273" data-name="Grupo 1102273" transform="translate(35.378 0.851)">
          <path id="Trazado_880733" data-name="Trazado 880733" d="M117.135,8.55V21.183a.589.589,0,0,1-.587.587h4.141a.589.589,0,0,0,.587-.587V8.084a.586.586,0,0,0-.587-.584h-4.141a.586.586,0,0,1,.587.584Z" transform="translate(-116.548 -7.5)" fill="#dddaec" fill-rule="evenodd"/>
        </g>
        <g id="Grupo_1102274" data-name="Grupo 1102274" transform="translate(35.378 21.92)">
          <path id="Trazado_880734" data-name="Trazado 880734" d="M120.689,193.124h-4.141a.589.589,0,0,1,.587.587v13.1a.588.588,0,0,1-.587.584h4.141a.588.588,0,0,0,.587-.584v-13.1A.589.589,0,0,0,120.689,193.124Z" transform="translate(-116.548 -193.124)" fill="#dddaec" fill-rule="evenodd"/>
        </g>
        <g id="Grupo_1102275" data-name="Grupo 1102275" transform="translate(35.378 42.991)">
          <path id="Trazado_880735" data-name="Trazado 880735" d="M120.689,378.778h-4.141a.586.586,0,0,1,.587.584v13.1a.589.589,0,0,1-.58.587H120.7a.59.59,0,0,0,.58-.587v-13.1A.586.586,0,0,0,120.689,378.778Z" transform="translate(-116.548 -378.778)" fill="#dddaec" fill-rule="evenodd"/>
        </g>
        <g id="Grupo_1102276" data-name="Grupo 1102276" transform="translate(68.214 1.901)">
          <path id="Trazado_880736" data-name="Trazado 880736" d="M405.851,16.751a20.165,20.165,0,0,1,1.18,6.864,20.415,20.415,0,0,1-.688,5.3h4.686l3.183-6.081-3.183-6.085h-5.178Z" transform="translate(-405.851 -16.751)" fill="#aee6e6" fill-rule="evenodd"/>
        </g>
        <g id="Grupo_1102277" data-name="Grupo 1102277" transform="translate(68.214 22.97)">
          <path id="Trazado_880737" data-name="Trazado 880737" d="M405.851,202.375a20.17,20.17,0,0,1,1.18,6.867,20.451,20.451,0,0,1-.688,5.3h4.686l3.183-6.085-3.183-6.085Z" transform="translate(-405.851 -202.375)" fill="#60b7ff" fill-rule="evenodd"/>
        </g>
        <g id="Grupo_1102278" data-name="Grupo 1102278" transform="translate(68.214 44.041)">
          <path id="Trazado_880738" data-name="Trazado 880738" d="M405.851,388.029a20.165,20.165,0,0,1,1.18,6.864,20.434,20.434,0,0,1-.688,5.3h4.686l3.183-6.081-3.183-6.085h-5.178Z" transform="translate(-405.851 -388.029)" fill="#62529b" fill-rule="evenodd"/>
        </g>
        <g id="Grupo_1102279" data-name="Grupo 1102279" transform="translate(24.986 0)">
          <path id="Trazado_880739" data-name="Trazado 880739" d="M26.421,15.972h13.1A1.44,1.44,0,0,0,40.9,14.919H73.392a.852.852,0,0,0,.754-.456l3.183-6.081a.851.851,0,0,0,0-.789L74.147,1.507a.851.851,0,0,0-.754-.457H59.26a.851.851,0,0,0,0,1.7H72.877l2.737,5.233-2.737,5.23H40.958V2.752H55.279a.851.851,0,1,0,0-1.7H40.9A1.439,1.439,0,0,0,39.519,0h-13.1a1.437,1.437,0,0,0-1.435,1.435v13.1a1.438,1.438,0,0,0,1.435,1.438ZM26.689,1.7H39.255V14.27H26.689Z" transform="translate(-24.986 0)"/>
          <path id="Trazado_880740" data-name="Trazado 880740" d="M74.146,187.131a.851.851,0,0,0-.754-.457H40.9a1.44,1.44,0,0,0-1.383-1.05h-13.1a1.438,1.438,0,0,0-1.435,1.438v13.1a1.437,1.437,0,0,0,1.435,1.435h13.1a1.439,1.439,0,0,0,1.384-1.05H73.392a.851.851,0,0,0,.754-.457L77.329,194a.85.85,0,0,0,0-.789ZM39.255,199.894H26.688V187.327H39.255Zm33.622-1.05H40.958V188.377H72.877l2.737,5.233Z" transform="translate(-24.986 -164.556)"/>
          <path id="Trazado_880741" data-name="Trazado 880741" d="M84.119,35.251h-1.34a.851.851,0,1,0,0,1.7h.489v5.413a.851.851,0,0,0,1.7,0V36.1A.851.851,0,0,0,84.119,35.251Z" transform="translate(-75.465 -31.25)"/>
          <path id="Trazado_880742" data-name="Trazado 880742" d="M76.958,226.731c-.527.007-1.083.012-1.575.014.331-.447.765-1.044,1.321-1.84a4.92,4.92,0,0,0,.8-1.654.859.859,0,0,0,.016-.093l.029-.245a.846.846,0,0,0,.006-.1,2.455,2.455,0,0,0-4.863-.473.851.851,0,0,0,1.671.325.752.752,0,0,1,1.488.106l-.016.132a3.35,3.35,0,0,1-.527,1.026c-.995,1.422-1.586,2.194-1.9,2.61-.394.515-.611.8-.47,1.26a.882.882,0,0,0,.571.582,5.006,5.006,0,0,0,1.434.07c.482,0,1.138-.005,2.038-.017a.851.851,0,1,0-.022-1.7Z" transform="translate(-67.264 -195.348)"/>
          <path id="Trazado_880743" data-name="Trazado 880743" d="M76.167,405.869a2.464,2.464,0,0,0-2.41,1.98.851.851,0,1,0,1.67.332.752.752,0,1,1,.74.9.851.851,0,1,0,0,1.7.751.751,0,1,1-.744.865.861.861,0,0,1-.009-.115.851.851,0,1,0-1.7,0,2.531,2.531,0,0,0,.024.341,3.278,3.278,0,1,0,2.431-6Z" transform="translate(-68.182 -359.803)"/>
          <path id="Trazado_880744" data-name="Trazado 880744" d="M192.668,46.722h5.25a.851.851,0,1,0,0-1.7h-5.25a.851.851,0,1,0,0,1.7Z" transform="translate(-172.882 -39.91)"/>
          <path id="Trazado_880745" data-name="Trazado 880745" d="M192.668,83.554h10.672a.851.851,0,1,0,0-1.7H192.668a.851.851,0,0,0,0,1.7Z" transform="translate(-172.882 -72.562)"/>
          <path id="Trazado_880746" data-name="Trazado 880746" d="M192.668,231.14h5.25a.851.851,0,1,0,0-1.7h-5.25a.851.851,0,1,0,0,1.7Z" transform="translate(-172.882 -203.397)"/>
          <path id="Trazado_880747" data-name="Trazado 880747" d="M203.341,266.3H192.668a.851.851,0,1,0,0,1.7h10.672a.851.851,0,1,0,0-1.7Z" transform="translate(-172.882 -236.073)"/>
          <path id="Trazado_880748" data-name="Trazado 880748" d="M192.668,417.943h5.25a.851.851,0,0,0,0-1.7h-5.25a.851.851,0,0,0,0,1.7Z" transform="translate(-172.882 -368.997)"/>
          <path id="Trazado_880749" data-name="Trazado 880749" d="M192.668,454.774h10.672a.851.851,0,1,0,0-1.7H192.668a.851.851,0,0,0,0,1.7Z" transform="translate(-172.882 -401.648)"/>
          <path id="Trazado_880750" data-name="Trazado 880750" d="M74.146,372.786a.851.851,0,0,0-.754-.457H59.26a.851.851,0,0,0,0,1.7H72.877l2.737,5.233-2.737,5.23H40.958V374.031H55.279a.851.851,0,0,0,0-1.7H40.9a1.439,1.439,0,0,0-1.384-1.05h-13.1a1.437,1.437,0,0,0-1.435,1.435v13.1a1.438,1.438,0,0,0,1.435,1.438h13.1A1.44,1.44,0,0,0,40.9,386.2H73.392a.852.852,0,0,0,.754-.456l3.183-6.082a.851.851,0,0,0,0-.789ZM39.255,385.548H26.688V372.981H39.255Z" transform="translate(-24.986 -329.139)"/>
        </g>
      </g>
    </g>
  </g>
</svg>
