<svg xmlns="http://www.w3.org/2000/svg" width="132" height="132.108" viewBox="0 0 132 132.108">
  <g id="Grupo_1102432" data-name="Grupo 1102432" transform="translate(-736 -2436)">
    <g id="Grupo_1102428" data-name="Grupo 1102428" transform="translate(-315 -24.736)">
      <g id="Grupo_1102404" data-name="Grupo 1102404" transform="translate(658.667 149.711)">
        <path id="_12068" data-name="12068" d="M96.789,72.265c-12.9-1.782-26.531-1.346-38.272,4.293-16.282,7.82-26.975,25.551-27.385,43.609s9,35.8,23.53,46.529,33.7,14.528,51.472,11.308c17.921-3.248,34.743-13.777,44.091-29.409,5.994-10.023,8.8-22.4,5.485-33.6-2-6.76-6.086-12.75-10.894-17.906A80.487,80.487,0,0,0,96.789,72.265Z" transform="translate(364.214 2264.021)" fill="#26aab7"/>
      </g>
      <g id="escuchando" transform="translate(1062.667 2477.354)">
        <g id="Grupo_1102425" data-name="Grupo 1102425" transform="translate(26.274 1.546)">
          <g id="Grupo_1102415" data-name="Grupo 1102415" transform="translate(46.366 32.456)">
            <path id="Trazado_880891" data-name="Trazado 880891" d="M5,39v4.637l1.546.108a21.394,21.394,0,0,1,11.746,4.513A18.331,18.331,0,0,0,20.455,39.6V22a4.644,4.644,0,0,1-4.637,4.637H14.258A13.553,13.553,0,0,1,5,39Z" transform="translate(-5 -22)" fill="#b27946"/>
          </g>
          <g id="Grupo_1102416" data-name="Grupo 1102416" transform="translate(18.546)">
            <path id="Trazado_880892" data-name="Trazado 880892" d="M11.306,22.637a10.253,10.253,0,0,0-.124,1.546l2.581-.649a30.734,30.734,0,0,1,7.31-.9h2.736a15.862,15.862,0,0,0,9.289-3l5.827,1.947a4.623,4.623,0,0,1,3.168,4.389V28.82h1.546a4.63,4.63,0,0,1,4.637,4.637V22.637A21.637,21.637,0,1,0,5,22.637Z" transform="translate(-5 -1)" fill="#b27946"/>
          </g>
          <g id="Grupo_1102417" data-name="Grupo 1102417" transform="translate(12.117 54.093)">
            <path id="Trazado_880893" data-name="Trazado 880893" d="M13.612,53h5.811a14.642,14.642,0,0,1,6.553,1.546A14.642,14.642,0,0,1,32.529,53H44.522V74.638h3.091a9.281,9.281,0,0,0,9.273-9.273V57.7A21.648,21.648,0,0,0,36.794,36.108L35.249,36l-.077.232a6.448,6.448,0,0,1-6.1,4.4,6.38,6.38,0,0,1-3.756-1.221,6.527,6.527,0,0,1-2.349-3.184L22.885,36H22.1A31.617,31.617,0,0,0,1,44.052l1.685,8.439a4.619,4.619,0,0,1,.108,1.035v.247l4.637,2.318V54.546A1.55,1.55,0,0,1,8.975,53Z" transform="translate(-1 -36)" fill="#fcd770"/>
          </g>
          <g id="Grupo_1102418" data-name="Grupo 1102418" transform="translate(37.093 71.094)">
            <path id="Trazado_880894" data-name="Trazado 880894" d="M9,48.546V68.637H21.364a6.182,6.182,0,1,1,0-12.364h6.182V47H15.553A14.642,14.642,0,0,0,9,48.546Z" transform="translate(-9 -47)" fill="#e6e9ed"/>
          </g>
          <g id="Grupo_1102419" data-name="Grupo 1102419" transform="translate(18.546 71.094)">
            <path id="Trazado_880895" data-name="Trazado 880895" d="M21,56.273V67.092a1.55,1.55,0,0,0,1.546,1.546h17V48.546A14.642,14.642,0,0,0,32.993,47H22.546A1.55,1.55,0,0,0,21,48.546v7.728Z" transform="translate(-21 -47)" fill="#e6e9ed"/>
          </g>
          <g id="Grupo_1102420" data-name="Grupo 1102420" transform="translate(43.275 80.367)">
            <path id="Trazado_880896" data-name="Trazado 880896" d="M10.808,54.808a6.186,6.186,0,0,0,4.374,10.556h6.182V53H15.182A6.221,6.221,0,0,0,10.808,54.808Z" transform="translate(-9 -53)" fill="#f0d0b4"/>
          </g>
          <g id="Grupo_1102421" data-name="Grupo 1102421" transform="translate(0 34.002)">
            <path id="Trazado_880897" data-name="Trazado 880897" d="M45.364,32.551V29.182a6.192,6.192,0,0,0-.989-3.354,5.784,5.784,0,0,0-.819-1.02A6.186,6.186,0,0,0,33,29.182v32.6a10.677,10.677,0,0,0,16.6,8.887l1.947-1.3V63.184L46.91,60.865v-.247a4.619,4.619,0,0,0-.108-1.035l-1.685-8.439-1.3-6.507a10.46,10.46,0,0,0,4.637-8.67V33.819a1.55,1.55,0,0,0-1.546-1.546Z" transform="translate(-33 -23)" fill="#f0d0b4"/>
          </g>
          <g id="Grupo_1102422" data-name="Grupo 1102422" transform="translate(9.273 21.637)">
            <path id="Trazado_880898" data-name="Trazado 880898" d="M44.135,16.546A10.253,10.253,0,0,1,44.259,15H37.953a9.273,9.273,0,1,0,0,18.546H44.63a13.213,13.213,0,0,1-.495-3.586V16.546Z" transform="translate(-28.68 -15)" fill="#f0d0b4"/>
          </g>
          <g id="Grupo_1102423" data-name="Grupo 1102423" transform="translate(24.728 18.639)">
            <path id="Trazado_880899" data-name="Trazado 880899" d="M9,26.877v4.142A13.213,13.213,0,0,0,9.495,34.6a13.567,13.567,0,0,0,8.779,9.273v4.637l.077.232A6.527,6.527,0,0,0,20.7,51.93a6.38,6.38,0,0,0,3.756,1.221,6.448,6.448,0,0,0,6.1-4.4l.077-.232V43.878A13.553,13.553,0,0,0,39.9,31.514c.015-.17.015-.325.015-.495V19.4a4.623,4.623,0,0,0-3.168-4.389L30.916,13.06a15.862,15.862,0,0,1-9.289,3H18.891a30.734,30.734,0,0,0-7.31.9L9,17.6Z" transform="translate(-9 -13.06)" fill="#f0d0b4"/>
          </g>
          <g id="Grupo_1102424" data-name="Grupo 1102424" transform="translate(55.624 27.82)">
            <path id="Trazado_880900" data-name="Trazado 880900" d="M5.015,27.779c0,.17,0,.325-.015.495H6.561a4.637,4.637,0,1,0,0-9.273H5.015Z" transform="translate(-5 -19)" fill="#f0d0b4"/>
          </g>
        </g>
        <g id="Grupo_1102426" data-name="Grupo 1102426">
          <circle id="Elipse_12040" data-name="Elipse 12040" cx="1.606" cy="1.606" r="1.606" transform="translate(70.93 27.569)"/>
          <circle id="Elipse_12041" data-name="Elipse 12041" cx="1.606" cy="1.606" r="1.606" transform="translate(58.885 27.569)"/>
          <path id="Trazado_880901" data-name="Trazado 880901" d="M16.658,26.344l1.753-.876A14.708,14.708,0,0,1,17.349,20H20.44a11.6,11.6,0,0,0,1.219,5.165l.855,1.708L18.04,29.109Z" transform="translate(47.563 10.911)"/>
          <path id="Trazado_880902" data-name="Trazado 880902" d="M18.033,26.88a3.456,3.456,0,0,0,6.182,0l.162-.326,2.765,1.383-.162.325a6.547,6.547,0,0,1-11.712,0l-.162-.326,2.765-1.383Z" transform="translate(45.333 14.485)"/>
          <path id="Trazado_880903" data-name="Trazado 880903" d="M39.728,17v3.091H38.182a3.091,3.091,0,1,0,0,6.182h1.546v3.091H38.182a6.182,6.182,0,1,1,0-12.364Z" transform="translate(6.638 9.274)"/>
          <path id="Trazado_880904" data-name="Trazado 880904" d="M7.728,34a7.707,7.707,0,0,1,1.7.2,10.684,10.684,0,0,1-.155-1.748A10.826,10.826,0,0,1,18.619,21.75a23.168,23.168,0,0,1,46.293,1.433v28.43a20,20,0,0,1-1.825,8.247,23.173,23.173,0,0,1,8.007,17.472V85A10.833,10.833,0,0,1,60.276,95.823H21.637a3.094,3.094,0,0,1-3.091-3.091V84.755A12.182,12.182,0,0,1,0,74.328v-32.6A7.736,7.736,0,0,1,7.728,34ZM18.546,46.366v2.156a11.923,11.923,0,0,1-4.474,9.326l.6,3.017A33.141,33.141,0,0,1,34,54.1V52.073a15.06,15.06,0,0,1-8.338-8.8h-5.57a10.75,10.75,0,0,1-4.637-1.059v1.057A3.094,3.094,0,0,1,18.546,46.366Zm17.489,3.171,1.057.351v5.5a4.887,4.887,0,0,0,9.273,0v-5.5l1.057-.352a12,12,0,0,0,8.216-11.4V26.524a3.086,3.086,0,0,0-2.114-2.932l-5.148-1.717A17.459,17.459,0,0,1,38.9,24.728H36.165a28.65,28.65,0,0,0-6.935.853l-1.411.354v12.2a12.005,12.005,0,0,0,8.216,11.4ZM12.364,32.456a7.736,7.736,0,0,0,7.728,7.728h4.79a15.206,15.206,0,0,1-.153-2.048v-3.02l-3.579-1.193.978-2.932,2.6.865V24.728H20.092a7.736,7.736,0,0,0-7.728,7.728ZM41.729,3.091A20.106,20.106,0,0,0,21.716,21.637H25.15A11.477,11.477,0,0,1,31.113,14.4l.652-.326,1.383,2.765-.652.326a8.4,8.4,0,0,0-4.429,5.524l.417-.1a31.689,31.689,0,0,1,7.681-.946H38.9a14.446,14.446,0,0,0,12.324-6.978l2.651,1.59a17.228,17.228,0,0,1-2.62,3.326L54.5,20.659a6.178,6.178,0,0,1,4.227,5.865v1.3a6.119,6.119,0,0,1,3.091.859v-5.5A20.115,20.115,0,0,0,41.729,3.091ZM61.821,34a3.094,3.094,0,0,0-3.091-3.091v6.182A3.094,3.094,0,0,0,61.821,34Zm0,17.611V39.324a6.118,6.118,0,0,1-3.091.859h-.153a15.075,15.075,0,0,1-9.12,11.888V54.2l.105.008a22.96,22.96,0,0,1,11,3.749A16.893,16.893,0,0,0,61.821,51.613ZM55.639,92.732V83.459H51a4.637,4.637,0,1,0,0,9.273ZM45.185,74.185a13.134,13.134,0,0,0-5,1.017V92.732h4.677A7.648,7.648,0,0,1,43.275,88.1,7.736,7.736,0,0,1,51,80.367h4.637V74.185ZM21.637,92.732H37.093V75.2a13.134,13.134,0,0,0-5-1.017H21.637Zm3.091-21.637v-.906a3.706,3.706,0,0,0-1.093-2.638l2.185-2.185a6.776,6.776,0,0,1,2,4.824v.906h4.272a16.282,16.282,0,0,1,6.547,1.385,16.282,16.282,0,0,1,6.547-1.385H55.7a6.739,6.739,0,0,1,1.937-4.184L59.823,69.1a3.708,3.708,0,0,0-1.093,2.638v8.633h.906a6.776,6.776,0,0,1,4.824,2l-2.185,2.185a3.709,3.709,0,0,0-2.638-1.093H58.73v9.273h1.546A7.736,7.736,0,0,0,68,85V77.332A20.166,20.166,0,0,0,49.343,57.29l-.423-.031A7.945,7.945,0,0,1,34.512,57.2a30.057,30.057,0,0,0-19.151,7.1l1.507,7.533c.039.2.037.4.059.6l1.763.881a3.086,3.086,0,0,1,2.947-2.207ZM3.091,74.328a9.131,9.131,0,0,0,14.2,7.6l1.26-.839v-4.4l-1.929-.964A6.742,6.742,0,0,1,15,78.369l-2.185-2.185a3.708,3.708,0,0,0,1.093-2.638v-.383a3.746,3.746,0,0,0-.073-.731L10.646,56.472l.862-.573a8.849,8.849,0,0,0,3.947-7.377V46.366a3.094,3.094,0,0,0-3.091,3.091v.64l-2,2L8.18,49.91l1.128-1.13a6.179,6.179,0,0,1,3.056-4.66V41.729a4.637,4.637,0,1,0-9.273,0Z" transform="translate(24.728)"/>
          <path id="Trazado_880905" data-name="Trazado 880905" d="M45.685,20.7a7.968,7.968,0,0,1,5.456-7.57l.238-.079.975,2.933-.236.079a4.888,4.888,0,0,0,0,9.273l.238.079-.975,2.933-.24-.08A7.965,7.965,0,0,1,45.685,20.7Z" transform="translate(-27.139 7.12)"/>
          <path id="Trazado_880906" data-name="Trazado 880906" d="M47.724,23.434A15.954,15.954,0,0,1,59.246,8.158l.417-.119.852,2.972-.419.119a12.8,12.8,0,0,0,0,24.608l.417.119-.852,2.972-.416-.119A15.953,15.953,0,0,1,47.724,23.434Z" transform="translate(-38.451 4.386)"/>
          <path id="Trazado_880907" data-name="Trazado 880907" d="M64.469,4.1l1.751-.972,1.5,2.7L65.969,6.8a22.1,22.1,0,0,0,0,38.629l1.751.972-1.5,2.7-1.751-.972a25.185,25.185,0,0,1,0-44.032Z" transform="translate(-51.514 1.705)"/>
        </g>
      </g>
    </g>
    <rect id="Rectángulo_401745" data-name="Rectángulo 401745" width="132" height="132" transform="translate(736 2436)" fill="none"/>
  </g>
</svg>
