<svg xmlns="http://www.w3.org/2000/svg" width="67" height="62.547" viewBox="0 0 67 62.547">
  <g id="Grupo_1102530" data-name="Grupo 1102530" transform="translate(-180 -11672.897)">
    <g id="Grupo_1100170" data-name="Grupo 1100170" transform="translate(0 7926.109)">
      <path id="_12068" data-name="12068" d="M66.039,71.828c-6.861-.947-14.108-.716-20.351,2.283C37.03,78.27,31.344,87.7,31.126,97.3s4.784,19.038,12.512,24.741a35.81,35.81,0,0,0,27.37,6.013c9.53-1.727,18.474-7.326,23.445-15.638,3.187-5.33,4.677-11.911,2.916-17.867a24.409,24.409,0,0,0-5.793-9.521A42.8,42.8,0,0,0,66.039,71.828Z" transform="translate(148.881 3680.691)" fill="#26aab7"/>
      <path id="Trazado_873155" data-name="Trazado 873155" d="M303.26,44.546a1.582,1.582,0,1,0-.106-2.456A1.573,1.573,0,0,0,303.26,44.546Z" transform="translate(138.287 4055.916) rotate(-90)" fill="#7d6eb2"/>
      <path id="Trazado_873156" data-name="Trazado 873156" d="M321.56,66.974a3.448,3.448,0,1,0-1.687-4.918A3.468,3.468,0,0,0,321.56,66.974Z" transform="translate(128.241 4079.581) rotate(-90)" fill="#ffd947"/>
      <circle id="Elipse_11521" data-name="Elipse 11521" cx="3.689" cy="3.689" r="3.689" transform="translate(237.702 3796.368) rotate(-90)" fill="none" stroke="#fff" stroke-linecap="round" stroke-linejoin="round" stroke-width="1.5"/>
    </g>
    <g id="Grupo_1102145" data-name="Grupo 1102145" transform="translate(191.099 11676.692)" opacity="0.1">
      <path id="Trazado_880540" data-name="Trazado 880540" d="M111.134,102.108a7.2,7.2,0,1,0-7.164-7.881h-2.539a.78.78,0,0,0,.12-.938l-6.468-11.2a.78.78,0,0,0-1.169-.214l-5.512,4.5V78.948h6.79A1.309,1.309,0,0,0,96.5,77.639V69a1.309,1.309,0,0,0-1.309-1.309H86.554A1.309,1.309,0,0,0,85.245,69v8.238h-6.79a1.309,1.309,0,0,0-1.309,1.309v8.638a1.309,1.309,0,0,0,1.309,1.309H85.8L79.16,93.907a3.132,3.132,0,0,0-.334.321H75.607a.712.712,0,0,0-.712.712v16.177H70.182a.654.654,0,0,0-.654.654v9.789a.654.654,0,0,0,.654.654H77.41a.654.654,0,0,0,.654-.654v-5.906H86.2v4.29l-1.221,1.827a.285.285,0,0,0,.237.443H96.358a.285.285,0,0,0,.237-.443l-1.221-1.827v-4.29h8.132v5.906a.654.654,0,0,0,.654.654h7.228a.654.654,0,0,0,.654-.654v-9.789a.654.654,0,0,0-.654-.654h-4.714V100.558a7.163,7.163,0,0,0,4.459,1.55Z" transform="translate(-69.528 -67.692)" fill="#0000cb"/>
      <path id="Trazado_880541" data-name="Trazado 880541" d="M309.988,196.446a.654.654,0,0,0,.894.239l1.4-.811a.654.654,0,0,0-.654-1.133l-1.4.811A.654.654,0,0,0,309.988,196.446Z" transform="translate(-278.445 -178.04)" fill="#0000cb"/>
      <path id="Trazado_880542" data-name="Trazado 880542" d="M297.115,177.911a.654.654,0,0,0,.894-.239l.811-1.4a.654.654,0,0,0-1.133-.654l-.811,1.4A.654.654,0,0,0,297.115,177.911Z" transform="translate(-267.049 -161.206)" fill="#0000cb"/>
      <path id="Trazado_880543" data-name="Trazado 880543" d="M316.843,219.621a.654.654,0,0,0,0,1.309h1.622a.654.654,0,1,0,0-1.309Z" transform="translate(-283.911 -199.74)" fill="#0000cb"/>
      <path id="Trazado_880544" data-name="Trazado 880544" d="M332.941,101.351h8.638a1.309,1.309,0,0,0,1.309-1.309V91.4a1.309,1.309,0,0,0-1.309-1.309h-8.638a1.309,1.309,0,0,0-1.309,1.309v8.638A1.309,1.309,0,0,0,332.941,101.351Z" transform="translate(-297.333 -87.163)" fill="#0000cb"/>
    </g>
    <g id="Grupo_1102152" data-name="Grupo 1102152" transform="translate(225.507 11693.573)">
      <g id="Grupo_1102146" data-name="Grupo 1102146">
        <circle id="Elipse_12014" data-name="Elipse 12014" cx="7.197" cy="7.197" r="7.197" fill="#fff"/>
        <circle id="Elipse_12015" data-name="Elipse 12015" cx="5.038" cy="5.038" r="5.038" transform="translate(2.159 2.159)" fill="#7d6eb2"/>
      </g>
      <path id="Trazado_880545" data-name="Trazado 880545" d="M387.461,251.678h0l0,0Z" transform="translate(-380.262 -244.478)" fill="#b2b2ff"/>
      <g id="Grupo_1102151" data-name="Grupo 1102151" transform="translate(5.023 4.264)">
        <g id="Grupo_1102148" data-name="Grupo 1102148">
          <g id="Grupo_1102147" data-name="Grupo 1102147">
            <path id="Trazado_880546" data-name="Trazado 880546" d="M373.035,233.621a2.174,2.174,0,1,1,2.174-2.174A2.176,2.176,0,0,1,373.035,233.621Zm0-3.039a.865.865,0,1,0,.865.865A.866.866,0,0,0,373.035,230.582Z" transform="translate(-370.861 -229.273)" fill="#fff"/>
          </g>
        </g>
        <g id="Grupo_1102150" data-name="Grupo 1102150" transform="translate(0 3.039)">
          <g id="Grupo_1102149" data-name="Grupo 1102149">
            <path id="Trazado_880547" data-name="Trazado 880547" d="M374.555,255.327a.654.654,0,0,1-.654-.654.865.865,0,0,0-1.731,0,.654.654,0,1,1-1.309,0,2.174,2.174,0,0,1,4.348,0A.654.654,0,0,1,374.555,255.327Z" transform="translate(-370.861 -252.499)" fill="#fff"/>
          </g>
        </g>
      </g>
    </g>
    <g id="Grupo_1102180" data-name="Grupo 1102180" transform="translate(191.098 11700.085)">
      <g id="Grupo_1102160" data-name="Grupo 1102160" transform="translate(5.368)">
        <g id="Grupo_1102159" data-name="Grupo 1102159">
          <g id="Grupo_1102158" data-name="Grupo 1102158">
            <g id="Grupo_1102157" data-name="Grupo 1102157">
              <path id="Trazado_880548" data-name="Trazado 880548" d="M196.906,410.209h9.177v4.29h-9.177Z" transform="translate(-185.605 -388.781)" fill="#aee6e6"/>
              <path id="Trazado_880549" data-name="Trazado 880549" d="M142.328,247.172v16.891l-15.889.654-15.889-.654V247.172a.712.712,0,0,1,.712-.712h30.355a.711.711,0,0,1,.711.712Z" transform="translate(-110.55 -246.46)" fill="#aee6e6"/>
              <g id="Grupo_1102155" data-name="Grupo 1102155" transform="translate(23.549 11.233)">
                <g id="Grupo_1102153" data-name="Grupo 1102153" transform="translate(1.997)">
                  <path id="Trazado_880550" data-name="Trazado 880550" d="M308.379,333.607h-1.96a.654.654,0,0,1,0-1.309h1.96a.654.654,0,0,1,0,1.309Z" transform="translate(-305.765 -332.298)" fill="#fff"/>
                </g>
                <g id="Grupo_1102154" data-name="Grupo 1102154" transform="translate(0 2.331)">
                  <path id="Trazado_880551" data-name="Trazado 880551" d="M295.115,351.42h-3.957a.654.654,0,0,1,0-1.309h3.957a.654.654,0,0,1,0,1.309Z" transform="translate(-290.503 -350.111)" fill="#fff"/>
                </g>
              </g>
              <g id="Grupo_1102156" data-name="Grupo 1102156" transform="translate(0 17.603)">
                <path id="Trazado_880552" data-name="Trazado 880552" d="M141.614,384.8H111.259a.712.712,0,0,1-.712-.712v-3.114h31.779v3.114A.712.712,0,0,1,141.614,384.8Z" transform="translate(-110.547 -380.976)" fill="#fff"/>
                <path id="Trazado_880553" data-name="Trazado 880553" d="M198.635,445.264H187.49a.285.285,0,0,1-.237-.443l1.221-1.827h9.177l1.221,1.827A.285.285,0,0,1,198.635,445.264Z" transform="translate(-177.173 -434.878)" fill="#fff"/>
              </g>
            </g>
          </g>
        </g>
      </g>
      <g id="Grupo_1102179" data-name="Grupo 1102179" transform="translate(0 16.89)">
        <g id="Grupo_1102169" data-name="Grupo 1102169">
          <g id="Grupo_1102168" data-name="Grupo 1102168">
            <path id="Trazado_880554" data-name="Trazado 880554" d="M77.408,386.63H70.18a.654.654,0,0,1-.654-.654v-9.789a.654.654,0,0,1,.654-.654h7.228a.654.654,0,0,1,.654.654v9.789A.654.654,0,0,1,77.408,386.63Z" transform="translate(-69.526 -375.533)" fill="#7d6eb2"/>
            <g id="Grupo_1102167" data-name="Grupo 1102167" transform="translate(1.699 2.297)">
              <g id="Grupo_1102163" data-name="Grupo 1102163" transform="translate(0.883)">
                <g id="Grupo_1102161" data-name="Grupo 1102161">
                  <path id="Trazado_880555" data-name="Trazado 880555" d="M89.905,394.413a.654.654,0,0,1-.654-.654v-.015a.654.654,0,1,1,1.309,0v.015A.654.654,0,0,1,89.905,394.413Z" transform="translate(-89.251 -393.089)" fill="#fff"/>
                </g>
                <g id="Grupo_1102162" data-name="Grupo 1102162" transform="translate(2.066)">
                  <path id="Trazado_880556" data-name="Trazado 880556" d="M105.69,394.413a.654.654,0,0,1-.654-.654v-.015a.654.654,0,0,1,1.309,0v.015A.654.654,0,0,1,105.69,394.413Z" transform="translate(-105.036 -393.089)" fill="#fff"/>
                </g>
              </g>
              <g id="Grupo_1102166" data-name="Grupo 1102166" transform="translate(0 2.986)">
                <g id="Grupo_1102164" data-name="Grupo 1102164">
                  <path id="Trazado_880557" data-name="Trazado 880557" d="M86.991,417.217H83.16a.654.654,0,1,1,0-1.309h3.831a.654.654,0,1,1,0,1.309Z" transform="translate(-82.506 -415.908)" fill="#fff"/>
                </g>
                <g id="Grupo_1102165" data-name="Grupo 1102165" transform="translate(0 2.208)">
                  <path id="Trazado_880558" data-name="Trazado 880558" d="M86.991,434.089H83.16a.654.654,0,1,1,0-1.309h3.831a.654.654,0,0,1,0,1.309Z" transform="translate(-82.506 -432.78)" fill="#fff"/>
                </g>
              </g>
            </g>
          </g>
        </g>
        <g id="Grupo_1102178" data-name="Grupo 1102178" transform="translate(33.978)">
          <g id="Grupo_1102177" data-name="Grupo 1102177">
            <path id="Trazado_880559" data-name="Trazado 880559" d="M337.061,386.63h-7.228a.654.654,0,0,1-.654-.654v-9.789a.654.654,0,0,1,.654-.654h7.228a.654.654,0,0,1,.654.654v9.789A.654.654,0,0,1,337.061,386.63Z" transform="translate(-329.179 -375.533)" fill="#7d6eb2"/>
            <g id="Grupo_1102176" data-name="Grupo 1102176" transform="translate(1.699 2.297)">
              <g id="Grupo_1102172" data-name="Grupo 1102172" transform="translate(0.882)">
                <g id="Grupo_1102170" data-name="Grupo 1102170">
                  <path id="Trazado_880560" data-name="Trazado 880560" d="M349.557,394.413a.654.654,0,0,1-.654-.654v-.015a.654.654,0,0,1,1.309,0v.015A.654.654,0,0,1,349.557,394.413Z" transform="translate(-348.903 -393.089)" fill="#fff"/>
                </g>
                <g id="Grupo_1102171" data-name="Grupo 1102171" transform="translate(2.066)">
                  <path id="Trazado_880561" data-name="Trazado 880561" d="M365.342,394.413a.654.654,0,0,1-.654-.654v-.015a.654.654,0,0,1,1.309,0v.015A.654.654,0,0,1,365.342,394.413Z" transform="translate(-364.688 -393.089)" fill="#fff"/>
                </g>
              </g>
              <g id="Grupo_1102175" data-name="Grupo 1102175" transform="translate(0 2.986)">
                <g id="Grupo_1102173" data-name="Grupo 1102173">
                  <path id="Trazado_880562" data-name="Trazado 880562" d="M346.645,417.217h-3.831a.654.654,0,1,1,0-1.309h3.831a.654.654,0,1,1,0,1.309Z" transform="translate(-342.16 -415.908)" fill="#fff"/>
                </g>
                <g id="Grupo_1102174" data-name="Grupo 1102174" transform="translate(0 2.208)">
                  <path id="Trazado_880563" data-name="Trazado 880563" d="M346.645,434.089h-3.831a.654.654,0,0,1,0-1.309h3.831a.654.654,0,0,1,0,1.309Z" transform="translate(-342.16 -432.78)" fill="#fff"/>
                </g>
              </g>
            </g>
          </g>
        </g>
      </g>
    </g>
    <g id="Grupo_1102181" data-name="Grupo 1102181" transform="translate(206.815 11673.552)">
      <path id="Trazado_880564" data-name="Trazado 880564" d="M199.583,54.948h-8.638a1.309,1.309,0,0,1-1.309-1.309V45a1.309,1.309,0,0,1,1.309-1.309h8.638A1.309,1.309,0,0,1,200.892,45v8.638A1.309,1.309,0,0,1,199.583,54.948Z" transform="translate(-189.636 -43.692)" fill="#7d6eb2"/>
      <path id="Trazado_880565" data-name="Trazado 880565" d="M214.045,72.326V68.732a.636.636,0,0,1,.921-.569l3.595,1.8a.636.636,0,0,1,0,1.138l-3.595,1.8A.636.636,0,0,1,214.045,72.326Z" transform="translate(-210.851 -64.901)" fill="#fff"/>
    </g>
    <g id="Grupo_1102183" data-name="Grupo 1102183" transform="translate(199.582 11687.556)">
      <path id="Trazado_880566" data-name="Trazado 880566" d="M186.185,283.206l-1.531.884a.78.78,0,0,1-1.066-.286l-2.814-4.875,2.882-1.664,2.814,4.875a.78.78,0,0,1-.286,1.066Z" transform="translate(-174.7 -260.705)" fill="#fff"/>
      <path id="Trazado_880567" data-name="Trazado 880567" d="M157.5,163.426l-17.8,6.76a3.121,3.121,0,0,1-3.811-1.357l-1.113-1.927a3.121,3.121,0,0,1,.73-3.979L150.26,150.89a.78.78,0,0,1,1.169.214l6.468,11.2A.78.78,0,0,1,157.5,163.426Z" transform="translate(-134.358 -150.714)" fill="#fff"/>
      <g id="Grupo_1102182" data-name="Grupo 1102182" transform="translate(0)">
        <path id="Trazado_880568" data-name="Trazado 880568" d="M253.514,163.425l-1.744.662-6.939-12.019,1.446-1.179a.779.779,0,0,1,1.169.213l6.468,11.2A.78.78,0,0,1,253.514,163.425Z" transform="translate(-230.374 -150.712)" fill="#aee6e6"/>
        <path id="Trazado_880569" data-name="Trazado 880569" d="M139.108,221.579l-3.6,2.937a3.121,3.121,0,0,0-.73,3.979l1.112,1.927a3.121,3.121,0,0,0,3.811,1.357l4.343-1.65Z" transform="translate(-134.359 -212.305)" fill="#7d6eb2"/>
      </g>
    </g>
    <g id="Grupo_1102186" data-name="Grupo 1102186" transform="translate(198.717 11683.099)">
      <g id="Grupo_1102184" data-name="Grupo 1102184">
        <path id="Trazado_880570" data-name="Trazado 880570" d="M137.693,127.9h-8.638a1.309,1.309,0,0,1-1.309-1.309v-8.638a1.309,1.309,0,0,1,1.309-1.309h8.638A1.309,1.309,0,0,1,139,117.956v8.638A1.309,1.309,0,0,1,137.693,127.9Z" transform="translate(-127.746 -116.647)" fill="#aee6e6"/>
        <path id="Trazado_880571" data-name="Trazado 880571" d="M139,122.274v-4.319a1.309,1.309,0,0,0-1.309-1.309h-8.638a1.309,1.309,0,0,0-1.309,1.309v4.319Z" transform="translate(-127.746 -116.646)" fill="#fff"/>
      </g>
      <path id="Trazado_880584" data-name="Trazado 880584" d="M3.035,0A3.035,3.035,0,1,1,0,3.035,3.035,3.035,0,0,1,3.035,0Z" transform="translate(2.593 2.593)" fill="#7d6eb2"/>
      <circle id="Elipse_12017" data-name="Elipse 12017" cx="1.645" cy="1.645" r="1.645" transform="translate(3.983 3.983)" fill="#fff"/>
      <g id="Grupo_1102185" data-name="Grupo 1102185" transform="translate(8.409 8.207)">
        <path id="Trazado_880572" data-name="Trazado 880572" d="M192.662,180.683a.654.654,0,0,1-.654-.654v-.015a.654.654,0,1,1,1.309,0v.015A.654.654,0,0,1,192.662,180.683Z" transform="translate(-192.008 -179.359)" fill="#fff"/>
      </g>
    </g>
    <g id="Grupo_1102192" data-name="Grupo 1102192" transform="translate(190.444 11672.897)">
      <g id="Grupo_1102190" data-name="Grupo 1102190">
        <path id="Trazado_880573" data-name="Trazado 880573" d="M341.579,77.351h-8.638a1.309,1.309,0,0,1-1.309-1.309V67.4a1.309,1.309,0,0,1,1.309-1.309h8.638a1.309,1.309,0,0,1,1.309,1.309v8.638A1.309,1.309,0,0,1,341.579,77.351Z" transform="translate(-296.679 -62.509)" fill="#fff"/>
        <g id="Grupo_1102189" data-name="Grupo 1102189">
          <g id="Grupo_1102187" data-name="Grupo 1102187" transform="translate(13.059 26.484)">
            <path id="Trazado_880574" data-name="Trazado 880574" d="M164.979,243.557a.654.654,0,0,1-.328-1.221l2.024-1.169a.654.654,0,1,1,.654,1.133l-2.024,1.169A.65.65,0,0,1,164.979,243.557Z" transform="translate(-164.324 -241.079)" fill="#12263f"/>
          </g>
          <g id="Grupo_1102188" data-name="Grupo 1102188">
            <path id="Trazado_880575" data-name="Trazado 880575" d="M106.786,74.416a7.852,7.852,0,1,0-7.735-9.189H97.958a1.428,1.428,0,0,0-.188-.611L91.3,53.415a1.434,1.434,0,0,0-2.15-.395l-4.444,3.624V51.256h6.136a1.965,1.965,0,0,0,1.963-1.963V40.655a1.965,1.965,0,0,0-1.963-1.963H82.206a1.965,1.965,0,0,0-1.963,1.963v4.188a.654.654,0,0,0,1.309,0V40.655A.655.655,0,0,1,82.206,40h8.639a.655.655,0,0,1,.654.654v8.639a.655.655,0,0,1-.654.654H84.691a1.965,1.965,0,0,0-1.945-1.709H74.108A1.965,1.965,0,0,0,72.145,50.2V58.84A1.965,1.965,0,0,0,74.108,60.8h5.5L74.4,65.054c-.068.056-.133.114-.2.173H71.26a1.368,1.368,0,0,0-1.366,1.366V82.116h-4.06a1.31,1.31,0,0,0-1.309,1.309v9.789a1.31,1.31,0,0,0,1.309,1.309h7.228a1.31,1.31,0,0,0,1.309-1.309V83.425a1.31,1.31,0,0,0-1.309-1.309H71.2V66.593a.057.057,0,0,1,.058-.058h2.032a3.764,3.764,0,0,0,.223,3.33l1.114,1.927a3.763,3.763,0,0,0,4.61,1.641l.671-.255,2.077,3.6a1.438,1.438,0,0,0,1.961.526l1.528-.883A1.434,1.434,0,0,0,86,74.459l-1.7-2.947,12.736-4.838a1.445,1.445,0,0,0,.273-.139h4.306a.056.056,0,0,1,.056.058V82.116h-1.86A1.31,1.31,0,0,0,98.5,83.425v3.229H77.747a.654.654,0,0,0,0,1.309h3.448V91.4l-1.111,1.662a.939.939,0,0,0,.781,1.461H92.011a.939.939,0,0,0,.781-1.461L91.68,91.4V87.963H98.5v5.251a1.31,1.31,0,0,0,1.309,1.309h7.228a1.31,1.31,0,0,0,1.309-1.309V83.425a1.31,1.31,0,0,0-1.309-1.309h-4.06V73.435a7.767,7.767,0,0,0,3.805.981Zm-33.723,18.8H65.835V83.425h7.228Zm8.493,0,.642-.961h8.478l.642.961Zm8.815-2.27H82.5V87.963h7.868Zm16.67,2.27H99.812V83.425h7.228ZM73.453,58.84V50.2a.655.655,0,0,1,.654-.654h8.638a.655.655,0,0,1,.654.654V58.84a.655.655,0,0,1-.654.654H74.107A.655.655,0,0,1,73.453,58.84Zm5.321,13.372a2.458,2.458,0,0,1-3.012-1.072l-1.113-1.927a2.458,2.458,0,0,1,.577-3.144L81.681,60.8h1.065a1.965,1.965,0,0,0,1.963-1.963v-.507l5.272-4.3a.126.126,0,0,1,.189.035l6.467,11.2a.121.121,0,0,1,.01.1.129.129,0,0,1-.026.043h0a.123.123,0,0,1-.048.033l-13.429,5.1h0Zm6.094,2.9a.125.125,0,0,1,.013.1.123.123,0,0,1-.06.076l-1.528.883a.126.126,0,0,1-.174-.046L81.148,72.71l1.913-.727Zm16.748-9.885h-1.235a6.543,6.543,0,1,1,2.6,6.66V66.593A1.367,1.367,0,0,0,101.616,65.227Z" transform="translate(-64.526 -38.692)" fill="#12263f"/>
            <path id="Trazado_880576" data-name="Trazado 880576" d="M174.079,258.664a.654.654,0,1,0,.654,1.133l2.024-1.169a.654.654,0,1,0-.654-1.133Z" transform="translate(-159.459 -228.786)" fill="#12263f"/>
            <path id="Trazado_880577" data-name="Trazado 880577" d="M309.988,172.445a.654.654,0,0,0,.894.239l1.4-.811a.654.654,0,0,0-.654-1.133l-1.4.811A.654.654,0,0,0,309.988,172.445Z" transform="translate(-277.791 -153.384)" fill="#12263f"/>
            <path id="Trazado_880578" data-name="Trazado 880578" d="M297.115,153.911a.654.654,0,0,0,.894-.239l.811-1.4a.654.654,0,0,0-1.133-.654l-.811,1.4A.654.654,0,0,0,297.115,153.911Z" transform="translate(-266.394 -136.551)" fill="#12263f"/>
            <path id="Trazado_880579" data-name="Trazado 880579" d="M316.843,195.621a.654.654,0,0,0,0,1.309h1.622a.654.654,0,1,0,0-1.309Z" transform="translate(-283.257 -175.085)" fill="#12263f"/>
            <path id="Trazado_880580" data-name="Trazado 880580" d="M328.595,73.659h8.638A1.965,1.965,0,0,0,339.2,71.7V63.058a1.965,1.965,0,0,0-1.963-1.963h-8.638a1.965,1.965,0,0,0-1.963,1.963V71.7A1.965,1.965,0,0,0,328.595,73.659Zm-.654-10.6a.655.655,0,0,1,.654-.654h8.638a.655.655,0,0,1,.654.654V71.7a.655.655,0,0,1-.654.654h-8.638a.655.655,0,0,1-.654-.654Z" transform="translate(-292.333 -58.163)" fill="#12263f"/>
          </g>
        </g>
      </g>
    </g>
    <g id="Grupo_1102193" data-name="Grupo 1102193" transform="translate(227.757 11678.981)">
      <path id="Trazado_880581" data-name="Trazado 880581" d="M355.548,86.5H350.32a.654.654,0,1,1,0-1.309h5.227a.654.654,0,1,1,0,1.309Z" transform="translate(-349.666 -85.194)" fill="#7d6eb2"/>
    </g>
    <g id="Grupo_1102194" data-name="Grupo 1102194" transform="translate(227.757 11681.456)">
      <path id="Trazado_880582" data-name="Trazado 880582" d="M355.548,105.411H350.32a.654.654,0,1,1,0-1.309h5.227a.654.654,0,1,1,0,1.309Z" transform="translate(-349.666 -104.102)" fill="#7d6eb2"/>
    </g>
    <g id="Grupo_1102195" data-name="Grupo 1102195" transform="translate(227.757 11683.931)">
      <path id="Trazado_880583" data-name="Trazado 880583" d="M355.548,124.319H350.32a.654.654,0,1,1,0-1.309h5.227a.654.654,0,1,1,0,1.309Z" transform="translate(-349.666 -123.01)" fill="#7d6eb2"/>
    </g>
  </g>
</svg>
