<svg xmlns="http://www.w3.org/2000/svg" width="67" height="64.838" viewBox="0 0 67 64.838">
  <g id="Grupo_1102531" data-name="Grupo 1102531" transform="translate(-426.213 -19783.826)">
    <g id="Grupo_1100170" data-name="Grupo 1100170" transform="translate(246.213 16033.674)">
      <path id="_12068" data-name="12068" d="M66.039,71.828c-6.861-.947-14.108-.716-20.351,2.283C37.03,78.27,31.344,87.7,31.126,97.3s4.784,19.038,12.512,24.741a35.81,35.81,0,0,0,27.37,6.013c9.53-1.727,18.474-7.326,23.445-15.638,3.187-5.33,4.677-11.911,2.916-17.867a24.409,24.409,0,0,0-5.793-9.521A42.8,42.8,0,0,0,66.039,71.828Z" transform="translate(148.881 3680.691)" fill="#26aab7"/>
      <path id="Trazado_873155" data-name="Trazado 873155" d="M303.26,44.546a1.582,1.582,0,1,0-.106-2.456A1.573,1.573,0,0,0,303.26,44.546Z" transform="translate(138.287 4055.916) rotate(-90)" fill="#7d6eb2"/>
      <path id="Trazado_873156" data-name="Trazado 873156" d="M321.56,66.974a3.448,3.448,0,1,0-1.687-4.918A3.468,3.468,0,0,0,321.56,66.974Z" transform="translate(128.241 4079.581) rotate(-90)" fill="#ffd947"/>
      <circle id="Elipse_11521" data-name="Elipse 11521" cx="3.689" cy="3.689" r="3.689" transform="translate(237.702 3796.368) rotate(-90)" fill="none" stroke="#fff" stroke-linecap="round" stroke-linejoin="round" stroke-width="1.5"/>
    </g>
    <g id="Grupo_1102219" data-name="Grupo 1102219" transform="translate(422.205 19780.576)">
      <g id="Grupo_1102218" data-name="Grupo 1102218" transform="translate(9.152 9.064)">
        <g id="Grupo_1102216" data-name="Grupo 1102216" transform="translate(0 0)">
          <path id="Trazado_880615" data-name="Trazado 880615" d="M46.74,20.041a20.81,20.81,0,0,1,6.094,2.526l3.96-1.759,4.667,4.667L59.7,29.434a20.809,20.809,0,0,1,2.527,6.1l4.04,1.555v6.6l-4.041,1.555A20.811,20.811,0,0,1,59.7,51.333l1.759,3.96-4.667,4.667L52.835,58.2a20.805,20.805,0,0,1-6.1,2.527l-1.555,4.04h-6.6l-1.555-4.041A20.812,20.812,0,0,1,30.936,58.2l-3.96,1.759-4.667-4.667,1.758-3.958a20.81,20.81,0,0,1-2.527-6.1L17.5,43.684v-6.6l4.04-1.555a20.809,20.809,0,0,1,2.526-6.094L22.31,25.475l4.667-4.667,3.96,1.759a20.814,20.814,0,0,1,6.094-2.526L38.585,16h6.6Z" transform="translate(-17.501 -16)" fill="#aee6e6" fill-rule="evenodd"/>
          <path id="Trazado_880616" data-name="Trazado 880616" d="M95.354,58.2l-3.96,1.759-.61-.61L94.5,57.7q.423.26.857.5Zm15.8-38.16a20.81,20.81,0,0,1,6.094,2.526l-1.126.5a27.45,27.45,0,0,0-6.95-3.026L107.621,16H109.6Zm6.095,38.16a20.806,20.806,0,0,1-6.1,2.527l-1.555,4.04h-1.982l1.555-4.04a27.44,27.44,0,0,0,6.952-3.027ZM90.785,21.418l.61-.61,3.96,1.759q-.434.24-.857.5Zm29.054,0,1.373-.61,4.667,4.667-1.758,3.958a20.809,20.809,0,0,1,2.527,6.1l4.04,1.555v6.6l-4.041,1.555a20.811,20.811,0,0,1-2.526,6.094l1.759,3.96-4.667,4.667-1.373-.61,4.057-4.057-1.759-3.96a20.81,20.81,0,0,0,2.526-6.094l4.041-1.555v-6.6l-4.04-1.555a20.809,20.809,0,0,0-2.527-6.1l1.758-3.958Z" transform="translate(-81.919 -16)" fill="#aee6e6" fill-rule="evenodd"/>
          <circle id="Elipse_12018" data-name="Elipse 12018" cx="12.93" cy="12.93" r="12.93" transform="translate(8.83 14.764) rotate(-13.3)" fill="#eceff1"/>
          <path id="Trazado_880617" data-name="Trazado 880617" d="M125.112,110.68a12.93,12.93,0,0,0,0,25.859q.519,0,1.028-.041a12.93,12.93,0,0,1,0-25.778Q125.632,110.681,125.112,110.68Z" transform="translate(-100.729 -99.226)" fill="#d1d1d6" fill-rule="evenodd"/>
        </g>
        <g id="Grupo_1102217" data-name="Grupo 1102217" transform="translate(24.04 24.438)">
          <circle id="Elipse_12019" data-name="Elipse 12019" cx="15.171" cy="15.171" r="15.171" transform="translate(0 3.289)" fill="#7d6eb2"/>
          <path id="Trazado_880618" data-name="Trazado 880618" d="M337.22,245.192a15.171,15.171,0,1,1,0,30.342c-.2,0-.4-.005-.6-.013a15.17,15.17,0,0,0,0-30.316c.2-.008.4-.013.6-.013Z" transform="translate(-322.049 -241.902)" fill="#fd4755" fill-rule="evenodd"/>
          <circle id="Elipse_12020" data-name="Elipse 12020" cx="9.749" cy="9.749" r="9.749" transform="translate(5.422 8.712)" fill="#eceff1"/>
          <path id="Trazado_880619" data-name="Trazado 880619" d="M270.778,290.011c.2,0,.4.007.6.019a9.749,9.749,0,0,0,0,19.46c-.2.012-.4.019-.6.019a9.749,9.749,0,0,1,0-19.5Z" transform="translate(-255.607 -281.299)" fill="#d1d1d6" fill-rule="evenodd"/>
          <circle id="Elipse_12021" data-name="Elipse 12021" cx="4.327" cy="4.327" r="4.327" transform="translate(9.535 16.112) rotate(-22.514)" fill="#62529b"/>
          <path id="Trazado_880620" data-name="Trazado 880620" d="M310.175,334.829a4.355,4.355,0,0,1,.6.042,4.327,4.327,0,0,0,0,8.569,4.327,4.327,0,1,1-.6-8.612Z" transform="translate(-295.004 -320.695)" fill="#7d6eb2" fill-rule="evenodd"/>
          <path id="Trazado_880621" data-name="Trazado 880621" d="M412.144,223.791l-5.422,5.422a.354.354,0,0,1-.333.1l-4.253-.917a.356.356,0,0,1-.278-.278l-.917-4.253a.354.354,0,0,1,.1-.333l5.422-5.422a.363.363,0,0,1,.611.18l.818,3.8a.356.356,0,0,0,.278.278l3.8.818a.363.363,0,0,1,.18.611Z" transform="translate(-378.584 -218.001)" fill="#aee6e6" fill-rule="evenodd"/>
          <path id="Trazado_880622" data-name="Trazado 880622" d="M418.409,261.213l-5.422,5.422a.354.354,0,0,1-.333.1l-4.253-.917a.356.356,0,0,1-.278-.278l-.063-.293,4.231.912a.354.354,0,0,0,.333-.1l5.422-5.422a.386.386,0,0,0,.052-.064l.132.029a.363.363,0,0,1,.18.611Z" transform="translate(-384.849 -255.423)" fill="#c48958" fill-rule="evenodd"/>
        </g>
      </g>
      <path id="Trazado_880623" data-name="Trazado 880623" d="M65.1,39.379l-2.424-.522-4.4,4.4,2.423.522ZM36.878,8.109a.968.968,0,0,1,.679.594l1.375,3.571a21.732,21.732,0,0,1,5.437,2.255l3.5-1.555a.968.968,0,0,1,1.078.2l4.667,4.667a.968.968,0,0,1,.2,1.077l-1.554,3.5a21.727,21.727,0,0,1,2.255,5.439l3.571,1.374a.969.969,0,0,1,.62.9V31.61a.968.968,0,1,1-1.936,0V30.8L53.35,29.482a.964.964,0,0,1-.594-.679,19.8,19.8,0,0,0-2.41-5.812.969.969,0,0,1-.06-.9l1.489-3.351-3.727-3.727L44.7,16.5a.969.969,0,0,1-.9-.06,19.793,19.793,0,0,0-5.81-2.408.964.964,0,0,1-.679-.594l-1.318-3.421h-5.27L29.4,13.439a.97.97,0,0,1-.679.594,19.8,19.8,0,0,0-5.81,2.408.969.969,0,0,1-.9.06L18.66,15.013,14.932,18.74l1.489,3.352a.971.971,0,0,1-.06.9A19.777,19.777,0,0,0,13.953,28.8a.971.971,0,0,1-.594.679L9.938,30.8V36.07l3.419,1.316a.969.969,0,0,1,.594.679,19.787,19.787,0,0,0,2.41,5.812.97.97,0,0,1,.06.9l-1.489,3.351,3.727,3.727,3.352-1.489a.969.969,0,0,1,.9.06,19.8,19.8,0,0,0,5.81,2.408.968.968,0,0,1,.679.594l1.359,3.528a.968.968,0,0,1-.444,1.828h-.263a.966.966,0,0,1-.9-.62l-1.375-3.572a21.712,21.712,0,0,1-5.437-2.254l-3.5,1.554a.965.965,0,0,1-1.076-.2l-4.668-4.667a.968.968,0,0,1-.2-1.077l1.555-3.5a21.694,21.694,0,0,1-2.255-5.439L8.622,37.637a.966.966,0,0,1-.619-.9v-6.6a.967.967,0,0,1,.619-.9l3.571-1.375a21.7,21.7,0,0,1,2.255-5.438l-1.555-3.5a.968.968,0,0,1,.2-1.077l4.668-4.667a.966.966,0,0,1,1.076-.2l3.5,1.555a21.717,21.717,0,0,1,5.437-2.255L29.151,8.7a.966.966,0,0,1,.679-.594h7.048Zm25.506,43.84a14.2,14.2,0,1,1-8.027-12.793,1,1,0,0,0,.021.2l.9,4.16-.215.216a10.721,10.721,0,1,0,1.366,1.371l.219-.219,4.159.9a.95.95,0,0,0,.187.021,14.231,14.231,0,0,1,1.394,6.142Zm-8.7-6.836a8.8,8.8,0,1,0,1.365,1.373l-2.49,2.489A5.3,5.3,0,1,1,51.2,47.6Zm-2.532,5.27-2.268,2.268a.968.968,0,0,1-1.37-1.369L49.792,49a3.36,3.36,0,1,0,1.359,1.379Zm5.23-10.914,4.4-4.4.523,2.424-4.4,4.4Zm11.343.023-5.151,5.151a16.138,16.138,0,1,1-7.041-7.063l5.14-5.14a.968.968,0,0,1,1.631.481l.633,2.939.3-.3a.968.968,0,0,1,1.369,1.369l-.3.3,2.939.633a.967.967,0,0,1,.481,1.63ZM32.708,38.366,39.7,29.72A.968.968,0,1,0,38.2,28.5l-6.317,7.809-3.435-3.435a.968.968,0,0,0-1.369,1.369l4.2,4.2a.97.97,0,0,0,.685.283h.051A.969.969,0,0,0,32.708,38.366Zm-2.145,6.7a11.963,11.963,0,1,1,14.75-11.811.967.967,0,0,0,.967.953h.014a.966.966,0,0,0,.953-.981,13.9,13.9,0,1,0-24.756,8.876,13.966,13.966,0,0,0,7.622,4.845.958.958,0,0,0,.226.027.968.968,0,0,0,.224-1.909Z" fill="#242222" fill-rule="evenodd"/>
    </g>
  </g>
</svg>
