<svg xmlns="http://www.w3.org/2000/svg" width="67" height="61.305" viewBox="0 0 67 61.305">
  <g id="Grupo_1102532" data-name="Grupo 1102532" transform="translate(-285 -24469.245)">
    <g id="Grupo_1102531" data-name="Grupo 1102531">
      <g id="Grupo_1100170" data-name="Grupo 1100170" transform="translate(105 20719.094)">
        <path id="_12068" data-name="12068" d="M66.039,71.828c-6.861-.947-14.108-.716-20.351,2.283C37.03,78.27,31.344,87.7,31.126,97.3s4.784,19.038,12.512,24.741a35.81,35.81,0,0,0,27.37,6.013c9.53-1.727,18.474-7.326,23.445-15.638,3.187-5.33,4.677-11.911,2.916-17.867a24.409,24.409,0,0,0-5.793-9.521A42.8,42.8,0,0,0,66.039,71.828Z" transform="translate(148.881 3680.691)" fill="#26aab7"/>
        <path id="Trazado_873155" data-name="Trazado 873155" d="M303.26,44.546a1.582,1.582,0,1,0-.106-2.456A1.573,1.573,0,0,0,303.26,44.546Z" transform="translate(138.287 4055.916) rotate(-90)" fill="#7d6eb2"/>
        <path id="Trazado_873156" data-name="Trazado 873156" d="M321.56,66.974a3.448,3.448,0,1,0-1.687-4.918A3.468,3.468,0,0,0,321.56,66.974Z" transform="translate(128.241 4079.581) rotate(-90)" fill="#ffd947"/>
        <circle id="Elipse_11521" data-name="Elipse 11521" cx="3.689" cy="3.689" r="3.689" transform="translate(237.702 3796.368) rotate(-90)" fill="none" stroke="#fff" stroke-linecap="round" stroke-linejoin="round" stroke-width="1.5"/>
      </g>
      <g id="Grupo_1102238" data-name="Grupo 1102238" transform="translate(289 24475.871)">
        <g id="Grupo_1102236" data-name="Grupo 1102236" transform="translate(0.764 3.989)">
          <path id="Trazado_880644" data-name="Trazado 880644" d="M271.149,22.861V14.082a3.355,3.355,0,0,1,3.355-3.355h17.034a3.355,3.355,0,0,1,3.355,3.355V30.534a3.355,3.355,0,0,1-3.355,3.355h-9.361a4.194,4.194,0,0,1-2.965-1.228l-6.834-6.834A4.193,4.193,0,0,1,271.149,22.861Z" transform="translate(-244.309 -10.727)" fill="#aee6e6"/>
          <path id="Trazado_880645" data-name="Trazado 880645" d="M271.148,123.595v-.716a2.454,2.454,0,0,0,2.454,2.454h3.482a3.355,3.355,0,0,1,3.355,3.355v3.482a2.454,2.454,0,0,0,2.454,2.454h-.716a4.2,4.2,0,0,1-2.966-1.228l-6.834-6.834A4.2,4.2,0,0,1,271.148,123.595Z" transform="translate(-244.308 -111.462)" fill="#26aab7"/>
          <path id="Trazado_880646" data-name="Trazado 880646" d="M271.149,285.779V277a3.355,3.355,0,0,1,3.355-3.355h17.034A3.355,3.355,0,0,1,294.894,277v16.452a3.355,3.355,0,0,1-3.355,3.355h-9.361a4.194,4.194,0,0,1-2.965-1.228l-6.834-6.834A4.193,4.193,0,0,1,271.149,285.779Z" transform="translate(-244.309 -246.879)" fill="#7d6eb2"/>
          <path id="Trazado_880647" data-name="Trazado 880647" d="M271.148,386.513V385.8a2.454,2.454,0,0,0,2.454,2.454h3.482a3.355,3.355,0,0,1,3.355,3.355v3.482a2.454,2.454,0,0,0,2.454,2.454h-.716a4.2,4.2,0,0,1-2.966-1.228l-6.834-6.834A4.2,4.2,0,0,1,271.148,386.513Z" transform="translate(-244.308 -347.614)" fill="#62529b"/>
          <path id="Trazado_880648" data-name="Trazado 880648" d="M7.5,22.861V14.082a3.355,3.355,0,0,1,3.355-3.355H27.89a3.355,3.355,0,0,1,3.355,3.355V30.534a3.355,3.355,0,0,1-3.355,3.355H18.529a4.194,4.194,0,0,1-2.965-1.228L8.729,25.827A4.194,4.194,0,0,1,7.5,22.861Z" transform="translate(-7.501 -10.727)" fill="#f9f6f9"/>
          <path id="Trazado_880649" data-name="Trazado 880649" d="M7.5,123.595v-.716a2.454,2.454,0,0,0,2.454,2.454h3.482a3.355,3.355,0,0,1,3.355,3.355v3.482a2.454,2.454,0,0,0,2.454,2.454h-.716a4.2,4.2,0,0,1-2.966-1.228l-6.834-6.834A4.2,4.2,0,0,1,7.5,123.595Z" transform="translate(-7.5 -111.462)" fill="#dddaec"/>
          <g id="Grupo_1102234" data-name="Grupo 1102234" transform="translate(9.566 3.866)">
            <path id="Trazado_880650" data-name="Trazado 880650" d="M106.113,58.959a1.738,1.738,0,0,1-1.373-.673l-2.906-3.749a1.738,1.738,0,0,1,2.747-2.13l1.3,1.683,2.546-4.508a1.738,1.738,0,0,1,3.027,1.709l-3.831,6.784a1.738,1.738,0,0,1-1.387.879Q106.176,58.959,106.113,58.959Z" transform="translate(-101.469 -48.699)" fill="#7d6eb2"/>
          </g>
          <g id="Grupo_1102235" data-name="Grupo 1102235" transform="translate(38.081 4.894)">
            <path id="Trazado_880651" data-name="Trazado 880651" d="M388.73,63.408l1.521-1.521a1.81,1.81,0,1,0-2.559-2.559l-1.521,1.521-1.521-1.521a1.81,1.81,0,1,0-2.559,2.559l1.521,1.521-1.521,1.521a1.81,1.81,0,1,0,2.559,2.559l1.521-1.521,1.521,1.521a1.81,1.81,0,1,0,2.559-2.559Z" transform="translate(-381.56 -58.799)" fill="#7d6eb2"/>
          </g>
        </g>
        <g id="Grupo_1102237" data-name="Grupo 1102237" transform="translate(0 3.225)">
          <path id="Trazado_880652" data-name="Trazado 880652" d="M271.931,26.462a5.055,5.055,0,0,0,.478.419,4.918,4.918,0,0,0,3.027,1.033H284.8a4.123,4.123,0,0,0,4.118-4.119V7.344A4.123,4.123,0,0,0,284.8,3.225H282.68a.764.764,0,0,0,0,1.527H284.8a2.594,2.594,0,0,1,2.591,2.592V23.8a2.594,2.594,0,0,1-2.591,2.592h-8.645a1.692,1.692,0,0,1-1.69-1.69V21.215a4.123,4.123,0,0,0-4.118-4.118h-3.482a1.692,1.692,0,0,1-1.69-1.69s0,0,0-.006V7.344a2.6,2.6,0,0,1,2.592-2.592h11.883a.764.764,0,0,0,0-1.527H267.763a4.124,4.124,0,0,0-4.119,4.119v8.779A4.919,4.919,0,0,0,265,19.531c.031.032,6.927,6.932,6.927,6.932Zm-1.587-7.839a2.594,2.594,0,0,1,2.591,2.591V24.7a3.22,3.22,0,0,0,.073.683l-6.83-6.83a3.222,3.222,0,0,0,.683.073h3.482Z" transform="translate(-236.804 -3.225)"/>
          <path id="Trazado_880653" data-name="Trazado 880653" d="M284.8,266.145H267.766a4.123,4.123,0,0,0-4.119,4.119v8.778a4.994,4.994,0,0,0,.123,1.1,4.914,4.914,0,0,0,1.176,2.247c.05.054.1.108.153.161l6.834,6.834c.039.039.079.076.118.113a4.922,4.922,0,0,0,3.387,1.339H284.8a4.123,4.123,0,0,0,4.119-4.119V270.264A4.123,4.123,0,0,0,284.8,266.145ZM273.011,288.3l-6.83-6.83a3.216,3.216,0,0,0,.683.073h3.482a2.594,2.594,0,0,1,2.591,2.591v3.482A3.209,3.209,0,0,0,273.011,288.3Zm14.381-1.585a2.6,2.6,0,0,1-2.592,2.592h-8.645a1.692,1.692,0,0,1-1.69-1.69v-3.482a4.123,4.123,0,0,0-4.118-4.118h-3.482a1.692,1.692,0,0,1-1.69-1.686v-8.066a2.6,2.6,0,0,1,2.592-2.592H284.8a2.6,2.6,0,0,1,2.592,2.592v16.452Z" transform="translate(-236.807 -239.379)"/>
          <path id="Trazado_880654" data-name="Trazado 880654" d="M21.153,3.225H4.119A4.124,4.124,0,0,0,0,7.344v8.778a4.92,4.92,0,0,0,1.4,3.455l.048.051,6.834,6.834A4.925,4.925,0,0,0,11.6,27.91c.063,0,1.473,0,1.473,0a.764.764,0,1,0,0-1.527h-.568a1.692,1.692,0,0,1-1.69-1.69V21.215A4.123,4.123,0,0,0,6.7,17.1H3.217a1.692,1.692,0,0,1-1.69-1.682V7.344A2.6,2.6,0,0,1,4.119,4.752H21.153a2.6,2.6,0,0,1,2.592,2.592V23.8a2.6,2.6,0,0,1-2.592,2.592H16.128a.764.764,0,0,0,0,1.527h5.025A4.124,4.124,0,0,0,25.272,23.8V7.344a4.124,4.124,0,0,0-4.119-4.119ZM6.7,18.623a2.594,2.594,0,0,1,2.591,2.591V24.7a3.219,3.219,0,0,0,.073.682L2.534,18.55a3.217,3.217,0,0,0,.683.073Z" transform="translate(0 -3.225)"/>
          <path id="Trazado_880655" data-name="Trazado 880655" d="M101.563,51.723l3.831-6.784a2.5,2.5,0,0,0-4.356-2.46l-1.981,3.508-.6-.775A2.5,2.5,0,0,0,94.5,48.277l2.906,3.749a2.519,2.519,0,0,0,1.977.969c.06,0,.121,0,.182-.007a2.5,2.5,0,0,0,2-1.265Zm-2.107-.258a.982.982,0,0,1-.842-.375l-2.906-3.749a.974.974,0,0,1,1.54-1.194l1.3,1.683a.764.764,0,0,0,1.268-.092l2.546-4.508a.974.974,0,1,1,1.7.958l-3.831,6.784a.972.972,0,0,1-.777.493Z" transform="translate(-84.411 -37.341)"/>
          <path id="Trazado_880656" data-name="Trazado 880656" d="M384.065,52.063a2.576,2.576,0,0,0-3.639,0l-.981.981-.981-.981a2.573,2.573,0,1,0-3.639,3.639l.981.981-.981.981a2.573,2.573,0,0,0,3.639,3.639l.981-.981.981.981a2.573,2.573,0,0,0,3.639-3.639l-.981-.981.981-.981a2.576,2.576,0,0,0,0-3.639Zm-1.08,2.559-1.52,1.521a.763.763,0,0,0,0,1.08l1.521,1.521a1.046,1.046,0,1,1-1.479,1.48L379.985,58.7a.764.764,0,0,0-1.08,0l-1.521,1.521a1.046,1.046,0,0,1-1.479-1.48l1.521-1.521a.763.763,0,0,0,0-1.08L375.9,54.623a1.046,1.046,0,0,1,1.48-1.48l1.521,1.521a.764.764,0,0,0,1.08,0l1.521-1.521a1.046,1.046,0,1,1,1.479,1.48Z" transform="translate(-335.991 -46.415)"/>
          <path id="Trazado_880657" data-name="Trazado 880657" d="M356.142,312.608H344.39a.764.764,0,1,0,0,1.527h11.753a.764.764,0,0,0,0-1.527Z" transform="translate(-308.644 -281.112)"/>
          <path id="Trazado_880658" data-name="Trazado 880658" d="M352.232,350.155H344.39a.764.764,0,1,0,0,1.527h7.842a.764.764,0,0,0,0-1.527Z" transform="translate(-308.644 -314.836)"/>
        </g>
      </g>
    </g>
  </g>
</svg>
