<svg xmlns="http://www.w3.org/2000/svg" width="245" height="59.857" viewBox="0 0 245 59.857">
  <g id="Grupo_1102018" data-name="Grupo 1102018" transform="translate(-180 -12927.838)">
    <path id="Trazado_880187" data-name="Trazado 880187" d="M0,0H176a41,41,0,0,1,41,41v1H0Z" transform="translate(208 12937.687)" fill="#aee6e6"/>
    <text id="Estrategias" transform="translate(267 12965.366)" fill="#12263f" font-size="20" font-family="Roboto-Black, Roboto" font-weight="800"><tspan x="0" y="0">Estrategias</tspan></text>
    <g id="Grupo_1100170" data-name="Grupo 1100170" transform="translate(0 9177.686)">
      <path id="_12068" data-name="12068" d="M66.039,71.828c-6.861-.947-14.108-.716-20.351,2.283C37.03,78.27,31.344,87.7,31.126,97.3s4.784,19.038,12.512,24.741a35.81,35.81,0,0,0,27.37,6.013c9.53-1.727,18.474-7.326,23.445-15.638,3.187-5.33,4.677-11.911,2.916-17.867a24.409,24.409,0,0,0-5.793-9.521A42.8,42.8,0,0,0,66.039,71.828Z" transform="translate(148.881 3680.691)" fill="#26aab7"/>
      <path id="Trazado_873155" data-name="Trazado 873155" d="M303.26,44.546a1.582,1.582,0,1,0-.106-2.456A1.573,1.573,0,0,0,303.26,44.546Z" transform="translate(138.287 4055.916) rotate(-90)" fill="#7d6eb2"/>
      <path id="Trazado_873156" data-name="Trazado 873156" d="M321.56,66.974a3.448,3.448,0,1,0-1.687-4.918A3.468,3.468,0,0,0,321.56,66.974Z" transform="translate(128.241 4079.581) rotate(-90)" fill="#ffd947"/>
      <circle id="Elipse_11521" data-name="Elipse 11521" cx="3.689" cy="3.689" r="3.689" transform="translate(237.702 3796.368) rotate(-90)" fill="none" stroke="#fff" stroke-linecap="round" stroke-linejoin="round" stroke-width="1.5"/>
    </g>
    <g id="Grupo_1102233" data-name="Grupo 1102233" transform="translate(159.424 12929.678)">
      <path id="Trazado_880624" data-name="Trazado 880624" d="M341.622,132h-5.468A9.287,9.287,0,0,1,332,135.615v6.009a.687.687,0,0,0,.688.688h8.937a.687.687,0,0,0,.688-.687v-8.937A.687.687,0,0,0,341.622,132Z" transform="translate(-269.31 -117.041)" fill="#aee6e6"/>
      <g id="Grupo_1102220" data-name="Grupo 1102220" transform="translate(62.688 15.725)">
        <path id="Trazado_880625" data-name="Trazado 880625" d="M335.625,147.629v-8.857A9.28,9.28,0,0,1,332,141.62v6.009a.687.687,0,0,0,.688.688h3.626A.688.688,0,0,1,335.625,147.629Z" transform="translate(-331.999 -138.772)" fill="#26aab7"/>
      </g>
      <g id="Grupo_1102231" data-name="Grupo 1102231" transform="translate(29.12 0.85)">
        <path id="Trazado_880626" data-name="Trazado 880626" d="M107.728,273.3l1.942-5.285a13.271,13.271,0,0,1-12.614,0L99,273.3Z" transform="translate(-90.112 -238.493)" fill="#fff0ad"/>
        <path id="Trazado_880627" data-name="Trazado 880627" d="M103.774,273.3l-1.369-3.725a13.169,13.169,0,0,1-5.346-1.559L99,273.3Z" transform="translate(-90.113 -238.493)" fill="#ffe177"/>
        <path id="Trazado_880628" data-name="Trazado 880628" d="M126,393.588v1.768a1.7,1.7,0,0,0,1.7,1.7h2.655a1.7,1.7,0,0,0,1.7-1.7v-1.768Z" transform="translate(-115.775 -349.837)" fill="#02c7dd"/>
        <path id="Trazado_880629" data-name="Trazado 880629" d="M128.833,395.356v-1.768H126v1.768a1.7,1.7,0,0,0,1.7,1.7h2.655c.03,0,.059,0,.089,0A1.7,1.7,0,0,1,128.833,395.356Z" transform="translate(-115.775 -349.837)" fill="#07b2cd"/>
        <path id="Trazado_880630" data-name="Trazado 880630" d="M113.43,362.995v3.013a.567.567,0,0,0,.567.567h7.77a.567.567,0,0,0,.567-.567v-3.013Z" transform="translate(-104.63 -322.711)" fill="#a6e7f0"/>
        <path id="Trazado_880631" data-name="Trazado 880631" d="M116.263,366.008V363H113.43v3.013a.567.567,0,0,0,.567.567h2.833A.567.567,0,0,1,116.263,366.008Z" transform="translate(-104.63 -322.711)" fill="#6bd9e7"/>
        <path id="Trazado_880632" data-name="Trazado 880632" d="M56.367,52.834A9.269,9.269,0,0,1,56.64,50.6a13.252,13.252,0,1,0,5.633,10.858,9.253,9.253,0,0,1-5.906-8.626Z" transform="translate(-35.77 -43.582)" fill="#ffe177"/>
        <g id="Grupo_1102221" data-name="Grupo 1102221" transform="translate(0 4.611)">
          <path id="Trazado_880633" data-name="Trazado 880633" d="M41.473,61.446A13.256,13.256,0,0,1,51.873,48.5a13.252,13.252,0,1,0,0,25.886A13.256,13.256,0,0,1,41.473,61.446Z" transform="translate(-35.769 -48.194)" fill="#ffd15b"/>
        </g>
        <g id="Grupo_1102222" data-name="Grupo 1102222" transform="translate(7.1 34.806)">
          <path id="Trazado_880634" data-name="Trazado 880634" d="M109.6,320.243H99.562a1.133,1.133,0,0,1-1.133-1.133v-3.325a1.133,1.133,0,0,1,1.133-1.133H109.6a1.133,1.133,0,0,1,1.133,1.133v3.325A1.133,1.133,0,0,1,109.6,320.243Z" transform="translate(-98.429 -314.651)" fill="#eaf9fa"/>
        </g>
        <path id="Trazado_880635" data-name="Trazado 880635" d="M102.234,319.109v-3.325a1.133,1.133,0,0,1,1.133-1.133h-3.8a1.133,1.133,0,0,0-1.133,1.133v3.325a1.133,1.133,0,0,0,1.133,1.133h3.8A1.133,1.133,0,0,1,102.234,319.109Z" transform="translate(-91.329 -279.845)" fill="#d4f2f6"/>
        <g id="Grupo_1102223" data-name="Grupo 1102223" transform="translate(23.95 30.356)">
          <path id="Trazado_880636" data-name="Trazado 880636" d="M269.365,288.957a3.979,3.979,0,0,1-2.535-.69.341.341,0,0,0-.538.276v5.449a.567.567,0,0,1-.567.567h-5.449a.341.341,0,0,0-.276.538,3.994,3.994,0,1,1-6.582-.01.339.339,0,0,0-.283-.528h-5.449a.567.567,0,0,1-.567-.567v-4.279a.563.563,0,0,1,.61-.565,4.081,4.081,0,0,0,.636.011,3.994,3.994,0,0,0-.248-7.981q-.188,0-.372.017a.568.568,0,0,1-.626-.563v-4.679a.567.567,0,0,1,.567-.567h4.462a.564.564,0,0,1,.566.579c0,.04,0,.08,0,.12a3.994,3.994,0,1,0,7.988,0q0-.06,0-.12a.564.564,0,0,1,.566-.579h4.462a.567.567,0,0,1,.567.567V281.4a.339.339,0,0,0,.528.283,3.994,3.994,0,1,1,2.545,7.273Z" transform="translate(-247.12 -275.386)" fill="#fe9738"/>
        </g>
        <g id="Grupo_1102224" data-name="Grupo 1102224" transform="translate(23.95 30.356)">
          <path id="Trazado_880637" data-name="Trazado 880637" d="M269.365,288.957a3.979,3.979,0,0,1-2.535-.69.341.341,0,0,0-.538.276v5.449a.567.567,0,0,1-.567.567h-5.449a.341.341,0,0,0-.276.538,3.994,3.994,0,1,1-6.582-.01.339.339,0,0,0-.283-.528h-5.449a.567.567,0,0,1-.567-.567v-4.279a.563.563,0,0,1,.61-.565,4.081,4.081,0,0,0,.636.011,3.994,3.994,0,0,0-.248-7.981q-.188,0-.372.017a.568.568,0,0,1-.626-.563v-4.679a.567.567,0,0,1,.567-.567h4.462a.564.564,0,0,1,.566.579c0,.04,0,.08,0,.12a3.994,3.994,0,1,0,7.988,0q0-.06,0-.12a.564.564,0,0,1,.566-.579h4.462a.567.567,0,0,1,.567.567V281.4a.339.339,0,0,0,.528.283,3.994,3.994,0,1,1,2.545,7.273Z" transform="translate(-247.12 -275.386)" fill="#aee6e6"/>
        </g>
        <g id="Grupo_1102227" data-name="Grupo 1102227" transform="translate(23.95 30.356)">
          <g id="Grupo_1102225" data-name="Grupo 1102225" transform="translate(0)">
            <path id="Trazado_880638" data-name="Trazado 880638" d="M247.744,281.2q.184-.017.372-.017a3.985,3.985,0,0,1,3.055,1.421v-6.646a.567.567,0,0,1,.566-.567h-4.053a.567.567,0,0,0-.567.567v4.679A.568.568,0,0,0,247.744,281.2Z" transform="translate(-247.118 -275.388)" fill="#aee6e6"/>
          </g>
          <g id="Grupo_1102226" data-name="Grupo 1102226" transform="translate(0 12.353)">
            <path id="Trazado_880639" data-name="Trazado 880639" d="M251.171,390.651V384.4a3.991,3.991,0,0,1-2.807,1.42,4.067,4.067,0,0,1-.636-.011.563.563,0,0,0-.61.565v4.279a.567.567,0,0,0,.567.567h4.053A.566.566,0,0,1,251.171,390.651Z" transform="translate(-247.118 -384.398)" fill="#aee6e6"/>
          </g>
        </g>
        <g id="Grupo_1102230" data-name="Grupo 1102230" transform="translate(20.597)">
          <g id="Grupo_1102228" data-name="Grupo 1102228">
            <circle id="Elipse_12022" data-name="Elipse 12022" cx="9.252" cy="9.252" r="9.252" fill="#7d6eb2"/>
          </g>
          <g id="Grupo_1102229" data-name="Grupo 1102229" transform="translate(0 0)">
            <path id="Trazado_880640" data-name="Trazado 880640" d="M222.315,16.752a9.255,9.255,0,0,1,6.863-8.939,9.252,9.252,0,1,0,0,17.878A9.255,9.255,0,0,1,222.315,16.752Z" transform="translate(-217.536 -7.5)" fill="#62529b"/>
          </g>
        </g>
      </g>
      <g id="Grupo_1102232" data-name="Grupo 1102232" transform="translate(28.27 0)">
        <path id="Trazado_880641" data-name="Trazado 880641" d="M265.978,275.018a4.848,4.848,0,0,0-5.488-1.132V269.3a1.418,1.418,0,0,0-1.416-1.416h-4.462a1.425,1.425,0,0,0-1.018.431,1.4,1.4,0,0,0-.4,1.025c0,.031,0,.062,0,.094a3.144,3.144,0,1,1-6.289,0c0-.031,0-.063,0-.094a1.4,1.4,0,0,0-.4-1.025,1.425,1.425,0,0,0-1.018-.43h-4.462a1.418,1.418,0,0,0-1.416,1.416v4.679a1.415,1.415,0,0,0,.461,1.044,1.431,1.431,0,0,0,1.093.365c.1-.009.2-.013.294-.013a3.144,3.144,0,0,1,.2,6.283,3.234,3.234,0,0,1-.5-.009,1.4,1.4,0,0,0-1.076.359,1.424,1.424,0,0,0-.466,1.052v4.279a1.418,1.418,0,0,0,1.416,1.417h4.582a4.845,4.845,0,0,0,4.432,6.79c.115,0,.23,0,.346-.012a4.847,4.847,0,0,0,4.1-6.778h4.582a1.418,1.418,0,0,0,1.416-1.416v-4.582a4.845,4.845,0,0,0,5.487-7.743Zm-.4,3.529a3.147,3.147,0,0,1-2.916,2.912h0a3.118,3.118,0,0,1-2-.543,1.191,1.191,0,0,0-1.869.977v5.166h-5.166a1.19,1.19,0,0,0-.976,1.869,3.144,3.144,0,1,1-5.183-.008,1.189,1.189,0,0,0-.982-1.862h-5.166v-3.695c.149,0,.3,0,.447-.007a4.844,4.844,0,0,0-.447-9.677v-4.094h3.894a4.844,4.844,0,0,0,9.684,0h3.894v5.166a1.189,1.189,0,0,0,1.861.982,3.144,3.144,0,0,1,4.921,2.813Z" transform="translate(-215.669 -237.531)"/>
        <path id="Trazado_880642" data-name="Trazado 880642" d="M47.926,34.881l1.44-3.918a14.141,14.141,0,0,0,4.014-3.438.85.85,0,1,0-1.326-1.063,12.355,12.355,0,0,1-6.82,4.321V23.757H46.9a3.366,3.366,0,1,0-3.366-3.366v1.666H41.209V20.39a3.366,3.366,0,1,0-3.366,3.366h1.666v7.024A12.4,12.4,0,1,1,49.036,8.259a10.1,10.1,0,0,0,5.724,11.025,12.317,12.317,0,0,1-.84,3.958.85.85,0,0,0,1.582.621,13.991,13.991,0,0,0,.922-3.984,10.115,10.115,0,0,0,5.413-.091v4.794a1.539,1.539,0,0,0,1.537,1.537h8.937a1.539,1.539,0,0,0,1.537-1.537V21.87a.85.85,0,1,0-1.7,0v2.55H63.537V19.109a10.174,10.174,0,0,0,3.763-3.3H72.15v2.1a.85.85,0,1,0,1.7,0V15.645a1.539,1.539,0,0,0-1.537-1.537h-4.07A10.1,10.1,0,1,0,49.51,6.557a14.1,14.1,0,1,0-14.137,24.4l1.444,3.929a1.985,1.985,0,0,0-1.447,1.907v3.325a1.984,1.984,0,0,0,1.7,1.96v2.073a1.418,1.418,0,0,0,1.416,1.416h.008v.805a2.553,2.553,0,0,0,2.55,2.55H43.7a2.553,2.553,0,0,0,2.55-2.55v-.805h.008a1.418,1.418,0,0,0,1.416-1.416V42.074a1.985,1.985,0,0,0,1.7-1.96V36.789a1.985,1.985,0,0,0-1.447-1.907ZM45.235,20.391A1.666,1.666,0,1,1,46.9,22.057H45.235ZM58.969,1.7a8.4,8.4,0,1,1-8.4,8.4A8.412,8.412,0,0,1,58.969,1.7ZM45.235,32.524a14.022,14.022,0,0,0,1.95-.55l-1.041,2.832h-.909Zm-4.026-8.767h2.326v7.3c-.384.036-.772.055-1.163.055s-.78-.019-1.163-.055v-7.3Zm0,9.01c.384.032.771.048,1.163.048s.778-.016,1.163-.048v2.038H41.209Zm-3.366-10.71a1.666,1.666,0,1,1,1.666-1.666v1.666Zm1.666,10.466v2.283H38.6l-1.043-2.837A13.978,13.978,0,0,0,39.509,32.523Zm5.04,13.846a.851.851,0,0,1-.85.85H41.044a.851.851,0,0,1-.85-.85v-.805h4.355Zm3.124-6.255a.284.284,0,0,1-.283.283H44.784a.85.85,0,0,0,0,1.7h1.19v1.767h-7.2V42.1h2.048a.85.85,0,1,0,0-1.7H37.354a.284.284,0,0,1-.283-.283V36.789a.284.284,0,0,1,.283-.283H47.39a.284.284,0,0,1,.283.283Z" transform="translate(-28.27 0)"/>
        <path id="Trazado_880643" data-name="Trazado 880643" d="M254.339,66.555a.85.85,0,0,0,.639.3h.011a.849.849,0,0,0,.636-.286l5.568-6.281a.85.85,0,0,0-1.272-1.128l-4.915,5.545-3.169-3.763a.85.85,0,0,0-1.3,1.095Z" transform="translate(-225.173 -52.205)"/>
      </g>
    </g>
  </g>
</svg>
