<svg xmlns="http://www.w3.org/2000/svg" width="245" height="59.184" viewBox="0 0 245 59.184">
  <g id="Grupo_1102061" data-name="Grupo 1102061" transform="translate(-180 -12927.839)">
    <path id="Trazado_880187" data-name="Trazado 880187" d="M0,0H176a41,41,0,0,1,41,41v1H0Z" transform="translate(208 12937.687)" fill="#aee6e6"/>
    <text id="Indicadores_" data-name="Indicadores " transform="translate(267 12965.366)" fill="#12263f" font-size="20" font-family="Roboto-Black, Roboto" font-weight="800"><tspan x="0" y="0">Indicadores </tspan></text>
    <g id="Grupo_1100170" data-name="Grupo 1100170" transform="translate(0 9177.686)">
      <path id="_12068" data-name="12068" d="M66.039,71.828c-6.861-.947-14.108-.716-20.351,2.283C37.03,78.27,31.344,87.7,31.126,97.3s4.784,19.038,12.512,24.741a35.81,35.81,0,0,0,27.37,6.013c9.53-1.727,18.474-7.326,23.445-15.638,3.187-5.33,4.677-11.911,2.916-17.867a24.409,24.409,0,0,0-5.793-9.521A42.8,42.8,0,0,0,66.039,71.828Z" transform="translate(148.881 3680.691)" fill="#26aab7"/>
      <path id="Trazado_873155" data-name="Trazado 873155" d="M303.26,44.546a1.582,1.582,0,1,0-.106-2.456A1.573,1.573,0,0,0,303.26,44.546Z" transform="translate(138.287 4055.916) rotate(-90)" fill="#7d6eb2"/>
      <path id="Trazado_873156" data-name="Trazado 873156" d="M321.56,66.974a3.448,3.448,0,1,0-1.687-4.918A3.468,3.468,0,0,0,321.56,66.974Z" transform="translate(128.241 4079.581) rotate(-90)" fill="#ffd947"/>
      <circle id="Elipse_11521" data-name="Elipse 11521" cx="3.689" cy="3.689" r="3.689" transform="translate(237.702 3796.368) rotate(-90)" fill="none" stroke="#fff" stroke-linecap="round" stroke-linejoin="round" stroke-width="1.5"/>
    </g>
    <g id="Grupo_1102266" data-name="Grupo 1102266" transform="translate(189.4 12927.74)">
      <g id="Grupo_1102265" data-name="Grupo 1102265" transform="translate(1.78 4.524)">
        <g id="Grupo_1102263" data-name="Grupo 1102263" transform="translate(0 0)">
          <path id="Trazado_880716" data-name="Trazado 880716" d="M21.372,36A11.874,11.874,0,1,0,9.5,24.127,11.9,11.9,0,0,0,21.372,36Z" transform="translate(-9.498 -12.253)" fill="#7d6eb2" fill-rule="evenodd"/>
          <path id="Trazado_880717" data-name="Trazado 880717" d="M74.014,83.751a1.458,1.458,0,0,1,2.061,2.061l-7.963,7.963a1.458,1.458,0,0,1-2.227-.2l-3.25-4.09a1.455,1.455,0,1,1,2.278-1.811L67.2,90.56Z" transform="translate(-57.536 -76.889)" fill="#fff" fill-rule="evenodd"/>
        </g>
        <g id="Grupo_1102264" data-name="Grupo 1102264" transform="translate(0 19.309)">
          <path id="Trazado_880718" data-name="Trazado 880718" d="M31.819,232.92a14.906,14.906,0,0,1,14.906,14.906h7.414a22.319,22.319,0,1,0-44.639,0h7.414A14.906,14.906,0,0,1,31.819,232.92Z" transform="translate(-9.5 -225.506)" fill="#f6f6f6" fill-rule="evenodd"/>
          <path id="Trazado_880719" data-name="Trazado 880719" d="M48.835,259.673a22.431,22.431,0,0,0-6.344,6.991l6.422,3.707a14.98,14.98,0,0,1,5.457-5.457l-2.869-4.97-.838-1.452q-.944.546-1.827,1.179Z" transform="translate(-39.504 -255.507)" fill="#d3d3d3" fill-rule="evenodd"/>
          <path id="Trazado_880720" data-name="Trazado 880720" d="M133.567,229.945l2.869,4.97a14.836,14.836,0,0,1,7.454-1.995v-7.414q-.61,0-1.213.032a22.19,22.19,0,0,0-9.949,2.955Z" transform="translate(-121.571 -225.506)" fill="#aee6e6" fill-rule="evenodd"/>
          <path id="Trazado_880721" data-name="Trazado 880721" d="M256,225.506v7.414a14.836,14.836,0,0,1,7.454,1.995l3.708-6.422A22.217,22.217,0,0,0,256,225.506Z" transform="translate(-233.681 -225.506)" fill="#26aab7" fill-rule="evenodd"/>
          <path id="Trazado_880722" data-name="Trazado 880722" d="M342.031,258.494l-3.708,6.422a14.979,14.979,0,0,1,5.457,5.457l6.422-3.707A22.43,22.43,0,0,0,342.031,258.494Z" transform="translate(-308.55 -255.507)" fill="#7d6eb2" fill-rule="evenodd"/>
          <path id="Trazado_880723" data-name="Trazado 880723" d="M405.01,348.734l-6.422,3.707a14.838,14.838,0,0,1,1.995,7.454H408A22.216,22.216,0,0,0,405.01,348.734Z" transform="translate(-363.358 -337.576)" fill="#62529b" fill-rule="evenodd"/>
          <path id="Trazado_880724" data-name="Trazado 880724" d="M249.573,394.578a1.183,1.183,0,0,1,1.672,1.672l-5.817,5.817a1.183,1.183,0,1,1-1.672-1.673Z" transform="translate(-222.23 -378.955)" fill="#fff" fill-rule="evenodd"/>
          <path id="Trazado_880725" data-name="Trazado 880725" d="M230.772,449.289a2.512,2.512,0,1,0-2.512-2.512A2.516,2.516,0,0,0,230.772,449.289Z" transform="translate(-208.452 -424.458)" fill="#4d5c7d" fill-rule="evenodd"/>
        </g>
      </g>
      <path id="Trazado_880726" data-name="Trazado 880726" d="M30.252,40.584l-3.562,3.559a3.1,3.1,0,0,0-.585-.584L29.667,40a.415.415,0,0,1,.585,0A.419.419,0,0,1,30.252,40.584Zm16.936,5.609v-.228a23.087,23.087,0,0,0-22.8-22.9,12.64,12.64,0,1,0-14.96,5.251q-.858.709-1.661,1.507a22.942,22.942,0,0,0-6.76,16.328.768.768,0,0,0,.769.77H9.194a.771.771,0,0,0,.769-.77,14.135,14.135,0,1,1,28.271,0,.772.772,0,0,0,.773.77H46.42A.771.771,0,0,0,47.188,46.194Zm-23.09,1.7a1.742,1.742,0,1,1,1.742-1.742A1.744,1.744,0,0,1,24.1,47.894Zm4.48-8.982-3.993,3.994a3.426,3.426,0,0,0-.487-.035,3.281,3.281,0,1,0,3.284,3.282,3.02,3.02,0,0,0-.038-.485l4-3.995a1.953,1.953,0,1,0-2.763-2.76Zm11.18,6.47a15.657,15.657,0,0,0-1.717-6.392l5.09-2.938a21.44,21.44,0,0,1,2.5,9.33Zm-7.166-12.4,2.938-5.091a21.713,21.713,0,0,1,6.828,6.83l-5.09,2.938A15.771,15.771,0,0,0,32.593,32.982ZM10.928,37.659l-5.09-2.938a21.755,21.755,0,0,1,6.829-6.83l2.942,5.091a15.84,15.84,0,0,0-4.681,4.677ZM8.443,45.382H2.562a21.384,21.384,0,0,1,2.507-9.33l5.091,2.939A15.514,15.514,0,0,0,8.443,45.382ZM2.549,16.4a11.105,11.105,0,1,1,19.943,6.72,22.863,22.863,0,0,0-11.543,4.05A11.164,11.164,0,0,1,2.549,16.4Zm22.318,8.219a21.412,21.412,0,0,1,9.331,2.5L31.26,32.211A15.589,15.589,0,0,0,24.867,30.5V24.617Zm-1.537,0V30.5a15.589,15.589,0,0,0-6.393,1.716L14,27.119a21.4,21.4,0,0,1,9.331-2.5ZM19.777,12.9l-7.964,7.963a.69.69,0,0,1-.487.2.675.675,0,0,1-.564-.3.217.217,0,0,1-.03-.038l-3.25-4.091a.685.685,0,0,1,.534-1.111.69.69,0,0,1,.538.258l2.293,2.885a.768.768,0,0,0,1.144.065l6.812-6.81a.68.68,0,0,1,.482-.2.687.687,0,0,1,.491,1.174Zm1.085-2.061a2.225,2.225,0,0,1,0,3.15L12.9,21.954a2.228,2.228,0,0,1-3.387-.28L6.278,17.6a2.225,2.225,0,0,1,.354-3.126,2.237,2.237,0,0,1,1.384-.483,2.211,2.211,0,0,1,1.742.84l1.755,2.208,6.2-6.2a2.225,2.225,0,0,1,3.147,0Z" transform="translate(0)" fill-rule="evenodd"/>
    </g>
  </g>
</svg>
